G04 #@! TF.GenerationSoftware,KiCad,Pcbnew,(6.0.5)*
G04 #@! TF.CreationDate,2022-05-08T01:15:56+03:00*
G04 #@! TF.ProjectId,SIN-PAD,53494e2d-5041-4442-9e6b-696361645f70,rev?*
G04 #@! TF.SameCoordinates,Original*
G04 #@! TF.FileFunction,Copper,L2,Bot*
G04 #@! TF.FilePolarity,Positive*
%FSLAX46Y46*%
G04 Gerber Fmt 4.6, Leading zero omitted, Abs format (unit mm)*
G04 Created by KiCad (PCBNEW (6.0.5)) date 2022-05-08 01:15:56*
%MOMM*%
%LPD*%
G01*
G04 APERTURE LIST*
G04 Aperture macros list*
%AMRoundRect*
0 Rectangle with rounded corners*
0 $1 Rounding radius*
0 $2 $3 $4 $5 $6 $7 $8 $9 X,Y pos of 4 corners*
0 Add a 4 corners polygon primitive as box body*
4,1,4,$2,$3,$4,$5,$6,$7,$8,$9,$2,$3,0*
0 Add four circle primitives for the rounded corners*
1,1,$1+$1,$2,$3*
1,1,$1+$1,$4,$5*
1,1,$1+$1,$6,$7*
1,1,$1+$1,$8,$9*
0 Add four rect primitives between the rounded corners*
20,1,$1+$1,$2,$3,$4,$5,0*
20,1,$1+$1,$4,$5,$6,$7,0*
20,1,$1+$1,$6,$7,$8,$9,0*
20,1,$1+$1,$8,$9,$2,$3,0*%
G04 Aperture macros list end*
G04 #@! TA.AperFunction,SMDPad,CuDef*
%ADD10R,1.600000X1.200000*%
G04 #@! TD*
G04 #@! TA.AperFunction,SMDPad,CuDef*
%ADD11R,2.900000X0.500000*%
G04 #@! TD*
G04 #@! TA.AperFunction,ComponentPad*
%ADD12R,1.600000X1.600000*%
G04 #@! TD*
G04 #@! TA.AperFunction,ComponentPad*
%ADD13C,1.600000*%
G04 #@! TD*
G04 #@! TA.AperFunction,SMDPad,CuDef*
%ADD14R,1.200000X1.600000*%
G04 #@! TD*
G04 #@! TA.AperFunction,SMDPad,CuDef*
%ADD15R,0.500000X2.900000*%
G04 #@! TD*
G04 #@! TA.AperFunction,ComponentPad*
%ADD16C,2.250000*%
G04 #@! TD*
G04 #@! TA.AperFunction,ComponentPad*
%ADD17RoundRect,0.250001X-0.899999X-0.899999X0.899999X-0.899999X0.899999X0.899999X-0.899999X0.899999X0*%
G04 #@! TD*
G04 #@! TA.AperFunction,ComponentPad*
%ADD18R,1.752600X1.752600*%
G04 #@! TD*
G04 #@! TA.AperFunction,ComponentPad*
%ADD19C,1.752600*%
G04 #@! TD*
G04 #@! TA.AperFunction,ComponentPad*
%ADD20RoundRect,0.250001X0.899999X0.899999X-0.899999X0.899999X-0.899999X-0.899999X0.899999X-0.899999X0*%
G04 #@! TD*
G04 #@! TA.AperFunction,Conductor*
%ADD21C,0.250000*%
G04 #@! TD*
G04 APERTURE END LIST*
D10*
X103375000Y-66675000D03*
D11*
X102275000Y-66675000D03*
D12*
X100875000Y-66675000D03*
D13*
X108675000Y-66675000D03*
D11*
X107275000Y-66675000D03*
D10*
X106175000Y-66675000D03*
D14*
X103584375Y-37118750D03*
D15*
X103584375Y-38218750D03*
D12*
X103584375Y-39618750D03*
D15*
X103584375Y-33218750D03*
D13*
X103584375Y-31818750D03*
D14*
X103584375Y-34318750D03*
D12*
X110190625Y-45243750D03*
D10*
X112690625Y-45243750D03*
D11*
X111590625Y-45243750D03*
D13*
X117990625Y-45243750D03*
D11*
X116590625Y-45243750D03*
D10*
X115490625Y-45243750D03*
D15*
X103584375Y-57268750D03*
D14*
X103584375Y-56168750D03*
D12*
X103584375Y-58668750D03*
D13*
X103584375Y-50868750D03*
D14*
X103584375Y-53368750D03*
D15*
X103584375Y-52268750D03*
D11*
X111800000Y-64293750D03*
D12*
X110400000Y-64293750D03*
D10*
X112900000Y-64293750D03*
D11*
X116800000Y-64293750D03*
D13*
X118200000Y-64293750D03*
D10*
X115700000Y-64293750D03*
D14*
X59531250Y-79981250D03*
D15*
X59531250Y-81081250D03*
D12*
X59531250Y-82481250D03*
D15*
X59531250Y-76081250D03*
D14*
X59531250Y-77181250D03*
D13*
X59531250Y-74681250D03*
D15*
X78581250Y-81081250D03*
D12*
X78581250Y-82481250D03*
D14*
X78581250Y-79981250D03*
D13*
X78581250Y-74681250D03*
D15*
X78581250Y-76081250D03*
D14*
X78581250Y-77181250D03*
D12*
X97631250Y-82481250D03*
D14*
X97631250Y-79981250D03*
D15*
X97631250Y-81081250D03*
X97631250Y-76081250D03*
D13*
X97631250Y-74681250D03*
D14*
X97631250Y-77181250D03*
D12*
X102393750Y-92006250D03*
D14*
X102393750Y-89506250D03*
D15*
X102393750Y-90606250D03*
D13*
X102393750Y-84206250D03*
D14*
X102393750Y-86706250D03*
D15*
X102393750Y-85606250D03*
X59531250Y-100131250D03*
D14*
X59531250Y-99031250D03*
D12*
X59531250Y-101531250D03*
D15*
X59531250Y-95131250D03*
D13*
X59531250Y-93731250D03*
D14*
X59531250Y-96231250D03*
D15*
X78581250Y-100131250D03*
D12*
X78581250Y-101531250D03*
D14*
X78581250Y-99031250D03*
D15*
X78581250Y-95131250D03*
D14*
X78581250Y-96231250D03*
D13*
X78581250Y-93731250D03*
D14*
X97631250Y-99031250D03*
D15*
X97631250Y-100131250D03*
D12*
X97631250Y-101531250D03*
D15*
X97631250Y-95131250D03*
D14*
X97631250Y-96231250D03*
D13*
X97631250Y-93731250D03*
D15*
X59531250Y-119181250D03*
D12*
X59531250Y-120581250D03*
D14*
X59531250Y-118081250D03*
D15*
X59531250Y-114181250D03*
D13*
X59531250Y-112781250D03*
D14*
X59531250Y-115281250D03*
D12*
X78581250Y-120581250D03*
D14*
X78581250Y-118081250D03*
D15*
X78581250Y-119181250D03*
D13*
X78581250Y-112781250D03*
D14*
X78581250Y-115281250D03*
D15*
X78581250Y-114181250D03*
D14*
X97631250Y-118081250D03*
D15*
X97631250Y-119181250D03*
D12*
X97631250Y-120581250D03*
D15*
X97631250Y-114181250D03*
D13*
X97631250Y-112781250D03*
D14*
X97631250Y-115281250D03*
X102393750Y-118081250D03*
D12*
X102393750Y-120581250D03*
D15*
X102393750Y-119181250D03*
X102393750Y-114181250D03*
D13*
X102393750Y-112781250D03*
D14*
X102393750Y-115281250D03*
D12*
X59531250Y-139631250D03*
D14*
X59531250Y-137131250D03*
D15*
X59531250Y-138231250D03*
D13*
X59531250Y-131831250D03*
D15*
X59531250Y-133231250D03*
D14*
X59531250Y-134331250D03*
D15*
X78581250Y-138231250D03*
D12*
X78581250Y-139631250D03*
D14*
X78581250Y-137131250D03*
D15*
X78581250Y-133231250D03*
D14*
X78581250Y-134331250D03*
D13*
X78581250Y-131831250D03*
D12*
X97631250Y-139631250D03*
D14*
X97631250Y-137131250D03*
D15*
X97631250Y-138231250D03*
D13*
X97631250Y-131831250D03*
D14*
X97631250Y-134331250D03*
D15*
X97631250Y-133231250D03*
D14*
X102393750Y-137131250D03*
D12*
X102393750Y-139631250D03*
D15*
X102393750Y-138231250D03*
X102393750Y-133231250D03*
D14*
X102393750Y-134331250D03*
D13*
X102393750Y-131831250D03*
D16*
X89058750Y-33178750D03*
X95408750Y-30638750D03*
X108108750Y-33178750D03*
X114458750Y-30638750D03*
X89058750Y-52228750D03*
X95408750Y-49688750D03*
X46196250Y-76041250D03*
X52546250Y-73501250D03*
X65246250Y-76041250D03*
X71596250Y-73501250D03*
X84296250Y-76041250D03*
X90646250Y-73501250D03*
X114458750Y-84296250D03*
X116998750Y-90646250D03*
X46196250Y-95091250D03*
X52546250Y-92551250D03*
X65246250Y-95091250D03*
X71596250Y-92551250D03*
X84296250Y-95091250D03*
X90646250Y-92551250D03*
X46196250Y-114141250D03*
X52546250Y-111601250D03*
X65246250Y-114141250D03*
X71596250Y-111601250D03*
X84296250Y-114141250D03*
X90646250Y-111601250D03*
X108108750Y-114141250D03*
X114458750Y-111601250D03*
X46196250Y-133191250D03*
X52546250Y-130651250D03*
X65246250Y-133191250D03*
X71596250Y-130651250D03*
X84190000Y-133191250D03*
X90540000Y-130651250D03*
X108108750Y-133191250D03*
X114458750Y-130651250D03*
X108108750Y-52228750D03*
X114458750Y-49688750D03*
D17*
X117871875Y-70246875D03*
D18*
X85248750Y-28892500D03*
D19*
X85248750Y-31432500D03*
X85248750Y-33972500D03*
X85248750Y-36512500D03*
X85248750Y-39052500D03*
X85248750Y-41592500D03*
X85248750Y-44132500D03*
X85248750Y-46672500D03*
X85248750Y-49212500D03*
X85248750Y-51752500D03*
X85248750Y-54292500D03*
X85248750Y-56832500D03*
X100488750Y-56832500D03*
X100488750Y-54292500D03*
X100488750Y-51752500D03*
X100488750Y-49212500D03*
X100488750Y-46672500D03*
X100488750Y-44132500D03*
X100488750Y-41592500D03*
X100488750Y-39052500D03*
X100488750Y-36512500D03*
X100488750Y-33972500D03*
X100488750Y-31432500D03*
X100488750Y-28892500D03*
D20*
X113109375Y-70246875D03*
D21*
X110728125Y-66675000D02*
X108675000Y-66675000D01*
X114300000Y-70246875D02*
X110728125Y-66675000D01*
X108182812Y-45243750D02*
X110190625Y-45243750D01*
X100488750Y-39052500D02*
X102217327Y-39052500D01*
X103584375Y-39618750D02*
X103584375Y-40645313D01*
X103584375Y-40645313D02*
X108182812Y-45243750D01*
X103584362Y-39618763D02*
G75*
G03*
X102217327Y-39052500I-1367062J-1367037D01*
G01*
X101997314Y-30231689D02*
X103584375Y-31818750D01*
X95408750Y-30638750D02*
X95815811Y-30231689D01*
X95815811Y-30231689D02*
X101997314Y-30231689D01*
X116363750Y-30638750D02*
X119073125Y-33348125D01*
X119073125Y-44161250D02*
X117990625Y-45243750D01*
X119073125Y-33348125D02*
X119073125Y-44161250D01*
X114458750Y-30638750D02*
X116363750Y-30638750D01*
X96133311Y-50413311D02*
X103128936Y-50413311D01*
X95408750Y-49688750D02*
X96133311Y-50413311D01*
X103128936Y-50413311D02*
X103584375Y-50868750D01*
X109209375Y-64293750D02*
X110400000Y-64293750D01*
X103584375Y-58668750D02*
X103584375Y-58340625D01*
X103584375Y-58668750D02*
X109209375Y-64293750D01*
X104708886Y-57544239D02*
X104708886Y-45812636D01*
X104708886Y-45812636D02*
X100488750Y-41592500D01*
X103584375Y-58668750D02*
X104708886Y-57544239D01*
X117655000Y-49688750D02*
X119062500Y-51096250D01*
X119062500Y-51096250D02*
X119062500Y-63431250D01*
X119062500Y-63431250D02*
X118200000Y-64293750D01*
X114458750Y-49688750D02*
X117655000Y-49688750D01*
X58351250Y-73501250D02*
X59531250Y-74681250D01*
X52546250Y-73501250D02*
X58351250Y-73501250D01*
X97631250Y-82481250D02*
X100875000Y-79237500D01*
X59531250Y-82481250D02*
X78581250Y-82481250D01*
X100875000Y-79237500D02*
X100875000Y-66675000D01*
X100875000Y-66675000D02*
X100875000Y-57218750D01*
X100875000Y-57218750D02*
X100488750Y-56832500D01*
X78581250Y-82481250D02*
X97631250Y-82481250D01*
X77401250Y-73501250D02*
X78581250Y-74681250D01*
X71596250Y-73501250D02*
X77401250Y-73501250D01*
X90646250Y-73501250D02*
X96451250Y-73501250D01*
X96451250Y-73501250D02*
X97631250Y-74681250D01*
X102393750Y-84206250D02*
X108833750Y-90646250D01*
X103256250Y-84206250D02*
X102393750Y-84206250D01*
X108833750Y-90646250D02*
X116998750Y-90646250D01*
X102393750Y-96768750D02*
X102393750Y-92006250D01*
X78581250Y-101531250D02*
X97631250Y-101531250D01*
X97631250Y-101531250D02*
X102393750Y-96768750D01*
X59531250Y-101531250D02*
X78581250Y-101531250D01*
X58351250Y-92551250D02*
X59531250Y-93731250D01*
X52546250Y-92551250D02*
X58351250Y-92551250D01*
X77401250Y-92551250D02*
X78581250Y-93731250D01*
X71596250Y-92551250D02*
X77401250Y-92551250D01*
X90646250Y-92551250D02*
X96451250Y-92551250D01*
X96451250Y-92551250D02*
X97631250Y-93731250D01*
X52546250Y-111601250D02*
X58351250Y-111601250D01*
X58351250Y-111601250D02*
X59531250Y-112781250D01*
X59531250Y-120581250D02*
X78581250Y-120581250D01*
X78581250Y-120581250D02*
X97631250Y-120581250D01*
X97631250Y-120581250D02*
X102393750Y-120581250D01*
X77401250Y-111601250D02*
X78581250Y-112781250D01*
X71596250Y-111601250D02*
X77401250Y-111601250D01*
X96451250Y-111601250D02*
X97631250Y-112781250D01*
X90646250Y-111601250D02*
X96451250Y-111601250D01*
X114458750Y-111601250D02*
X103573750Y-111601250D01*
X103573750Y-111601250D02*
X102393750Y-112781250D01*
X58351250Y-130651250D02*
X59531250Y-131831250D01*
X52546250Y-130651250D02*
X58351250Y-130651250D01*
X59531250Y-139631250D02*
X78581250Y-139631250D01*
X78581250Y-139631250D02*
X97631250Y-139631250D01*
X97631250Y-139631250D02*
X102393750Y-139631250D01*
X71596250Y-130651250D02*
X77401250Y-130651250D01*
X77401250Y-130651250D02*
X78581250Y-131831250D01*
X96451250Y-130651250D02*
X97631250Y-131831250D01*
X90646250Y-130651250D02*
X96451250Y-130651250D01*
X103573750Y-130651250D02*
X102393750Y-131831250D01*
X114458750Y-130651250D02*
X103573750Y-130651250D01*
M02*
