G04 #@! TF.GenerationSoftware,KiCad,Pcbnew,(6.0.5)*
G04 #@! TF.CreationDate,2022-05-08T01:15:56+03:00*
G04 #@! TF.ProjectId,SIN-PAD,53494e2d-5041-4442-9e6b-696361645f70,rev?*
G04 #@! TF.SameCoordinates,Original*
G04 #@! TF.FileFunction,Legend,Bot*
G04 #@! TF.FilePolarity,Positive*
%FSLAX46Y46*%
G04 Gerber Fmt 4.6, Leading zero omitted, Abs format (unit mm)*
G04 Created by KiCad (PCBNEW (6.0.5)) date 2022-05-08 01:15:56*
%MOMM*%
%LPD*%
G01*
G04 APERTURE LIST*
G04 Aperture macros list*
%AMRoundRect*
0 Rectangle with rounded corners*
0 $1 Rounding radius*
0 $2 $3 $4 $5 $6 $7 $8 $9 X,Y pos of 4 corners*
0 Add a 4 corners polygon primitive as box body*
4,1,4,$2,$3,$4,$5,$6,$7,$8,$9,$2,$3,0*
0 Add four circle primitives for the rounded corners*
1,1,$1+$1,$2,$3*
1,1,$1+$1,$4,$5*
1,1,$1+$1,$6,$7*
1,1,$1+$1,$8,$9*
0 Add four rect primitives between the rounded corners*
20,1,$1+$1,$2,$3,$4,$5,0*
20,1,$1+$1,$4,$5,$6,$7,0*
20,1,$1+$1,$6,$7,$8,$9,0*
20,1,$1+$1,$8,$9,$2,$3,0*%
G04 Aperture macros list end*
%ADD10C,0.150000*%
%ADD11C,0.300000*%
%ADD12C,0.381000*%
%ADD13R,1.752600X1.752600*%
%ADD14C,1.752600*%
%ADD15R,1.600000X1.200000*%
%ADD16R,1.600000X1.600000*%
%ADD17C,1.600000*%
%ADD18R,1.200000X1.600000*%
%ADD19C,3.987800*%
%ADD20C,1.750000*%
%ADD21C,2.250000*%
%ADD22C,3.048000*%
%ADD23RoundRect,0.250001X-0.899999X-0.899999X0.899999X-0.899999X0.899999X0.899999X-0.899999X0.899999X0*%
%ADD24RoundRect,0.250001X0.899999X0.899999X-0.899999X0.899999X-0.899999X-0.899999X0.899999X-0.899999X0*%
G04 APERTURE END LIST*
D10*
X105390876Y-65636904D02*
X105390876Y-64836904D01*
X105200400Y-64836904D01*
X105086114Y-64875000D01*
X105009923Y-64951190D01*
X104971828Y-65027380D01*
X104933733Y-65179761D01*
X104933733Y-65294047D01*
X104971828Y-65446428D01*
X105009923Y-65522619D01*
X105086114Y-65598809D01*
X105200400Y-65636904D01*
X105390876Y-65636904D01*
X104171828Y-65636904D02*
X104628971Y-65636904D01*
X104400400Y-65636904D02*
X104400400Y-64836904D01*
X104476590Y-64951190D01*
X104552780Y-65027380D01*
X104628971Y-65065476D01*
X102546279Y-35102873D02*
X101746279Y-35102873D01*
X101746279Y-35293350D01*
X101784375Y-35407635D01*
X101860565Y-35483826D01*
X101936755Y-35521921D01*
X102089136Y-35560016D01*
X102203422Y-35560016D01*
X102355803Y-35521921D01*
X102431994Y-35483826D01*
X102508184Y-35407635D01*
X102546279Y-35293350D01*
X102546279Y-35102873D01*
X101822470Y-35864778D02*
X101784375Y-35902873D01*
X101746279Y-35979064D01*
X101746279Y-36169540D01*
X101784375Y-36245730D01*
X101822470Y-36283826D01*
X101898660Y-36321921D01*
X101974851Y-36321921D01*
X102089136Y-36283826D01*
X102546279Y-35826683D01*
X102546279Y-36321921D01*
X114706501Y-44205654D02*
X114706501Y-43405654D01*
X114516025Y-43405654D01*
X114401739Y-43443750D01*
X114325548Y-43519940D01*
X114287453Y-43596130D01*
X114249358Y-43748511D01*
X114249358Y-43862797D01*
X114287453Y-44015178D01*
X114325548Y-44091369D01*
X114401739Y-44167559D01*
X114516025Y-44205654D01*
X114706501Y-44205654D01*
X113982691Y-43405654D02*
X113487453Y-43405654D01*
X113754120Y-43710416D01*
X113639834Y-43710416D01*
X113563644Y-43748511D01*
X113525548Y-43786607D01*
X113487453Y-43862797D01*
X113487453Y-44053273D01*
X113525548Y-44129464D01*
X113563644Y-44167559D01*
X113639834Y-44205654D01*
X113868405Y-44205654D01*
X113944596Y-44167559D01*
X113982691Y-44129464D01*
X102546279Y-54152873D02*
X101746279Y-54152873D01*
X101746279Y-54343350D01*
X101784375Y-54457635D01*
X101860565Y-54533826D01*
X101936755Y-54571921D01*
X102089136Y-54610016D01*
X102203422Y-54610016D01*
X102355803Y-54571921D01*
X102431994Y-54533826D01*
X102508184Y-54457635D01*
X102546279Y-54343350D01*
X102546279Y-54152873D01*
X102012946Y-55295730D02*
X102546279Y-55295730D01*
X101708184Y-55105254D02*
X102279613Y-54914778D01*
X102279613Y-55410016D01*
X114915876Y-63255654D02*
X114915876Y-62455654D01*
X114725400Y-62455654D01*
X114611114Y-62493750D01*
X114534923Y-62569940D01*
X114496828Y-62646130D01*
X114458733Y-62798511D01*
X114458733Y-62912797D01*
X114496828Y-63065178D01*
X114534923Y-63141369D01*
X114611114Y-63217559D01*
X114725400Y-63255654D01*
X114915876Y-63255654D01*
X113734923Y-62455654D02*
X114115876Y-62455654D01*
X114153971Y-62836607D01*
X114115876Y-62798511D01*
X114039685Y-62760416D01*
X113849209Y-62760416D01*
X113773019Y-62798511D01*
X113734923Y-62836607D01*
X113696828Y-62912797D01*
X113696828Y-63103273D01*
X113734923Y-63179464D01*
X113773019Y-63217559D01*
X113849209Y-63255654D01*
X114039685Y-63255654D01*
X114115876Y-63217559D01*
X114153971Y-63179464D01*
X58493154Y-77965373D02*
X57693154Y-77965373D01*
X57693154Y-78155850D01*
X57731250Y-78270135D01*
X57807440Y-78346326D01*
X57883630Y-78384421D01*
X58036011Y-78422516D01*
X58150297Y-78422516D01*
X58302678Y-78384421D01*
X58378869Y-78346326D01*
X58455059Y-78270135D01*
X58493154Y-78155850D01*
X58493154Y-77965373D01*
X57693154Y-79108230D02*
X57693154Y-78955850D01*
X57731250Y-78879659D01*
X57769345Y-78841564D01*
X57883630Y-78765373D01*
X58036011Y-78727278D01*
X58340773Y-78727278D01*
X58416964Y-78765373D01*
X58455059Y-78803469D01*
X58493154Y-78879659D01*
X58493154Y-79032040D01*
X58455059Y-79108230D01*
X58416964Y-79146326D01*
X58340773Y-79184421D01*
X58150297Y-79184421D01*
X58074107Y-79146326D01*
X58036011Y-79108230D01*
X57997916Y-79032040D01*
X57997916Y-78879659D01*
X58036011Y-78803469D01*
X58074107Y-78765373D01*
X58150297Y-78727278D01*
X77543154Y-77965373D02*
X76743154Y-77965373D01*
X76743154Y-78155850D01*
X76781250Y-78270135D01*
X76857440Y-78346326D01*
X76933630Y-78384421D01*
X77086011Y-78422516D01*
X77200297Y-78422516D01*
X77352678Y-78384421D01*
X77428869Y-78346326D01*
X77505059Y-78270135D01*
X77543154Y-78155850D01*
X77543154Y-77965373D01*
X76743154Y-78689183D02*
X76743154Y-79222516D01*
X77543154Y-78879659D01*
X96593154Y-77965373D02*
X95793154Y-77965373D01*
X95793154Y-78155850D01*
X95831250Y-78270135D01*
X95907440Y-78346326D01*
X95983630Y-78384421D01*
X96136011Y-78422516D01*
X96250297Y-78422516D01*
X96402678Y-78384421D01*
X96478869Y-78346326D01*
X96555059Y-78270135D01*
X96593154Y-78155850D01*
X96593154Y-77965373D01*
X96136011Y-78879659D02*
X96097916Y-78803469D01*
X96059821Y-78765373D01*
X95983630Y-78727278D01*
X95945535Y-78727278D01*
X95869345Y-78765373D01*
X95831250Y-78803469D01*
X95793154Y-78879659D01*
X95793154Y-79032040D01*
X95831250Y-79108230D01*
X95869345Y-79146326D01*
X95945535Y-79184421D01*
X95983630Y-79184421D01*
X96059821Y-79146326D01*
X96097916Y-79108230D01*
X96136011Y-79032040D01*
X96136011Y-78879659D01*
X96174107Y-78803469D01*
X96212202Y-78765373D01*
X96288392Y-78727278D01*
X96440773Y-78727278D01*
X96516964Y-78765373D01*
X96555059Y-78803469D01*
X96593154Y-78879659D01*
X96593154Y-79032040D01*
X96555059Y-79108230D01*
X96516964Y-79146326D01*
X96440773Y-79184421D01*
X96288392Y-79184421D01*
X96212202Y-79146326D01*
X96174107Y-79108230D01*
X96136011Y-79032040D01*
X101355654Y-87490373D02*
X100555654Y-87490373D01*
X100555654Y-87680850D01*
X100593750Y-87795135D01*
X100669940Y-87871326D01*
X100746130Y-87909421D01*
X100898511Y-87947516D01*
X101012797Y-87947516D01*
X101165178Y-87909421D01*
X101241369Y-87871326D01*
X101317559Y-87795135D01*
X101355654Y-87680850D01*
X101355654Y-87490373D01*
X101355654Y-88328469D02*
X101355654Y-88480850D01*
X101317559Y-88557040D01*
X101279464Y-88595135D01*
X101165178Y-88671326D01*
X101012797Y-88709421D01*
X100708035Y-88709421D01*
X100631845Y-88671326D01*
X100593750Y-88633230D01*
X100555654Y-88557040D01*
X100555654Y-88404659D01*
X100593750Y-88328469D01*
X100631845Y-88290373D01*
X100708035Y-88252278D01*
X100898511Y-88252278D01*
X100974702Y-88290373D01*
X101012797Y-88328469D01*
X101050892Y-88404659D01*
X101050892Y-88557040D01*
X101012797Y-88633230D01*
X100974702Y-88671326D01*
X100898511Y-88709421D01*
X58493154Y-96634421D02*
X57693154Y-96634421D01*
X57693154Y-96824897D01*
X57731250Y-96939183D01*
X57807440Y-97015373D01*
X57883630Y-97053469D01*
X58036011Y-97091564D01*
X58150297Y-97091564D01*
X58302678Y-97053469D01*
X58378869Y-97015373D01*
X58455059Y-96939183D01*
X58493154Y-96824897D01*
X58493154Y-96634421D01*
X58493154Y-97853469D02*
X58493154Y-97396326D01*
X58493154Y-97624897D02*
X57693154Y-97624897D01*
X57807440Y-97548707D01*
X57883630Y-97472516D01*
X57921726Y-97396326D01*
X57693154Y-98348707D02*
X57693154Y-98424897D01*
X57731250Y-98501088D01*
X57769345Y-98539183D01*
X57845535Y-98577278D01*
X57997916Y-98615373D01*
X58188392Y-98615373D01*
X58340773Y-98577278D01*
X58416964Y-98539183D01*
X58455059Y-98501088D01*
X58493154Y-98424897D01*
X58493154Y-98348707D01*
X58455059Y-98272516D01*
X58416964Y-98234421D01*
X58340773Y-98196326D01*
X58188392Y-98158230D01*
X57997916Y-98158230D01*
X57845535Y-98196326D01*
X57769345Y-98234421D01*
X57731250Y-98272516D01*
X57693154Y-98348707D01*
X77543154Y-96634421D02*
X76743154Y-96634421D01*
X76743154Y-96824897D01*
X76781250Y-96939183D01*
X76857440Y-97015373D01*
X76933630Y-97053469D01*
X77086011Y-97091564D01*
X77200297Y-97091564D01*
X77352678Y-97053469D01*
X77428869Y-97015373D01*
X77505059Y-96939183D01*
X77543154Y-96824897D01*
X77543154Y-96634421D01*
X77543154Y-97853469D02*
X77543154Y-97396326D01*
X77543154Y-97624897D02*
X76743154Y-97624897D01*
X76857440Y-97548707D01*
X76933630Y-97472516D01*
X76971726Y-97396326D01*
X77543154Y-98615373D02*
X77543154Y-98158230D01*
X77543154Y-98386802D02*
X76743154Y-98386802D01*
X76857440Y-98310611D01*
X76933630Y-98234421D01*
X76971726Y-98158230D01*
X96593154Y-96634421D02*
X95793154Y-96634421D01*
X95793154Y-96824897D01*
X95831250Y-96939183D01*
X95907440Y-97015373D01*
X95983630Y-97053469D01*
X96136011Y-97091564D01*
X96250297Y-97091564D01*
X96402678Y-97053469D01*
X96478869Y-97015373D01*
X96555059Y-96939183D01*
X96593154Y-96824897D01*
X96593154Y-96634421D01*
X96593154Y-97853469D02*
X96593154Y-97396326D01*
X96593154Y-97624897D02*
X95793154Y-97624897D01*
X95907440Y-97548707D01*
X95983630Y-97472516D01*
X96021726Y-97396326D01*
X95869345Y-98158230D02*
X95831250Y-98196326D01*
X95793154Y-98272516D01*
X95793154Y-98462992D01*
X95831250Y-98539183D01*
X95869345Y-98577278D01*
X95945535Y-98615373D01*
X96021726Y-98615373D01*
X96136011Y-98577278D01*
X96593154Y-98120135D01*
X96593154Y-98615373D01*
X58493154Y-115684421D02*
X57693154Y-115684421D01*
X57693154Y-115874897D01*
X57731250Y-115989183D01*
X57807440Y-116065373D01*
X57883630Y-116103469D01*
X58036011Y-116141564D01*
X58150297Y-116141564D01*
X58302678Y-116103469D01*
X58378869Y-116065373D01*
X58455059Y-115989183D01*
X58493154Y-115874897D01*
X58493154Y-115684421D01*
X58493154Y-116903469D02*
X58493154Y-116446326D01*
X58493154Y-116674897D02*
X57693154Y-116674897D01*
X57807440Y-116598707D01*
X57883630Y-116522516D01*
X57921726Y-116446326D01*
X57693154Y-117170135D02*
X57693154Y-117665373D01*
X57997916Y-117398707D01*
X57997916Y-117512992D01*
X58036011Y-117589183D01*
X58074107Y-117627278D01*
X58150297Y-117665373D01*
X58340773Y-117665373D01*
X58416964Y-117627278D01*
X58455059Y-117589183D01*
X58493154Y-117512992D01*
X58493154Y-117284421D01*
X58455059Y-117208230D01*
X58416964Y-117170135D01*
X77543154Y-115684421D02*
X76743154Y-115684421D01*
X76743154Y-115874897D01*
X76781250Y-115989183D01*
X76857440Y-116065373D01*
X76933630Y-116103469D01*
X77086011Y-116141564D01*
X77200297Y-116141564D01*
X77352678Y-116103469D01*
X77428869Y-116065373D01*
X77505059Y-115989183D01*
X77543154Y-115874897D01*
X77543154Y-115684421D01*
X77543154Y-116903469D02*
X77543154Y-116446326D01*
X77543154Y-116674897D02*
X76743154Y-116674897D01*
X76857440Y-116598707D01*
X76933630Y-116522516D01*
X76971726Y-116446326D01*
X77009821Y-117589183D02*
X77543154Y-117589183D01*
X76705059Y-117398707D02*
X77276488Y-117208230D01*
X77276488Y-117703469D01*
X96593154Y-115684421D02*
X95793154Y-115684421D01*
X95793154Y-115874897D01*
X95831250Y-115989183D01*
X95907440Y-116065373D01*
X95983630Y-116103469D01*
X96136011Y-116141564D01*
X96250297Y-116141564D01*
X96402678Y-116103469D01*
X96478869Y-116065373D01*
X96555059Y-115989183D01*
X96593154Y-115874897D01*
X96593154Y-115684421D01*
X96593154Y-116903469D02*
X96593154Y-116446326D01*
X96593154Y-116674897D02*
X95793154Y-116674897D01*
X95907440Y-116598707D01*
X95983630Y-116522516D01*
X96021726Y-116446326D01*
X95793154Y-117627278D02*
X95793154Y-117246326D01*
X96174107Y-117208230D01*
X96136011Y-117246326D01*
X96097916Y-117322516D01*
X96097916Y-117512992D01*
X96136011Y-117589183D01*
X96174107Y-117627278D01*
X96250297Y-117665373D01*
X96440773Y-117665373D01*
X96516964Y-117627278D01*
X96555059Y-117589183D01*
X96593154Y-117512992D01*
X96593154Y-117322516D01*
X96555059Y-117246326D01*
X96516964Y-117208230D01*
X101355654Y-115684421D02*
X100555654Y-115684421D01*
X100555654Y-115874897D01*
X100593750Y-115989183D01*
X100669940Y-116065373D01*
X100746130Y-116103469D01*
X100898511Y-116141564D01*
X101012797Y-116141564D01*
X101165178Y-116103469D01*
X101241369Y-116065373D01*
X101317559Y-115989183D01*
X101355654Y-115874897D01*
X101355654Y-115684421D01*
X101355654Y-116903469D02*
X101355654Y-116446326D01*
X101355654Y-116674897D02*
X100555654Y-116674897D01*
X100669940Y-116598707D01*
X100746130Y-116522516D01*
X100784226Y-116446326D01*
X100555654Y-117589183D02*
X100555654Y-117436802D01*
X100593750Y-117360611D01*
X100631845Y-117322516D01*
X100746130Y-117246326D01*
X100898511Y-117208230D01*
X101203273Y-117208230D01*
X101279464Y-117246326D01*
X101317559Y-117284421D01*
X101355654Y-117360611D01*
X101355654Y-117512992D01*
X101317559Y-117589183D01*
X101279464Y-117627278D01*
X101203273Y-117665373D01*
X101012797Y-117665373D01*
X100936607Y-117627278D01*
X100898511Y-117589183D01*
X100860416Y-117512992D01*
X100860416Y-117360611D01*
X100898511Y-117284421D01*
X100936607Y-117246326D01*
X101012797Y-117208230D01*
X58493154Y-134734421D02*
X57693154Y-134734421D01*
X57693154Y-134924897D01*
X57731250Y-135039183D01*
X57807440Y-135115373D01*
X57883630Y-135153469D01*
X58036011Y-135191564D01*
X58150297Y-135191564D01*
X58302678Y-135153469D01*
X58378869Y-135115373D01*
X58455059Y-135039183D01*
X58493154Y-134924897D01*
X58493154Y-134734421D01*
X58493154Y-135953469D02*
X58493154Y-135496326D01*
X58493154Y-135724897D02*
X57693154Y-135724897D01*
X57807440Y-135648707D01*
X57883630Y-135572516D01*
X57921726Y-135496326D01*
X57693154Y-136220135D02*
X57693154Y-136753469D01*
X58493154Y-136410611D01*
X77543154Y-134734421D02*
X76743154Y-134734421D01*
X76743154Y-134924897D01*
X76781250Y-135039183D01*
X76857440Y-135115373D01*
X76933630Y-135153469D01*
X77086011Y-135191564D01*
X77200297Y-135191564D01*
X77352678Y-135153469D01*
X77428869Y-135115373D01*
X77505059Y-135039183D01*
X77543154Y-134924897D01*
X77543154Y-134734421D01*
X77543154Y-135953469D02*
X77543154Y-135496326D01*
X77543154Y-135724897D02*
X76743154Y-135724897D01*
X76857440Y-135648707D01*
X76933630Y-135572516D01*
X76971726Y-135496326D01*
X77086011Y-136410611D02*
X77047916Y-136334421D01*
X77009821Y-136296326D01*
X76933630Y-136258230D01*
X76895535Y-136258230D01*
X76819345Y-136296326D01*
X76781250Y-136334421D01*
X76743154Y-136410611D01*
X76743154Y-136562992D01*
X76781250Y-136639183D01*
X76819345Y-136677278D01*
X76895535Y-136715373D01*
X76933630Y-136715373D01*
X77009821Y-136677278D01*
X77047916Y-136639183D01*
X77086011Y-136562992D01*
X77086011Y-136410611D01*
X77124107Y-136334421D01*
X77162202Y-136296326D01*
X77238392Y-136258230D01*
X77390773Y-136258230D01*
X77466964Y-136296326D01*
X77505059Y-136334421D01*
X77543154Y-136410611D01*
X77543154Y-136562992D01*
X77505059Y-136639183D01*
X77466964Y-136677278D01*
X77390773Y-136715373D01*
X77238392Y-136715373D01*
X77162202Y-136677278D01*
X77124107Y-136639183D01*
X77086011Y-136562992D01*
X96593154Y-134734421D02*
X95793154Y-134734421D01*
X95793154Y-134924897D01*
X95831250Y-135039183D01*
X95907440Y-135115373D01*
X95983630Y-135153469D01*
X96136011Y-135191564D01*
X96250297Y-135191564D01*
X96402678Y-135153469D01*
X96478869Y-135115373D01*
X96555059Y-135039183D01*
X96593154Y-134924897D01*
X96593154Y-134734421D01*
X96593154Y-135953469D02*
X96593154Y-135496326D01*
X96593154Y-135724897D02*
X95793154Y-135724897D01*
X95907440Y-135648707D01*
X95983630Y-135572516D01*
X96021726Y-135496326D01*
X96593154Y-136334421D02*
X96593154Y-136486802D01*
X96555059Y-136562992D01*
X96516964Y-136601088D01*
X96402678Y-136677278D01*
X96250297Y-136715373D01*
X95945535Y-136715373D01*
X95869345Y-136677278D01*
X95831250Y-136639183D01*
X95793154Y-136562992D01*
X95793154Y-136410611D01*
X95831250Y-136334421D01*
X95869345Y-136296326D01*
X95945535Y-136258230D01*
X96136011Y-136258230D01*
X96212202Y-136296326D01*
X96250297Y-136334421D01*
X96288392Y-136410611D01*
X96288392Y-136562992D01*
X96250297Y-136639183D01*
X96212202Y-136677278D01*
X96136011Y-136715373D01*
X101355654Y-134734421D02*
X100555654Y-134734421D01*
X100555654Y-134924897D01*
X100593750Y-135039183D01*
X100669940Y-135115373D01*
X100746130Y-135153469D01*
X100898511Y-135191564D01*
X101012797Y-135191564D01*
X101165178Y-135153469D01*
X101241369Y-135115373D01*
X101317559Y-135039183D01*
X101355654Y-134924897D01*
X101355654Y-134734421D01*
X100631845Y-135496326D02*
X100593750Y-135534421D01*
X100555654Y-135610611D01*
X100555654Y-135801088D01*
X100593750Y-135877278D01*
X100631845Y-135915373D01*
X100708035Y-135953469D01*
X100784226Y-135953469D01*
X100898511Y-135915373D01*
X101355654Y-135458230D01*
X101355654Y-135953469D01*
X100555654Y-136448707D02*
X100555654Y-136524897D01*
X100593750Y-136601088D01*
X100631845Y-136639183D01*
X100708035Y-136677278D01*
X100860416Y-136715373D01*
X101050892Y-136715373D01*
X101203273Y-136677278D01*
X101279464Y-136639183D01*
X101317559Y-136601088D01*
X101355654Y-136524897D01*
X101355654Y-136448707D01*
X101317559Y-136372516D01*
X101279464Y-136334421D01*
X101203273Y-136296326D01*
X101050892Y-136258230D01*
X100860416Y-136258230D01*
X100708035Y-136296326D01*
X100631845Y-136334421D01*
X100593750Y-136372516D01*
X100555654Y-136448707D01*
X87998226Y-39414404D02*
X87998226Y-38614404D01*
X87807750Y-38614404D01*
X87693464Y-38652500D01*
X87617273Y-38728690D01*
X87579178Y-38804880D01*
X87541083Y-38957261D01*
X87541083Y-39071547D01*
X87579178Y-39223928D01*
X87617273Y-39300119D01*
X87693464Y-39376309D01*
X87807750Y-39414404D01*
X87998226Y-39414404D01*
X86779178Y-39414404D02*
X87236321Y-39414404D01*
X87007750Y-39414404D02*
X87007750Y-38614404D01*
X87083940Y-38728690D01*
X87160130Y-38804880D01*
X87236321Y-38842976D01*
X87998226Y-41954404D02*
X87998226Y-41154404D01*
X87807750Y-41154404D01*
X87693464Y-41192500D01*
X87617273Y-41268690D01*
X87579178Y-41344880D01*
X87541083Y-41497261D01*
X87541083Y-41611547D01*
X87579178Y-41763928D01*
X87617273Y-41840119D01*
X87693464Y-41916309D01*
X87807750Y-41954404D01*
X87998226Y-41954404D01*
X87045845Y-41154404D02*
X86969654Y-41154404D01*
X86893464Y-41192500D01*
X86855369Y-41230595D01*
X86817273Y-41306785D01*
X86779178Y-41459166D01*
X86779178Y-41649642D01*
X86817273Y-41802023D01*
X86855369Y-41878214D01*
X86893464Y-41916309D01*
X86969654Y-41954404D01*
X87045845Y-41954404D01*
X87122035Y-41916309D01*
X87160130Y-41878214D01*
X87198226Y-41802023D01*
X87236321Y-41649642D01*
X87236321Y-41459166D01*
X87198226Y-41306785D01*
X87160130Y-41230595D01*
X87122035Y-41192500D01*
X87045845Y-41154404D01*
X98653559Y-54235357D02*
X98539273Y-54273452D01*
X98501178Y-54311547D01*
X98463083Y-54387738D01*
X98463083Y-54502023D01*
X98501178Y-54578214D01*
X98539273Y-54616309D01*
X98615464Y-54654404D01*
X98920226Y-54654404D01*
X98920226Y-53854404D01*
X98653559Y-53854404D01*
X98577369Y-53892500D01*
X98539273Y-53930595D01*
X98501178Y-54006785D01*
X98501178Y-54082976D01*
X98539273Y-54159166D01*
X98577369Y-54197261D01*
X98653559Y-54235357D01*
X98920226Y-54235357D01*
X98158321Y-53930595D02*
X98120226Y-53892500D01*
X98044035Y-53854404D01*
X97853559Y-53854404D01*
X97777369Y-53892500D01*
X97739273Y-53930595D01*
X97701178Y-54006785D01*
X97701178Y-54082976D01*
X97739273Y-54197261D01*
X98196416Y-54654404D01*
X97701178Y-54654404D01*
X87731559Y-56775357D02*
X87617273Y-56813452D01*
X87579178Y-56851547D01*
X87541083Y-56927738D01*
X87541083Y-57042023D01*
X87579178Y-57118214D01*
X87617273Y-57156309D01*
X87693464Y-57194404D01*
X87998226Y-57194404D01*
X87998226Y-56394404D01*
X87731559Y-56394404D01*
X87655369Y-56432500D01*
X87617273Y-56470595D01*
X87579178Y-56546785D01*
X87579178Y-56622976D01*
X87617273Y-56699166D01*
X87655369Y-56737261D01*
X87731559Y-56775357D01*
X87998226Y-56775357D01*
X86817273Y-56394404D02*
X87198226Y-56394404D01*
X87236321Y-56775357D01*
X87198226Y-56737261D01*
X87122035Y-56699166D01*
X86931559Y-56699166D01*
X86855369Y-56737261D01*
X86817273Y-56775357D01*
X86779178Y-56851547D01*
X86779178Y-57042023D01*
X86817273Y-57118214D01*
X86855369Y-57156309D01*
X86931559Y-57194404D01*
X87122035Y-57194404D01*
X87198226Y-57156309D01*
X87236321Y-57118214D01*
X98882130Y-29254404D02*
X99148797Y-28873452D01*
X99339273Y-29254404D02*
X99339273Y-28454404D01*
X99034511Y-28454404D01*
X98958321Y-28492500D01*
X98920226Y-28530595D01*
X98882130Y-28606785D01*
X98882130Y-28721071D01*
X98920226Y-28797261D01*
X98958321Y-28835357D01*
X99034511Y-28873452D01*
X99339273Y-28873452D01*
X98577369Y-29025833D02*
X98196416Y-29025833D01*
X98653559Y-29254404D02*
X98386892Y-28454404D01*
X98120226Y-29254404D01*
X97929750Y-28454404D02*
X97739273Y-29254404D01*
X97586892Y-28682976D01*
X97434511Y-29254404D01*
X97244035Y-28454404D01*
X98596416Y-41535357D02*
X98863083Y-41535357D01*
X98863083Y-41954404D02*
X98863083Y-41154404D01*
X98482130Y-41154404D01*
X97796416Y-41154404D02*
X98177369Y-41154404D01*
X98215464Y-41535357D01*
X98177369Y-41497261D01*
X98101178Y-41459166D01*
X97910702Y-41459166D01*
X97834511Y-41497261D01*
X97796416Y-41535357D01*
X97758321Y-41611547D01*
X97758321Y-41802023D01*
X97796416Y-41878214D01*
X97834511Y-41916309D01*
X97910702Y-41954404D01*
X98101178Y-41954404D01*
X98177369Y-41916309D01*
X98215464Y-41878214D01*
X87998226Y-31794404D02*
X87998226Y-30994404D01*
X87807750Y-30994404D01*
X87693464Y-31032500D01*
X87617273Y-31108690D01*
X87579178Y-31184880D01*
X87541083Y-31337261D01*
X87541083Y-31451547D01*
X87579178Y-31603928D01*
X87617273Y-31680119D01*
X87693464Y-31756309D01*
X87807750Y-31794404D01*
X87998226Y-31794404D01*
X87236321Y-31070595D02*
X87198226Y-31032500D01*
X87122035Y-30994404D01*
X86931559Y-30994404D01*
X86855369Y-31032500D01*
X86817273Y-31070595D01*
X86779178Y-31146785D01*
X86779178Y-31222976D01*
X86817273Y-31337261D01*
X87274416Y-31794404D01*
X86779178Y-31794404D01*
X91487354Y-28454404D02*
X91030211Y-28454404D01*
X91258782Y-29254404D02*
X91258782Y-28454404D01*
X90839735Y-28454404D02*
X90306401Y-29254404D01*
X90306401Y-28454404D02*
X90839735Y-29254404D01*
X89849258Y-28454404D02*
X89773068Y-28454404D01*
X89696878Y-28492500D01*
X89658782Y-28530595D01*
X89620687Y-28606785D01*
X89582592Y-28759166D01*
X89582592Y-28949642D01*
X89620687Y-29102023D01*
X89658782Y-29178214D01*
X89696878Y-29216309D01*
X89773068Y-29254404D01*
X89849258Y-29254404D01*
X89925449Y-29216309D01*
X89963544Y-29178214D01*
X90001639Y-29102023D01*
X90039735Y-28949642D01*
X90039735Y-28759166D01*
X90001639Y-28606785D01*
X89963544Y-28530595D01*
X89925449Y-28492500D01*
X89849258Y-28454404D01*
X88668306Y-28416309D02*
X89354020Y-29444880D01*
X88401639Y-29254404D02*
X88401639Y-28454404D01*
X88211163Y-28454404D01*
X88096878Y-28492500D01*
X88020687Y-28568690D01*
X87982592Y-28644880D01*
X87944497Y-28797261D01*
X87944497Y-28911547D01*
X87982592Y-29063928D01*
X88020687Y-29140119D01*
X88096878Y-29216309D01*
X88211163Y-29254404D01*
X88401639Y-29254404D01*
X87677830Y-28454404D02*
X87182592Y-28454404D01*
X87449258Y-28759166D01*
X87334973Y-28759166D01*
X87258782Y-28797261D01*
X87220687Y-28835357D01*
X87182592Y-28911547D01*
X87182592Y-29102023D01*
X87220687Y-29178214D01*
X87258782Y-29216309D01*
X87334973Y-29254404D01*
X87563544Y-29254404D01*
X87639735Y-29216309D01*
X87677830Y-29178214D01*
X98442083Y-34276309D02*
X98327797Y-34314404D01*
X98137321Y-34314404D01*
X98061130Y-34276309D01*
X98023035Y-34238214D01*
X97984940Y-34162023D01*
X97984940Y-34085833D01*
X98023035Y-34009642D01*
X98061130Y-33971547D01*
X98137321Y-33933452D01*
X98289702Y-33895357D01*
X98365892Y-33857261D01*
X98403988Y-33819166D01*
X98442083Y-33742976D01*
X98442083Y-33666785D01*
X98403988Y-33590595D01*
X98365892Y-33552500D01*
X98289702Y-33514404D01*
X98099226Y-33514404D01*
X97984940Y-33552500D01*
X97756369Y-33514404D02*
X97299226Y-33514404D01*
X97527797Y-34314404D02*
X97527797Y-33514404D01*
X98653559Y-56775357D02*
X98539273Y-56813452D01*
X98501178Y-56851547D01*
X98463083Y-56927738D01*
X98463083Y-57042023D01*
X98501178Y-57118214D01*
X98539273Y-57156309D01*
X98615464Y-57194404D01*
X98920226Y-57194404D01*
X98920226Y-56394404D01*
X98653559Y-56394404D01*
X98577369Y-56432500D01*
X98539273Y-56470595D01*
X98501178Y-56546785D01*
X98501178Y-56622976D01*
X98539273Y-56699166D01*
X98577369Y-56737261D01*
X98653559Y-56775357D01*
X98920226Y-56775357D01*
X97777369Y-56394404D02*
X97929750Y-56394404D01*
X98005940Y-56432500D01*
X98044035Y-56470595D01*
X98120226Y-56584880D01*
X98158321Y-56737261D01*
X98158321Y-57042023D01*
X98120226Y-57118214D01*
X98082130Y-57156309D01*
X98005940Y-57194404D01*
X97853559Y-57194404D01*
X97777369Y-57156309D01*
X97739273Y-57118214D01*
X97701178Y-57042023D01*
X97701178Y-56851547D01*
X97739273Y-56775357D01*
X97777369Y-56737261D01*
X97853559Y-56699166D01*
X98005940Y-56699166D01*
X98082130Y-56737261D01*
X98120226Y-56775357D01*
X98158321Y-56851547D01*
X87541083Y-46958214D02*
X87579178Y-46996309D01*
X87693464Y-47034404D01*
X87769654Y-47034404D01*
X87883940Y-46996309D01*
X87960130Y-46920119D01*
X87998226Y-46843928D01*
X88036321Y-46691547D01*
X88036321Y-46577261D01*
X87998226Y-46424880D01*
X87960130Y-46348690D01*
X87883940Y-46272500D01*
X87769654Y-46234404D01*
X87693464Y-46234404D01*
X87579178Y-46272500D01*
X87541083Y-46310595D01*
X86855369Y-46234404D02*
X87007750Y-46234404D01*
X87083940Y-46272500D01*
X87122035Y-46310595D01*
X87198226Y-46424880D01*
X87236321Y-46577261D01*
X87236321Y-46882023D01*
X87198226Y-46958214D01*
X87160130Y-46996309D01*
X87083940Y-47034404D01*
X86931559Y-47034404D01*
X86855369Y-46996309D01*
X86817273Y-46958214D01*
X86779178Y-46882023D01*
X86779178Y-46691547D01*
X86817273Y-46615357D01*
X86855369Y-46577261D01*
X86931559Y-46539166D01*
X87083940Y-46539166D01*
X87160130Y-46577261D01*
X87198226Y-46615357D01*
X87236321Y-46691547D01*
X87731559Y-54235357D02*
X87617273Y-54273452D01*
X87579178Y-54311547D01*
X87541083Y-54387738D01*
X87541083Y-54502023D01*
X87579178Y-54578214D01*
X87617273Y-54616309D01*
X87693464Y-54654404D01*
X87998226Y-54654404D01*
X87998226Y-53854404D01*
X87731559Y-53854404D01*
X87655369Y-53892500D01*
X87617273Y-53930595D01*
X87579178Y-54006785D01*
X87579178Y-54082976D01*
X87617273Y-54159166D01*
X87655369Y-54197261D01*
X87731559Y-54235357D01*
X87998226Y-54235357D01*
X86855369Y-54121071D02*
X86855369Y-54654404D01*
X87045845Y-53816309D02*
X87236321Y-54387738D01*
X86741083Y-54387738D01*
X87960130Y-51695357D02*
X87693464Y-51695357D01*
X87579178Y-52114404D02*
X87960130Y-52114404D01*
X87960130Y-51314404D01*
X87579178Y-51314404D01*
X86893464Y-51314404D02*
X87045845Y-51314404D01*
X87122035Y-51352500D01*
X87160130Y-51390595D01*
X87236321Y-51504880D01*
X87274416Y-51657261D01*
X87274416Y-51962023D01*
X87236321Y-52038214D01*
X87198226Y-52076309D01*
X87122035Y-52114404D01*
X86969654Y-52114404D01*
X86893464Y-52076309D01*
X86855369Y-52038214D01*
X86817273Y-51962023D01*
X86817273Y-51771547D01*
X86855369Y-51695357D01*
X86893464Y-51657261D01*
X86969654Y-51619166D01*
X87122035Y-51619166D01*
X87198226Y-51657261D01*
X87236321Y-51695357D01*
X87274416Y-51771547D01*
X98596416Y-46615357D02*
X98863083Y-46615357D01*
X98863083Y-47034404D02*
X98863083Y-46234404D01*
X98482130Y-46234404D01*
X98253559Y-46234404D02*
X97720226Y-46234404D01*
X98063083Y-47034404D01*
X88017273Y-36112500D02*
X88093464Y-36074404D01*
X88207750Y-36074404D01*
X88322035Y-36112500D01*
X88398226Y-36188690D01*
X88436321Y-36264880D01*
X88474416Y-36417261D01*
X88474416Y-36531547D01*
X88436321Y-36683928D01*
X88398226Y-36760119D01*
X88322035Y-36836309D01*
X88207750Y-36874404D01*
X88131559Y-36874404D01*
X88017273Y-36836309D01*
X87979178Y-36798214D01*
X87979178Y-36531547D01*
X88131559Y-36531547D01*
X87636321Y-36874404D02*
X87636321Y-36074404D01*
X87179178Y-36874404D01*
X87179178Y-36074404D01*
X86798226Y-36874404D02*
X86798226Y-36074404D01*
X86607750Y-36074404D01*
X86493464Y-36112500D01*
X86417273Y-36188690D01*
X86379178Y-36264880D01*
X86341083Y-36417261D01*
X86341083Y-36531547D01*
X86379178Y-36683928D01*
X86417273Y-36760119D01*
X86493464Y-36836309D01*
X86607750Y-36874404D01*
X86798226Y-36874404D01*
X99396416Y-36074404D02*
X99129750Y-36874404D01*
X98863083Y-36074404D01*
X98139273Y-36798214D02*
X98177369Y-36836309D01*
X98291654Y-36874404D01*
X98367845Y-36874404D01*
X98482130Y-36836309D01*
X98558321Y-36760119D01*
X98596416Y-36683928D01*
X98634511Y-36531547D01*
X98634511Y-36417261D01*
X98596416Y-36264880D01*
X98558321Y-36188690D01*
X98482130Y-36112500D01*
X98367845Y-36074404D01*
X98291654Y-36074404D01*
X98177369Y-36112500D01*
X98139273Y-36150595D01*
X97339273Y-36798214D02*
X97377369Y-36836309D01*
X97491654Y-36874404D01*
X97567845Y-36874404D01*
X97682130Y-36836309D01*
X97758321Y-36760119D01*
X97796416Y-36683928D01*
X97834511Y-36531547D01*
X97834511Y-36417261D01*
X97796416Y-36264880D01*
X97758321Y-36188690D01*
X97682130Y-36112500D01*
X97567845Y-36074404D01*
X97491654Y-36074404D01*
X97377369Y-36112500D01*
X97339273Y-36150595D01*
X87998226Y-44494404D02*
X87998226Y-43694404D01*
X87807750Y-43694404D01*
X87693464Y-43732500D01*
X87617273Y-43808690D01*
X87579178Y-43884880D01*
X87541083Y-44037261D01*
X87541083Y-44151547D01*
X87579178Y-44303928D01*
X87617273Y-44380119D01*
X87693464Y-44456309D01*
X87807750Y-44494404D01*
X87998226Y-44494404D01*
X86855369Y-43961071D02*
X86855369Y-44494404D01*
X87045845Y-43656309D02*
X87236321Y-44227738D01*
X86741083Y-44227738D01*
X98596416Y-38995357D02*
X98863083Y-38995357D01*
X98863083Y-39414404D02*
X98863083Y-38614404D01*
X98482130Y-38614404D01*
X97834511Y-38881071D02*
X97834511Y-39414404D01*
X98024988Y-38576309D02*
X98215464Y-39147738D01*
X97720226Y-39147738D01*
X98653559Y-49155357D02*
X98539273Y-49193452D01*
X98501178Y-49231547D01*
X98463083Y-49307738D01*
X98463083Y-49422023D01*
X98501178Y-49498214D01*
X98539273Y-49536309D01*
X98615464Y-49574404D01*
X98920226Y-49574404D01*
X98920226Y-48774404D01*
X98653559Y-48774404D01*
X98577369Y-48812500D01*
X98539273Y-48850595D01*
X98501178Y-48926785D01*
X98501178Y-49002976D01*
X98539273Y-49079166D01*
X98577369Y-49117261D01*
X98653559Y-49155357D01*
X98920226Y-49155357D01*
X97701178Y-49574404D02*
X98158321Y-49574404D01*
X97929750Y-49574404D02*
X97929750Y-48774404D01*
X98005940Y-48888690D01*
X98082130Y-48964880D01*
X98158321Y-49002976D01*
X87998226Y-49574404D02*
X87998226Y-48774404D01*
X87807750Y-48774404D01*
X87693464Y-48812500D01*
X87617273Y-48888690D01*
X87579178Y-48964880D01*
X87541083Y-49117261D01*
X87541083Y-49231547D01*
X87579178Y-49383928D01*
X87617273Y-49460119D01*
X87693464Y-49536309D01*
X87807750Y-49574404D01*
X87998226Y-49574404D01*
X87274416Y-48774404D02*
X86741083Y-48774404D01*
X87083940Y-49574404D01*
X88017273Y-33572500D02*
X88093464Y-33534404D01*
X88207750Y-33534404D01*
X88322035Y-33572500D01*
X88398226Y-33648690D01*
X88436321Y-33724880D01*
X88474416Y-33877261D01*
X88474416Y-33991547D01*
X88436321Y-34143928D01*
X88398226Y-34220119D01*
X88322035Y-34296309D01*
X88207750Y-34334404D01*
X88131559Y-34334404D01*
X88017273Y-34296309D01*
X87979178Y-34258214D01*
X87979178Y-33991547D01*
X88131559Y-33991547D01*
X87636321Y-34334404D02*
X87636321Y-33534404D01*
X87179178Y-34334404D01*
X87179178Y-33534404D01*
X86798226Y-34334404D02*
X86798226Y-33534404D01*
X86607750Y-33534404D01*
X86493464Y-33572500D01*
X86417273Y-33648690D01*
X86379178Y-33724880D01*
X86341083Y-33877261D01*
X86341083Y-33991547D01*
X86379178Y-34143928D01*
X86417273Y-34220119D01*
X86493464Y-34296309D01*
X86607750Y-34334404D01*
X86798226Y-34334404D01*
X98653559Y-51695357D02*
X98539273Y-51733452D01*
X98501178Y-51771547D01*
X98463083Y-51847738D01*
X98463083Y-51962023D01*
X98501178Y-52038214D01*
X98539273Y-52076309D01*
X98615464Y-52114404D01*
X98920226Y-52114404D01*
X98920226Y-51314404D01*
X98653559Y-51314404D01*
X98577369Y-51352500D01*
X98539273Y-51390595D01*
X98501178Y-51466785D01*
X98501178Y-51542976D01*
X98539273Y-51619166D01*
X98577369Y-51657261D01*
X98653559Y-51695357D01*
X98920226Y-51695357D01*
X98196416Y-51314404D02*
X97701178Y-51314404D01*
X97967845Y-51619166D01*
X97853559Y-51619166D01*
X97777369Y-51657261D01*
X97739273Y-51695357D01*
X97701178Y-51771547D01*
X97701178Y-51962023D01*
X97739273Y-52038214D01*
X97777369Y-52076309D01*
X97853559Y-52114404D01*
X98082130Y-52114404D01*
X98158321Y-52076309D01*
X98196416Y-52038214D01*
X98939273Y-31032500D02*
X99015464Y-30994404D01*
X99129750Y-30994404D01*
X99244035Y-31032500D01*
X99320226Y-31108690D01*
X99358321Y-31184880D01*
X99396416Y-31337261D01*
X99396416Y-31451547D01*
X99358321Y-31603928D01*
X99320226Y-31680119D01*
X99244035Y-31756309D01*
X99129750Y-31794404D01*
X99053559Y-31794404D01*
X98939273Y-31756309D01*
X98901178Y-31718214D01*
X98901178Y-31451547D01*
X99053559Y-31451547D01*
X98558321Y-31794404D02*
X98558321Y-30994404D01*
X98101178Y-31794404D01*
X98101178Y-30994404D01*
X97720226Y-31794404D02*
X97720226Y-30994404D01*
X97529750Y-30994404D01*
X97415464Y-31032500D01*
X97339273Y-31108690D01*
X97301178Y-31184880D01*
X97263083Y-31337261D01*
X97263083Y-31451547D01*
X97301178Y-31603928D01*
X97339273Y-31680119D01*
X97415464Y-31756309D01*
X97529750Y-31794404D01*
X97720226Y-31794404D01*
X98596416Y-44075357D02*
X98863083Y-44075357D01*
X98863083Y-44494404D02*
X98863083Y-43694404D01*
X98482130Y-43694404D01*
X97834511Y-43694404D02*
X97986892Y-43694404D01*
X98063083Y-43732500D01*
X98101178Y-43770595D01*
X98177369Y-43884880D01*
X98215464Y-44037261D01*
X98215464Y-44342023D01*
X98177369Y-44418214D01*
X98139273Y-44456309D01*
X98063083Y-44494404D01*
X97910702Y-44494404D01*
X97834511Y-44456309D01*
X97796416Y-44418214D01*
X97758321Y-44342023D01*
X97758321Y-44151547D01*
X97796416Y-44075357D01*
X97834511Y-44037261D01*
X97910702Y-43999166D01*
X98063083Y-43999166D01*
X98139273Y-44037261D01*
X98177369Y-44075357D01*
X98215464Y-44151547D01*
D11*
X113261321Y-100441125D02*
X113406464Y-100368553D01*
X113624178Y-100368553D01*
X113841892Y-100441125D01*
X113987035Y-100586267D01*
X114059607Y-100731410D01*
X114132178Y-101021696D01*
X114132178Y-101239410D01*
X114059607Y-101529696D01*
X113987035Y-101674839D01*
X113841892Y-101819982D01*
X113624178Y-101892553D01*
X113479035Y-101892553D01*
X113261321Y-101819982D01*
X113188750Y-101747410D01*
X113188750Y-101239410D01*
X113479035Y-101239410D01*
X112317892Y-100368553D02*
X112317892Y-100731410D01*
X112680750Y-100586267D02*
X112317892Y-100731410D01*
X111955035Y-100586267D01*
X112535607Y-101021696D02*
X112317892Y-100731410D01*
X112100178Y-101021696D01*
X111156750Y-100368553D02*
X111156750Y-100731410D01*
X111519607Y-100586267D02*
X111156750Y-100731410D01*
X110793892Y-100586267D01*
X111374464Y-101021696D02*
X111156750Y-100731410D01*
X110939035Y-101021696D01*
X109995607Y-100368553D02*
X109995607Y-100731410D01*
X110358464Y-100586267D02*
X109995607Y-100731410D01*
X109632750Y-100586267D01*
X110213321Y-101021696D02*
X109995607Y-100731410D01*
X109777892Y-101021696D01*
X82342571Y-97238000D02*
X82487714Y-97165428D01*
X82705428Y-97165428D01*
X82923142Y-97238000D01*
X83068285Y-97383142D01*
X83140857Y-97528285D01*
X83213428Y-97818571D01*
X83213428Y-98036285D01*
X83140857Y-98326571D01*
X83068285Y-98471714D01*
X82923142Y-98616857D01*
X82705428Y-98689428D01*
X82560285Y-98689428D01*
X82342571Y-98616857D01*
X82270000Y-98544285D01*
X82270000Y-98036285D01*
X82560285Y-98036285D01*
X81399142Y-97165428D02*
X81399142Y-97528285D01*
X81762000Y-97383142D02*
X81399142Y-97528285D01*
X81036285Y-97383142D01*
X81616857Y-97818571D02*
X81399142Y-97528285D01*
X81181428Y-97818571D01*
X80238000Y-97165428D02*
X80238000Y-97528285D01*
X80600857Y-97383142D02*
X80238000Y-97528285D01*
X79875142Y-97383142D01*
X80455714Y-97818571D02*
X80238000Y-97528285D01*
X80020285Y-97818571D01*
X79076857Y-97165428D02*
X79076857Y-97528285D01*
X79439714Y-97383142D02*
X79076857Y-97528285D01*
X78714000Y-97383142D01*
X79294571Y-97818571D02*
X79076857Y-97528285D01*
X78859142Y-97818571D01*
D10*
X102997000Y-65913000D02*
X102997000Y-67437000D01*
X102870000Y-65913000D02*
X102870000Y-67437000D01*
X102616000Y-65913000D02*
X102616000Y-67437000D01*
X102489000Y-67437000D02*
X102489000Y-65913000D01*
X102743000Y-67437000D02*
X102743000Y-65913000D01*
X102235000Y-65913000D02*
X102235000Y-67437000D01*
X107315000Y-65913000D02*
X102235000Y-65913000D01*
X102235000Y-67437000D02*
X107315000Y-67437000D01*
X107315000Y-67437000D02*
X107315000Y-65913000D01*
X102362000Y-65913000D02*
X102362000Y-67437000D01*
X104346375Y-33178750D02*
X102822375Y-33178750D01*
X104346375Y-38258750D02*
X104346375Y-33178750D01*
X104346375Y-38004750D02*
X102822375Y-38004750D01*
X102822375Y-38131750D02*
X104346375Y-38131750D01*
X102822375Y-37877750D02*
X104346375Y-37877750D01*
X102822375Y-33178750D02*
X102822375Y-38258750D01*
X102822375Y-38258750D02*
X104346375Y-38258750D01*
X104346375Y-37750750D02*
X102822375Y-37750750D01*
X102822375Y-37496750D02*
X104346375Y-37496750D01*
X102822375Y-37623750D02*
X104346375Y-37623750D01*
X111931625Y-44481750D02*
X111931625Y-46005750D01*
X111550625Y-44481750D02*
X111550625Y-46005750D01*
X112312625Y-44481750D02*
X112312625Y-46005750D01*
X111804625Y-46005750D02*
X111804625Y-44481750D01*
X112185625Y-44481750D02*
X112185625Y-46005750D01*
X112058625Y-46005750D02*
X112058625Y-44481750D01*
X116630625Y-44481750D02*
X111550625Y-44481750D01*
X111677625Y-44481750D02*
X111677625Y-46005750D01*
X111550625Y-46005750D02*
X116630625Y-46005750D01*
X116630625Y-46005750D02*
X116630625Y-44481750D01*
X104346375Y-57308750D02*
X104346375Y-52228750D01*
X102822375Y-56546750D02*
X104346375Y-56546750D01*
X102822375Y-56927750D02*
X104346375Y-56927750D01*
X102822375Y-57181750D02*
X104346375Y-57181750D01*
X104346375Y-56800750D02*
X102822375Y-56800750D01*
X102822375Y-57308750D02*
X104346375Y-57308750D01*
X104346375Y-57054750D02*
X102822375Y-57054750D01*
X102822375Y-56673750D02*
X104346375Y-56673750D01*
X104346375Y-52228750D02*
X102822375Y-52228750D01*
X102822375Y-52228750D02*
X102822375Y-57308750D01*
X111760000Y-63531750D02*
X111760000Y-65055750D01*
X111887000Y-63531750D02*
X111887000Y-65055750D01*
X112395000Y-63531750D02*
X112395000Y-65055750D01*
X116840000Y-63531750D02*
X111760000Y-63531750D01*
X112268000Y-65055750D02*
X112268000Y-63531750D01*
X112141000Y-63531750D02*
X112141000Y-65055750D01*
X111760000Y-65055750D02*
X116840000Y-65055750D01*
X112522000Y-63531750D02*
X112522000Y-65055750D01*
X116840000Y-65055750D02*
X116840000Y-63531750D01*
X112014000Y-65055750D02*
X112014000Y-63531750D01*
X58769250Y-80740250D02*
X60293250Y-80740250D01*
X58769250Y-76041250D02*
X58769250Y-81121250D01*
X60293250Y-80613250D02*
X58769250Y-80613250D01*
X58769250Y-81121250D02*
X60293250Y-81121250D01*
X60293250Y-81121250D02*
X60293250Y-76041250D01*
X58769250Y-80359250D02*
X60293250Y-80359250D01*
X58769250Y-80994250D02*
X60293250Y-80994250D01*
X60293250Y-80867250D02*
X58769250Y-80867250D01*
X58769250Y-80486250D02*
X60293250Y-80486250D01*
X60293250Y-76041250D02*
X58769250Y-76041250D01*
X79343250Y-76041250D02*
X77819250Y-76041250D01*
X79343250Y-81121250D02*
X79343250Y-76041250D01*
X77819250Y-80994250D02*
X79343250Y-80994250D01*
X77819250Y-80359250D02*
X79343250Y-80359250D01*
X77819250Y-80740250D02*
X79343250Y-80740250D01*
X77819250Y-80486250D02*
X79343250Y-80486250D01*
X77819250Y-76041250D02*
X77819250Y-81121250D01*
X77819250Y-81121250D02*
X79343250Y-81121250D01*
X79343250Y-80867250D02*
X77819250Y-80867250D01*
X79343250Y-80613250D02*
X77819250Y-80613250D01*
X96869250Y-80740250D02*
X98393250Y-80740250D01*
X96869250Y-81121250D02*
X98393250Y-81121250D01*
X96869250Y-80359250D02*
X98393250Y-80359250D01*
X98393250Y-80867250D02*
X96869250Y-80867250D01*
X96869250Y-80486250D02*
X98393250Y-80486250D01*
X98393250Y-81121250D02*
X98393250Y-76041250D01*
X96869250Y-76041250D02*
X96869250Y-81121250D01*
X98393250Y-80613250D02*
X96869250Y-80613250D01*
X98393250Y-76041250D02*
X96869250Y-76041250D01*
X96869250Y-80994250D02*
X98393250Y-80994250D01*
X101631750Y-90265250D02*
X103155750Y-90265250D01*
X101631750Y-90011250D02*
X103155750Y-90011250D01*
X103155750Y-90392250D02*
X101631750Y-90392250D01*
X103155750Y-85566250D02*
X101631750Y-85566250D01*
X103155750Y-90138250D02*
X101631750Y-90138250D01*
X101631750Y-85566250D02*
X101631750Y-90646250D01*
X101631750Y-89884250D02*
X103155750Y-89884250D01*
X101631750Y-90646250D02*
X103155750Y-90646250D01*
X101631750Y-90519250D02*
X103155750Y-90519250D01*
X103155750Y-90646250D02*
X103155750Y-85566250D01*
X60293250Y-95091250D02*
X58769250Y-95091250D01*
X58769250Y-100044250D02*
X60293250Y-100044250D01*
X60293250Y-99663250D02*
X58769250Y-99663250D01*
X58769250Y-95091250D02*
X58769250Y-100171250D01*
X60293250Y-100171250D02*
X60293250Y-95091250D01*
X58769250Y-99409250D02*
X60293250Y-99409250D01*
X58769250Y-99790250D02*
X60293250Y-99790250D01*
X58769250Y-100171250D02*
X60293250Y-100171250D01*
X58769250Y-99536250D02*
X60293250Y-99536250D01*
X60293250Y-99917250D02*
X58769250Y-99917250D01*
X79343250Y-99917250D02*
X77819250Y-99917250D01*
X77819250Y-95091250D02*
X77819250Y-100171250D01*
X77819250Y-99790250D02*
X79343250Y-99790250D01*
X77819250Y-99536250D02*
X79343250Y-99536250D01*
X79343250Y-99663250D02*
X77819250Y-99663250D01*
X79343250Y-95091250D02*
X77819250Y-95091250D01*
X79343250Y-100171250D02*
X79343250Y-95091250D01*
X77819250Y-99409250D02*
X79343250Y-99409250D01*
X77819250Y-100044250D02*
X79343250Y-100044250D01*
X77819250Y-100171250D02*
X79343250Y-100171250D01*
X98393250Y-95091250D02*
X96869250Y-95091250D01*
X96869250Y-95091250D02*
X96869250Y-100171250D01*
X96869250Y-99409250D02*
X98393250Y-99409250D01*
X98393250Y-99917250D02*
X96869250Y-99917250D01*
X98393250Y-99663250D02*
X96869250Y-99663250D01*
X96869250Y-100044250D02*
X98393250Y-100044250D01*
X98393250Y-100171250D02*
X98393250Y-95091250D01*
X96869250Y-99536250D02*
X98393250Y-99536250D01*
X96869250Y-100171250D02*
X98393250Y-100171250D01*
X96869250Y-99790250D02*
X98393250Y-99790250D01*
X60293250Y-114141250D02*
X58769250Y-114141250D01*
X58769250Y-118840250D02*
X60293250Y-118840250D01*
X60293250Y-119221250D02*
X60293250Y-114141250D01*
X58769250Y-118459250D02*
X60293250Y-118459250D01*
X60293250Y-118967250D02*
X58769250Y-118967250D01*
X58769250Y-119094250D02*
X60293250Y-119094250D01*
X58769250Y-114141250D02*
X58769250Y-119221250D01*
X60293250Y-118713250D02*
X58769250Y-118713250D01*
X58769250Y-118586250D02*
X60293250Y-118586250D01*
X58769250Y-119221250D02*
X60293250Y-119221250D01*
X77819250Y-119221250D02*
X79343250Y-119221250D01*
X79343250Y-118713250D02*
X77819250Y-118713250D01*
X77819250Y-114141250D02*
X77819250Y-119221250D01*
X77819250Y-118586250D02*
X79343250Y-118586250D01*
X77819250Y-118840250D02*
X79343250Y-118840250D01*
X77819250Y-118459250D02*
X79343250Y-118459250D01*
X79343250Y-119221250D02*
X79343250Y-114141250D01*
X77819250Y-119094250D02*
X79343250Y-119094250D01*
X79343250Y-118967250D02*
X77819250Y-118967250D01*
X79343250Y-114141250D02*
X77819250Y-114141250D01*
X96869250Y-118586250D02*
X98393250Y-118586250D01*
X98393250Y-119221250D02*
X98393250Y-114141250D01*
X96869250Y-118840250D02*
X98393250Y-118840250D01*
X96869250Y-114141250D02*
X96869250Y-119221250D01*
X98393250Y-114141250D02*
X96869250Y-114141250D01*
X96869250Y-118459250D02*
X98393250Y-118459250D01*
X98393250Y-118713250D02*
X96869250Y-118713250D01*
X96869250Y-119221250D02*
X98393250Y-119221250D01*
X98393250Y-118967250D02*
X96869250Y-118967250D01*
X96869250Y-119094250D02*
X98393250Y-119094250D01*
X103155750Y-119221250D02*
X103155750Y-114141250D01*
X101631750Y-118459250D02*
X103155750Y-118459250D01*
X101631750Y-119094250D02*
X103155750Y-119094250D01*
X103155750Y-118713250D02*
X101631750Y-118713250D01*
X103155750Y-118967250D02*
X101631750Y-118967250D01*
X101631750Y-118586250D02*
X103155750Y-118586250D01*
X103155750Y-114141250D02*
X101631750Y-114141250D01*
X101631750Y-118840250D02*
X103155750Y-118840250D01*
X101631750Y-119221250D02*
X103155750Y-119221250D01*
X101631750Y-114141250D02*
X101631750Y-119221250D01*
X58769250Y-137636250D02*
X60293250Y-137636250D01*
X58769250Y-138271250D02*
X60293250Y-138271250D01*
X60293250Y-137763250D02*
X58769250Y-137763250D01*
X58769250Y-137509250D02*
X60293250Y-137509250D01*
X60293250Y-138271250D02*
X60293250Y-133191250D01*
X58769250Y-138144250D02*
X60293250Y-138144250D01*
X60293250Y-133191250D02*
X58769250Y-133191250D01*
X58769250Y-133191250D02*
X58769250Y-138271250D01*
X58769250Y-137890250D02*
X60293250Y-137890250D01*
X60293250Y-138017250D02*
X58769250Y-138017250D01*
X77819250Y-137636250D02*
X79343250Y-137636250D01*
X77819250Y-138144250D02*
X79343250Y-138144250D01*
X77819250Y-138271250D02*
X79343250Y-138271250D01*
X77819250Y-137509250D02*
X79343250Y-137509250D01*
X79343250Y-137763250D02*
X77819250Y-137763250D01*
X79343250Y-133191250D02*
X77819250Y-133191250D01*
X79343250Y-138017250D02*
X77819250Y-138017250D01*
X77819250Y-133191250D02*
X77819250Y-138271250D01*
X77819250Y-137890250D02*
X79343250Y-137890250D01*
X79343250Y-138271250D02*
X79343250Y-133191250D01*
X96869250Y-133191250D02*
X96869250Y-138271250D01*
X98393250Y-133191250D02*
X96869250Y-133191250D01*
X98393250Y-137763250D02*
X96869250Y-137763250D01*
X96869250Y-138144250D02*
X98393250Y-138144250D01*
X98393250Y-138017250D02*
X96869250Y-138017250D01*
X96869250Y-137509250D02*
X98393250Y-137509250D01*
X96869250Y-137890250D02*
X98393250Y-137890250D01*
X98393250Y-138271250D02*
X98393250Y-133191250D01*
X96869250Y-137636250D02*
X98393250Y-137636250D01*
X96869250Y-138271250D02*
X98393250Y-138271250D01*
X103155750Y-133191250D02*
X101631750Y-133191250D01*
X101631750Y-138144250D02*
X103155750Y-138144250D01*
X103155750Y-138017250D02*
X101631750Y-138017250D01*
X103155750Y-137763250D02*
X101631750Y-137763250D01*
X101631750Y-138271250D02*
X103155750Y-138271250D01*
X103155750Y-138271250D02*
X103155750Y-133191250D01*
X101631750Y-133191250D02*
X101631750Y-138271250D01*
X101631750Y-137509250D02*
X103155750Y-137509250D01*
X101631750Y-137890250D02*
X103155750Y-137890250D01*
X101631750Y-137636250D02*
X103155750Y-137636250D01*
D12*
X101758750Y-25082500D02*
X83978750Y-25082500D01*
X101758750Y-58102500D02*
X101758750Y-25082500D01*
X86518750Y-30162500D02*
X83978750Y-30162500D01*
X83978750Y-25082500D02*
X83978750Y-58102500D01*
X86518750Y-27622500D02*
X83978750Y-27622500D01*
X83978750Y-58102500D02*
X101758750Y-58102500D01*
X86518750Y-27622500D02*
X86518750Y-30162500D01*
G36*
X98813385Y-33811530D02*
G01*
X98713385Y-33811530D01*
X98713385Y-33511530D01*
X98813385Y-33511530D01*
X98813385Y-33811530D01*
G37*
D10*
X98813385Y-33811530D02*
X98713385Y-33811530D01*
X98713385Y-33511530D01*
X98813385Y-33511530D01*
X98813385Y-33811530D01*
G36*
X99213385Y-33611530D02*
G01*
X98713385Y-33611530D01*
X98713385Y-33511530D01*
X99213385Y-33511530D01*
X99213385Y-33611530D01*
G37*
X99213385Y-33611530D02*
X98713385Y-33611530D01*
X98713385Y-33511530D01*
X99213385Y-33511530D01*
X99213385Y-33611530D01*
G36*
X98813385Y-34311530D02*
G01*
X98713385Y-34311530D01*
X98713385Y-34111530D01*
X98813385Y-34111530D01*
X98813385Y-34311530D01*
G37*
X98813385Y-34311530D02*
X98713385Y-34311530D01*
X98713385Y-34111530D01*
X98813385Y-34111530D01*
X98813385Y-34311530D01*
G36*
X99013385Y-34011530D02*
G01*
X98913385Y-34011530D01*
X98913385Y-33911530D01*
X99013385Y-33911530D01*
X99013385Y-34011530D01*
G37*
X99013385Y-34011530D02*
X98913385Y-34011530D01*
X98913385Y-33911530D01*
X99013385Y-33911530D01*
X99013385Y-34011530D01*
G36*
X99213385Y-34311530D02*
G01*
X99113385Y-34311530D01*
X99113385Y-33511530D01*
X99213385Y-33511530D01*
X99213385Y-34311530D01*
G37*
X99213385Y-34311530D02*
X99113385Y-34311530D01*
X99113385Y-33511530D01*
X99213385Y-33511530D01*
X99213385Y-34311530D01*
G36*
X113646985Y-102826070D02*
G01*
X113688413Y-102924149D01*
X113587948Y-103110589D01*
X113341660Y-103381201D01*
X113211679Y-103491520D01*
X112933314Y-103685422D01*
X112592359Y-103892641D01*
X112229360Y-104091365D01*
X111884861Y-104259782D01*
X111599407Y-104376080D01*
X111413544Y-104418449D01*
X111412652Y-104418430D01*
X111416657Y-104388729D01*
X111550204Y-104314017D01*
X111784779Y-104210283D01*
X112026013Y-104102945D01*
X112274135Y-103972763D01*
X112421903Y-103870564D01*
X112462626Y-103828388D01*
X112510711Y-103733949D01*
X112428449Y-103654554D01*
X112375062Y-103627784D01*
X112163851Y-103613327D01*
X111862463Y-103701783D01*
X111452344Y-103897777D01*
X111184544Y-104068222D01*
X111027093Y-104231921D01*
X111004816Y-104363652D01*
X111128114Y-104445831D01*
X111142066Y-104455759D01*
X111049821Y-104470676D01*
X110832033Y-104480601D01*
X110517078Y-104483774D01*
X110326026Y-104482082D01*
X110072373Y-104474129D01*
X109936181Y-104461307D01*
X109943666Y-104445373D01*
X110076849Y-104402210D01*
X110123946Y-104306603D01*
X110007379Y-104166459D01*
X109904115Y-104036968D01*
X109873892Y-103824808D01*
X109962152Y-103619975D01*
X110146471Y-103465511D01*
X110404419Y-103404459D01*
X110541058Y-103401187D01*
X110935698Y-103370654D01*
X111397538Y-103314317D01*
X111879256Y-103239903D01*
X112333530Y-103155140D01*
X112713037Y-103067753D01*
X112970454Y-102985469D01*
X113154165Y-102911753D01*
X113467593Y-102820542D01*
X113646985Y-102826070D01*
G37*
G36*
X114976944Y-99467459D02*
G01*
X114934469Y-99509792D01*
X114891994Y-99467459D01*
X114934469Y-99425125D01*
X114976944Y-99467459D01*
G37*
G36*
X114776779Y-99632887D02*
G01*
X114722094Y-99763792D01*
X114656919Y-99868222D01*
X114588692Y-99933125D01*
X114582460Y-99894697D01*
X114637145Y-99763792D01*
X114702320Y-99659361D01*
X114770547Y-99594459D01*
X114776779Y-99632887D01*
G37*
G36*
X115656543Y-98366792D02*
G01*
X115614068Y-98409125D01*
X115571593Y-98366792D01*
X115614068Y-98324459D01*
X115656543Y-98366792D01*
G37*
G36*
X112454446Y-97983583D02*
G01*
X112405407Y-98021679D01*
X112239170Y-98128370D01*
X112095285Y-98141346D01*
X111886970Y-98074511D01*
X111878548Y-98071271D01*
X111635997Y-97908624D01*
X111557787Y-97710264D01*
X112279908Y-97710264D01*
X112282064Y-97803522D01*
X112372743Y-97854255D01*
X112499800Y-97796145D01*
X112545645Y-97743492D01*
X112598349Y-97637683D01*
X112587730Y-97611238D01*
X112491533Y-97593824D01*
X112361542Y-97633074D01*
X112279908Y-97710264D01*
X111557787Y-97710264D01*
X111545889Y-97680089D01*
X111615705Y-97404150D01*
X111622905Y-97393125D01*
X112428449Y-97393125D01*
X112431906Y-97416331D01*
X112518412Y-97477792D01*
X112549138Y-97471144D01*
X112555874Y-97393125D01*
X112538438Y-97367787D01*
X112465910Y-97308459D01*
X112457432Y-97310660D01*
X112428449Y-97393125D01*
X111622905Y-97393125D01*
X111689941Y-97290482D01*
X111916735Y-97108725D01*
X112184321Y-97038882D01*
X112443708Y-97087713D01*
X112645910Y-97261980D01*
X112697185Y-97393125D01*
X112733781Y-97486725D01*
X112700776Y-97637683D01*
X112678705Y-97738631D01*
X112454446Y-97983583D01*
G37*
G36*
X115373376Y-98776014D02*
G01*
X115386667Y-98801480D01*
X115316743Y-98832459D01*
X115271771Y-98826348D01*
X115260110Y-98776014D01*
X115272561Y-98765881D01*
X115373376Y-98776014D01*
G37*
G36*
X115522382Y-98500440D02*
G01*
X115529118Y-98578459D01*
X115511682Y-98603796D01*
X115439154Y-98663125D01*
X115430677Y-98660924D01*
X115401693Y-98578459D01*
X115405150Y-98555252D01*
X115491656Y-98493792D01*
X115522382Y-98500440D01*
G37*
G36*
X109816242Y-103348385D02*
G01*
X109830652Y-103377785D01*
X109710054Y-103391090D01*
X109593195Y-103379288D01*
X109603867Y-103348385D01*
X109642320Y-103337203D01*
X109816242Y-103348385D01*
G37*
G36*
X115804688Y-98222664D02*
G01*
X116018237Y-98506395D01*
X116233304Y-98820587D01*
X116510729Y-99356668D01*
X116717419Y-99962610D01*
X116858974Y-100661531D01*
X116940997Y-101476552D01*
X116969088Y-102430792D01*
X116969289Y-102685168D01*
X116966605Y-102948542D01*
X116964033Y-103200959D01*
X116948436Y-103595710D01*
X116930771Y-103785459D01*
X116919773Y-103903586D01*
X116875318Y-104158751D01*
X116812345Y-104395367D01*
X116651425Y-104920609D01*
X116918532Y-105223813D01*
X117044673Y-105378039D01*
X117136563Y-105549257D01*
X117176764Y-105759764D01*
X117185639Y-106074405D01*
X117185639Y-106621792D01*
X115720255Y-106620560D01*
X115667921Y-106620494D01*
X115086798Y-106615445D01*
X114644959Y-106601120D01*
X114314148Y-106575385D01*
X114066112Y-106536111D01*
X113872596Y-106481164D01*
X113767426Y-106448786D01*
X113414460Y-106383148D01*
X112915342Y-106335374D01*
X112258549Y-106304203D01*
X111879460Y-106293509D01*
X111480111Y-106288802D01*
X111185805Y-106298388D01*
X110959183Y-106325334D01*
X110762885Y-106372701D01*
X110559553Y-106443556D01*
X110427634Y-106490876D01*
X110249431Y-106540847D01*
X110046361Y-106576356D01*
X109789423Y-106599801D01*
X109449612Y-106613583D01*
X108997925Y-106620099D01*
X108405360Y-106621749D01*
X106718392Y-106621792D01*
X106774865Y-106388959D01*
X106804699Y-106290979D01*
X106906750Y-106034151D01*
X107038923Y-105755517D01*
X107045964Y-105741906D01*
X107183407Y-105449386D01*
X107233903Y-105233795D01*
X107200573Y-105031013D01*
X107086537Y-104776919D01*
X106975903Y-104525273D01*
X106802885Y-103916235D01*
X106698267Y-103206225D01*
X106675181Y-102745914D01*
X107960036Y-102745914D01*
X108078748Y-102897657D01*
X108337303Y-103031921D01*
X108750689Y-103160054D01*
X108795453Y-103171807D01*
X109043895Y-103242675D01*
X109187024Y-103293841D01*
X109195011Y-103314911D01*
X109172351Y-103317820D01*
X109005656Y-103406509D01*
X108819556Y-103576519D01*
X108668192Y-103771040D01*
X108605706Y-103933261D01*
X108605769Y-103940759D01*
X108633765Y-104053704D01*
X108734385Y-104140681D01*
X108939343Y-104219259D01*
X109280354Y-104307009D01*
X109752529Y-104417501D01*
X109333298Y-104376119D01*
X109151126Y-104350342D01*
X108820446Y-104252114D01*
X108600560Y-104108818D01*
X108520757Y-103936306D01*
X108523521Y-103911459D01*
X108600139Y-103746623D01*
X108749025Y-103557258D01*
X108977292Y-103319792D01*
X108755092Y-103319792D01*
X108566009Y-103352108D01*
X108350471Y-103522441D01*
X108221411Y-103836963D01*
X108210810Y-104103344D01*
X108340134Y-104382035D01*
X108627623Y-104610006D01*
X109074966Y-104788506D01*
X109683852Y-104918785D01*
X109691793Y-104920009D01*
X110023525Y-104966305D01*
X110310318Y-104998060D01*
X110490875Y-105008463D01*
X110787107Y-104970769D01*
X111210618Y-104865687D01*
X111692440Y-104710596D01*
X112187696Y-104522645D01*
X112651510Y-104318978D01*
X113039002Y-104116745D01*
X113305297Y-103933093D01*
X113317779Y-103921765D01*
X113469280Y-103758605D01*
X113658815Y-103524164D01*
X113857139Y-103258813D01*
X114035007Y-103002918D01*
X114163174Y-102796849D01*
X114212395Y-102680974D01*
X114165531Y-102573267D01*
X114034775Y-102423828D01*
X113973673Y-102371719D01*
X113891460Y-102328655D01*
X113781242Y-102322913D01*
X113609929Y-102359147D01*
X113344434Y-102442009D01*
X112951665Y-102576153D01*
X112283905Y-102791609D01*
X111712818Y-102937115D01*
X111192370Y-103019189D01*
X110672639Y-103045689D01*
X110103704Y-103024474D01*
X109694005Y-102988266D01*
X109062195Y-102889182D01*
X108581043Y-102746085D01*
X108241262Y-102556644D01*
X108023351Y-102385806D01*
X107995544Y-102473125D01*
X107965998Y-102565907D01*
X107960036Y-102745914D01*
X106675181Y-102745914D01*
X106659292Y-102429090D01*
X107434559Y-102429090D01*
X107444725Y-102529570D01*
X107470277Y-102542815D01*
X107501359Y-102473125D01*
X107495228Y-102428303D01*
X107444725Y-102416681D01*
X107434559Y-102429090D01*
X106659292Y-102429090D01*
X106659249Y-102428239D01*
X106666248Y-102189002D01*
X108096007Y-102189002D01*
X108098175Y-102217389D01*
X108203429Y-102394375D01*
X108447665Y-102563166D01*
X108804308Y-102712245D01*
X109246783Y-102830095D01*
X109748517Y-102905197D01*
X110142244Y-102939640D01*
X110545356Y-102960892D01*
X110886443Y-102954548D01*
X111225226Y-102918921D01*
X111621425Y-102852326D01*
X111841500Y-102803221D01*
X112190126Y-102707815D01*
X112579109Y-102588091D01*
X112967604Y-102457859D01*
X113314767Y-102330927D01*
X113579754Y-102221106D01*
X113719109Y-102143657D01*
X113920730Y-102143657D01*
X113932820Y-102191989D01*
X114073514Y-102309937D01*
X114128584Y-102356503D01*
X114270716Y-102563915D01*
X114269177Y-102680974D01*
X114267494Y-102809003D01*
X114120517Y-103119298D01*
X114013423Y-103302439D01*
X113984384Y-103389700D01*
X114058895Y-103344280D01*
X114238977Y-103166992D01*
X114247544Y-103157949D01*
X114411625Y-102898436D01*
X114462941Y-102625477D01*
X114409959Y-102379925D01*
X114261147Y-102202634D01*
X114024972Y-102134459D01*
X113920730Y-102143657D01*
X113719109Y-102143657D01*
X113721720Y-102142206D01*
X113727578Y-102131545D01*
X113652916Y-102110965D01*
X113466871Y-102116955D01*
X113293442Y-102116309D01*
X112973269Y-102076988D01*
X112640823Y-102003637D01*
X112404111Y-101939738D01*
X112221398Y-101893860D01*
X113413016Y-101893860D01*
X113423416Y-101952609D01*
X113552076Y-101956937D01*
X113669875Y-101943422D01*
X113923217Y-101893454D01*
X114221461Y-101820492D01*
X114511766Y-101738753D01*
X114741290Y-101662454D01*
X114857190Y-101605811D01*
X114857610Y-101517494D01*
X114769133Y-101380867D01*
X114636403Y-101257066D01*
X114508770Y-101203125D01*
X114430673Y-101176036D01*
X114246322Y-101068404D01*
X114017333Y-100906792D01*
X113846935Y-100779587D01*
X113674542Y-100657602D01*
X113594616Y-100610459D01*
X113584334Y-100652084D01*
X113584302Y-100734801D01*
X113584268Y-100820858D01*
X113593560Y-100971459D01*
X113599955Y-101075113D01*
X113609671Y-101242364D01*
X113603798Y-101323200D01*
X113588180Y-101538165D01*
X113504654Y-101738410D01*
X113498799Y-101752447D01*
X113413016Y-101893860D01*
X112221398Y-101893860D01*
X112106229Y-101864942D01*
X111896473Y-101818851D01*
X111725741Y-101770312D01*
X111630998Y-101711125D01*
X112598349Y-101711125D01*
X112604962Y-101782741D01*
X112675334Y-101878258D01*
X112796565Y-101824014D01*
X112846797Y-101738410D01*
X112832739Y-101604686D01*
X112725773Y-101541792D01*
X112651465Y-101573221D01*
X112598349Y-101711125D01*
X111630998Y-101711125D01*
X111615372Y-101701363D01*
X111534185Y-101632842D01*
X111455666Y-101643612D01*
X111461115Y-101732292D01*
X111463772Y-101736979D01*
X111450041Y-101759829D01*
X111342493Y-101680254D01*
X111337513Y-101675945D01*
X111126663Y-101566455D01*
X110839429Y-101562111D01*
X110630914Y-101571123D01*
X110296560Y-101556990D01*
X109945734Y-101519559D01*
X109654374Y-101489207D01*
X109284475Y-101476820D01*
X108990452Y-101494664D01*
X108681296Y-101579618D01*
X108382267Y-101746699D01*
X108174105Y-101959969D01*
X108096007Y-102189002D01*
X106666248Y-102189002D01*
X106683034Y-101615275D01*
X106745213Y-101010509D01*
X109024084Y-101010509D01*
X109028500Y-101034524D01*
X109119653Y-101105759D01*
X109160892Y-101110255D01*
X109187613Y-101038025D01*
X109164470Y-100992310D01*
X109079504Y-100944593D01*
X109024084Y-101010509D01*
X106745213Y-101010509D01*
X106766822Y-100800330D01*
X106770516Y-100779792D01*
X107841158Y-100779792D01*
X107855573Y-100878143D01*
X107918155Y-100949125D01*
X107955486Y-100914800D01*
X107950722Y-100779792D01*
X107918348Y-100680269D01*
X107900785Y-100652792D01*
X109187613Y-100652792D01*
X109191167Y-100676156D01*
X109278934Y-100763564D01*
X109327151Y-100758165D01*
X109370255Y-100652792D01*
X109356394Y-100582890D01*
X109278934Y-100542020D01*
X109253748Y-100553517D01*
X109187613Y-100652792D01*
X107900785Y-100652792D01*
X107873725Y-100610459D01*
X107854861Y-100641970D01*
X107841158Y-100779792D01*
X106770516Y-100779792D01*
X106861600Y-100273358D01*
X108495225Y-100273358D01*
X108525530Y-100450016D01*
X108599491Y-100543317D01*
X108738786Y-100610459D01*
X108765525Y-100608742D01*
X108890642Y-100527639D01*
X108918648Y-100372483D01*
X108833961Y-100209000D01*
X108723019Y-100140109D01*
X108578047Y-100156778D01*
X108495225Y-100273358D01*
X106861600Y-100273358D01*
X106907814Y-100016402D01*
X106910251Y-100007425D01*
X109030456Y-100007425D01*
X109047792Y-100060135D01*
X109150317Y-100180869D01*
X109267194Y-100221903D01*
X109350738Y-100154569D01*
X109327780Y-100017792D01*
X109326741Y-100016147D01*
X109220546Y-99945649D01*
X109092580Y-99941723D01*
X109030456Y-100007425D01*
X106910251Y-100007425D01*
X106986030Y-99728229D01*
X109455205Y-99728229D01*
X109459991Y-99744991D01*
X109535868Y-99865090D01*
X109674763Y-100041741D01*
X109757072Y-100154569D01*
X109796695Y-100208884D01*
X109850766Y-100372483D01*
X109863544Y-100411144D01*
X109860227Y-100652792D01*
X109859730Y-100688963D01*
X109848714Y-100793019D01*
X109829222Y-100914800D01*
X109809498Y-101038025D01*
X109807810Y-101048574D01*
X109761359Y-101216887D01*
X109746278Y-101282433D01*
X109799084Y-101338845D01*
X109959772Y-101379750D01*
X110259221Y-101417595D01*
X110379147Y-101429543D01*
X110665868Y-101443469D01*
X110846331Y-101417516D01*
X110966295Y-101347124D01*
X111053402Y-101279977D01*
X111159420Y-101274038D01*
X111312275Y-101379249D01*
X111388132Y-101438251D01*
X111554638Y-101528967D01*
X111639910Y-101482277D01*
X111658591Y-101335122D01*
X112768248Y-101335122D01*
X112786352Y-101395647D01*
X112904762Y-101457125D01*
X112981825Y-101436398D01*
X112989711Y-101323200D01*
X112964754Y-101253298D01*
X112938148Y-101148870D01*
X112932661Y-101138000D01*
X112853198Y-101160792D01*
X112820021Y-101190973D01*
X112768248Y-101335122D01*
X111658591Y-101335122D01*
X111663900Y-101293304D01*
X111669105Y-101181986D01*
X111726229Y-100964579D01*
X112105630Y-100964579D01*
X112114735Y-101039700D01*
X112208962Y-101165282D01*
X112345891Y-101244502D01*
X112459754Y-101228368D01*
X112493242Y-101150192D01*
X112513399Y-100971459D01*
X112512692Y-100936459D01*
X112468303Y-100808628D01*
X112323129Y-100795070D01*
X112201618Y-100841186D01*
X112105630Y-100964579D01*
X111726229Y-100964579D01*
X111783137Y-100747992D01*
X111888358Y-100586308D01*
X112876706Y-100586308D01*
X112902762Y-100725340D01*
X112915958Y-100754081D01*
X113023062Y-100850726D01*
X113138812Y-100845063D01*
X113192997Y-100734801D01*
X113192837Y-100728830D01*
X113128610Y-100607894D01*
X113001592Y-100530513D01*
X112890010Y-100545547D01*
X112876706Y-100586308D01*
X111888358Y-100586308D01*
X112024166Y-100377625D01*
X112203215Y-100187125D01*
X111771210Y-100187125D01*
X111709357Y-100187492D01*
X111625215Y-100194454D01*
X111454199Y-100208604D01*
X111284799Y-100281654D01*
X111131099Y-100433620D01*
X110922994Y-100680114D01*
X110456736Y-100315384D01*
X110211184Y-100131593D01*
X109925602Y-99937607D01*
X109684341Y-99793951D01*
X109517507Y-99718275D01*
X109455205Y-99728229D01*
X106986030Y-99728229D01*
X107002889Y-99666114D01*
X109766454Y-99666114D01*
X110014341Y-99865742D01*
X110271412Y-100071285D01*
X110544519Y-100280270D01*
X110730459Y-100401723D01*
X110854440Y-100448238D01*
X110941670Y-100432408D01*
X111017360Y-100366829D01*
X111077967Y-100295678D01*
X111106747Y-100194454D01*
X111006071Y-100079761D01*
X110982174Y-100061363D01*
X111612625Y-100061363D01*
X111625224Y-100072149D01*
X111778710Y-100051871D01*
X112050559Y-100069599D01*
X112387982Y-100118307D01*
X112730321Y-100187125D01*
X112741370Y-100189346D01*
X113061118Y-100274062D01*
X113297617Y-100363806D01*
X113397538Y-100415809D01*
X113647590Y-100560886D01*
X113824579Y-100683823D01*
X113874755Y-100718039D01*
X113864966Y-100669687D01*
X113754046Y-100508887D01*
X113702057Y-100445298D01*
X113443429Y-100205430D01*
X113159356Y-100022054D01*
X113000366Y-99957814D01*
X112637696Y-99872971D01*
X112262612Y-99847634D01*
X111931657Y-99883368D01*
X111701374Y-99981737D01*
X111612625Y-100061363D01*
X110982174Y-100061363D01*
X110898439Y-99996898D01*
X110568965Y-99842593D01*
X110099291Y-99726803D01*
X109766454Y-99666114D01*
X107002889Y-99666114D01*
X107056808Y-99467459D01*
X109625104Y-99467459D01*
X109667579Y-99509792D01*
X109710054Y-99467459D01*
X109667579Y-99425125D01*
X109625104Y-99467459D01*
X107056808Y-99467459D01*
X107103212Y-99296489D01*
X107180608Y-99101311D01*
X109794761Y-99101311D01*
X109847784Y-99368378D01*
X109955748Y-99467459D01*
X110045635Y-99549951D01*
X110144266Y-99589971D01*
X110488353Y-99656360D01*
X110968627Y-99679125D01*
X111248012Y-99674995D01*
X111524069Y-99650910D01*
X111713618Y-99596937D01*
X111864819Y-99503647D01*
X111923066Y-99452156D01*
X112069354Y-99195667D01*
X112065455Y-98880036D01*
X111910549Y-98522899D01*
X111691492Y-98259115D01*
X111334200Y-98053568D01*
X110879997Y-97985792D01*
X110827133Y-97986573D01*
X110603158Y-98028125D01*
X110466785Y-98053425D01*
X110190549Y-98243960D01*
X109963766Y-98580680D01*
X109886443Y-98747284D01*
X109794761Y-99101311D01*
X107180608Y-99101311D01*
X107350217Y-98673586D01*
X107646029Y-98180693D01*
X107756568Y-98032305D01*
X107759444Y-98028125D01*
X110134803Y-98028125D01*
X110177278Y-98070459D01*
X110219753Y-98028125D01*
X110177278Y-97985792D01*
X110134803Y-98028125D01*
X107759444Y-98028125D01*
X107817693Y-97943459D01*
X110304703Y-97943459D01*
X110347178Y-97985792D01*
X110389653Y-97943459D01*
X110347178Y-97901125D01*
X110304703Y-97943459D01*
X107817693Y-97943459D01*
X107878645Y-97854863D01*
X107926108Y-97765296D01*
X107924600Y-97758005D01*
X110856424Y-97758005D01*
X110925831Y-97817422D01*
X111149972Y-97867938D01*
X111368104Y-97943459D01*
X111489349Y-97985436D01*
X111789496Y-98202910D01*
X112027530Y-98485669D01*
X112180701Y-98799043D01*
X112226261Y-99108361D01*
X112198900Y-99195667D01*
X112141459Y-99378954D01*
X111999783Y-99594459D01*
X112490203Y-99595286D01*
X112844258Y-99631704D01*
X113301982Y-99754646D01*
X113731381Y-99939987D01*
X114061863Y-100162261D01*
X114091603Y-100188196D01*
X114220552Y-100250244D01*
X114359464Y-100181727D01*
X114405942Y-100147046D01*
X114464414Y-100111998D01*
X114406403Y-100184114D01*
X114397457Y-100194728D01*
X114367907Y-100291032D01*
X114432282Y-100425514D01*
X114607112Y-100635334D01*
X114675715Y-100718039D01*
X114819206Y-100891025D01*
X115076707Y-101332100D01*
X115124637Y-101517494D01*
X115197415Y-101798997D01*
X115197697Y-102131545D01*
X115197874Y-102339437D01*
X115164057Y-102625477D01*
X115154782Y-102703933D01*
X115061813Y-103216714D01*
X114943749Y-103661296D01*
X114812419Y-103987115D01*
X114775574Y-104052821D01*
X114700055Y-104150827D01*
X114680673Y-104099861D01*
X114717467Y-103908115D01*
X114810477Y-103583781D01*
X114891139Y-103315210D01*
X114953193Y-103087116D01*
X114976944Y-102969268D01*
X114938536Y-102983800D01*
X114808965Y-103100684D01*
X114609557Y-103304236D01*
X114362831Y-103572344D01*
X114306010Y-103635164D01*
X113881551Y-104062583D01*
X113462126Y-104393122D01*
X112989943Y-104666703D01*
X112407211Y-104923246D01*
X112206142Y-105007593D01*
X111976288Y-105130076D01*
X111906094Y-105223057D01*
X111997981Y-105290484D01*
X112254368Y-105336306D01*
X112677678Y-105364471D01*
X112908966Y-105378851D01*
X113269156Y-105435981D01*
X113485933Y-105532811D01*
X113588118Y-105595996D01*
X113919453Y-105673382D01*
X114341635Y-105639272D01*
X114831430Y-105497156D01*
X115365602Y-105250523D01*
X115553312Y-105128259D01*
X115925639Y-104770716D01*
X116285177Y-104277708D01*
X116552470Y-103785459D01*
X116760890Y-103785459D01*
X116803365Y-103827792D01*
X116845840Y-103785459D01*
X116803365Y-103743125D01*
X116760890Y-103785459D01*
X116552470Y-103785459D01*
X116614425Y-103671363D01*
X116954283Y-102948542D01*
X116905962Y-101970000D01*
X116854956Y-101369580D01*
X116752663Y-100689779D01*
X116612119Y-100039443D01*
X116443542Y-99465140D01*
X116257151Y-99013435D01*
X116052398Y-98693647D01*
X115697340Y-98289574D01*
X115255085Y-97887810D01*
X114757557Y-97510244D01*
X114236680Y-97178762D01*
X113724378Y-96915251D01*
X113374118Y-96786334D01*
X114042496Y-96786334D01*
X114081074Y-96843111D01*
X114224969Y-96976192D01*
X114438809Y-97143993D01*
X114596261Y-97259760D01*
X114874045Y-97463888D01*
X115094773Y-97625959D01*
X115204028Y-97701911D01*
X115412401Y-97801341D01*
X115544088Y-97769094D01*
X115621799Y-97604235D01*
X115652711Y-97399212D01*
X115604403Y-97039124D01*
X115436485Y-96740621D01*
X115171964Y-96537058D01*
X114833844Y-96461792D01*
X114786717Y-96463381D01*
X114544975Y-96505840D01*
X114303088Y-96589104D01*
X114116961Y-96690244D01*
X114042496Y-96786334D01*
X113374118Y-96786334D01*
X113252576Y-96741599D01*
X112853198Y-96679693D01*
X112584549Y-96691564D01*
X112577088Y-96692552D01*
X112175925Y-96745678D01*
X111787845Y-96834056D01*
X111449986Y-96946234D01*
X111192026Y-97071749D01*
X111043642Y-97200136D01*
X111034511Y-97320932D01*
X111044051Y-97348370D01*
X110980227Y-97393125D01*
X110938110Y-97407646D01*
X110926100Y-97509808D01*
X110934372Y-97557462D01*
X110936414Y-97569226D01*
X110878931Y-97718278D01*
X110856424Y-97758005D01*
X107924600Y-97758005D01*
X107923850Y-97754376D01*
X107862034Y-97638002D01*
X107843231Y-97609789D01*
X108011058Y-97609789D01*
X108011884Y-97621625D01*
X108061059Y-97640270D01*
X108089743Y-97609789D01*
X110219753Y-97609789D01*
X110228510Y-97663577D01*
X110304703Y-97731792D01*
X110354994Y-97697733D01*
X110389653Y-97557462D01*
X110371566Y-97461382D01*
X110304703Y-97435459D01*
X110271526Y-97465640D01*
X110258445Y-97502061D01*
X110219753Y-97609789D01*
X108089743Y-97609789D01*
X108146594Y-97549377D01*
X108167264Y-97502061D01*
X108109133Y-97512040D01*
X108071396Y-97538176D01*
X108011058Y-97609789D01*
X107843231Y-97609789D01*
X107742050Y-97457975D01*
X107626131Y-97237972D01*
X107565301Y-96862888D01*
X108012420Y-96862888D01*
X108051619Y-97137383D01*
X108166409Y-97337670D01*
X108274866Y-97427233D01*
X108357546Y-97475099D01*
X108456551Y-97421084D01*
X108666086Y-97257353D01*
X108990653Y-96979339D01*
X109317774Y-96692552D01*
X109084428Y-96492505D01*
X108948115Y-96399890D01*
X108656620Y-96304163D01*
X108367952Y-96311218D01*
X108144550Y-96425506D01*
X108050690Y-96592540D01*
X108012420Y-96862888D01*
X107565301Y-96862888D01*
X107557992Y-96817822D01*
X107573160Y-96579614D01*
X107650771Y-96383355D01*
X107828340Y-96194543D01*
X107868868Y-96159224D01*
X107982951Y-96080792D01*
X108435807Y-96080792D01*
X108478282Y-96123125D01*
X108520757Y-96080792D01*
X108478282Y-96038459D01*
X108435807Y-96080792D01*
X107982951Y-96080792D01*
X108057983Y-96029207D01*
X108268143Y-95968674D01*
X108573067Y-95953792D01*
X108726418Y-95955899D01*
X108964620Y-95984067D01*
X109139542Y-96066261D01*
X109155962Y-96080792D01*
X109323385Y-96228959D01*
X109599324Y-96504125D01*
X110992649Y-96474176D01*
X111526372Y-96468685D01*
X112117118Y-96478336D01*
X112608821Y-96504740D01*
X112966349Y-96546606D01*
X113085056Y-96567305D01*
X113347177Y-96606138D01*
X113502456Y-96606147D01*
X113595856Y-96562468D01*
X113672342Y-96470238D01*
X113734738Y-96402164D01*
X115443379Y-96402164D01*
X115449566Y-96505783D01*
X115562325Y-96702820D01*
X115633187Y-96833520D01*
X115714262Y-97116654D01*
X115742258Y-97399212D01*
X115745036Y-97427246D01*
X115721476Y-97703643D01*
X115639553Y-97884192D01*
X115584996Y-97954202D01*
X115634539Y-97985792D01*
X115736244Y-97949874D01*
X115825179Y-97813558D01*
X115916933Y-97543204D01*
X115937150Y-97452396D01*
X115935380Y-97103427D01*
X115835499Y-96762197D01*
X115656380Y-96503979D01*
X115534088Y-96412421D01*
X115443379Y-96402164D01*
X113734738Y-96402164D01*
X113838454Y-96289010D01*
X114182082Y-96090255D01*
X114584694Y-96003713D01*
X115003520Y-96030298D01*
X115395789Y-96170924D01*
X115718730Y-96426505D01*
X115820372Y-96552413D01*
X116014054Y-96922102D01*
X116057008Y-97319964D01*
X116027799Y-97452396D01*
X115955338Y-97780937D01*
X115804688Y-98222664D01*
G37*
G36*
X108574716Y-96579698D02*
G01*
X108545371Y-96715792D01*
X108497678Y-96814197D01*
X108384255Y-96885125D01*
X108361447Y-96884013D01*
X108325309Y-96841213D01*
X108413043Y-96715792D01*
X108514464Y-96602445D01*
X108574158Y-96546459D01*
X108574716Y-96579698D01*
G37*
G36*
X111069252Y-101076125D02*
G01*
X111026777Y-101118459D01*
X110984302Y-101076125D01*
X111026777Y-101033792D01*
X111069252Y-101076125D01*
G37*
G36*
X115133974Y-99139346D02*
G01*
X115107862Y-99250159D01*
X115067908Y-99305952D01*
X115010842Y-99329107D01*
X115032579Y-99209807D01*
X115064481Y-99148076D01*
X115123370Y-99119507D01*
X115133974Y-99139346D01*
G37*
G36*
X111101363Y-98626875D02*
G01*
X110980819Y-98819835D01*
X110873140Y-98937968D01*
X110832175Y-99016274D01*
X110936826Y-99130401D01*
X110969676Y-99156835D01*
X111031130Y-99238558D01*
X110970177Y-99248260D01*
X110817251Y-99174672D01*
X110739754Y-99144269D01*
X110562402Y-99197135D01*
X110513141Y-99234499D01*
X110476099Y-99249191D01*
X110550920Y-99147312D01*
X110577853Y-99111934D01*
X110625766Y-98994495D01*
X110546751Y-98893312D01*
X110456343Y-98811645D01*
X110284367Y-98586824D01*
X110262962Y-98439548D01*
X110481682Y-98439548D01*
X110584755Y-98490105D01*
X110757471Y-98527057D01*
X110915280Y-98531560D01*
X110984302Y-98495405D01*
X110983887Y-98490605D01*
X110900254Y-98432899D01*
X110715294Y-98409125D01*
X110694862Y-98409214D01*
X110529913Y-98418848D01*
X110481682Y-98439548D01*
X110262962Y-98439548D01*
X110257992Y-98405354D01*
X110374794Y-98285553D01*
X110632354Y-98245743D01*
X110656315Y-98246363D01*
X110905624Y-98268666D01*
X111088996Y-98309829D01*
X111177146Y-98358904D01*
X111185733Y-98444711D01*
X111162386Y-98495405D01*
X111105260Y-98619445D01*
X111101363Y-98626875D01*
G37*
G36*
X115036699Y-96715792D02*
G01*
X115059777Y-96858915D01*
X115172464Y-97033292D01*
X115183663Y-97045784D01*
X115268831Y-97171917D01*
X115250822Y-97223792D01*
X115203355Y-97213051D01*
X115087352Y-97112848D01*
X114981996Y-96994156D01*
X114807044Y-96848431D01*
X114749137Y-96805330D01*
X114681939Y-96738445D01*
X114757778Y-96750575D01*
X114859748Y-96764892D01*
X114997857Y-96697493D01*
X115048803Y-96639206D01*
X115036699Y-96715792D01*
G37*
G36*
X108520757Y-97012125D02*
G01*
X108478282Y-97054459D01*
X108435807Y-97012125D01*
X108478282Y-96969792D01*
X108520757Y-97012125D01*
G37*
G36*
X89535118Y-70464433D02*
G01*
X89531885Y-70602405D01*
X89468152Y-70920331D01*
X89309431Y-71157980D01*
X89037442Y-71347797D01*
X88917206Y-71401532D01*
X88552447Y-71484634D01*
X88150283Y-71488346D01*
X87752902Y-71418579D01*
X87402496Y-71281240D01*
X87141254Y-71082239D01*
X87098878Y-71029014D01*
X87034283Y-70861477D01*
X87081035Y-70733557D01*
X87215847Y-70660656D01*
X87415432Y-70658171D01*
X87656502Y-70741505D01*
X87678759Y-70752318D01*
X87908672Y-70823636D01*
X88157321Y-70852809D01*
X88370065Y-70833489D01*
X88582292Y-70782633D01*
X88742801Y-70714750D01*
X88806356Y-70644367D01*
X88759093Y-70608834D01*
X88604366Y-70527614D01*
X88367538Y-70415536D01*
X88075036Y-70285566D01*
X87927995Y-70220915D01*
X87527460Y-70026302D01*
X87245709Y-69850458D01*
X87067902Y-69680267D01*
X86979200Y-69502617D01*
X86970923Y-69388967D01*
X87664783Y-69388967D01*
X87698885Y-69420827D01*
X87830059Y-69501641D01*
X88025981Y-69606472D01*
X88223604Y-69704528D01*
X88506244Y-69831561D01*
X88674032Y-69882473D01*
X88730941Y-69857025D01*
X88680943Y-69754976D01*
X88528011Y-69576085D01*
X88389677Y-69447606D01*
X88225319Y-69372794D01*
X87992899Y-69354494D01*
X87890732Y-69356216D01*
X87728691Y-69368587D01*
X87664783Y-69388967D01*
X86970923Y-69388967D01*
X86964763Y-69304393D01*
X86978808Y-69199743D01*
X87055908Y-69024339D01*
X87229407Y-68875188D01*
X87232161Y-68873349D01*
X87523051Y-68752234D01*
X87881140Y-68707685D01*
X88253244Y-68740612D01*
X88586178Y-68851928D01*
X88673841Y-68900830D01*
X89018089Y-69185409D01*
X89289460Y-69563089D01*
X89409656Y-69857025D01*
X89468341Y-70000539D01*
X89535118Y-70464433D01*
G37*
G36*
X104957975Y-68733929D02*
G01*
X105102979Y-68824693D01*
X105217931Y-69004529D01*
X105313399Y-69291309D01*
X105399948Y-69702906D01*
X105415699Y-69793585D01*
X105486401Y-70334750D01*
X105493747Y-70758429D01*
X105436137Y-71074438D01*
X105311970Y-71292591D01*
X105119649Y-71422705D01*
X105048770Y-71439115D01*
X104844195Y-71460331D01*
X104560209Y-71473693D01*
X104235537Y-71476831D01*
X104212422Y-71476625D01*
X103863559Y-71468093D01*
X103629958Y-71447938D01*
X103485816Y-71412467D01*
X103405332Y-71357985D01*
X103402749Y-71354808D01*
X103352722Y-71235022D01*
X103290162Y-71006402D01*
X103220843Y-70699661D01*
X103150539Y-70345512D01*
X103085025Y-69974669D01*
X103030076Y-69617844D01*
X102991467Y-69305750D01*
X102974973Y-69069101D01*
X102973973Y-68945970D01*
X102991462Y-68808097D01*
X103056699Y-68748614D01*
X103196486Y-68726004D01*
X103322041Y-68728657D01*
X103448036Y-68784944D01*
X103551086Y-68915599D01*
X103639872Y-69137582D01*
X103723075Y-69467854D01*
X103809377Y-69923375D01*
X103958035Y-70781461D01*
X104809013Y-70781461D01*
X104766823Y-70329656D01*
X104739002Y-70102665D01*
X104677641Y-69737613D01*
X104605120Y-69402070D01*
X104595153Y-69361623D01*
X104539550Y-69052402D01*
X104554331Y-68852189D01*
X104644472Y-68744650D01*
X104814952Y-68713452D01*
X104957975Y-68733929D01*
G37*
G36*
X87106215Y-64121451D02*
G01*
X87141003Y-64165378D01*
X87205885Y-64336521D01*
X87239857Y-64552964D01*
X87236433Y-64755103D01*
X87189127Y-64883333D01*
X87157976Y-64905255D01*
X87001832Y-64931230D01*
X86811167Y-64897446D01*
X86653687Y-64812818D01*
X86570375Y-64677230D01*
X86525928Y-64462486D01*
X86537396Y-64244632D01*
X86608828Y-64088989D01*
X86716684Y-64023342D01*
X86913744Y-64018462D01*
X87106215Y-64121451D01*
G37*
G36*
X104785358Y-64703708D02*
G01*
X104723828Y-64918197D01*
X104716797Y-64930563D01*
X104587679Y-65081421D01*
X104409246Y-65219843D01*
X104352463Y-65250973D01*
X104033187Y-65342906D01*
X103668435Y-65343415D01*
X103312334Y-65250964D01*
X103135781Y-65186737D01*
X103028593Y-65186611D01*
X102934429Y-65250964D01*
X102802822Y-65332167D01*
X102593146Y-65342056D01*
X102402258Y-65220766D01*
X102331058Y-65122755D01*
X102315641Y-65003540D01*
X102364899Y-64816716D01*
X102396592Y-64681516D01*
X102420607Y-64358956D01*
X102403476Y-63988486D01*
X102349107Y-63626319D01*
X102261410Y-63328670D01*
X102238738Y-63266323D01*
X103019899Y-63266323D01*
X103027974Y-63379073D01*
X103028659Y-63381955D01*
X103054968Y-63535584D01*
X103086482Y-63778496D01*
X103116528Y-64059440D01*
X103125417Y-64146551D01*
X103165307Y-64411839D01*
X103218946Y-64569644D01*
X103294844Y-64648064D01*
X103415754Y-64690728D01*
X103635292Y-64714481D01*
X103848132Y-64694126D01*
X103989277Y-64631236D01*
X104053688Y-64486051D01*
X104071516Y-64260941D01*
X104043349Y-64011902D01*
X103970435Y-63794281D01*
X103890465Y-63665003D01*
X103680345Y-63438797D01*
X103437524Y-63279061D01*
X103205506Y-63218539D01*
X103095597Y-63223691D01*
X103019899Y-63266323D01*
X102238738Y-63266323D01*
X102220219Y-63215397D01*
X102201294Y-63001072D01*
X102301038Y-62836219D01*
X102531385Y-62692727D01*
X102602494Y-62662116D01*
X102983615Y-62584403D01*
X103387985Y-62622555D01*
X103787975Y-62763903D01*
X104155955Y-62995776D01*
X104464295Y-63305506D01*
X104685365Y-63680423D01*
X104722310Y-63785399D01*
X104782923Y-64083360D01*
X104794745Y-64260941D01*
X104804498Y-64407446D01*
X104785358Y-64703708D01*
G37*
G36*
X101793031Y-64532799D02*
G01*
X101767270Y-64619590D01*
X101623302Y-64890596D01*
X101414249Y-65134380D01*
X101185288Y-65294332D01*
X101066242Y-65319132D01*
X100842977Y-65329548D01*
X100578828Y-65318552D01*
X100355475Y-65302425D01*
X100057103Y-65287554D01*
X99825072Y-65283308D01*
X99717104Y-65282220D01*
X99542671Y-65255172D01*
X99422012Y-65175982D01*
X99339929Y-65022056D01*
X99281225Y-64770797D01*
X99230702Y-64399610D01*
X99217310Y-64294462D01*
X99160987Y-63925744D01*
X99083262Y-63481735D01*
X99069895Y-63412075D01*
X99839111Y-63412075D01*
X99840686Y-63648981D01*
X99877818Y-63926552D01*
X99941729Y-64198949D01*
X100023641Y-64420330D01*
X100114775Y-64544855D01*
X100264912Y-64617893D01*
X100475535Y-64678075D01*
X100517533Y-64683813D01*
X100780599Y-64656049D01*
X100975731Y-64524612D01*
X101094820Y-64312647D01*
X101129752Y-64043297D01*
X101072417Y-63739707D01*
X100914703Y-63425020D01*
X100908299Y-63415689D01*
X100717620Y-63229334D01*
X100480560Y-63116928D01*
X100235214Y-63083867D01*
X100019679Y-63135546D01*
X99872049Y-63277360D01*
X99839111Y-63412075D01*
X99069895Y-63412075D01*
X98992585Y-63009195D01*
X98897402Y-62554883D01*
X98895410Y-62545837D01*
X98797059Y-62086115D01*
X98734564Y-61746586D01*
X98709530Y-61509219D01*
X98723559Y-61355985D01*
X98778256Y-61268855D01*
X98875225Y-61229799D01*
X99016069Y-61220787D01*
X99053425Y-61222436D01*
X99202653Y-61277102D01*
X99321496Y-61422026D01*
X99420320Y-61674688D01*
X99509495Y-62052566D01*
X99595576Y-62490108D01*
X100005451Y-62452942D01*
X100371506Y-62450133D01*
X100792840Y-62548972D01*
X101152826Y-62768427D01*
X101321453Y-62936579D01*
X101565469Y-63298715D01*
X101735854Y-63714263D01*
X101798513Y-64043297D01*
X101816933Y-64140025D01*
X101793031Y-64532799D01*
G37*
G36*
X92460399Y-70464433D02*
G01*
X92457166Y-70602405D01*
X92393433Y-70920331D01*
X92234712Y-71157980D01*
X91962723Y-71347797D01*
X91842487Y-71401532D01*
X91477728Y-71484634D01*
X91075564Y-71488346D01*
X90678183Y-71418579D01*
X90327777Y-71281240D01*
X90066534Y-71082239D01*
X90024159Y-71029014D01*
X89959564Y-70861477D01*
X90006316Y-70733557D01*
X90141128Y-70660656D01*
X90340713Y-70658171D01*
X90581783Y-70741505D01*
X90604040Y-70752318D01*
X90833953Y-70823636D01*
X91082602Y-70852809D01*
X91295346Y-70833489D01*
X91507573Y-70782633D01*
X91668081Y-70714750D01*
X91731637Y-70644367D01*
X91684374Y-70608834D01*
X91529647Y-70527614D01*
X91292818Y-70415536D01*
X91000316Y-70285566D01*
X90853276Y-70220915D01*
X90452741Y-70026302D01*
X90170989Y-69850458D01*
X89993182Y-69680267D01*
X89904480Y-69502617D01*
X89896203Y-69388967D01*
X90590064Y-69388967D01*
X90624166Y-69420827D01*
X90755340Y-69501641D01*
X90951262Y-69606472D01*
X91148885Y-69704528D01*
X91431525Y-69831561D01*
X91599313Y-69882473D01*
X91656221Y-69857025D01*
X91606224Y-69754976D01*
X91453292Y-69576085D01*
X91314958Y-69447606D01*
X91150600Y-69372794D01*
X90918180Y-69354494D01*
X90816013Y-69356216D01*
X90653972Y-69368587D01*
X90590064Y-69388967D01*
X89896203Y-69388967D01*
X89890044Y-69304393D01*
X89904089Y-69199743D01*
X89981189Y-69024339D01*
X90154688Y-68875188D01*
X90157442Y-68873349D01*
X90448332Y-68752234D01*
X90806421Y-68707685D01*
X91178525Y-68740612D01*
X91511459Y-68851928D01*
X91599121Y-68900830D01*
X91943370Y-69185409D01*
X92214741Y-69563089D01*
X92334937Y-69857025D01*
X92393622Y-70000539D01*
X92460399Y-70464433D01*
G37*
G36*
X86650716Y-71372654D02*
G01*
X86712780Y-71802098D01*
X86723057Y-71870438D01*
X86771719Y-72212169D01*
X86796645Y-72442221D01*
X86798446Y-72585434D01*
X86777733Y-72666646D01*
X86735116Y-72710697D01*
X86697059Y-72732912D01*
X86480331Y-72785784D01*
X86293018Y-72708920D01*
X86149309Y-72512931D01*
X86063394Y-72208427D01*
X86022992Y-71931241D01*
X85982452Y-71712053D01*
X85929572Y-71584043D01*
X85843287Y-71520691D01*
X85702528Y-71495477D01*
X85486229Y-71481882D01*
X85460182Y-71480047D01*
X85004948Y-71381834D01*
X84629021Y-71168330D01*
X84339233Y-70846986D01*
X84142412Y-70425249D01*
X84045391Y-69910570D01*
X84046132Y-69842316D01*
X84759569Y-69842316D01*
X84798501Y-70145518D01*
X84893656Y-70433113D01*
X85028659Y-70642527D01*
X85034682Y-70648427D01*
X85217056Y-70749870D01*
X85495354Y-70781461D01*
X85823117Y-70781461D01*
X85776972Y-70406882D01*
X85774207Y-70384502D01*
X85729059Y-70050901D01*
X85685117Y-69828298D01*
X85631388Y-69687207D01*
X85556876Y-69598144D01*
X85450587Y-69531625D01*
X85256102Y-69460259D01*
X85031671Y-69425843D01*
X84912288Y-69435149D01*
X84821123Y-69499945D01*
X84772600Y-69664201D01*
X84759569Y-69842316D01*
X84046132Y-69842316D01*
X84050215Y-69466118D01*
X84146162Y-69117935D01*
X84332719Y-68878029D01*
X84608529Y-68748126D01*
X84972236Y-68729955D01*
X85109174Y-68745211D01*
X85326203Y-68779403D01*
X85461445Y-68814103D01*
X85551093Y-68820253D01*
X85616587Y-68711472D01*
X85638317Y-68650970D01*
X85721203Y-68584873D01*
X85893520Y-68582577D01*
X86037438Y-68619629D01*
X86160101Y-68716844D01*
X86258667Y-68890048D01*
X86339843Y-69155913D01*
X86410339Y-69531108D01*
X86476861Y-70032303D01*
X86517818Y-70369237D01*
X86570980Y-70781461D01*
X86582606Y-70871613D01*
X86650716Y-71372654D01*
G37*
G36*
X86695164Y-62383182D02*
G01*
X86886261Y-62475092D01*
X86978987Y-62613132D01*
X87021991Y-62816510D01*
X86995257Y-63011844D01*
X86897788Y-63141476D01*
X86783611Y-63196608D01*
X86638029Y-63200652D01*
X86463961Y-63104827D01*
X86382253Y-63033993D01*
X86324907Y-62904981D01*
X86323226Y-62694574D01*
X86325834Y-62660591D01*
X86353101Y-62486303D01*
X86416839Y-62405467D01*
X86547356Y-62374849D01*
X86695164Y-62383182D01*
G37*
G36*
X90193751Y-62576976D02*
G01*
X90378465Y-62639464D01*
X90528299Y-62773178D01*
X90590064Y-62932405D01*
X90578363Y-62995576D01*
X90522075Y-63177963D01*
X90429800Y-63434927D01*
X90313348Y-63732325D01*
X90174442Y-64072545D01*
X90044834Y-64398231D01*
X89962241Y-64638486D01*
X89924763Y-64819999D01*
X89930499Y-64969458D01*
X89977546Y-65113554D01*
X90064004Y-65278976D01*
X90187972Y-65492412D01*
X90324743Y-65735916D01*
X90478452Y-66042918D01*
X90557841Y-66265975D01*
X90568981Y-66424314D01*
X90517946Y-66537162D01*
X90365632Y-66628981D01*
X90171900Y-66623667D01*
X90002974Y-66518399D01*
X89962247Y-66465558D01*
X89849916Y-66288150D01*
X89732803Y-66072472D01*
X89705008Y-66020028D01*
X89590702Y-65821842D01*
X89418348Y-65535766D01*
X89201640Y-65184113D01*
X88954272Y-64789195D01*
X88689939Y-64373324D01*
X88554231Y-64159924D01*
X88314701Y-63775516D01*
X88109273Y-63435763D01*
X87948935Y-63159366D01*
X87844675Y-62965026D01*
X87807479Y-62871442D01*
X87821916Y-62780736D01*
X87935388Y-62633235D01*
X88130379Y-62576404D01*
X88151305Y-62577218D01*
X88287030Y-62624030D01*
X88437651Y-62753988D01*
X88617958Y-62982648D01*
X88842740Y-63325562D01*
X88986289Y-63556331D01*
X89122639Y-63775321D01*
X89214035Y-63921879D01*
X89266398Y-63996342D01*
X89311407Y-64011994D01*
X89363565Y-63949611D01*
X89438010Y-63790983D01*
X89549880Y-63517902D01*
X89682863Y-63199889D01*
X89825513Y-62901518D01*
X89947662Y-62709523D01*
X90060655Y-62606840D01*
X90175838Y-62576404D01*
X90193751Y-62576976D01*
G37*
G36*
X93649852Y-64864786D02*
G01*
X93665768Y-65087515D01*
X93656512Y-65182460D01*
X93621384Y-65201806D01*
X93460334Y-65234776D01*
X93200437Y-65259441D01*
X92870511Y-65272499D01*
X92512029Y-65270022D01*
X92156160Y-65233511D01*
X91873831Y-65148375D01*
X91627858Y-65002404D01*
X91381056Y-64783387D01*
X91164540Y-64531026D01*
X90983837Y-64180441D01*
X90896422Y-63757800D01*
X90888150Y-63606346D01*
X90897591Y-63539038D01*
X91593237Y-63539038D01*
X91605163Y-63769942D01*
X91635662Y-63996676D01*
X91708754Y-64193028D01*
X91844936Y-64360214D01*
X92114150Y-64538886D01*
X92433331Y-64612334D01*
X92748350Y-64564855D01*
X92757282Y-64561467D01*
X92860643Y-64512064D01*
X92918503Y-64441511D01*
X92935416Y-64320079D01*
X92915933Y-64118040D01*
X92864607Y-63805667D01*
X92852458Y-63736635D01*
X92805223Y-63513222D01*
X92746703Y-63379345D01*
X92650454Y-63293146D01*
X92490029Y-63212766D01*
X92299340Y-63132978D01*
X92100778Y-63086698D01*
X91940129Y-63118630D01*
X91769042Y-63229925D01*
X91690244Y-63296519D01*
X91616420Y-63398293D01*
X91593237Y-63539038D01*
X90897591Y-63539038D01*
X90944156Y-63207076D01*
X91104161Y-62873937D01*
X91349690Y-62622147D01*
X91662272Y-62466924D01*
X92023431Y-62423487D01*
X92414696Y-62507052D01*
X92557442Y-62549201D01*
X92638741Y-62549263D01*
X92641151Y-62544294D01*
X92639428Y-62443528D01*
X92614649Y-62246100D01*
X92571241Y-61988762D01*
X92523073Y-61711277D01*
X92500527Y-61491008D01*
X92519581Y-61364125D01*
X92584809Y-61306033D01*
X92700785Y-61292135D01*
X92793016Y-61309722D01*
X92959469Y-61395089D01*
X93099653Y-61515630D01*
X93159067Y-61631039D01*
X93164787Y-61675986D01*
X93190548Y-61846039D01*
X93234145Y-62122867D01*
X93292404Y-62486543D01*
X93362147Y-62917141D01*
X93440198Y-63394735D01*
X93466073Y-63553859D01*
X93548505Y-64085561D01*
X93581340Y-64320079D01*
X93610264Y-64526669D01*
X93649852Y-64864786D01*
G37*
G36*
X108848373Y-67630232D02*
G01*
X109036766Y-67650329D01*
X109309907Y-67690655D01*
X109513109Y-67746713D01*
X109693877Y-67833715D01*
X109899712Y-67966870D01*
X109980354Y-68024005D01*
X110409915Y-68386597D01*
X110779758Y-68796577D01*
X111076423Y-69231461D01*
X111286449Y-69668767D01*
X111396376Y-70086012D01*
X111392745Y-70460713D01*
X111312812Y-70673980D01*
X111150252Y-70926563D01*
X110948911Y-71148935D01*
X110749863Y-71288229D01*
X110587818Y-71329724D01*
X110286937Y-71340107D01*
X109937709Y-71302215D01*
X109587412Y-71221950D01*
X109283322Y-71105211D01*
X109151742Y-71036728D01*
X108817866Y-70826753D01*
X108624400Y-70634053D01*
X108570534Y-70457581D01*
X108655457Y-70296292D01*
X108749156Y-70233705D01*
X108901408Y-70221115D01*
X109118536Y-70283371D01*
X109426019Y-70424719D01*
X109518620Y-70469545D01*
X109899389Y-70606569D01*
X110210287Y-70636964D01*
X110442805Y-70562937D01*
X110588437Y-70386690D01*
X110638673Y-70110431D01*
X110601672Y-69858004D01*
X110486022Y-69567066D01*
X110308676Y-69277441D01*
X110086981Y-69003976D01*
X109838282Y-68761519D01*
X109579927Y-68564915D01*
X109329261Y-68429013D01*
X109103631Y-68368660D01*
X108920384Y-68398703D01*
X108796866Y-68533989D01*
X108688459Y-68671471D01*
X108504066Y-68712360D01*
X108428973Y-68706440D01*
X108232762Y-68608095D01*
X108111986Y-68394286D01*
X108071493Y-68072186D01*
X108073415Y-67930509D01*
X108093594Y-67752257D01*
X108156415Y-67647192D01*
X108286642Y-67601225D01*
X108509040Y-67600267D01*
X108848373Y-67630232D01*
G37*
G36*
X108253873Y-70672338D02*
G01*
X108213216Y-70808267D01*
X108073748Y-71063938D01*
X107883730Y-71287694D01*
X107683804Y-71425818D01*
X107595852Y-71454829D01*
X107269525Y-71490719D01*
X106917896Y-71447721D01*
X106607760Y-71331680D01*
X106471864Y-71241800D01*
X106185337Y-70954736D01*
X105957022Y-70591017D01*
X105803020Y-70188053D01*
X105774704Y-70007793D01*
X106468341Y-70007793D01*
X106547509Y-70316015D01*
X106695629Y-70574037D01*
X106747417Y-70631751D01*
X106917726Y-70750026D01*
X107143682Y-70781461D01*
X107147421Y-70781459D01*
X107330806Y-70767039D01*
X107428931Y-70698642D01*
X107497595Y-70537860D01*
X107515060Y-70473203D01*
X107518626Y-70190137D01*
X107427794Y-69908624D01*
X107264434Y-69663908D01*
X107050414Y-69491233D01*
X106807602Y-69425843D01*
X106726304Y-69428881D01*
X106581751Y-69476975D01*
X106498901Y-69609044D01*
X106470975Y-69712394D01*
X106468341Y-70007793D01*
X105774704Y-70007793D01*
X105739433Y-69783255D01*
X105782364Y-69414032D01*
X105797876Y-69367515D01*
X105919413Y-69119817D01*
X106073596Y-68914479D01*
X106221746Y-68790748D01*
X106389750Y-68728032D01*
X106633301Y-68712360D01*
X106837136Y-68719043D01*
X107121715Y-68771543D01*
X107371309Y-68895710D01*
X107643748Y-69114561D01*
X107908769Y-69403377D01*
X108145810Y-69811554D01*
X108249707Y-70190137D01*
X108264348Y-70243487D01*
X108253873Y-70672338D01*
G37*
G36*
X98881748Y-64328478D02*
G01*
X98878514Y-64466450D01*
X98814781Y-64784376D01*
X98656060Y-65022025D01*
X98384072Y-65211842D01*
X98263835Y-65265577D01*
X97899076Y-65348679D01*
X97496912Y-65352391D01*
X97099532Y-65282624D01*
X96749125Y-65145285D01*
X96487883Y-64946284D01*
X96445508Y-64893059D01*
X96380913Y-64725522D01*
X96427665Y-64597602D01*
X96562476Y-64524701D01*
X96762061Y-64522216D01*
X97003131Y-64605549D01*
X97025389Y-64616363D01*
X97255301Y-64687681D01*
X97503950Y-64716854D01*
X97716694Y-64697534D01*
X97928921Y-64646678D01*
X98089430Y-64578795D01*
X98152985Y-64508412D01*
X98105722Y-64472879D01*
X97950995Y-64391659D01*
X97714167Y-64279581D01*
X97421665Y-64149611D01*
X97274624Y-64084959D01*
X96874089Y-63890347D01*
X96592338Y-63714503D01*
X96414531Y-63544312D01*
X96325829Y-63366662D01*
X96317552Y-63253012D01*
X97011412Y-63253012D01*
X97045514Y-63284872D01*
X97176688Y-63365686D01*
X97372611Y-63470517D01*
X97570233Y-63568573D01*
X97852873Y-63695606D01*
X98020661Y-63746518D01*
X98077570Y-63721070D01*
X98027572Y-63619021D01*
X97874640Y-63440130D01*
X97736306Y-63311651D01*
X97571949Y-63236839D01*
X97339528Y-63218539D01*
X97237361Y-63220260D01*
X97075320Y-63232632D01*
X97011412Y-63253012D01*
X96317552Y-63253012D01*
X96311392Y-63168438D01*
X96325437Y-63063788D01*
X96402537Y-62888384D01*
X96576036Y-62739233D01*
X96578790Y-62737394D01*
X96869680Y-62616279D01*
X97227769Y-62571729D01*
X97599874Y-62604657D01*
X97932807Y-62715972D01*
X98020470Y-62764874D01*
X98364718Y-63049454D01*
X98636089Y-63427134D01*
X98756285Y-63721070D01*
X98814970Y-63864584D01*
X98881748Y-64328478D01*
G37*
G36*
X99020887Y-67974217D02*
G01*
X99165740Y-68136227D01*
X99249842Y-68422178D01*
X99264159Y-68507262D01*
X99307204Y-68648069D01*
X99393334Y-68703003D01*
X99566525Y-68712360D01*
X99588354Y-68712520D01*
X99832544Y-68751881D01*
X99966925Y-68870058D01*
X100008041Y-69080860D01*
X99971541Y-69236701D01*
X99824658Y-69375722D01*
X99584642Y-69425843D01*
X99497602Y-69429323D01*
X99438101Y-69443680D01*
X99448462Y-69488507D01*
X99487064Y-69638420D01*
X99544277Y-69853933D01*
X99577328Y-69997944D01*
X99629503Y-70340464D01*
X99650453Y-70662089D01*
X99648850Y-70800071D01*
X99626858Y-71002544D01*
X99564341Y-71146060D01*
X99442743Y-71286387D01*
X99399968Y-71327414D01*
X99199151Y-71458422D01*
X98960029Y-71494944D01*
X98831651Y-71486705D01*
X98552539Y-71411548D01*
X98318937Y-71275817D01*
X98154496Y-71101411D01*
X98082866Y-70910234D01*
X98127698Y-70724184D01*
X98235867Y-70614551D01*
X98413075Y-70592262D01*
X98626317Y-70704891D01*
X98638269Y-70714197D01*
X98782434Y-70812402D01*
X98876090Y-70852809D01*
X98892405Y-70846214D01*
X98927246Y-70746274D01*
X98936559Y-70554510D01*
X98922015Y-70307648D01*
X98885282Y-70042415D01*
X98828030Y-69795534D01*
X98827503Y-69793761D01*
X98759683Y-69581767D01*
X98694549Y-69472462D01*
X98594865Y-69431828D01*
X98423395Y-69425843D01*
X98377187Y-69424820D01*
X98108417Y-69367478D01*
X97931383Y-69233064D01*
X97867592Y-69036639D01*
X97907698Y-68863442D01*
X98053072Y-68749049D01*
X98313184Y-68712360D01*
X98396078Y-68711973D01*
X98527297Y-68695504D01*
X98564299Y-68627248D01*
X98542103Y-68470153D01*
X98531607Y-68397887D01*
X98550658Y-68154241D01*
X98654182Y-67988622D01*
X98828208Y-67927528D01*
X99020887Y-67974217D01*
G37*
G36*
X92744722Y-67678393D02*
G01*
X92963075Y-67808372D01*
X93250792Y-68031711D01*
X93621255Y-68354459D01*
X93753406Y-68472968D01*
X94012422Y-68702932D01*
X94222125Y-68885966D01*
X94363716Y-69005762D01*
X94418396Y-69046012D01*
X94411197Y-68979525D01*
X94378211Y-68810554D01*
X94326557Y-68576960D01*
X94281833Y-68349963D01*
X94247620Y-68087536D01*
X94242899Y-67899570D01*
X94258473Y-67797264D01*
X94325034Y-67694172D01*
X94482193Y-67656510D01*
X94633023Y-67663059D01*
X94809929Y-67763532D01*
X94847912Y-67855937D01*
X94907102Y-68067041D01*
X94981193Y-68370994D01*
X95065209Y-68743373D01*
X95154171Y-69159749D01*
X95243104Y-69595699D01*
X95327028Y-70026797D01*
X95400967Y-70428616D01*
X95459943Y-70776731D01*
X95498979Y-71046716D01*
X95513097Y-71214147D01*
X95494060Y-71346595D01*
X95427479Y-71480674D01*
X95291435Y-71553551D01*
X95094796Y-71546615D01*
X94922849Y-71441433D01*
X94857289Y-71319541D01*
X94785099Y-71099467D01*
X94726096Y-70834972D01*
X94724457Y-70825604D01*
X94675994Y-70587349D01*
X94628989Y-70417890D01*
X94593400Y-70353371D01*
X94591214Y-70353648D01*
X94514736Y-70407656D01*
X94371439Y-70537140D01*
X94190471Y-70715875D01*
X94179243Y-70727333D01*
X93795864Y-71067883D01*
X93448574Y-71273687D01*
X93138937Y-71344077D01*
X92868519Y-71278389D01*
X92753144Y-71175712D01*
X92728247Y-71016811D01*
X92823709Y-70840228D01*
X93033743Y-70667363D01*
X93038600Y-70664346D01*
X93246247Y-70515714D01*
X93497600Y-70308962D01*
X93739349Y-70087873D01*
X94141724Y-69695619D01*
X93398481Y-69053958D01*
X93344763Y-69007490D01*
X92960086Y-68666740D01*
X92677965Y-68397807D01*
X92488215Y-68188149D01*
X92380647Y-68025226D01*
X92345076Y-67896497D01*
X92371315Y-67789422D01*
X92372016Y-67788115D01*
X92462575Y-67674314D01*
X92582349Y-67635723D01*
X92744722Y-67678393D01*
G37*
G36*
X101282066Y-68590436D02*
G01*
X101599123Y-68742967D01*
X101854501Y-68916270D01*
X101876636Y-68760804D01*
X101935288Y-68634941D01*
X102067914Y-68573115D01*
X102235196Y-68587890D01*
X102400294Y-68667851D01*
X102526369Y-68801585D01*
X102576580Y-68977677D01*
X102590475Y-69111062D01*
X102628763Y-69350712D01*
X102685552Y-69661892D01*
X102754951Y-70010487D01*
X102787075Y-70167666D01*
X102869470Y-70606422D01*
X102915510Y-70931564D01*
X102926415Y-71161494D01*
X102903407Y-71314613D01*
X102847704Y-71409326D01*
X102711168Y-71482344D01*
X102515438Y-71475208D01*
X102346447Y-71370084D01*
X102295424Y-71277000D01*
X102231550Y-71069542D01*
X102186621Y-70817135D01*
X102158826Y-70636817D01*
X102090886Y-70340133D01*
X102011511Y-70103394D01*
X101941924Y-69965476D01*
X101772271Y-69714394D01*
X101575492Y-69495895D01*
X101382018Y-69341604D01*
X101222277Y-69283146D01*
X101131427Y-69292956D01*
X101086784Y-69356170D01*
X101102124Y-69515028D01*
X101132235Y-69697499D01*
X101194259Y-70141579D01*
X101236952Y-70553345D01*
X101258411Y-70905841D01*
X101256731Y-71172116D01*
X101230007Y-71325215D01*
X101137082Y-71438717D01*
X100962267Y-71500159D01*
X100773897Y-71465656D01*
X100624493Y-71334410D01*
X100618079Y-71322761D01*
X100572076Y-71166170D01*
X100526527Y-70898517D01*
X100484348Y-70547468D01*
X100448452Y-70140694D01*
X100421753Y-69705861D01*
X100407163Y-69270638D01*
X100421805Y-69085426D01*
X100530263Y-68816015D01*
X100724929Y-68637012D01*
X100983099Y-68558468D01*
X101282066Y-68590436D01*
G37*
G36*
X83924098Y-70672338D02*
G01*
X83883441Y-70808267D01*
X83743973Y-71063938D01*
X83553955Y-71287694D01*
X83354029Y-71425818D01*
X83266077Y-71454829D01*
X82939750Y-71490719D01*
X82588121Y-71447721D01*
X82277985Y-71331680D01*
X82142089Y-71241800D01*
X81855562Y-70954736D01*
X81627247Y-70591017D01*
X81473245Y-70188053D01*
X81444929Y-70007793D01*
X82138566Y-70007793D01*
X82217734Y-70316015D01*
X82365853Y-70574037D01*
X82417641Y-70631751D01*
X82587951Y-70750026D01*
X82813907Y-70781461D01*
X82817646Y-70781459D01*
X83001031Y-70767039D01*
X83099156Y-70698642D01*
X83167820Y-70537860D01*
X83185285Y-70473203D01*
X83188850Y-70190137D01*
X83098019Y-69908624D01*
X82934659Y-69663908D01*
X82720639Y-69491233D01*
X82477827Y-69425843D01*
X82396528Y-69428881D01*
X82251976Y-69476975D01*
X82169126Y-69609044D01*
X82141199Y-69712394D01*
X82138566Y-70007793D01*
X81444929Y-70007793D01*
X81409658Y-69783255D01*
X81452588Y-69414032D01*
X81468101Y-69367515D01*
X81589638Y-69119817D01*
X81743821Y-68914479D01*
X81891971Y-68790748D01*
X82059975Y-68728032D01*
X82303526Y-68712360D01*
X82507361Y-68719043D01*
X82791940Y-68771543D01*
X83041534Y-68895710D01*
X83313972Y-69114561D01*
X83578994Y-69403377D01*
X83816034Y-69811554D01*
X83919932Y-70190137D01*
X83934573Y-70243487D01*
X83924098Y-70672338D01*
G37*
G36*
X107579718Y-61506298D02*
G01*
X107739784Y-61547251D01*
X107891267Y-61671398D01*
X108043977Y-61892781D01*
X108207724Y-62225443D01*
X108392320Y-62683427D01*
X108451646Y-62838625D01*
X108620720Y-63267753D01*
X108804482Y-63720165D01*
X108972478Y-64120433D01*
X109012865Y-64216195D01*
X109170775Y-64640632D01*
X109262519Y-64985935D01*
X109285159Y-65238012D01*
X109235757Y-65382772D01*
X109178108Y-65417703D01*
X109007994Y-65432516D01*
X108822107Y-65382898D01*
X108687568Y-65281275D01*
X108670115Y-65251691D01*
X108596117Y-65089986D01*
X108492271Y-64832189D01*
X108369857Y-64506993D01*
X108240153Y-64143091D01*
X108182803Y-63979141D01*
X108066722Y-63656580D01*
X107970165Y-63400741D01*
X107901888Y-63234434D01*
X107870645Y-63180468D01*
X107856397Y-63244623D01*
X107832876Y-63424864D01*
X107804535Y-63691272D01*
X107774768Y-64014333D01*
X107757525Y-64203120D01*
X107709831Y-64598973D01*
X107652258Y-64878065D01*
X107578184Y-65059090D01*
X107480985Y-65160737D01*
X107354039Y-65201700D01*
X107314090Y-65204361D01*
X107196534Y-65182216D01*
X107077388Y-65103058D01*
X106945243Y-64952271D01*
X106788690Y-64715239D01*
X106596322Y-64377346D01*
X106356729Y-63923974D01*
X105862461Y-62968820D01*
X105859480Y-64003371D01*
X105852498Y-64481622D01*
X105831334Y-64849309D01*
X105791844Y-65109190D01*
X105729845Y-65278763D01*
X105641156Y-65375527D01*
X105521593Y-65416980D01*
X105397560Y-65413619D01*
X105210480Y-65355784D01*
X105155624Y-65322973D01*
X105102506Y-65262420D01*
X105079821Y-65158973D01*
X105082313Y-64979615D01*
X105104728Y-64691332D01*
X105113962Y-64575631D01*
X105136238Y-64244148D01*
X105160150Y-63831067D01*
X105183372Y-63377904D01*
X105203581Y-62926175D01*
X105218802Y-62589559D01*
X105244845Y-62184717D01*
X105278621Y-61893205D01*
X105324910Y-61697310D01*
X105388490Y-61579317D01*
X105474139Y-61521512D01*
X105586636Y-61506180D01*
X105643408Y-61508646D01*
X105835243Y-61571689D01*
X105993547Y-61735415D01*
X106140707Y-62020608D01*
X106182573Y-62118759D01*
X106330884Y-62454958D01*
X106491740Y-62805679D01*
X106653374Y-63146776D01*
X106804018Y-63454103D01*
X106931902Y-63703517D01*
X107025258Y-63870872D01*
X107072320Y-63932022D01*
X107081449Y-63916235D01*
X107102234Y-63789713D01*
X107123563Y-63557143D01*
X107143394Y-63243309D01*
X107159681Y-62872993D01*
X107169063Y-62632336D01*
X107193159Y-62213506D01*
X107227160Y-61911043D01*
X107276447Y-61707014D01*
X107346402Y-61583483D01*
X107442406Y-61522516D01*
X107569842Y-61506180D01*
X107579718Y-61506298D01*
G37*
G36*
X88301150Y-83134562D02*
G01*
X88339465Y-83366026D01*
X88374193Y-83780675D01*
X88378383Y-83915367D01*
X88391921Y-84008324D01*
X88421712Y-84212881D01*
X88496859Y-84367065D01*
X88520094Y-84382686D01*
X88555865Y-84427392D01*
X88573949Y-84515396D01*
X88571862Y-84678118D01*
X88547122Y-84946979D01*
X88513487Y-85221053D01*
X88497245Y-85353401D01*
X88419750Y-85928804D01*
X88312153Y-86704608D01*
X88299536Y-86794623D01*
X88188316Y-87521713D01*
X88078818Y-88078653D01*
X88031456Y-88249108D01*
X87955483Y-88522532D01*
X87802757Y-88910439D01*
X87605083Y-89299467D01*
X87544273Y-89419327D01*
X87544069Y-89419864D01*
X87382049Y-89846299D01*
X87350485Y-89994557D01*
X87299108Y-90235872D01*
X87282229Y-90385638D01*
X87204739Y-90617930D01*
X87056217Y-90685489D01*
X87011028Y-90699245D01*
X86837728Y-90866766D01*
X86616925Y-91185467D01*
X86375717Y-91605801D01*
X86141202Y-92078221D01*
X85940479Y-92553182D01*
X85800647Y-92981137D01*
X85766780Y-93111311D01*
X85674112Y-93460778D01*
X85608647Y-93698387D01*
X85601248Y-93730125D01*
X85614365Y-93798190D01*
X85700558Y-93845713D01*
X85892030Y-93876337D01*
X86220984Y-93893703D01*
X86719621Y-93901452D01*
X87420146Y-93903226D01*
X87831616Y-93905583D01*
X88416353Y-93917956D01*
X88887874Y-93939136D01*
X89205889Y-93967085D01*
X89330107Y-93999767D01*
X89341094Y-94008156D01*
X89519259Y-94048845D01*
X89886624Y-94099937D01*
X90407961Y-94157448D01*
X91048044Y-94217395D01*
X91771644Y-94275797D01*
X92326529Y-94318297D01*
X93081591Y-94383726D01*
X93661697Y-94450595D01*
X94103524Y-94527892D01*
X94443754Y-94624604D01*
X94719067Y-94749717D01*
X94966142Y-94912218D01*
X95221659Y-95121096D01*
X95287044Y-95175469D01*
X95544563Y-95353041D01*
X95725911Y-95424742D01*
X95857272Y-95485806D01*
X96104752Y-95676890D01*
X96399396Y-95952742D01*
X96695221Y-96217252D01*
X97174365Y-96571646D01*
X97650903Y-96859661D01*
X98022419Y-97076528D01*
X98486802Y-97402257D01*
X98850230Y-97715653D01*
X99037828Y-97896247D01*
X99394265Y-98199337D01*
X99698847Y-98414156D01*
X99762630Y-98452404D01*
X99988125Y-98609975D01*
X100079262Y-98713287D01*
X100165692Y-98811510D01*
X100397236Y-98999106D01*
X100723041Y-99234234D01*
X101043465Y-99467550D01*
X101277467Y-99662744D01*
X101366820Y-99772210D01*
X101370831Y-99787971D01*
X101497678Y-99910502D01*
X101747235Y-100061713D01*
X101795585Y-100086914D01*
X102051179Y-100235572D01*
X102186175Y-100340384D01*
X102201529Y-100355994D01*
X102379949Y-100452640D01*
X102670166Y-100562783D01*
X102839183Y-100624202D01*
X103106768Y-100757402D01*
X103400063Y-100958983D01*
X103764966Y-101262029D01*
X104247377Y-101699624D01*
X104475268Y-101894717D01*
X104877718Y-102187388D01*
X105231803Y-102390443D01*
X105354928Y-102451082D01*
X105600187Y-102612454D01*
X105697695Y-102743998D01*
X105725005Y-102843270D01*
X105873271Y-103033180D01*
X105978936Y-103177288D01*
X106048847Y-103457189D01*
X105999904Y-103685881D01*
X105866576Y-103709916D01*
X105675070Y-103518813D01*
X105664113Y-103504040D01*
X105443500Y-103299145D01*
X105141705Y-103106129D01*
X105089818Y-103077959D01*
X104856210Y-102906602D01*
X104761290Y-102756335D01*
X104687946Y-102620428D01*
X104474854Y-102472045D01*
X104235281Y-102309904D01*
X103993189Y-102043579D01*
X103814929Y-101834832D01*
X103653988Y-101745622D01*
X103518840Y-101696752D01*
X103314412Y-101529483D01*
X103274630Y-101490931D01*
X103001025Y-101315727D01*
X102652492Y-101173633D01*
X102540164Y-101137081D01*
X102287163Y-101026848D01*
X102186175Y-100935769D01*
X102185869Y-100931495D01*
X102080029Y-100821123D01*
X101841409Y-100694811D01*
X101629420Y-100575960D01*
X101289523Y-100328135D01*
X100940241Y-100026433D01*
X100676822Y-99789139D01*
X100241039Y-99428663D01*
X99851136Y-99138570D01*
X99635854Y-98989531D01*
X99382589Y-98805635D01*
X99259907Y-98704390D01*
X99233998Y-98678890D01*
X99058563Y-98539643D01*
X98791705Y-98346788D01*
X98746296Y-98314631D01*
X98376244Y-98028470D01*
X98042778Y-97737911D01*
X97976651Y-97677572D01*
X97725883Y-97490222D01*
X97545312Y-97414746D01*
X97480896Y-97406167D01*
X97387096Y-97316298D01*
X97341859Y-97252823D01*
X97139984Y-97099708D01*
X96831106Y-96914455D01*
X96629969Y-96799105D01*
X96276476Y-96571673D01*
X96030002Y-96381568D01*
X95749422Y-96164090D01*
X95415486Y-95961051D01*
X95369001Y-95936334D01*
X95139502Y-95789523D01*
X95046083Y-95684554D01*
X95045164Y-95677977D01*
X94933540Y-95572357D01*
X94692329Y-95442495D01*
X94395109Y-95282675D01*
X94160362Y-95107696D01*
X94125999Y-95082819D01*
X93863330Y-94995726D01*
X93396001Y-94909560D01*
X92746884Y-94826345D01*
X91938851Y-94748102D01*
X90994774Y-94676856D01*
X89937526Y-94614628D01*
X88789978Y-94563441D01*
X87575004Y-94525318D01*
X87025947Y-94511354D01*
X86254555Y-94487462D01*
X85679439Y-94457293D01*
X85276735Y-94413425D01*
X85022579Y-94348435D01*
X84893104Y-94254900D01*
X84864447Y-94125398D01*
X84912743Y-93952505D01*
X85014127Y-93728800D01*
X85022750Y-93710427D01*
X85173336Y-93310065D01*
X85282847Y-92890821D01*
X85373790Y-92579490D01*
X85549527Y-92143450D01*
X85767010Y-91697897D01*
X85977007Y-91283232D01*
X86097097Y-90948729D01*
X86072694Y-90765437D01*
X85899365Y-90712131D01*
X85572676Y-90767586D01*
X85454553Y-90800400D01*
X85227932Y-90886038D01*
X85198752Y-90897065D01*
X85096774Y-90978588D01*
X85093688Y-90987035D01*
X84956308Y-91062241D01*
X84655734Y-91164703D01*
X84248156Y-91274807D01*
X84184866Y-91290358D01*
X83777449Y-91399979D01*
X83475711Y-91497158D01*
X83341013Y-91562441D01*
X83239958Y-91607882D01*
X82961962Y-91670654D01*
X82580184Y-91727453D01*
X81255658Y-91880749D01*
X80082480Y-92007272D01*
X79111253Y-92100837D01*
X78217438Y-92180108D01*
X78278048Y-92631989D01*
X78299212Y-92846711D01*
X78271660Y-93033618D01*
X78156970Y-93083871D01*
X78011195Y-92994967D01*
X77899933Y-92740807D01*
X77868283Y-92611055D01*
X77778011Y-92395825D01*
X77624855Y-92266533D01*
X77366606Y-92210023D01*
X76961055Y-92213141D01*
X76365994Y-92262733D01*
X76317866Y-92267280D01*
X75729963Y-92309757D01*
X75004374Y-92344812D01*
X74228677Y-92368918D01*
X73490451Y-92378547D01*
X71774911Y-92381567D01*
X71834115Y-92644931D01*
X71886569Y-92819199D01*
X72043149Y-93195649D01*
X72263720Y-93643918D01*
X72520996Y-94116735D01*
X72787691Y-94566833D01*
X73036520Y-94946940D01*
X73240195Y-95209788D01*
X73371431Y-95308109D01*
X73404706Y-95319292D01*
X73582517Y-95435636D01*
X73835313Y-95637521D01*
X74031590Y-95847063D01*
X74147010Y-96100261D01*
X74102199Y-96287912D01*
X73893257Y-96361290D01*
X73881778Y-96360065D01*
X73712112Y-96265522D01*
X73449277Y-96057056D01*
X73148579Y-95786562D01*
X72865322Y-95505933D01*
X72654810Y-95267063D01*
X72572350Y-95121846D01*
X72542908Y-95037549D01*
X72410816Y-94848848D01*
X72409347Y-94847161D01*
X72239288Y-94608232D01*
X72025994Y-94250387D01*
X71802532Y-93837355D01*
X71601973Y-93432865D01*
X71457387Y-93100647D01*
X71401843Y-92904430D01*
X71385897Y-92832466D01*
X71245544Y-92595781D01*
X71007469Y-92329893D01*
X70894924Y-92204797D01*
X70628264Y-91804401D01*
X70337451Y-91258149D01*
X70047859Y-90619963D01*
X69784865Y-89943765D01*
X69573844Y-89283477D01*
X69538870Y-89130769D01*
X69532185Y-89082581D01*
X70131427Y-89082581D01*
X70160814Y-89293374D01*
X70190880Y-89416704D01*
X70312149Y-89766759D01*
X70497139Y-90222742D01*
X70719639Y-90717844D01*
X70871060Y-91033268D01*
X71074643Y-91421506D01*
X71236865Y-91658887D01*
X71388338Y-91786501D01*
X71559674Y-91845437D01*
X71676620Y-91867009D01*
X72073305Y-91909418D01*
X72350822Y-91890140D01*
X72455299Y-91811232D01*
X72449978Y-91790881D01*
X72347239Y-91617314D01*
X72140550Y-91327225D01*
X71939344Y-91066842D01*
X72946999Y-91066842D01*
X72993105Y-91429535D01*
X73010734Y-91524250D01*
X73106551Y-91806215D01*
X73112120Y-91811232D01*
X73225484Y-91913364D01*
X73302893Y-91873285D01*
X73293427Y-91714586D01*
X73186828Y-91390823D01*
X73166640Y-91336848D01*
X73033994Y-91020453D01*
X72960704Y-90930467D01*
X72946999Y-91066842D01*
X71939344Y-91066842D01*
X71865334Y-90971064D01*
X71275369Y-90233028D01*
X71355458Y-90733872D01*
X71368541Y-90817891D01*
X71394385Y-91086189D01*
X71350519Y-91192921D01*
X71220741Y-91193348D01*
X71154965Y-91167008D01*
X70980792Y-90948926D01*
X70813571Y-90508479D01*
X70735388Y-90269479D01*
X70549442Y-89791442D01*
X70361798Y-89396774D01*
X70248199Y-89193633D01*
X70152805Y-89045346D01*
X70131427Y-89082581D01*
X69532185Y-89082581D01*
X69472565Y-88652813D01*
X69453060Y-88386830D01*
X70988030Y-88386830D01*
X71050059Y-88633743D01*
X71063408Y-88681987D01*
X71117420Y-88946618D01*
X71111883Y-89081972D01*
X71125079Y-89208741D01*
X71229679Y-89440877D01*
X71283318Y-89530371D01*
X71465477Y-89786830D01*
X71690194Y-90064420D01*
X71919900Y-90322199D01*
X72117029Y-90519229D01*
X72244014Y-90614570D01*
X72263288Y-90567281D01*
X72255279Y-90546178D01*
X72117527Y-90282221D01*
X71917699Y-89982027D01*
X71852745Y-89888323D01*
X71637484Y-89510833D01*
X71453153Y-89104147D01*
X71388579Y-88946110D01*
X71229117Y-88616285D01*
X71093598Y-88407394D01*
X71008085Y-88330072D01*
X70988030Y-88386830D01*
X69453060Y-88386830D01*
X69428174Y-88047472D01*
X69411981Y-87388312D01*
X69407713Y-87077553D01*
X70045174Y-87077553D01*
X70068642Y-87319124D01*
X70108880Y-87470991D01*
X70210872Y-87703121D01*
X70305256Y-87716164D01*
X70380934Y-87503565D01*
X70411458Y-87251654D01*
X70353721Y-87054074D01*
X70163673Y-86997235D01*
X70143025Y-86998055D01*
X70045174Y-87077553D01*
X69407713Y-87077553D01*
X69405993Y-86952286D01*
X69391904Y-86669784D01*
X70722326Y-86669784D01*
X70822048Y-86893986D01*
X71038953Y-87251654D01*
X71050691Y-87271010D01*
X71194046Y-87504238D01*
X71344223Y-87770839D01*
X71402913Y-87908443D01*
X71428075Y-87992568D01*
X71533099Y-88241059D01*
X71691879Y-88577419D01*
X71806980Y-88820441D01*
X71933220Y-89116445D01*
X71984017Y-89279723D01*
X71989176Y-89305396D01*
X72090351Y-89493481D01*
X72278994Y-89747926D01*
X72312073Y-89787230D01*
X72408810Y-89881572D01*
X72409622Y-89820102D01*
X72309477Y-89586057D01*
X72103343Y-89162673D01*
X72009904Y-88972253D01*
X71818831Y-88562485D01*
X71686228Y-88248571D01*
X71636451Y-88086644D01*
X71632947Y-88057064D01*
X71553467Y-87840358D01*
X71402204Y-87550862D01*
X71376585Y-87505843D01*
X71228849Y-87172811D01*
X71654005Y-87172811D01*
X71683195Y-87242286D01*
X71825050Y-87565527D01*
X72035931Y-88034330D01*
X72293693Y-88599314D01*
X72410811Y-88860372D01*
X72527272Y-89137024D01*
X72572350Y-89269526D01*
X72575998Y-89286607D01*
X72655410Y-89453879D01*
X72806014Y-89715834D01*
X72875352Y-89820102D01*
X72933100Y-89906940D01*
X73009872Y-89961771D01*
X73028411Y-89844326D01*
X72993419Y-89553688D01*
X73428457Y-89553688D01*
X73431241Y-89792610D01*
X73435521Y-89844326D01*
X73460304Y-90143760D01*
X73508918Y-90550255D01*
X73511501Y-90567281D01*
X73570351Y-90955208D01*
X73637877Y-91301734D01*
X73704764Y-91532949D01*
X73846373Y-91873285D01*
X73863049Y-91913364D01*
X74710096Y-91890811D01*
X75069930Y-91880692D01*
X75865085Y-91851594D01*
X76455890Y-91815089D01*
X76863910Y-91766305D01*
X77110711Y-91700369D01*
X77217858Y-91612409D01*
X77206914Y-91497551D01*
X77099446Y-91350922D01*
X76974967Y-91186198D01*
X76903225Y-91015146D01*
X76852352Y-90893025D01*
X76684675Y-90698405D01*
X76639561Y-90658056D01*
X76521748Y-90579946D01*
X76478996Y-90661477D01*
X76479836Y-90939722D01*
X76480591Y-91011420D01*
X76423321Y-91323837D01*
X76274921Y-91429874D01*
X76056024Y-91327318D01*
X75787261Y-91013957D01*
X75750741Y-90960452D01*
X75372434Y-90395357D01*
X77383058Y-90395357D01*
X77458686Y-90632168D01*
X77634086Y-91062749D01*
X77754155Y-91322185D01*
X77895853Y-91577636D01*
X77927297Y-91612409D01*
X77985944Y-91677265D01*
X78036069Y-91676511D01*
X78058862Y-91645122D01*
X78024570Y-91538158D01*
X77917655Y-91310852D01*
X77722580Y-90918433D01*
X77717535Y-90908327D01*
X77516209Y-90527358D01*
X77403475Y-90358394D01*
X77384003Y-90393646D01*
X77383058Y-90395357D01*
X75372434Y-90395357D01*
X75353831Y-90367569D01*
X74983919Y-89795948D01*
X74667677Y-89288318D01*
X74431777Y-88887407D01*
X74302891Y-88635945D01*
X74203093Y-88468798D01*
X74129397Y-88487925D01*
X74126521Y-88497384D01*
X74160407Y-88694676D01*
X74298488Y-88956128D01*
X74302697Y-88962271D01*
X74504744Y-89309556D01*
X74679663Y-89689401D01*
X74691363Y-89719246D01*
X74844361Y-90061687D01*
X74992726Y-90329961D01*
X75077669Y-90505213D01*
X75139478Y-90773107D01*
X75135663Y-90998980D01*
X75058570Y-91094009D01*
X75046675Y-91092174D01*
X74909492Y-90974959D01*
X74721636Y-90720310D01*
X74530806Y-90391705D01*
X74511009Y-90361928D01*
X74479726Y-90414933D01*
X74493008Y-90647820D01*
X74493776Y-90980997D01*
X74388521Y-91209495D01*
X74292656Y-91268670D01*
X74196432Y-91246325D01*
X74093581Y-91097484D01*
X73962830Y-90789897D01*
X73782908Y-90291311D01*
X73645077Y-89912232D01*
X73529110Y-89620712D01*
X73462781Y-89487359D01*
X73458681Y-89483880D01*
X73428457Y-89553688D01*
X72993419Y-89553688D01*
X72991270Y-89535840D01*
X72901002Y-89017547D01*
X72813563Y-88641329D01*
X72706572Y-88339055D01*
X72608375Y-88201436D01*
X72548194Y-88166997D01*
X72455299Y-88002604D01*
X72429980Y-87931015D01*
X72276707Y-87718950D01*
X72030664Y-87459136D01*
X71871394Y-87313344D01*
X71700488Y-87176931D01*
X71654005Y-87172811D01*
X71228849Y-87172811D01*
X71220270Y-87153471D01*
X71142573Y-86841867D01*
X71084424Y-86624427D01*
X70908110Y-86529032D01*
X71616842Y-86529032D01*
X72116784Y-87009376D01*
X72118844Y-87011355D01*
X72397751Y-87271562D01*
X72557901Y-87384713D01*
X72645766Y-87369216D01*
X72707816Y-87243477D01*
X72832368Y-87039772D01*
X72994639Y-87035120D01*
X73171008Y-87260599D01*
X73336011Y-87511641D01*
X73535569Y-87621564D01*
X73750447Y-87517094D01*
X73819401Y-87458839D01*
X73963890Y-87416756D01*
X74129347Y-87556867D01*
X74134932Y-87563170D01*
X74286885Y-87778718D01*
X74496930Y-88127725D01*
X74721371Y-88537790D01*
X74795559Y-88677621D01*
X75047267Y-89123854D01*
X75310353Y-89556623D01*
X75559334Y-89937959D01*
X75768726Y-90229889D01*
X75913049Y-90394442D01*
X75966820Y-90393646D01*
X75966795Y-90391458D01*
X75902155Y-90200255D01*
X75750400Y-89941571D01*
X75574675Y-89655258D01*
X75328945Y-89208805D01*
X75041828Y-88656937D01*
X74741350Y-88053525D01*
X74455533Y-87452440D01*
X74375431Y-87258427D01*
X74283410Y-86932772D01*
X74279540Y-86720873D01*
X74284979Y-86704608D01*
X74553947Y-86704608D01*
X74835279Y-87289862D01*
X74928344Y-87483830D01*
X75158511Y-87965612D01*
X75361793Y-88393478D01*
X75508489Y-88674748D01*
X75613104Y-88785211D01*
X75682371Y-88715368D01*
X75800182Y-88538452D01*
X75930156Y-88589163D01*
X76066331Y-88870046D01*
X76071903Y-88885809D01*
X76178404Y-89123214D01*
X76265881Y-89221198D01*
X76294874Y-89184570D01*
X76259737Y-89016359D01*
X76126105Y-88681617D01*
X75924944Y-88157902D01*
X75743419Y-87664355D01*
X75604256Y-87263255D01*
X75530180Y-87016882D01*
X75451500Y-86821659D01*
X75849769Y-86821659D01*
X75854854Y-86901653D01*
X75895771Y-86997235D01*
X75926068Y-86975670D01*
X76009148Y-86821659D01*
X76027549Y-86731882D01*
X75963146Y-86646083D01*
X76589187Y-86646083D01*
X76604390Y-86731882D01*
X76677332Y-87143548D01*
X76761850Y-87554606D01*
X77021580Y-88485289D01*
X77284264Y-89184570D01*
X77348141Y-89354616D01*
X77406478Y-89479104D01*
X77554040Y-89742394D01*
X77695950Y-89946000D01*
X77802086Y-90055542D01*
X77842319Y-90036641D01*
X77786527Y-89854916D01*
X77763633Y-89785562D01*
X77707829Y-89479457D01*
X77665094Y-89053372D01*
X77638178Y-88583973D01*
X78065880Y-88583973D01*
X78091146Y-88967755D01*
X78140345Y-89402764D01*
X78209323Y-89837004D01*
X78253599Y-90036641D01*
X78293928Y-90218482D01*
X78413926Y-90669752D01*
X78520559Y-91081535D01*
X78588785Y-91357373D01*
X78588961Y-91358134D01*
X78666886Y-91567634D01*
X78797343Y-91645122D01*
X78820925Y-91659129D01*
X79129419Y-91679263D01*
X79232311Y-91676628D01*
X79491556Y-91639575D01*
X79595391Y-91572719D01*
X79617191Y-91549254D01*
X79811244Y-91491482D01*
X80163000Y-91435340D01*
X80619585Y-91390246D01*
X80682466Y-91385552D01*
X81342770Y-91329902D01*
X81802504Y-91274675D01*
X82092596Y-91213526D01*
X82243971Y-91140113D01*
X82265808Y-91094009D01*
X82733792Y-91094009D01*
X83125191Y-91089557D01*
X83170928Y-91088658D01*
X83507190Y-91036787D01*
X83666342Y-90886038D01*
X83661923Y-90679437D01*
X84277419Y-90679437D01*
X84277481Y-90681828D01*
X84365207Y-90733616D01*
X84373803Y-90732667D01*
X84652118Y-90617569D01*
X84745622Y-90359879D01*
X84745622Y-90113461D01*
X84511520Y-90364739D01*
X84348770Y-90557372D01*
X84277419Y-90679437D01*
X83661923Y-90679437D01*
X83660376Y-90607112D01*
X83501285Y-90170710D01*
X83415357Y-89982027D01*
X85213824Y-89982027D01*
X85242452Y-90113461D01*
X85261809Y-90202329D01*
X85441018Y-90274654D01*
X85555890Y-90267737D01*
X85697507Y-90191653D01*
X85714769Y-89994557D01*
X85626870Y-89655908D01*
X86622553Y-89655908D01*
X86709894Y-89680160D01*
X86863288Y-89602228D01*
X86957145Y-89419864D01*
X86925520Y-89255167D01*
X86887611Y-89244400D01*
X86852534Y-89367511D01*
X86836491Y-89458106D01*
X86706221Y-89611880D01*
X86622553Y-89655908D01*
X85626870Y-89655908D01*
X85620373Y-89630875D01*
X85555762Y-89442385D01*
X85488188Y-89324434D01*
X85460199Y-89426037D01*
X85439252Y-89529371D01*
X85426985Y-89589886D01*
X85330875Y-89689401D01*
X85253892Y-89762053D01*
X85213824Y-89982027D01*
X83415357Y-89982027D01*
X83402320Y-89953401D01*
X83271277Y-89719473D01*
X83169656Y-89651501D01*
X83064492Y-89715100D01*
X83002330Y-89810185D01*
X82895512Y-90106446D01*
X82817370Y-90486326D01*
X82740107Y-91048090D01*
X82733792Y-91094009D01*
X82265808Y-91094009D01*
X82287557Y-91048090D01*
X82266066Y-90947844D01*
X82165262Y-90674184D01*
X82009791Y-90325823D01*
X81903250Y-90099339D01*
X81672963Y-89589236D01*
X81463930Y-89104147D01*
X81339895Y-88816590D01*
X81199540Y-88517427D01*
X81111912Y-88363166D01*
X81105786Y-88356667D01*
X81072992Y-88396790D01*
X81096590Y-88607269D01*
X81166347Y-88938798D01*
X81272030Y-89342070D01*
X81403407Y-89767778D01*
X81475903Y-90007554D01*
X81553073Y-90355086D01*
X81566385Y-90577433D01*
X81539740Y-90682426D01*
X81431592Y-90819016D01*
X81269346Y-90736012D01*
X81050538Y-90431317D01*
X80772702Y-89902836D01*
X80642643Y-89633439D01*
X80456202Y-89263615D01*
X80352097Y-89105815D01*
X80318946Y-89160121D01*
X80345368Y-89426617D01*
X80345982Y-89430558D01*
X80419981Y-89905384D01*
X80420453Y-89908299D01*
X80474435Y-90400649D01*
X80468999Y-90781662D01*
X80414954Y-91026799D01*
X80323112Y-91111519D01*
X80204282Y-91011281D01*
X80069275Y-90701544D01*
X79892261Y-90347706D01*
X79635981Y-90028502D01*
X79521936Y-89923172D01*
X79408177Y-89834777D01*
X79377243Y-89876911D01*
X79422066Y-90081345D01*
X79535580Y-90479852D01*
X79539260Y-90494500D01*
X79524139Y-90704840D01*
X79431155Y-90924891D01*
X79305504Y-91075791D01*
X79192383Y-91078681D01*
X79190151Y-91075473D01*
X79131409Y-90933014D01*
X79014707Y-90617253D01*
X78855836Y-90171730D01*
X78670588Y-89639989D01*
X78650671Y-89582309D01*
X78465619Y-89055420D01*
X78306503Y-88617719D01*
X78189707Y-88313389D01*
X78131617Y-88186609D01*
X78103761Y-88178071D01*
X78068701Y-88303414D01*
X78065880Y-88583973D01*
X77638178Y-88583973D01*
X77637155Y-88566124D01*
X77625741Y-88076530D01*
X77632583Y-87643410D01*
X77659408Y-87325579D01*
X77707947Y-87181855D01*
X77778758Y-87102205D01*
X77839631Y-86873276D01*
X77836715Y-86831585D01*
X78776036Y-86831585D01*
X78780725Y-86915474D01*
X78874868Y-87331716D01*
X79091445Y-87933639D01*
X79432426Y-88726932D01*
X79550404Y-88997207D01*
X79667230Y-89293766D01*
X79712442Y-89451591D01*
X79721524Y-89495787D01*
X79846589Y-89641441D01*
X79917428Y-89624020D01*
X79937963Y-89430558D01*
X79909178Y-89033833D01*
X79908670Y-89028921D01*
X79862372Y-88552695D01*
X79809825Y-87969712D01*
X79762306Y-87405033D01*
X79692073Y-86530062D01*
X80244189Y-86530062D01*
X80261773Y-86850921D01*
X80270750Y-86908169D01*
X80343585Y-87242509D01*
X80410557Y-87361991D01*
X80459010Y-87261581D01*
X80476286Y-86936245D01*
X80473361Y-86824407D01*
X80427525Y-86521878D01*
X80334317Y-86412354D01*
X80321653Y-86413229D01*
X80244189Y-86530062D01*
X79692073Y-86530062D01*
X79686991Y-86466748D01*
X79231514Y-86510184D01*
X78958247Y-86551972D01*
X78810817Y-86645470D01*
X78776036Y-86831585D01*
X77836715Y-86831585D01*
X77835037Y-86807600D01*
X77769063Y-86704398D01*
X77580722Y-86657294D01*
X77214409Y-86646083D01*
X76589187Y-86646083D01*
X75963146Y-86646083D01*
X75911026Y-86665862D01*
X75849769Y-86821659D01*
X75451500Y-86821659D01*
X75445186Y-86805993D01*
X75232223Y-86668407D01*
X74860594Y-86666617D01*
X74553947Y-86704608D01*
X74284979Y-86704608D01*
X74287640Y-86696652D01*
X74279231Y-86622083D01*
X74180762Y-86573371D01*
X73956233Y-86545182D01*
X73569645Y-86532180D01*
X72984999Y-86529032D01*
X71616842Y-86529032D01*
X70908110Y-86529032D01*
X70880726Y-86529379D01*
X70744295Y-86560788D01*
X70722326Y-86669784D01*
X69391904Y-86669784D01*
X69382254Y-86476284D01*
X69365812Y-86333862D01*
X80686801Y-86333862D01*
X80810489Y-86473294D01*
X80922653Y-86619294D01*
X81000000Y-86836092D01*
X81004843Y-86880771D01*
X81022478Y-86936245D01*
X81083588Y-87128478D01*
X81228163Y-87442248D01*
X81250046Y-87484357D01*
X81445765Y-87899774D01*
X81608578Y-88301315D01*
X81642999Y-88394881D01*
X81697709Y-88509783D01*
X81733415Y-88494829D01*
X81754992Y-88323959D01*
X81758320Y-88228647D01*
X82184084Y-88228647D01*
X82205162Y-88549766D01*
X82225778Y-88605322D01*
X82246641Y-88503856D01*
X82254079Y-88226267D01*
X82248814Y-88009795D01*
X82232180Y-87895625D01*
X83129872Y-87895625D01*
X83130694Y-88151916D01*
X83147288Y-88226267D01*
X83222746Y-88564364D01*
X83446132Y-89066132D01*
X83578086Y-89309596D01*
X83722973Y-89523609D01*
X83786762Y-89529371D01*
X83769032Y-89334016D01*
X83669360Y-88944679D01*
X83487327Y-88368495D01*
X83472763Y-88324992D01*
X83323027Y-87883693D01*
X83230003Y-87641447D01*
X83177557Y-87576915D01*
X83149558Y-87668754D01*
X83129872Y-87895625D01*
X82232180Y-87895625D01*
X82230382Y-87883285D01*
X82203564Y-87964512D01*
X82184084Y-88228647D01*
X81758320Y-88228647D01*
X81767313Y-87971110D01*
X81775255Y-87410222D01*
X81788808Y-86172774D01*
X82308569Y-86172774D01*
X82313935Y-86394067D01*
X82409595Y-86788167D01*
X82437824Y-86885610D01*
X82555936Y-87188400D01*
X82653737Y-87258627D01*
X82727670Y-87097107D01*
X82774178Y-86704654D01*
X82789222Y-86395198D01*
X82773388Y-86171430D01*
X82700514Y-86078841D01*
X82550921Y-86060670D01*
X82402578Y-86077532D01*
X82387379Y-86092930D01*
X82308569Y-86172774D01*
X81788808Y-86172774D01*
X81789682Y-86092930D01*
X81543338Y-86119355D01*
X81248527Y-86150979D01*
X81221028Y-86153937D01*
X80857648Y-86199512D01*
X80691046Y-86251045D01*
X80686801Y-86333862D01*
X69365812Y-86333862D01*
X69343972Y-86144692D01*
X69335245Y-86119355D01*
X69997235Y-86119355D01*
X70055760Y-86177880D01*
X70114285Y-86119355D01*
X70055760Y-86060829D01*
X69997235Y-86119355D01*
X69335245Y-86119355D01*
X69301275Y-86020725D01*
X83406506Y-86020725D01*
X83474638Y-86046981D01*
X83613569Y-86120460D01*
X83736721Y-86339469D01*
X83763489Y-86395198D01*
X83826471Y-86526324D01*
X84012775Y-86672393D01*
X84091191Y-86718705D01*
X84264602Y-86973398D01*
X84438073Y-87417946D01*
X84538231Y-87727199D01*
X84689601Y-88175618D01*
X84812456Y-88518894D01*
X84967660Y-88928571D01*
X84973692Y-88249108D01*
X84936924Y-87721609D01*
X84746278Y-87057201D01*
X84677160Y-86889009D01*
X84587623Y-86524333D01*
X84614824Y-86272092D01*
X84758145Y-86177880D01*
X84806121Y-86158167D01*
X84862672Y-86002304D01*
X84856628Y-85957586D01*
X84733844Y-85860903D01*
X84423732Y-85840577D01*
X84339668Y-85844565D01*
X84036950Y-85875044D01*
X83743375Y-85922641D01*
X83514656Y-85975240D01*
X83406506Y-86020725D01*
X69301275Y-86020725D01*
X69294930Y-86002304D01*
X69202800Y-85884632D01*
X69199318Y-85632786D01*
X69246263Y-85544612D01*
X85617079Y-85544612D01*
X85706032Y-85738940D01*
X85711987Y-85749585D01*
X85852978Y-86054040D01*
X85984334Y-86411981D01*
X86010167Y-86493566D01*
X86070824Y-86660243D01*
X86107602Y-86664019D01*
X86133383Y-86481317D01*
X86161050Y-86088557D01*
X86170685Y-85923603D01*
X86174355Y-85587324D01*
X86137155Y-85430851D01*
X86052869Y-85415516D01*
X85994408Y-85434620D01*
X85726861Y-85475576D01*
X85669873Y-85479260D01*
X85617079Y-85544612D01*
X69246263Y-85544612D01*
X69327155Y-85392675D01*
X69935002Y-85392675D01*
X69949906Y-85464365D01*
X70000631Y-85427166D01*
X76678878Y-85427166D01*
X76685235Y-85436634D01*
X76847774Y-85454824D01*
X77190922Y-85463958D01*
X77676104Y-85464777D01*
X78264744Y-85458020D01*
X78918267Y-85444426D01*
X79598097Y-85424735D01*
X80143601Y-85404266D01*
X86870925Y-85404266D01*
X86898867Y-85560925D01*
X86938824Y-85559113D01*
X86960344Y-85407296D01*
X86943550Y-85304212D01*
X87553036Y-85304212D01*
X87575296Y-85407296D01*
X87614171Y-85587324D01*
X87625887Y-85641579D01*
X87651531Y-85701628D01*
X87762294Y-85820434D01*
X87860332Y-85721258D01*
X87928206Y-85417051D01*
X87943336Y-85221053D01*
X87904235Y-85050605D01*
X87765436Y-85007373D01*
X87614837Y-85076470D01*
X87553036Y-85304212D01*
X86943550Y-85304212D01*
X86941600Y-85292242D01*
X86889626Y-85336578D01*
X86870925Y-85404266D01*
X80143601Y-85404266D01*
X80265659Y-85399686D01*
X80882377Y-85370020D01*
X81409677Y-85336475D01*
X81912675Y-85291396D01*
X82546423Y-85216567D01*
X83107997Y-85131708D01*
X83277639Y-85096907D01*
X85483034Y-85096907D01*
X85658346Y-85081006D01*
X86033179Y-84957601D01*
X86138145Y-84922124D01*
X86559156Y-84809855D01*
X86998847Y-84724575D01*
X87184275Y-84690674D01*
X87450311Y-84611484D01*
X87554838Y-84531998D01*
X87574591Y-84481518D01*
X87730414Y-84422120D01*
X87749279Y-84421079D01*
X87868695Y-84312955D01*
X87905990Y-84008324D01*
X87893233Y-83745674D01*
X87829895Y-83660249D01*
X87679584Y-83715697D01*
X87519794Y-83780807D01*
X87211381Y-83836866D01*
X87067948Y-83859838D01*
X86969585Y-83953917D01*
X86948283Y-84009028D01*
X86789891Y-84070968D01*
X86763136Y-84072242D01*
X86468096Y-84178453D01*
X86424437Y-84207513D01*
X86088744Y-84430954D01*
X85678101Y-84795206D01*
X85496291Y-85000297D01*
X85483034Y-85096907D01*
X83277639Y-85096907D01*
X83516589Y-85047888D01*
X83827871Y-84967862D01*
X84307655Y-84848088D01*
X84690706Y-84756438D01*
X84774819Y-84734076D01*
X85103735Y-84589082D01*
X85312603Y-84407881D01*
X85372247Y-84307692D01*
X85392311Y-84207513D01*
X85250468Y-84227575D01*
X85239351Y-84230676D01*
X84969905Y-84296396D01*
X84628571Y-84369561D01*
X84583493Y-84379147D01*
X84301615Y-84466554D01*
X84149144Y-84560859D01*
X84142022Y-84567782D01*
X83972931Y-84618412D01*
X83623567Y-84675129D01*
X83140166Y-84731492D01*
X82568960Y-84781056D01*
X81795652Y-84839395D01*
X80589140Y-84937418D01*
X79512209Y-85033930D01*
X78582218Y-85127026D01*
X77816530Y-85214802D01*
X77232503Y-85295354D01*
X76847499Y-85366776D01*
X76678878Y-85427166D01*
X70000631Y-85427166D01*
X70023117Y-85410676D01*
X70038968Y-85404353D01*
X70232130Y-85377645D01*
X70613303Y-85344871D01*
X71146994Y-85308519D01*
X71797708Y-85271075D01*
X72529953Y-85235027D01*
X72656583Y-85229226D01*
X73957626Y-85161288D01*
X75065495Y-85085748D01*
X76017738Y-84999238D01*
X76851900Y-84898392D01*
X77605530Y-84779841D01*
X77838247Y-84734186D01*
X77901767Y-84706859D01*
X77777238Y-84697370D01*
X77449459Y-84704582D01*
X76903225Y-84727360D01*
X76421021Y-84749903D01*
X75903386Y-84775297D01*
X75498998Y-84796460D01*
X75268169Y-84810332D01*
X75041805Y-84777584D01*
X74929461Y-84638886D01*
X74989298Y-84455818D01*
X75226736Y-84295712D01*
X75228330Y-84295108D01*
X75449975Y-84251731D01*
X75862032Y-84207508D01*
X76421471Y-84165665D01*
X77085260Y-84129428D01*
X77810368Y-84102022D01*
X77881852Y-84099868D01*
X78572066Y-84074654D01*
X79171052Y-84045041D01*
X79643106Y-84013386D01*
X79952521Y-83982042D01*
X80063594Y-83953367D01*
X80169649Y-83916340D01*
X80464654Y-83874736D01*
X80902972Y-83834186D01*
X81438940Y-83799789D01*
X82074646Y-83765232D01*
X83217570Y-83692954D01*
X84143455Y-83618187D01*
X84863790Y-83539563D01*
X85390067Y-83455709D01*
X85733775Y-83365254D01*
X85906405Y-83266829D01*
X85911085Y-83261652D01*
X86165663Y-83090181D01*
X86206135Y-83073684D01*
X87813948Y-83073684D01*
X87827957Y-83212596D01*
X87863163Y-83230908D01*
X87905990Y-83134562D01*
X87897543Y-83072596D01*
X87827957Y-83056528D01*
X87813948Y-83073684D01*
X86206135Y-83073684D01*
X86566062Y-82926972D01*
X87027614Y-82800644D01*
X87465650Y-82739814D01*
X87697888Y-82687515D01*
X87733308Y-82549309D01*
X87710393Y-82465325D01*
X87639683Y-82174989D01*
X87555958Y-81805791D01*
X87543694Y-81751073D01*
X87399680Y-81242245D01*
X87238275Y-80868105D01*
X87076915Y-80660919D01*
X86933033Y-80652952D01*
X86910580Y-80668335D01*
X86679685Y-80762326D01*
X86355069Y-80842115D01*
X86273674Y-80858329D01*
X86018821Y-80934721D01*
X85916129Y-81010390D01*
X85912874Y-81019042D01*
X85774976Y-81095693D01*
X85474543Y-81201827D01*
X85067511Y-81317220D01*
X85002105Y-81334183D01*
X84595634Y-81448667D01*
X84294700Y-81548599D01*
X84160368Y-81614001D01*
X84122512Y-81635799D01*
X83898725Y-81703924D01*
X83525449Y-81790733D01*
X83058003Y-81882739D01*
X82831101Y-81926172D01*
X82398378Y-82022761D01*
X82084669Y-82111892D01*
X81946021Y-82178648D01*
X81824173Y-82241854D01*
X81501674Y-82342775D01*
X81015385Y-82468625D01*
X80400164Y-82610958D01*
X79690866Y-82761329D01*
X78922350Y-82911291D01*
X78571312Y-82989446D01*
X78296176Y-83077613D01*
X78190783Y-83149791D01*
X78178871Y-83172590D01*
X78015815Y-83229022D01*
X77722580Y-83251613D01*
X77617628Y-83254597D01*
X77358219Y-83295366D01*
X77254377Y-83368663D01*
X77152850Y-83415684D01*
X76839425Y-83453466D01*
X76336620Y-83477371D01*
X75667285Y-83485714D01*
X75562883Y-83485907D01*
X74970776Y-83495499D01*
X74515709Y-83517921D01*
X74230010Y-83550910D01*
X74146006Y-83592202D01*
X74168684Y-83665624D01*
X74140391Y-83884829D01*
X74112933Y-83933890D01*
X73976411Y-84016582D01*
X73701498Y-84059006D01*
X73240795Y-84070968D01*
X72827905Y-84081859D01*
X72296180Y-84114945D01*
X71731394Y-84164400D01*
X71186904Y-84224301D01*
X70716068Y-84288728D01*
X70372242Y-84351759D01*
X70208786Y-84407471D01*
X70184629Y-84442239D01*
X70102085Y-84656674D01*
X70016390Y-84978110D01*
X69977760Y-85154206D01*
X69935002Y-85392675D01*
X69327155Y-85392675D01*
X69340429Y-85367742D01*
X69478106Y-85127511D01*
X69583830Y-84802534D01*
X69611405Y-84650054D01*
X69598914Y-84469489D01*
X69479807Y-84422120D01*
X69390469Y-84435793D01*
X69294930Y-84531222D01*
X69262602Y-84574937D01*
X69065583Y-84715411D01*
X68729341Y-84912451D01*
X68300000Y-85137931D01*
X68047536Y-85267039D01*
X67665713Y-85475155D01*
X67402894Y-85635828D01*
X67305069Y-85722056D01*
X67301949Y-85733983D01*
X67172793Y-85830351D01*
X66912706Y-85938064D01*
X66835673Y-85967074D01*
X66473730Y-86161205D01*
X66130795Y-86415344D01*
X66020166Y-86510983D01*
X65785778Y-86691496D01*
X65650598Y-86763133D01*
X65636102Y-86765728D01*
X65480938Y-86864911D01*
X65259764Y-87063319D01*
X65040511Y-87239024D01*
X64691051Y-87333734D01*
X64346806Y-87194660D01*
X64007029Y-86821659D01*
X63890665Y-86638753D01*
X63727790Y-86234768D01*
X63680386Y-85746910D01*
X63680726Y-85700337D01*
X64144700Y-85700337D01*
X64170431Y-85991001D01*
X64252784Y-86329872D01*
X64360424Y-86527065D01*
X64523747Y-86676657D01*
X64621555Y-86684214D01*
X64897324Y-86603186D01*
X65225869Y-86431288D01*
X65524844Y-86207143D01*
X65619538Y-86131272D01*
X65769699Y-86060829D01*
X65902719Y-85993139D01*
X66111712Y-85822894D01*
X66176299Y-85770391D01*
X66462082Y-85585294D01*
X66869733Y-85356418D01*
X67333552Y-85121477D01*
X67740147Y-84923048D01*
X68246213Y-84656667D01*
X68619445Y-84423886D01*
X68911545Y-84191088D01*
X69174216Y-83924654D01*
X69205977Y-83891005D01*
X69476644Y-83686367D01*
X69730673Y-83602765D01*
X69924538Y-83556139D01*
X69941169Y-83511949D01*
X70465437Y-83511949D01*
X70513977Y-83652545D01*
X70728801Y-83699366D01*
X70883354Y-83687220D01*
X71413579Y-83640173D01*
X71769883Y-83592245D01*
X72000712Y-83531797D01*
X72154510Y-83447193D01*
X72279723Y-83326793D01*
X72383486Y-83226500D01*
X72731800Y-83023725D01*
X73227556Y-82886251D01*
X73898022Y-82808129D01*
X74770463Y-82783410D01*
X76063536Y-82783410D01*
X75933813Y-82439736D01*
X75754229Y-82164074D01*
X75387990Y-81902572D01*
X75288021Y-81852141D01*
X74932898Y-81606143D01*
X74658600Y-81317810D01*
X74538375Y-81097076D01*
X75147465Y-81097076D01*
X75189008Y-81195730D01*
X75375255Y-81318273D01*
X75465038Y-81358543D01*
X75733874Y-81532690D01*
X76036188Y-81776007D01*
X76283236Y-82020295D01*
X76409464Y-82241344D01*
X76409883Y-82472426D01*
X76388871Y-82602196D01*
X76414686Y-82725548D01*
X76563276Y-82769960D01*
X76890194Y-82769832D01*
X77197970Y-82759326D01*
X77543117Y-82722817D01*
X77722842Y-82638897D01*
X77779887Y-82480478D01*
X77756993Y-82220471D01*
X77742845Y-82140661D01*
X77631722Y-81722451D01*
X77477850Y-81308406D01*
X77421638Y-81183661D01*
X77304948Y-80976622D01*
X77156347Y-80861530D01*
X76908757Y-80800712D01*
X76495095Y-80756497D01*
X76023245Y-80737090D01*
X75558318Y-80786379D01*
X75255583Y-80909106D01*
X75147465Y-81097076D01*
X74538375Y-81097076D01*
X74506614Y-81038762D01*
X74518425Y-80820618D01*
X74522860Y-80814165D01*
X74695740Y-80681531D01*
X75019457Y-80510610D01*
X75427694Y-80336697D01*
X75884653Y-80134276D01*
X76270121Y-79859863D01*
X76430440Y-79616689D01*
X76994459Y-79616689D01*
X77064833Y-79823477D01*
X77150648Y-79917609D01*
X77346780Y-80144163D01*
X77395190Y-80198628D01*
X77495269Y-80270384D01*
X77643891Y-80299909D01*
X77886410Y-80286808D01*
X78268181Y-80230683D01*
X78834562Y-80131137D01*
X78968999Y-80105846D01*
X79384844Y-80012572D01*
X79684336Y-79922214D01*
X79809984Y-79851265D01*
X79925163Y-79775366D01*
X80175768Y-79740092D01*
X80495925Y-79720233D01*
X80877759Y-79665047D01*
X81106699Y-79595252D01*
X81139966Y-79521348D01*
X80985771Y-79456130D01*
X80667843Y-79409343D01*
X80209907Y-79390732D01*
X79866468Y-79376522D01*
X79585335Y-79333721D01*
X79478341Y-79271889D01*
X79455895Y-79246029D01*
X79252147Y-79197700D01*
X78864251Y-79166137D01*
X78326622Y-79154839D01*
X78277874Y-79154850D01*
X77763540Y-79159062D01*
X77431803Y-79177687D01*
X77234881Y-79220662D01*
X77124993Y-79297923D01*
X77054359Y-79419405D01*
X76994459Y-79616689D01*
X76430440Y-79616689D01*
X76496432Y-79516592D01*
X76604828Y-79059726D01*
X76633046Y-78829675D01*
X76655778Y-78657373D01*
X76680254Y-78618149D01*
X76843708Y-78569585D01*
X76981883Y-78519951D01*
X77164491Y-78335484D01*
X77228742Y-78258278D01*
X77488183Y-78121914D01*
X77803894Y-78089327D01*
X78087170Y-78160517D01*
X78249308Y-78335484D01*
X78251844Y-78343288D01*
X78343574Y-78484512D01*
X78538374Y-78552192D01*
X78900975Y-78569585D01*
X79104548Y-78577141D01*
X79373151Y-78619479D01*
X79478341Y-78686636D01*
X79526477Y-78732027D01*
X79749521Y-78784146D01*
X80092857Y-78804975D01*
X80496838Y-78813553D01*
X81114459Y-78874560D01*
X81506325Y-78994224D01*
X81673057Y-79172690D01*
X81739191Y-79291183D01*
X81943149Y-79388940D01*
X82046495Y-79398496D01*
X82226537Y-79521348D01*
X82231470Y-79524714D01*
X82223739Y-79770203D01*
X82220912Y-79776103D01*
X82065026Y-79873698D01*
X81718129Y-79993926D01*
X81218384Y-80128084D01*
X80603951Y-80267468D01*
X79912993Y-80403375D01*
X79183671Y-80527100D01*
X78454147Y-80629941D01*
X78403526Y-80636382D01*
X78042171Y-80704696D01*
X77876513Y-80822857D01*
X77877283Y-81043503D01*
X78015207Y-81419273D01*
X78033839Y-81465497D01*
X78145271Y-81826099D01*
X78190783Y-82128964D01*
X78214170Y-82328150D01*
X78291579Y-82480478D01*
X78291771Y-82480856D01*
X78436905Y-82494546D01*
X78740027Y-82469123D01*
X79120027Y-82414741D01*
X79499430Y-82344254D01*
X79800760Y-82270512D01*
X79946543Y-82206366D01*
X79965410Y-82192742D01*
X80156844Y-82121316D01*
X80501569Y-82022841D01*
X80941474Y-81914370D01*
X81079709Y-81881705D01*
X81497405Y-81771858D01*
X81802462Y-81674663D01*
X81936686Y-81608032D01*
X81969268Y-81585158D01*
X82182242Y-81509936D01*
X82534134Y-81416443D01*
X82960320Y-81318926D01*
X83396173Y-81231632D01*
X83777069Y-81168808D01*
X84038383Y-81144700D01*
X84179020Y-81125685D01*
X84277419Y-81046013D01*
X84291570Y-81025152D01*
X84464846Y-80935923D01*
X84793763Y-80816722D01*
X85225730Y-80687438D01*
X85345872Y-80654275D01*
X85818066Y-80519605D01*
X86215585Y-80399905D01*
X86462658Y-80317817D01*
X86751275Y-80208085D01*
X86519391Y-79886300D01*
X86014867Y-79279821D01*
X85405949Y-78760710D01*
X84790276Y-78449730D01*
X84692945Y-78416547D01*
X84416951Y-78304493D01*
X84277419Y-78218801D01*
X84156078Y-78145404D01*
X83873237Y-78026785D01*
X83502668Y-77891584D01*
X83115884Y-77764471D01*
X82784397Y-77670114D01*
X82579718Y-77633180D01*
X82499616Y-77621933D01*
X82404608Y-77532288D01*
X82334145Y-77447422D01*
X82065760Y-77356546D01*
X81632901Y-77283712D01*
X81074004Y-77229215D01*
X80427506Y-77193348D01*
X79731841Y-77176404D01*
X79025445Y-77178676D01*
X78346754Y-77200459D01*
X77734203Y-77242046D01*
X77226228Y-77303729D01*
X76861265Y-77385803D01*
X76677749Y-77488562D01*
X76547938Y-77565104D01*
X76254823Y-77682797D01*
X75865554Y-77813228D01*
X75492402Y-77944900D01*
X75197225Y-78082199D01*
X75062938Y-78189170D01*
X75030880Y-78242763D01*
X74848346Y-78335484D01*
X74828460Y-78336360D01*
X74595183Y-78434804D01*
X74361891Y-78643629D01*
X74196469Y-78887552D01*
X74166803Y-79091290D01*
X74168356Y-79095520D01*
X74124856Y-79318895D01*
X73873822Y-79624220D01*
X73423531Y-80003383D01*
X72782258Y-80448274D01*
X72447049Y-80682294D01*
X72082278Y-80974420D01*
X71832734Y-81217483D01*
X71750114Y-81320403D01*
X71488224Y-81683070D01*
X71457471Y-81729954D01*
X71203637Y-82116931D01*
X70927709Y-82569368D01*
X70691795Y-82987763D01*
X70527253Y-83319496D01*
X70465437Y-83511949D01*
X69941169Y-83511949D01*
X69997235Y-83362975D01*
X69997271Y-83359890D01*
X70062507Y-83142292D01*
X70228452Y-82807462D01*
X70459940Y-82426570D01*
X70488289Y-82383750D01*
X70700533Y-82052736D01*
X70838528Y-81818701D01*
X70873588Y-81729954D01*
X70800027Y-81745929D01*
X70576256Y-81841923D01*
X70311222Y-81984114D01*
X70089893Y-82125196D01*
X69997235Y-82217864D01*
X69951725Y-82277618D01*
X69747384Y-82421994D01*
X69434423Y-82596462D01*
X69253451Y-82695238D01*
X68833142Y-82965869D01*
X68493902Y-83234493D01*
X68424305Y-83295988D01*
X68063456Y-83550151D01*
X67710631Y-83721174D01*
X67649781Y-83742268D01*
X67404501Y-83853141D01*
X67305069Y-83944462D01*
X67221321Y-84012047D01*
X66967418Y-84123046D01*
X66602765Y-84246544D01*
X66271022Y-84356932D01*
X66003191Y-84468141D01*
X65900460Y-84542491D01*
X65876147Y-84574525D01*
X65691470Y-84667866D01*
X65384765Y-84770183D01*
X65092515Y-84860477D01*
X64560013Y-85098889D01*
X64247044Y-85376615D01*
X64144700Y-85700337D01*
X63680726Y-85700337D01*
X63681918Y-85536892D01*
X63717837Y-85247358D01*
X63829898Y-85056052D01*
X64056912Y-84872883D01*
X64115904Y-84830973D01*
X64393291Y-84623337D01*
X64579280Y-84467955D01*
X64664161Y-84412059D01*
X64944059Y-84296172D01*
X65310847Y-84189064D01*
X65532270Y-84129764D01*
X65797140Y-84035759D01*
X65900460Y-83963618D01*
X65973819Y-83902453D01*
X66217484Y-83792458D01*
X66572756Y-83667696D01*
X66871392Y-83559865D01*
X67216629Y-83397536D01*
X67421374Y-83252880D01*
X67604894Y-83103954D01*
X67932770Y-82896865D01*
X68329262Y-82680912D01*
X68351390Y-82669704D01*
X68709645Y-82474684D01*
X68964063Y-82311422D01*
X69060829Y-82214249D01*
X69078563Y-82179692D01*
X69244719Y-82053924D01*
X69529032Y-81905530D01*
X69657243Y-81844589D01*
X69900628Y-81705900D01*
X69997235Y-81612903D01*
X70015193Y-81582488D01*
X70181441Y-81465156D01*
X70465437Y-81320276D01*
X70593164Y-81259201D01*
X70836884Y-81116861D01*
X70933640Y-81017760D01*
X70985012Y-80945832D01*
X71180681Y-80847967D01*
X71204876Y-80839389D01*
X71448606Y-80700557D01*
X71745415Y-80473514D01*
X72033696Y-80213307D01*
X72251842Y-79974987D01*
X72338248Y-79813604D01*
X72358691Y-79756041D01*
X72511292Y-79564040D01*
X72764083Y-79329759D01*
X72911400Y-79208123D01*
X74239849Y-78072120D01*
X74321602Y-78002949D01*
X74576571Y-77822556D01*
X74750509Y-77750230D01*
X74844228Y-77730143D01*
X75051316Y-77600728D01*
X75183321Y-77514524D01*
X75491349Y-77370975D01*
X75879032Y-77225336D01*
X76186266Y-77113824D01*
X76450457Y-76997745D01*
X76552073Y-76923790D01*
X76584788Y-76885232D01*
X76802891Y-76812164D01*
X77189453Y-76741466D01*
X77701819Y-76678005D01*
X78297332Y-76626649D01*
X78933337Y-76592266D01*
X79567178Y-76579723D01*
X80043509Y-76586479D01*
X80728013Y-76618942D01*
X81349026Y-76673654D01*
X81863896Y-76745498D01*
X82229974Y-76829358D01*
X82404608Y-76920116D01*
X82405997Y-76921905D01*
X82548291Y-76993476D01*
X82851877Y-77098331D01*
X83253225Y-77214436D01*
X83279697Y-77221540D01*
X83665417Y-77336551D01*
X83939214Y-77439104D01*
X84043318Y-77507751D01*
X84108729Y-77564416D01*
X84344553Y-77672396D01*
X84693063Y-77795242D01*
X84732600Y-77808073D01*
X85300484Y-78067982D01*
X85768868Y-78413816D01*
X85906353Y-78543532D01*
X86218330Y-78815995D01*
X86465206Y-79004670D01*
X86647223Y-79155626D01*
X86735483Y-79302559D01*
X86763104Y-79381515D01*
X86903431Y-79610327D01*
X87122625Y-79903613D01*
X87243297Y-80060950D01*
X87342783Y-80208085D01*
X87507197Y-80451245D01*
X87697903Y-80793548D01*
X87801670Y-81058191D01*
X87960471Y-81575823D01*
X88114865Y-82185244D01*
X88192163Y-82549309D01*
X88247109Y-82808097D01*
X88301150Y-83134562D01*
G37*
G36*
X82357092Y-94987141D02*
G01*
X82236124Y-95365402D01*
X82188542Y-95541228D01*
X82117067Y-95704804D01*
X81990959Y-95886736D01*
X81774713Y-96137508D01*
X81432824Y-96507604D01*
X81389615Y-96553737D01*
X81163025Y-96773384D01*
X80956634Y-96890826D01*
X80685706Y-96937925D01*
X80265506Y-96946544D01*
X79766861Y-96937334D01*
X79271936Y-96885608D01*
X78888952Y-96767492D01*
X78549579Y-96559746D01*
X78185482Y-96239130D01*
X78071115Y-96128273D01*
X77809966Y-95854048D01*
X77670855Y-95633250D01*
X77615477Y-95386248D01*
X77608781Y-95148746D01*
X78092946Y-95148746D01*
X78255485Y-95425720D01*
X78573255Y-95799420D01*
X78816816Y-96037841D01*
X79115279Y-96283475D01*
X79334201Y-96411218D01*
X79483271Y-96449746D01*
X79544139Y-96398884D01*
X79478002Y-96184823D01*
X79334792Y-95892036D01*
X79085722Y-95624990D01*
X78682525Y-95378532D01*
X78633152Y-95352007D01*
X78401879Y-95194718D01*
X78307834Y-95070727D01*
X78304455Y-95043556D01*
X78190783Y-94956682D01*
X78094765Y-94988606D01*
X78092946Y-95148746D01*
X77608781Y-95148746D01*
X77605530Y-95033410D01*
X77609774Y-94885266D01*
X79188482Y-94885266D01*
X79260325Y-94977485D01*
X79486562Y-95185997D01*
X79728788Y-95393795D01*
X79866099Y-95468721D01*
X79938389Y-95427877D01*
X79985551Y-95288362D01*
X80029778Y-95114125D01*
X80008919Y-95017779D01*
X79866576Y-94963791D01*
X79549308Y-94905225D01*
X79277574Y-94864733D01*
X79188482Y-94885266D01*
X77609774Y-94885266D01*
X77619618Y-94541640D01*
X77666889Y-94293889D01*
X78429994Y-94293889D01*
X78486326Y-94332911D01*
X78723109Y-94368500D01*
X79166938Y-94409698D01*
X79262776Y-94418173D01*
X79701974Y-94466855D01*
X80041282Y-94520000D01*
X80213856Y-94567530D01*
X80276608Y-94589879D01*
X80538944Y-94620053D01*
X80894129Y-94618643D01*
X81068332Y-94615257D01*
X81365955Y-94641901D01*
X81515226Y-94703970D01*
X81527000Y-94724484D01*
X81540914Y-94946748D01*
X81371664Y-95114125D01*
X81362479Y-95123208D01*
X81030049Y-95213579D01*
X80858140Y-95236495D01*
X80657725Y-95321052D01*
X80485899Y-95512282D01*
X80280859Y-95863825D01*
X79992553Y-96398884D01*
X79949739Y-96478341D01*
X80339613Y-96478341D01*
X80723098Y-96404434D01*
X81156652Y-96106233D01*
X81542331Y-95579171D01*
X81880306Y-94823067D01*
X81906690Y-94748979D01*
X81972756Y-94491075D01*
X81919341Y-94317948D01*
X81721894Y-94120763D01*
X81587405Y-94013258D01*
X81409570Y-93923444D01*
X81167455Y-93872555D01*
X80804486Y-93849878D01*
X80264088Y-93844700D01*
X80082184Y-93845856D01*
X79552966Y-93866400D01*
X79193253Y-93910053D01*
X79035056Y-93973463D01*
X78874272Y-94097502D01*
X78600797Y-94217206D01*
X78527517Y-94242391D01*
X78429994Y-94293889D01*
X77666889Y-94293889D01*
X77692340Y-94160501D01*
X77862697Y-93911455D01*
X78169545Y-93741118D01*
X78651741Y-93596109D01*
X78707431Y-93581557D01*
X79097930Y-93466654D01*
X79373792Y-93363201D01*
X79478341Y-93292047D01*
X79478987Y-93288417D01*
X79601211Y-93244198D01*
X79893848Y-93212838D01*
X80297695Y-93200921D01*
X80298490Y-93200922D01*
X80718623Y-93216438D01*
X81008788Y-93257928D01*
X81117050Y-93317972D01*
X81190560Y-93395159D01*
X81411319Y-93435023D01*
X81442771Y-93436114D01*
X81763303Y-93522031D01*
X82118529Y-93707215D01*
X82421609Y-93938005D01*
X82585708Y-94160740D01*
X82584023Y-94392826D01*
X82551201Y-94491075D01*
X82485591Y-94687468D01*
X82357092Y-94987141D01*
G37*
G36*
X73426503Y-96567962D02*
G01*
X73768943Y-96582095D01*
X73912580Y-96607143D01*
X73944423Y-96640050D01*
X73988327Y-96732811D01*
X73930476Y-96809514D01*
X73751964Y-96872650D01*
X73433886Y-96924716D01*
X72957335Y-96968205D01*
X72303405Y-97005611D01*
X71453190Y-97039428D01*
X70387784Y-97072151D01*
X69844244Y-97088318D01*
X68840226Y-97124684D01*
X68045059Y-97163502D01*
X67465054Y-97204366D01*
X67106525Y-97246873D01*
X66975784Y-97290619D01*
X66889347Y-97368239D01*
X66660465Y-97414746D01*
X66613250Y-97415708D01*
X66293126Y-97450882D01*
X65920564Y-97523521D01*
X65566554Y-97615603D01*
X65302087Y-97709105D01*
X65198156Y-97786002D01*
X65154381Y-97842279D01*
X64964055Y-97882949D01*
X64828222Y-97899476D01*
X64729953Y-97971422D01*
X64688510Y-98024058D01*
X64486837Y-98157129D01*
X64173963Y-98317577D01*
X64133101Y-98337048D01*
X63689058Y-98623707D01*
X63383871Y-98960671D01*
X63156684Y-99333947D01*
X62915335Y-99726956D01*
X62709652Y-100055846D01*
X62490641Y-100399539D01*
X62288764Y-100726434D01*
X62016956Y-101197035D01*
X61758959Y-101672353D01*
X61541538Y-102101085D01*
X61391458Y-102431934D01*
X61335483Y-102613598D01*
X61334229Y-102628921D01*
X61271041Y-102832289D01*
X61131379Y-103169568D01*
X60941604Y-103576330D01*
X60730212Y-104049006D01*
X60528125Y-104579274D01*
X60392860Y-105023041D01*
X60324262Y-105292022D01*
X60230736Y-105611675D01*
X60164044Y-105783871D01*
X60136386Y-105839985D01*
X60045334Y-106087541D01*
X59940551Y-106427650D01*
X59897495Y-106573343D01*
X59781264Y-106923003D01*
X59685365Y-107157628D01*
X59634583Y-107283683D01*
X59579723Y-107589660D01*
X59560771Y-107725797D01*
X59462672Y-107890783D01*
X59410543Y-107942621D01*
X59345622Y-108149439D01*
X59309760Y-108295916D01*
X59184882Y-108618731D01*
X58994524Y-109052042D01*
X58763893Y-109543710D01*
X58518196Y-110041594D01*
X58282639Y-110493556D01*
X58082431Y-110847455D01*
X57942779Y-111051152D01*
X57785211Y-111300922D01*
X57597579Y-111749014D01*
X57413561Y-112319676D01*
X57249689Y-112954938D01*
X57122492Y-113596831D01*
X57048499Y-114187386D01*
X57025295Y-114513545D01*
X57015008Y-114893539D01*
X57049173Y-115165248D01*
X57140771Y-115405413D01*
X57302782Y-115690772D01*
X57431907Y-115884019D01*
X57707772Y-116213626D01*
X57961484Y-116428957D01*
X57980882Y-116440590D01*
X58201376Y-116602651D01*
X58292165Y-116726334D01*
X58355443Y-116784164D01*
X58592798Y-116879378D01*
X58945857Y-116974662D01*
X58997088Y-116985789D01*
X59369463Y-117043809D01*
X59790585Y-117063127D01*
X60321226Y-117044107D01*
X61022155Y-116987112D01*
X61047420Y-116984716D01*
X61594362Y-116923435D01*
X62047273Y-116855518D01*
X62359685Y-116789062D01*
X62485130Y-116732166D01*
X62490011Y-116721826D01*
X62641973Y-116643261D01*
X62919661Y-116611060D01*
X63229106Y-116594741D01*
X63689228Y-116529576D01*
X64132363Y-116430346D01*
X64486342Y-116314015D01*
X64678995Y-116197546D01*
X64680315Y-116195963D01*
X64750863Y-116160746D01*
X64907517Y-116130162D01*
X65166721Y-116103690D01*
X65544919Y-116080808D01*
X66058554Y-116060995D01*
X66724071Y-116043729D01*
X67557913Y-116028489D01*
X68576526Y-116014753D01*
X69796351Y-116002001D01*
X71233834Y-115989710D01*
X72353600Y-115978560D01*
X74524441Y-115944266D01*
X76689033Y-115894146D01*
X78818901Y-115829439D01*
X80885574Y-115751386D01*
X82860580Y-115661224D01*
X84715448Y-115560194D01*
X86421705Y-115449536D01*
X87950879Y-115330489D01*
X89274498Y-115204292D01*
X89374935Y-115193973D01*
X90025699Y-115140904D01*
X90709435Y-115103533D01*
X91293622Y-115089401D01*
X91432011Y-115088332D01*
X91842365Y-115070823D01*
X92129044Y-115036294D01*
X92236866Y-114990529D01*
X92261319Y-114972863D01*
X92466131Y-114931272D01*
X92845257Y-114888338D01*
X93357926Y-114848207D01*
X93963364Y-114815023D01*
X94239963Y-114801990D01*
X95063933Y-114754624D01*
X95851360Y-114697609D01*
X96569361Y-114634356D01*
X97185051Y-114568275D01*
X97665544Y-114502776D01*
X97977956Y-114441269D01*
X98089400Y-114387163D01*
X98157035Y-114342548D01*
X98401320Y-114280397D01*
X98762442Y-114226273D01*
X99310988Y-114152253D01*
X99831853Y-114059533D01*
X100262753Y-113960712D01*
X100556152Y-113866727D01*
X100664516Y-113788521D01*
X100672009Y-113770161D01*
X100821850Y-113691332D01*
X101103456Y-113623147D01*
X101145304Y-113615975D01*
X101502947Y-113536045D01*
X101776497Y-113446773D01*
X101932063Y-113387401D01*
X102276006Y-113274725D01*
X102683563Y-113154287D01*
X102980928Y-113059908D01*
X103323613Y-112920236D01*
X103523819Y-112798629D01*
X103634505Y-112705586D01*
X103794844Y-112631336D01*
X103835884Y-112605756D01*
X103964121Y-112436768D01*
X104114974Y-112181255D01*
X104240582Y-111923925D01*
X104293087Y-111749485D01*
X104290475Y-111745229D01*
X104152877Y-111719728D01*
X103847680Y-111701741D01*
X103432674Y-111694931D01*
X103234751Y-111697848D01*
X102688676Y-111738262D01*
X102243893Y-111818369D01*
X101944608Y-111928137D01*
X101835023Y-112057533D01*
X101767827Y-112125744D01*
X101552838Y-112163133D01*
X101386567Y-112130630D01*
X101205964Y-111970330D01*
X101013584Y-111632100D01*
X100933319Y-111447008D01*
X100830410Y-111107086D01*
X100816577Y-110871387D01*
X100831719Y-110727753D01*
X100770578Y-110576158D01*
X100747419Y-110559432D01*
X100664554Y-110366270D01*
X100721950Y-110124709D01*
X100898617Y-109939170D01*
X100983081Y-109889275D01*
X101121693Y-109737192D01*
X101039505Y-109629132D01*
X100746451Y-109588018D01*
X100462944Y-109556316D01*
X100177683Y-109392651D01*
X100079262Y-109099411D01*
X100079265Y-109098321D01*
X100159382Y-108913960D01*
X100411537Y-108737253D01*
X100856023Y-108557812D01*
X101513133Y-108365244D01*
X101538236Y-108358589D01*
X101924592Y-108241685D01*
X102198907Y-108132317D01*
X102303225Y-108053361D01*
X102322176Y-108006210D01*
X102476672Y-107949309D01*
X102559458Y-107925437D01*
X102794369Y-107777662D01*
X103071974Y-107539631D01*
X103224585Y-107397658D01*
X103459853Y-107205345D01*
X103596876Y-107129954D01*
X103644547Y-107114555D01*
X103837773Y-106982349D01*
X104096854Y-106762368D01*
X104359291Y-106512694D01*
X104562586Y-106291408D01*
X104644239Y-106156595D01*
X104617153Y-106129895D01*
X104409421Y-106092209D01*
X104032578Y-106075405D01*
X103529426Y-106077417D01*
X102942764Y-106096174D01*
X102315394Y-106129608D01*
X101690115Y-106175650D01*
X101109729Y-106232233D01*
X100617037Y-106297286D01*
X100254838Y-106368742D01*
X100216119Y-106378965D01*
X99811242Y-106497356D01*
X99507787Y-106606111D01*
X99368889Y-106682847D01*
X99346386Y-106703640D01*
X99140644Y-106788960D01*
X98787370Y-106884382D01*
X98352620Y-106976879D01*
X97902454Y-107053426D01*
X97502928Y-107100996D01*
X97220102Y-107106565D01*
X96981028Y-107061320D01*
X96889254Y-106938717D01*
X96889311Y-106661751D01*
X96892093Y-106622303D01*
X96934574Y-105971140D01*
X96952165Y-105507349D01*
X96940424Y-105187323D01*
X96894909Y-104967456D01*
X96811179Y-104804140D01*
X96684792Y-104653770D01*
X96662093Y-104629609D01*
X96429321Y-104376248D01*
X96262255Y-104185567D01*
X96120077Y-104031155D01*
X95842452Y-103773882D01*
X95540411Y-103526625D01*
X95277825Y-103340664D01*
X95118563Y-103267281D01*
X95106713Y-103267901D01*
X94932727Y-103384779D01*
X94761091Y-103651572D01*
X94630058Y-103992865D01*
X94577880Y-104333246D01*
X94602330Y-104500014D01*
X94725261Y-104893922D01*
X94937159Y-105419398D01*
X95221659Y-106033227D01*
X95236644Y-106063860D01*
X95481381Y-106578686D01*
X95681252Y-107025471D01*
X95816018Y-107357250D01*
X95865437Y-107527056D01*
X95916468Y-107664713D01*
X96106642Y-107836059D01*
X96261575Y-107970387D01*
X96324163Y-108195522D01*
X96227712Y-108391963D01*
X95987765Y-108476037D01*
X95760645Y-108418246D01*
X95619018Y-108183410D01*
X95559054Y-108020794D01*
X95525953Y-108035526D01*
X95506224Y-108104147D01*
X95368512Y-108237445D01*
X95087773Y-108359260D01*
X94648840Y-108472485D01*
X94036546Y-108580014D01*
X93235725Y-108684738D01*
X92231210Y-108789551D01*
X91007834Y-108897347D01*
X90801297Y-108915026D01*
X90231422Y-108971125D01*
X89763858Y-109027871D01*
X89442339Y-109079517D01*
X89310599Y-109120317D01*
X89309917Y-109121188D01*
X89169996Y-109150790D01*
X88816868Y-109180356D01*
X88270827Y-109209645D01*
X87552171Y-109238419D01*
X86681193Y-109266441D01*
X85678189Y-109293470D01*
X84563456Y-109319269D01*
X83357288Y-109343598D01*
X82079981Y-109366218D01*
X80751831Y-109386892D01*
X79393132Y-109405381D01*
X78024181Y-109421445D01*
X76665273Y-109434846D01*
X75336703Y-109445345D01*
X74058767Y-109452703D01*
X72851760Y-109456683D01*
X71735978Y-109457044D01*
X70731717Y-109453549D01*
X69859271Y-109445959D01*
X69138937Y-109434035D01*
X68591009Y-109417538D01*
X68235784Y-109396229D01*
X68093556Y-109369870D01*
X68039386Y-109299788D01*
X68028932Y-109103861D01*
X68193730Y-108948779D01*
X68491700Y-108885714D01*
X68623600Y-108876247D01*
X69118068Y-108727813D01*
X69707471Y-108413803D01*
X70360342Y-107952966D01*
X71045213Y-107364055D01*
X71541173Y-106906608D01*
X71984062Y-106516660D01*
X72285734Y-106275875D01*
X72435155Y-106193548D01*
X72511962Y-106156003D01*
X72723807Y-105996581D01*
X73002138Y-105754608D01*
X73173058Y-105600388D01*
X73542550Y-105280131D01*
X73856528Y-105023041D01*
X73899966Y-104988989D01*
X74219768Y-104725419D01*
X74485374Y-104488241D01*
X74634949Y-104358733D01*
X74956752Y-104110861D01*
X75323041Y-103852187D01*
X75588646Y-103670348D01*
X75844991Y-103487101D01*
X75966820Y-103389353D01*
X75969112Y-103386763D01*
X76107226Y-103277238D01*
X76347235Y-103115566D01*
X76358706Y-103108157D01*
X76578333Y-102915668D01*
X76669124Y-102737854D01*
X76683443Y-102650699D01*
X76794321Y-102567419D01*
X76947157Y-102629781D01*
X77059772Y-102820418D01*
X77072135Y-102927045D01*
X76970282Y-103198394D01*
X76670477Y-103500177D01*
X76158840Y-103848227D01*
X76066128Y-103905871D01*
X75713154Y-104147401D01*
X75435316Y-104367469D01*
X75357111Y-104436886D01*
X75055731Y-104693546D01*
X74724938Y-104964516D01*
X74598369Y-105066884D01*
X74304247Y-105312056D01*
X74101152Y-105491244D01*
X73933989Y-105632598D01*
X73632512Y-105867928D01*
X73274654Y-106135023D01*
X72945223Y-106380400D01*
X72636077Y-106620463D01*
X72447326Y-106778802D01*
X72241272Y-106969917D01*
X71977896Y-107209626D01*
X71743050Y-107432115D01*
X71565646Y-107619304D01*
X71541851Y-107646572D01*
X71285890Y-107886349D01*
X70921673Y-108178496D01*
X70528775Y-108462029D01*
X70186774Y-108675969D01*
X70138941Y-108702974D01*
X70069997Y-108752595D01*
X70064785Y-108791771D01*
X70144601Y-108821777D01*
X70330740Y-108843892D01*
X70644499Y-108859394D01*
X71107174Y-108869558D01*
X71740062Y-108875664D01*
X72564458Y-108878988D01*
X73601660Y-108880808D01*
X73850660Y-108880994D01*
X75233161Y-108877622D01*
X76693890Y-108867353D01*
X78206819Y-108850811D01*
X79745921Y-108828619D01*
X81285168Y-108801397D01*
X82798534Y-108769769D01*
X84259990Y-108734356D01*
X85643510Y-108695782D01*
X86923067Y-108654668D01*
X88072632Y-108611636D01*
X89066178Y-108567309D01*
X89877678Y-108522309D01*
X90481106Y-108477258D01*
X90826246Y-108445913D01*
X91566601Y-108379930D01*
X92273249Y-108318464D01*
X92879731Y-108267257D01*
X93319585Y-108232051D01*
X93427403Y-108223138D01*
X93834013Y-108174133D01*
X94119184Y-108114917D01*
X94226728Y-108056373D01*
X94254413Y-108001751D01*
X94423256Y-107949309D01*
X94431480Y-107949259D01*
X94731257Y-107901545D01*
X95046693Y-107789059D01*
X95295961Y-107648245D01*
X95397235Y-107515543D01*
X95368090Y-107393389D01*
X95255519Y-107106824D01*
X95087268Y-106748965D01*
X94974172Y-106524797D01*
X94716973Y-106014246D01*
X94484609Y-105552168D01*
X94278107Y-105044205D01*
X94151883Y-104403516D01*
X94182802Y-103822141D01*
X94367363Y-103341137D01*
X94702066Y-103001559D01*
X94839569Y-102885353D01*
X94929032Y-102712397D01*
X95023552Y-102608428D01*
X95280184Y-102564977D01*
X95284482Y-102564985D01*
X95529599Y-102598226D01*
X95631336Y-102676628D01*
X95695979Y-102800733D01*
X95882516Y-103045088D01*
X96148238Y-103349669D01*
X96386095Y-103608231D01*
X96767534Y-104023548D01*
X97093582Y-104379263D01*
X97522023Y-104847465D01*
X97456053Y-105696083D01*
X97451574Y-105756506D01*
X97434166Y-106155832D01*
X97442895Y-106437691D01*
X97476377Y-106544351D01*
X97510077Y-106539318D01*
X97732542Y-106491639D01*
X98121646Y-106401688D01*
X98634903Y-106279390D01*
X99229826Y-106134674D01*
X99477272Y-106074391D01*
X100057786Y-105936820D01*
X100547606Y-105826061D01*
X100901284Y-105752206D01*
X101073374Y-105725345D01*
X101154906Y-105712006D01*
X101249769Y-105608295D01*
X101252975Y-105599715D01*
X101403619Y-105554159D01*
X101765500Y-105520050D01*
X102319192Y-105498657D01*
X103045266Y-105491244D01*
X104840764Y-105491244D01*
X104976603Y-105789378D01*
X105096065Y-106163130D01*
X105049590Y-106506923D01*
X104797857Y-106808838D01*
X104796467Y-106809999D01*
X104482979Y-107085840D01*
X104170794Y-107380254D01*
X104145777Y-107404653D01*
X103866157Y-107646885D01*
X103620827Y-107816179D01*
X103383230Y-107970260D01*
X103102778Y-108193180D01*
X103101765Y-108194080D01*
X102848235Y-108357183D01*
X102454993Y-108544445D01*
X102006731Y-108715507D01*
X101929731Y-108741497D01*
X101560775Y-108879491D01*
X101419374Y-108964056D01*
X101505245Y-108995349D01*
X101623673Y-109009559D01*
X101849944Y-109158369D01*
X101910571Y-109440916D01*
X101793623Y-109822959D01*
X101770507Y-109869395D01*
X101680978Y-110082096D01*
X101730614Y-110161448D01*
X101948522Y-110173272D01*
X102179269Y-110213618D01*
X102353065Y-110368421D01*
X102369377Y-110416067D01*
X102364398Y-110595765D01*
X102198326Y-110727534D01*
X101835023Y-110844591D01*
X101664788Y-110895957D01*
X101474859Y-111023098D01*
X101425345Y-111234169D01*
X101425459Y-111250843D01*
X101476250Y-111452261D01*
X101647698Y-111480939D01*
X101783544Y-111438339D01*
X102036473Y-111276100D01*
X102079363Y-111248278D01*
X102334010Y-111181165D01*
X102734538Y-111133358D01*
X103216134Y-111107288D01*
X103713985Y-111105383D01*
X104163280Y-111130073D01*
X104499206Y-111183787D01*
X104592014Y-111220179D01*
X104792746Y-111437073D01*
X104844059Y-111750952D01*
X104726519Y-112084782D01*
X104605994Y-112317780D01*
X104508777Y-112636756D01*
X104503528Y-112663769D01*
X104341511Y-112918452D01*
X104014506Y-113169492D01*
X103581964Y-113379845D01*
X103103340Y-113512467D01*
X103086313Y-113515506D01*
X102695224Y-113648025D01*
X102355286Y-113856031D01*
X102334427Y-113873504D01*
X101947994Y-114079325D01*
X101400349Y-114179466D01*
X101142086Y-114211771D01*
X100829959Y-114286696D01*
X100672030Y-114374939D01*
X100662633Y-114385997D01*
X100483705Y-114470745D01*
X100143918Y-114569955D01*
X99705027Y-114670618D01*
X99228788Y-114759722D01*
X98776957Y-114824258D01*
X98411290Y-114851216D01*
X98190576Y-114879650D01*
X98089400Y-114948939D01*
X98035632Y-114987978D01*
X97776054Y-115050504D01*
X97323048Y-115117623D01*
X96700646Y-115187014D01*
X95932878Y-115256355D01*
X95043777Y-115323323D01*
X94057372Y-115385599D01*
X92997695Y-115440859D01*
X92979841Y-115441696D01*
X92144964Y-115483755D01*
X91299471Y-115531334D01*
X90504493Y-115580646D01*
X89821159Y-115627903D01*
X89310599Y-115669317D01*
X88894199Y-115705022D01*
X88225270Y-115756859D01*
X87442479Y-115813256D01*
X86611768Y-115869492D01*
X85799078Y-115920843D01*
X85711319Y-115926212D01*
X85012925Y-115973022D01*
X84401769Y-116020971D01*
X83914485Y-116066666D01*
X83587706Y-116106712D01*
X83458064Y-116137715D01*
X83322214Y-116175820D01*
X82973271Y-116216929D01*
X82433847Y-116259397D01*
X81725985Y-116302412D01*
X80871732Y-116345164D01*
X79893133Y-116386844D01*
X78812234Y-116426640D01*
X77651079Y-116463742D01*
X76431714Y-116497340D01*
X75176184Y-116526623D01*
X73906536Y-116550781D01*
X72644813Y-116569005D01*
X71413062Y-116580482D01*
X70861818Y-116584217D01*
X69643997Y-116594122D01*
X68634473Y-116605396D01*
X67814829Y-116618693D01*
X67166650Y-116634664D01*
X66671519Y-116653963D01*
X66311020Y-116677241D01*
X66066737Y-116705152D01*
X65920254Y-116738347D01*
X65853154Y-116777479D01*
X65693530Y-116864980D01*
X65308967Y-116947247D01*
X64729953Y-117005143D01*
X64559360Y-117016663D01*
X63767217Y-117078773D01*
X63185657Y-117142667D01*
X62794832Y-117211675D01*
X62574893Y-117289129D01*
X62505990Y-117378359D01*
X62481028Y-117432091D01*
X62263181Y-117531240D01*
X61832949Y-117603995D01*
X61547888Y-117635942D01*
X61169720Y-117681032D01*
X60925806Y-117713528D01*
X60741325Y-117737738D01*
X60196357Y-117769527D01*
X59641016Y-117754498D01*
X59124113Y-117699240D01*
X58694462Y-117610344D01*
X58400875Y-117494399D01*
X58292165Y-117357994D01*
X58281662Y-117290146D01*
X58179071Y-117196313D01*
X58139837Y-117189063D01*
X57927901Y-117059189D01*
X57640863Y-116805329D01*
X57328119Y-116478122D01*
X57039066Y-116128207D01*
X56823101Y-115806225D01*
X56682663Y-115517554D01*
X56568552Y-115092469D01*
X56536405Y-114555582D01*
X56565082Y-113936278D01*
X56706362Y-113003179D01*
X56949456Y-112115241D01*
X57276252Y-111333822D01*
X57668636Y-110720282D01*
X57703720Y-110676706D01*
X57872390Y-110433869D01*
X57941013Y-110274367D01*
X57952519Y-110224783D01*
X58041590Y-109992219D01*
X58199604Y-109629383D01*
X58403538Y-109190238D01*
X58465747Y-109053708D01*
X58638206Y-108638581D01*
X58846413Y-108102402D01*
X59075405Y-107487617D01*
X59310220Y-106836676D01*
X59535893Y-106192024D01*
X59737463Y-105596111D01*
X59899967Y-105091384D01*
X60008442Y-104720291D01*
X60047926Y-104525279D01*
X60048083Y-104522030D01*
X60099440Y-104364544D01*
X60225054Y-104062041D01*
X60399078Y-103676958D01*
X60408893Y-103655923D01*
X60581229Y-103271681D01*
X60703656Y-102971408D01*
X60750230Y-102818524D01*
X60757462Y-102772221D01*
X60843447Y-102529424D01*
X61002957Y-102166994D01*
X61206264Y-101747220D01*
X61423642Y-101332390D01*
X61625364Y-100984792D01*
X61710675Y-100847173D01*
X61891254Y-100544606D01*
X62000602Y-100345229D01*
X62099631Y-100172041D01*
X62290017Y-99867588D01*
X62528125Y-99502300D01*
X62529585Y-99500101D01*
X62753598Y-99145750D01*
X62913296Y-98860860D01*
X62974193Y-98706927D01*
X62985488Y-98664004D01*
X63109177Y-98468288D01*
X63325345Y-98215676D01*
X63416275Y-98117591D01*
X63602422Y-97892499D01*
X63676497Y-97762434D01*
X63702872Y-97729041D01*
X63891923Y-97639093D01*
X64203225Y-97544007D01*
X64367208Y-97497961D01*
X64627353Y-97398269D01*
X64729953Y-97316114D01*
X64790458Y-97258524D01*
X65046877Y-97160149D01*
X65469429Y-97047382D01*
X66020203Y-96930004D01*
X66661290Y-96817796D01*
X66766775Y-96803241D01*
X67172537Y-96764148D01*
X67729443Y-96725803D01*
X68402497Y-96689223D01*
X69156706Y-96655424D01*
X69957075Y-96625422D01*
X70768609Y-96600235D01*
X71556313Y-96580879D01*
X72285193Y-96568370D01*
X72920254Y-96563726D01*
X73426503Y-96567962D01*
G37*
G36*
X81538096Y-97819071D02*
G01*
X81626352Y-97929829D01*
X81702304Y-98125897D01*
X81743680Y-98236967D01*
X81901404Y-98488609D01*
X82136633Y-98798557D01*
X82570961Y-99328598D01*
X82751149Y-98923425D01*
X82932138Y-98575645D01*
X83164613Y-98229550D01*
X83387861Y-97979283D01*
X83556887Y-97882949D01*
X83629488Y-97932736D01*
X83780262Y-98145365D01*
X83949124Y-98468401D01*
X84108777Y-98774656D01*
X84282211Y-98978933D01*
X84411540Y-98961478D01*
X84490776Y-98719515D01*
X84493387Y-98704215D01*
X84610095Y-98470690D01*
X84820074Y-98272755D01*
X85049034Y-98163532D01*
X85222687Y-98196143D01*
X85236746Y-98264865D01*
X85175069Y-98499060D01*
X85034886Y-98829053D01*
X84848708Y-99193133D01*
X84649047Y-99529592D01*
X84468415Y-99776721D01*
X84339324Y-99872811D01*
X84239344Y-99798434D01*
X84064055Y-99565605D01*
X83863636Y-99229441D01*
X83693637Y-98927084D01*
X83539528Y-98680581D01*
X83458064Y-98585941D01*
X83391604Y-98660785D01*
X83247400Y-98893562D01*
X83063300Y-99229310D01*
X83003700Y-99340272D01*
X82761893Y-99703077D01*
X82547480Y-99845835D01*
X82338247Y-99774774D01*
X82111981Y-99496124D01*
X81948782Y-99265043D01*
X81760854Y-99108214D01*
X81627007Y-99172336D01*
X81535673Y-99456617D01*
X81527873Y-99493975D01*
X81406973Y-99798933D01*
X81236958Y-99988332D01*
X81104239Y-100034133D01*
X80947020Y-99970720D01*
X80750148Y-99733641D01*
X80484507Y-99360583D01*
X80330401Y-99738256D01*
X80317892Y-99767891D01*
X80165509Y-100034607D01*
X80013458Y-100178415D01*
X79804789Y-100173840D01*
X79480626Y-100044000D01*
X79129520Y-99819938D01*
X78823491Y-99540278D01*
X78549333Y-99229032D01*
X78545634Y-99941090D01*
X78535586Y-100269618D01*
X78505824Y-100580861D01*
X78463901Y-100731183D01*
X78376512Y-100791685D01*
X78190529Y-100776386D01*
X77945585Y-100587426D01*
X77615487Y-100208673D01*
X77607945Y-100199221D01*
X77369981Y-99924042D01*
X77199555Y-99769823D01*
X77133117Y-99769733D01*
X77131023Y-99796307D01*
X77027253Y-100043586D01*
X76818788Y-100301440D01*
X76576248Y-100496968D01*
X76370252Y-100557265D01*
X76341913Y-100549265D01*
X76168396Y-100386221D01*
X76047693Y-100105433D01*
X76009690Y-99807622D01*
X76084275Y-99593512D01*
X76220478Y-99541574D01*
X76383168Y-99688690D01*
X76395426Y-99705291D01*
X76505384Y-99837080D01*
X76586286Y-99841299D01*
X76676019Y-99687712D01*
X76812469Y-99346083D01*
X76946380Y-99068656D01*
X77144297Y-98866260D01*
X77339708Y-98885499D01*
X77516453Y-99131304D01*
X77666736Y-99402342D01*
X77868894Y-99666367D01*
X77908389Y-99705708D01*
X78021372Y-99789939D01*
X78067101Y-99711173D01*
X78077455Y-99433871D01*
X78078542Y-99392095D01*
X78136115Y-99036643D01*
X78253031Y-98767720D01*
X78327438Y-98674876D01*
X78444827Y-98608912D01*
X78571198Y-98724879D01*
X78603742Y-98761982D01*
X78811769Y-98949940D01*
X79105861Y-99179466D01*
X79419553Y-99402685D01*
X79686382Y-99571724D01*
X79839883Y-99638710D01*
X79875332Y-99606686D01*
X79948560Y-99406202D01*
X80012811Y-99082719D01*
X80040672Y-98903067D01*
X80097265Y-98600378D01*
X80140782Y-98444052D01*
X80149465Y-98431514D01*
X80287191Y-98403857D01*
X80451975Y-98492286D01*
X80531797Y-98640516D01*
X80532843Y-98655170D01*
X80614840Y-98854441D01*
X80787697Y-99113108D01*
X80796639Y-99124464D01*
X80966974Y-99321894D01*
X81059454Y-99346941D01*
X81130622Y-99216681D01*
X81146319Y-99169149D01*
X81200040Y-98873317D01*
X81225874Y-98507039D01*
X81228766Y-98409711D01*
X81257474Y-98066329D01*
X81303995Y-97837005D01*
X81315772Y-97807559D01*
X81397579Y-97716572D01*
X81538096Y-97819071D01*
G37*
D13*
X85248750Y-28892500D03*
D14*
X85248750Y-31432500D03*
X85248750Y-33972500D03*
X85248750Y-36512500D03*
X85248750Y-39052500D03*
X85248750Y-41592500D03*
X85248750Y-44132500D03*
X85248750Y-46672500D03*
X85248750Y-49212500D03*
X85248750Y-51752500D03*
X85248750Y-54292500D03*
X85248750Y-56832500D03*
X100488750Y-56832500D03*
X100488750Y-54292500D03*
X100488750Y-51752500D03*
X100488750Y-49212500D03*
X100488750Y-46672500D03*
X100488750Y-44132500D03*
X100488750Y-41592500D03*
X100488750Y-39052500D03*
X100488750Y-36512500D03*
X100488750Y-33972500D03*
X100488750Y-31432500D03*
X100488750Y-28892500D03*
%LPC*%
D15*
X103375000Y-66675000D03*
D16*
X100875000Y-66675000D03*
D17*
X108675000Y-66675000D03*
D15*
X106175000Y-66675000D03*
D18*
X103584375Y-37118750D03*
D16*
X103584375Y-39618750D03*
D17*
X103584375Y-31818750D03*
D18*
X103584375Y-34318750D03*
D16*
X110190625Y-45243750D03*
D15*
X112690625Y-45243750D03*
D17*
X117990625Y-45243750D03*
D15*
X115490625Y-45243750D03*
D18*
X103584375Y-56168750D03*
D16*
X103584375Y-58668750D03*
D17*
X103584375Y-50868750D03*
D18*
X103584375Y-53368750D03*
D16*
X110400000Y-64293750D03*
D15*
X112900000Y-64293750D03*
D17*
X118200000Y-64293750D03*
D15*
X115700000Y-64293750D03*
D18*
X59531250Y-79981250D03*
D16*
X59531250Y-82481250D03*
D18*
X59531250Y-77181250D03*
D17*
X59531250Y-74681250D03*
D16*
X78581250Y-82481250D03*
D18*
X78581250Y-79981250D03*
D17*
X78581250Y-74681250D03*
D18*
X78581250Y-77181250D03*
D16*
X97631250Y-82481250D03*
D18*
X97631250Y-79981250D03*
D17*
X97631250Y-74681250D03*
D18*
X97631250Y-77181250D03*
D16*
X102393750Y-92006250D03*
D18*
X102393750Y-89506250D03*
D17*
X102393750Y-84206250D03*
D18*
X102393750Y-86706250D03*
X59531250Y-99031250D03*
D16*
X59531250Y-101531250D03*
D17*
X59531250Y-93731250D03*
D18*
X59531250Y-96231250D03*
D16*
X78581250Y-101531250D03*
D18*
X78581250Y-99031250D03*
X78581250Y-96231250D03*
D17*
X78581250Y-93731250D03*
D18*
X97631250Y-99031250D03*
D16*
X97631250Y-101531250D03*
D18*
X97631250Y-96231250D03*
D17*
X97631250Y-93731250D03*
D16*
X59531250Y-120581250D03*
D18*
X59531250Y-118081250D03*
D17*
X59531250Y-112781250D03*
D18*
X59531250Y-115281250D03*
D16*
X78581250Y-120581250D03*
D18*
X78581250Y-118081250D03*
D17*
X78581250Y-112781250D03*
D18*
X78581250Y-115281250D03*
X97631250Y-118081250D03*
D16*
X97631250Y-120581250D03*
D17*
X97631250Y-112781250D03*
D18*
X97631250Y-115281250D03*
X102393750Y-118081250D03*
D16*
X102393750Y-120581250D03*
D17*
X102393750Y-112781250D03*
D18*
X102393750Y-115281250D03*
D16*
X59531250Y-139631250D03*
D18*
X59531250Y-137131250D03*
D17*
X59531250Y-131831250D03*
D18*
X59531250Y-134331250D03*
D16*
X78581250Y-139631250D03*
D18*
X78581250Y-137131250D03*
X78581250Y-134331250D03*
D17*
X78581250Y-131831250D03*
D16*
X97631250Y-139631250D03*
D18*
X97631250Y-137131250D03*
D17*
X97631250Y-131831250D03*
D18*
X97631250Y-134331250D03*
X102393750Y-137131250D03*
D16*
X102393750Y-139631250D03*
D18*
X102393750Y-134331250D03*
D17*
X102393750Y-131831250D03*
D19*
X92868750Y-35718750D03*
D20*
X97948750Y-35718750D03*
X87788750Y-35718750D03*
D21*
X89058750Y-33178750D03*
X95408750Y-30638750D03*
D19*
X111918750Y-35718750D03*
D20*
X106838750Y-35718750D03*
X116998750Y-35718750D03*
D21*
X108108750Y-33178750D03*
X114458750Y-30638750D03*
D20*
X97948750Y-54768750D03*
D19*
X92868750Y-54768750D03*
D20*
X87788750Y-54768750D03*
D21*
X89058750Y-52228750D03*
X95408750Y-49688750D03*
D19*
X50006250Y-78581250D03*
D20*
X55086250Y-78581250D03*
X44926250Y-78581250D03*
D21*
X46196250Y-76041250D03*
X52546250Y-73501250D03*
D19*
X69056250Y-78581250D03*
D20*
X74136250Y-78581250D03*
X63976250Y-78581250D03*
D21*
X65246250Y-76041250D03*
X71596250Y-73501250D03*
D20*
X83026250Y-78581250D03*
X93186250Y-78581250D03*
D19*
X88106250Y-78581250D03*
D21*
X84296250Y-76041250D03*
X90646250Y-73501250D03*
D22*
X118903750Y-76200000D03*
D19*
X111918750Y-88106250D03*
D20*
X111918750Y-83026250D03*
X111918750Y-93186250D03*
D22*
X118903750Y-100012500D03*
D19*
X103663750Y-76200000D03*
X103663750Y-100012500D03*
D21*
X114458750Y-84296250D03*
X116998750Y-90646250D03*
D19*
X50006250Y-97631250D03*
D20*
X44926250Y-97631250D03*
X55086250Y-97631250D03*
D21*
X46196250Y-95091250D03*
X52546250Y-92551250D03*
D19*
X69056250Y-97631250D03*
D20*
X74136250Y-97631250D03*
X63976250Y-97631250D03*
D21*
X65246250Y-95091250D03*
X71596250Y-92551250D03*
D19*
X88106250Y-97631250D03*
D20*
X93186250Y-97631250D03*
X83026250Y-97631250D03*
D21*
X84296250Y-95091250D03*
X90646250Y-92551250D03*
D20*
X44926250Y-116681250D03*
X55086250Y-116681250D03*
D19*
X50006250Y-116681250D03*
D21*
X46196250Y-114141250D03*
X52546250Y-111601250D03*
D20*
X63976250Y-116681250D03*
X74136250Y-116681250D03*
D19*
X69056250Y-116681250D03*
D21*
X65246250Y-114141250D03*
X71596250Y-111601250D03*
D20*
X83026250Y-116681250D03*
D19*
X88106250Y-116681250D03*
D20*
X93186250Y-116681250D03*
D21*
X84296250Y-114141250D03*
X90646250Y-111601250D03*
D20*
X116998750Y-116681250D03*
X106838750Y-116681250D03*
D19*
X111918750Y-116681250D03*
D21*
X108108750Y-114141250D03*
X114458750Y-111601250D03*
D19*
X50006250Y-135731250D03*
D20*
X55086250Y-135731250D03*
X44926250Y-135731250D03*
D21*
X46196250Y-133191250D03*
X52546250Y-130651250D03*
D20*
X63976250Y-135731250D03*
X74136250Y-135731250D03*
D19*
X69056250Y-135731250D03*
D21*
X65246250Y-133191250D03*
X71596250Y-130651250D03*
D20*
X93080000Y-135731250D03*
D19*
X88000000Y-135731250D03*
D20*
X82920000Y-135731250D03*
D21*
X84190000Y-133191250D03*
X90540000Y-130651250D03*
D20*
X116998750Y-135731250D03*
D19*
X111918750Y-135731250D03*
D20*
X106838750Y-135731250D03*
D21*
X108108750Y-133191250D03*
X114458750Y-130651250D03*
D19*
X111918750Y-54768750D03*
D20*
X106838750Y-54768750D03*
X116998750Y-54768750D03*
D21*
X108108750Y-52228750D03*
X114458750Y-49688750D03*
D23*
X117871875Y-70246875D03*
D13*
X85248750Y-28892500D03*
D14*
X85248750Y-31432500D03*
X85248750Y-33972500D03*
X85248750Y-36512500D03*
X85248750Y-39052500D03*
X85248750Y-41592500D03*
X85248750Y-44132500D03*
X85248750Y-46672500D03*
X85248750Y-49212500D03*
X85248750Y-51752500D03*
X85248750Y-54292500D03*
X85248750Y-56832500D03*
X100488750Y-56832500D03*
X100488750Y-54292500D03*
X100488750Y-51752500D03*
X100488750Y-49212500D03*
X100488750Y-46672500D03*
X100488750Y-44132500D03*
X100488750Y-41592500D03*
X100488750Y-39052500D03*
X100488750Y-36512500D03*
X100488750Y-33972500D03*
X100488750Y-31432500D03*
X100488750Y-28892500D03*
D24*
X113109375Y-70246875D03*
M02*
