M48
; DRILL file {KiCad (6.0.5)} date Sun May  8 01:16:04 2022
; FORMAT={-:-/ absolute / metric / decimal}
; #@! TF.CreationDate,2022-05-08T01:16:04+03:00
; #@! TF.GenerationSoftware,Kicad,Pcbnew,(6.0.5)
; #@! TF.FileFunction,Plated,1,2,PTH
FMAT,2
METRIC
; #@! TA.AperFunction,Plated,PTH,ComponentDrill
T1C1.000
; #@! TA.AperFunction,Plated,PTH,ComponentDrill
T2C1.092
; #@! TA.AperFunction,Plated,PTH,ComponentDrill
T3C1.100
; #@! TA.AperFunction,Plated,PTH,ComponentDrill
T4C1.470
%
G90
G05
T1
X59.531Y-74.681
X59.531Y-82.481
X59.531Y-93.731
X59.531Y-101.531
X59.531Y-112.781
X59.531Y-120.581
X59.531Y-131.831
X59.531Y-139.631
X78.581Y-74.681
X78.581Y-82.481
X78.581Y-93.731
X78.581Y-101.531
X78.581Y-112.781
X78.581Y-120.581
X78.581Y-131.831
X78.581Y-139.631
X97.631Y-74.681
X97.631Y-82.481
X97.631Y-93.731
X97.631Y-101.531
X97.631Y-112.781
X97.631Y-120.581
X97.631Y-131.831
X97.631Y-139.631
X100.875Y-66.675
X102.394Y-84.206
X102.394Y-92.006
X102.394Y-112.781
X102.394Y-120.581
X102.394Y-131.831
X102.394Y-139.631
X103.584Y-31.819
X103.584Y-39.619
X103.584Y-50.869
X103.584Y-58.669
X108.675Y-66.675
X110.191Y-45.244
X110.4Y-64.294
X117.991Y-45.244
X118.2Y-64.294
T2
X85.249Y-28.892
X85.249Y-31.432
X85.249Y-33.972
X85.249Y-36.512
X85.249Y-39.052
X85.249Y-41.593
X85.249Y-44.133
X85.249Y-46.672
X85.249Y-49.212
X85.249Y-51.752
X85.249Y-54.292
X85.249Y-56.832
X100.489Y-28.892
X100.489Y-31.432
X100.489Y-33.972
X100.489Y-36.512
X100.489Y-39.052
X100.489Y-41.593
X100.489Y-44.133
X100.489Y-46.672
X100.489Y-49.212
X100.489Y-51.752
X100.489Y-54.292
X100.489Y-56.832
T3
X113.109Y-70.247
X117.872Y-70.247
T4
X46.196Y-76.041
X46.196Y-95.091
X46.196Y-114.141
X46.196Y-133.191
X52.546Y-73.501
X52.546Y-92.551
X52.546Y-111.601
X52.546Y-130.651
X65.246Y-76.041
X65.246Y-95.091
X65.246Y-114.141
X65.246Y-133.191
X71.596Y-73.501
X71.596Y-92.551
X71.596Y-111.601
X71.596Y-130.651
X84.19Y-133.191
X84.296Y-76.041
X84.296Y-95.091
X84.296Y-114.141
X89.059Y-33.179
X89.059Y-52.229
X90.54Y-130.651
X90.646Y-73.501
X90.646Y-92.551
X90.646Y-111.601
X95.409Y-30.639
X95.409Y-49.689
X108.109Y-33.179
X108.109Y-52.229
X108.109Y-114.141
X108.109Y-133.191
X114.459Y-30.639
X114.459Y-49.689
X114.459Y-84.296
X114.459Y-111.601
X114.459Y-130.651
X116.999Y-90.646
T0
M30
