G04 #@! TF.GenerationSoftware,KiCad,Pcbnew,(6.0.5)*
G04 #@! TF.CreationDate,2022-05-08T01:15:56+03:00*
G04 #@! TF.ProjectId,SIN-PAD,53494e2d-5041-4442-9e6b-696361645f70,rev?*
G04 #@! TF.SameCoordinates,Original*
G04 #@! TF.FileFunction,Legend,Top*
G04 #@! TF.FilePolarity,Positive*
%FSLAX46Y46*%
G04 Gerber Fmt 4.6, Leading zero omitted, Abs format (unit mm)*
G04 Created by KiCad (PCBNEW (6.0.5)) date 2022-05-08 01:15:56*
%MOMM*%
%LPD*%
G01*
G04 APERTURE LIST*
G04 Aperture macros list*
%AMRoundRect*
0 Rectangle with rounded corners*
0 $1 Rounding radius*
0 $2 $3 $4 $5 $6 $7 $8 $9 X,Y pos of 4 corners*
0 Add a 4 corners polygon primitive as box body*
4,1,4,$2,$3,$4,$5,$6,$7,$8,$9,$2,$3,0*
0 Add four circle primitives for the rounded corners*
1,1,$1+$1,$2,$3*
1,1,$1+$1,$4,$5*
1,1,$1+$1,$6,$7*
1,1,$1+$1,$8,$9*
0 Add four rect primitives between the rounded corners*
20,1,$1+$1,$2,$3,$4,$5,0*
20,1,$1+$1,$4,$5,$6,$7,0*
20,1,$1+$1,$6,$7,$8,$9,0*
20,1,$1+$1,$8,$9,$2,$3,0*%
G04 Aperture macros list end*
%ADD10C,0.150000*%
%ADD11C,0.300000*%
%ADD12C,0.381000*%
%ADD13R,1.600000X1.600000*%
%ADD14C,1.600000*%
%ADD15R,1.752600X1.752600*%
%ADD16C,1.752600*%
%ADD17C,3.987800*%
%ADD18C,1.750000*%
%ADD19C,3.048000*%
%ADD20RoundRect,0.250001X-0.899999X-0.899999X0.899999X-0.899999X0.899999X0.899999X-0.899999X0.899999X0*%
%ADD21RoundRect,0.250001X0.899999X0.899999X-0.899999X0.899999X-0.899999X-0.899999X0.899999X-0.899999X0*%
G04 APERTURE END LIST*
D10*
X117538541Y-67349255D02*
X117538541Y-68063541D01*
X117490922Y-68206398D01*
X117395684Y-68301636D01*
X117252827Y-68349255D01*
X117157589Y-68349255D01*
X118538541Y-68349255D02*
X117967113Y-68349255D01*
X118252827Y-68349255D02*
X118252827Y-67349255D01*
X118157589Y-67492113D01*
X118062351Y-67587351D01*
X117967113Y-67634970D01*
X97263083Y-36074404D02*
X97529750Y-36874404D01*
X97796416Y-36074404D01*
X98520226Y-36798214D02*
X98482130Y-36836309D01*
X98367845Y-36874404D01*
X98291654Y-36874404D01*
X98177369Y-36836309D01*
X98101178Y-36760119D01*
X98063083Y-36683928D01*
X98024988Y-36531547D01*
X98024988Y-36417261D01*
X98063083Y-36264880D01*
X98101178Y-36188690D01*
X98177369Y-36112500D01*
X98291654Y-36074404D01*
X98367845Y-36074404D01*
X98482130Y-36112500D01*
X98520226Y-36150595D01*
X99320226Y-36798214D02*
X99282130Y-36836309D01*
X99167845Y-36874404D01*
X99091654Y-36874404D01*
X98977369Y-36836309D01*
X98901178Y-36760119D01*
X98863083Y-36683928D01*
X98824988Y-36531547D01*
X98824988Y-36417261D01*
X98863083Y-36264880D01*
X98901178Y-36188690D01*
X98977369Y-36112500D01*
X99091654Y-36074404D01*
X99167845Y-36074404D01*
X99282130Y-36112500D01*
X99320226Y-36150595D01*
X87274416Y-46958214D02*
X87236321Y-46996309D01*
X87122035Y-47034404D01*
X87045845Y-47034404D01*
X86931559Y-46996309D01*
X86855369Y-46920119D01*
X86817273Y-46843928D01*
X86779178Y-46691547D01*
X86779178Y-46577261D01*
X86817273Y-46424880D01*
X86855369Y-46348690D01*
X86931559Y-46272500D01*
X87045845Y-46234404D01*
X87122035Y-46234404D01*
X87236321Y-46272500D01*
X87274416Y-46310595D01*
X87960130Y-46234404D02*
X87807750Y-46234404D01*
X87731559Y-46272500D01*
X87693464Y-46310595D01*
X87617273Y-46424880D01*
X87579178Y-46577261D01*
X87579178Y-46882023D01*
X87617273Y-46958214D01*
X87655369Y-46996309D01*
X87731559Y-47034404D01*
X87883940Y-47034404D01*
X87960130Y-46996309D01*
X87998226Y-46958214D01*
X88036321Y-46882023D01*
X88036321Y-46691547D01*
X87998226Y-46615357D01*
X87960130Y-46577261D01*
X87883940Y-46539166D01*
X87731559Y-46539166D01*
X87655369Y-46577261D01*
X87617273Y-46615357D01*
X87579178Y-46691547D01*
X98068536Y-34266309D02*
X98182822Y-34304404D01*
X98373298Y-34304404D01*
X98449489Y-34266309D01*
X98487584Y-34228214D01*
X98525679Y-34152023D01*
X98525679Y-34075833D01*
X98487584Y-33999642D01*
X98449489Y-33961547D01*
X98373298Y-33923452D01*
X98220917Y-33885357D01*
X98144727Y-33847261D01*
X98106631Y-33809166D01*
X98068536Y-33732976D01*
X98068536Y-33656785D01*
X98106631Y-33580595D01*
X98144727Y-33542500D01*
X98220917Y-33504404D01*
X98411393Y-33504404D01*
X98525679Y-33542500D01*
X98754250Y-33504404D02*
X99211393Y-33504404D01*
X98982822Y-34304404D02*
X98982822Y-33504404D01*
X87106401Y-28454404D02*
X87563544Y-28454404D01*
X87334973Y-29254404D02*
X87334973Y-28454404D01*
X87754020Y-28454404D02*
X88287354Y-29254404D01*
X88287354Y-28454404D02*
X87754020Y-29254404D01*
X88744497Y-28454404D02*
X88820687Y-28454404D01*
X88896878Y-28492500D01*
X88934973Y-28530595D01*
X88973068Y-28606785D01*
X89011163Y-28759166D01*
X89011163Y-28949642D01*
X88973068Y-29102023D01*
X88934973Y-29178214D01*
X88896878Y-29216309D01*
X88820687Y-29254404D01*
X88744497Y-29254404D01*
X88668306Y-29216309D01*
X88630211Y-29178214D01*
X88592116Y-29102023D01*
X88554020Y-28949642D01*
X88554020Y-28759166D01*
X88592116Y-28606785D01*
X88630211Y-28530595D01*
X88668306Y-28492500D01*
X88744497Y-28454404D01*
X89925449Y-28416309D02*
X89239735Y-29444880D01*
X90192116Y-29254404D02*
X90192116Y-28454404D01*
X90382592Y-28454404D01*
X90496878Y-28492500D01*
X90573068Y-28568690D01*
X90611163Y-28644880D01*
X90649258Y-28797261D01*
X90649258Y-28911547D01*
X90611163Y-29063928D01*
X90573068Y-29140119D01*
X90496878Y-29216309D01*
X90382592Y-29254404D01*
X90192116Y-29254404D01*
X90915925Y-28454404D02*
X91411163Y-28454404D01*
X91144497Y-28759166D01*
X91258782Y-28759166D01*
X91334973Y-28797261D01*
X91373068Y-28835357D01*
X91411163Y-28911547D01*
X91411163Y-29102023D01*
X91373068Y-29178214D01*
X91334973Y-29216309D01*
X91258782Y-29254404D01*
X91030211Y-29254404D01*
X90954020Y-29216309D01*
X90915925Y-29178214D01*
X86817273Y-49574404D02*
X86817273Y-48774404D01*
X87007750Y-48774404D01*
X87122035Y-48812500D01*
X87198226Y-48888690D01*
X87236321Y-48964880D01*
X87274416Y-49117261D01*
X87274416Y-49231547D01*
X87236321Y-49383928D01*
X87198226Y-49460119D01*
X87122035Y-49536309D01*
X87007750Y-49574404D01*
X86817273Y-49574404D01*
X87541083Y-48774404D02*
X88074416Y-48774404D01*
X87731559Y-49574404D01*
X97777369Y-29254404D02*
X97510702Y-28873452D01*
X97320226Y-29254404D02*
X97320226Y-28454404D01*
X97624988Y-28454404D01*
X97701178Y-28492500D01*
X97739273Y-28530595D01*
X97777369Y-28606785D01*
X97777369Y-28721071D01*
X97739273Y-28797261D01*
X97701178Y-28835357D01*
X97624988Y-28873452D01*
X97320226Y-28873452D01*
X98082130Y-29025833D02*
X98463083Y-29025833D01*
X98005940Y-29254404D02*
X98272607Y-28454404D01*
X98539273Y-29254404D01*
X98729750Y-28454404D02*
X98920226Y-29254404D01*
X99072607Y-28682976D01*
X99224988Y-29254404D01*
X99415464Y-28454404D01*
X86817273Y-44494404D02*
X86817273Y-43694404D01*
X87007750Y-43694404D01*
X87122035Y-43732500D01*
X87198226Y-43808690D01*
X87236321Y-43884880D01*
X87274416Y-44037261D01*
X87274416Y-44151547D01*
X87236321Y-44303928D01*
X87198226Y-44380119D01*
X87122035Y-44456309D01*
X87007750Y-44494404D01*
X86817273Y-44494404D01*
X87960130Y-43961071D02*
X87960130Y-44494404D01*
X87769654Y-43656309D02*
X87579178Y-44227738D01*
X88074416Y-44227738D01*
X98063083Y-46615357D02*
X97796416Y-46615357D01*
X97796416Y-47034404D02*
X97796416Y-46234404D01*
X98177369Y-46234404D01*
X98405940Y-46234404D02*
X98939273Y-46234404D01*
X98596416Y-47034404D01*
X98063083Y-44075357D02*
X97796416Y-44075357D01*
X97796416Y-44494404D02*
X97796416Y-43694404D01*
X98177369Y-43694404D01*
X98824988Y-43694404D02*
X98672607Y-43694404D01*
X98596416Y-43732500D01*
X98558321Y-43770595D01*
X98482130Y-43884880D01*
X98444035Y-44037261D01*
X98444035Y-44342023D01*
X98482130Y-44418214D01*
X98520226Y-44456309D01*
X98596416Y-44494404D01*
X98748797Y-44494404D01*
X98824988Y-44456309D01*
X98863083Y-44418214D01*
X98901178Y-44342023D01*
X98901178Y-44151547D01*
X98863083Y-44075357D01*
X98824988Y-44037261D01*
X98748797Y-43999166D01*
X98596416Y-43999166D01*
X98520226Y-44037261D01*
X98482130Y-44075357D01*
X98444035Y-44151547D01*
X97720226Y-31032500D02*
X97644035Y-30994404D01*
X97529750Y-30994404D01*
X97415464Y-31032500D01*
X97339273Y-31108690D01*
X97301178Y-31184880D01*
X97263083Y-31337261D01*
X97263083Y-31451547D01*
X97301178Y-31603928D01*
X97339273Y-31680119D01*
X97415464Y-31756309D01*
X97529750Y-31794404D01*
X97605940Y-31794404D01*
X97720226Y-31756309D01*
X97758321Y-31718214D01*
X97758321Y-31451547D01*
X97605940Y-31451547D01*
X98101178Y-31794404D02*
X98101178Y-30994404D01*
X98558321Y-31794404D01*
X98558321Y-30994404D01*
X98939273Y-31794404D02*
X98939273Y-30994404D01*
X99129750Y-30994404D01*
X99244035Y-31032500D01*
X99320226Y-31108690D01*
X99358321Y-31184880D01*
X99396416Y-31337261D01*
X99396416Y-31451547D01*
X99358321Y-31603928D01*
X99320226Y-31680119D01*
X99244035Y-31756309D01*
X99129750Y-31794404D01*
X98939273Y-31794404D01*
X98063083Y-38995357D02*
X97796416Y-38995357D01*
X97796416Y-39414404D02*
X97796416Y-38614404D01*
X98177369Y-38614404D01*
X98824988Y-38881071D02*
X98824988Y-39414404D01*
X98634511Y-38576309D02*
X98444035Y-39147738D01*
X98939273Y-39147738D01*
X98063083Y-41535357D02*
X97796416Y-41535357D01*
X97796416Y-41954404D02*
X97796416Y-41154404D01*
X98177369Y-41154404D01*
X98863083Y-41154404D02*
X98482130Y-41154404D01*
X98444035Y-41535357D01*
X98482130Y-41497261D01*
X98558321Y-41459166D01*
X98748797Y-41459166D01*
X98824988Y-41497261D01*
X98863083Y-41535357D01*
X98901178Y-41611547D01*
X98901178Y-41802023D01*
X98863083Y-41878214D01*
X98824988Y-41916309D01*
X98748797Y-41954404D01*
X98558321Y-41954404D01*
X98482130Y-41916309D01*
X98444035Y-41878214D01*
X86817273Y-31794404D02*
X86817273Y-30994404D01*
X87007750Y-30994404D01*
X87122035Y-31032500D01*
X87198226Y-31108690D01*
X87236321Y-31184880D01*
X87274416Y-31337261D01*
X87274416Y-31451547D01*
X87236321Y-31603928D01*
X87198226Y-31680119D01*
X87122035Y-31756309D01*
X87007750Y-31794404D01*
X86817273Y-31794404D01*
X87579178Y-31070595D02*
X87617273Y-31032500D01*
X87693464Y-30994404D01*
X87883940Y-30994404D01*
X87960130Y-31032500D01*
X87998226Y-31070595D01*
X88036321Y-31146785D01*
X88036321Y-31222976D01*
X87998226Y-31337261D01*
X87541083Y-31794404D01*
X88036321Y-31794404D01*
X98005940Y-51695357D02*
X98120226Y-51733452D01*
X98158321Y-51771547D01*
X98196416Y-51847738D01*
X98196416Y-51962023D01*
X98158321Y-52038214D01*
X98120226Y-52076309D01*
X98044035Y-52114404D01*
X97739273Y-52114404D01*
X97739273Y-51314404D01*
X98005940Y-51314404D01*
X98082130Y-51352500D01*
X98120226Y-51390595D01*
X98158321Y-51466785D01*
X98158321Y-51542976D01*
X98120226Y-51619166D01*
X98082130Y-51657261D01*
X98005940Y-51695357D01*
X97739273Y-51695357D01*
X98463083Y-51314404D02*
X98958321Y-51314404D01*
X98691654Y-51619166D01*
X98805940Y-51619166D01*
X98882130Y-51657261D01*
X98920226Y-51695357D01*
X98958321Y-51771547D01*
X98958321Y-51962023D01*
X98920226Y-52038214D01*
X98882130Y-52076309D01*
X98805940Y-52114404D01*
X98577369Y-52114404D01*
X98501178Y-52076309D01*
X98463083Y-52038214D01*
X98005940Y-54235357D02*
X98120226Y-54273452D01*
X98158321Y-54311547D01*
X98196416Y-54387738D01*
X98196416Y-54502023D01*
X98158321Y-54578214D01*
X98120226Y-54616309D01*
X98044035Y-54654404D01*
X97739273Y-54654404D01*
X97739273Y-53854404D01*
X98005940Y-53854404D01*
X98082130Y-53892500D01*
X98120226Y-53930595D01*
X98158321Y-54006785D01*
X98158321Y-54082976D01*
X98120226Y-54159166D01*
X98082130Y-54197261D01*
X98005940Y-54235357D01*
X97739273Y-54235357D01*
X98501178Y-53930595D02*
X98539273Y-53892500D01*
X98615464Y-53854404D01*
X98805940Y-53854404D01*
X98882130Y-53892500D01*
X98920226Y-53930595D01*
X98958321Y-54006785D01*
X98958321Y-54082976D01*
X98920226Y-54197261D01*
X98463083Y-54654404D01*
X98958321Y-54654404D01*
X87083940Y-54235357D02*
X87198226Y-54273452D01*
X87236321Y-54311547D01*
X87274416Y-54387738D01*
X87274416Y-54502023D01*
X87236321Y-54578214D01*
X87198226Y-54616309D01*
X87122035Y-54654404D01*
X86817273Y-54654404D01*
X86817273Y-53854404D01*
X87083940Y-53854404D01*
X87160130Y-53892500D01*
X87198226Y-53930595D01*
X87236321Y-54006785D01*
X87236321Y-54082976D01*
X87198226Y-54159166D01*
X87160130Y-54197261D01*
X87083940Y-54235357D01*
X86817273Y-54235357D01*
X87960130Y-54121071D02*
X87960130Y-54654404D01*
X87769654Y-53816309D02*
X87579178Y-54387738D01*
X88074416Y-54387738D01*
X86798226Y-36112500D02*
X86722035Y-36074404D01*
X86607750Y-36074404D01*
X86493464Y-36112500D01*
X86417273Y-36188690D01*
X86379178Y-36264880D01*
X86341083Y-36417261D01*
X86341083Y-36531547D01*
X86379178Y-36683928D01*
X86417273Y-36760119D01*
X86493464Y-36836309D01*
X86607750Y-36874404D01*
X86683940Y-36874404D01*
X86798226Y-36836309D01*
X86836321Y-36798214D01*
X86836321Y-36531547D01*
X86683940Y-36531547D01*
X87179178Y-36874404D02*
X87179178Y-36074404D01*
X87636321Y-36874404D01*
X87636321Y-36074404D01*
X88017273Y-36874404D02*
X88017273Y-36074404D01*
X88207750Y-36074404D01*
X88322035Y-36112500D01*
X88398226Y-36188690D01*
X88436321Y-36264880D01*
X88474416Y-36417261D01*
X88474416Y-36531547D01*
X88436321Y-36683928D01*
X88398226Y-36760119D01*
X88322035Y-36836309D01*
X88207750Y-36874404D01*
X88017273Y-36874404D01*
X86855369Y-51695357D02*
X87122035Y-51695357D01*
X87236321Y-52114404D02*
X86855369Y-52114404D01*
X86855369Y-51314404D01*
X87236321Y-51314404D01*
X87922035Y-51314404D02*
X87769654Y-51314404D01*
X87693464Y-51352500D01*
X87655369Y-51390595D01*
X87579178Y-51504880D01*
X87541083Y-51657261D01*
X87541083Y-51962023D01*
X87579178Y-52038214D01*
X87617273Y-52076309D01*
X87693464Y-52114404D01*
X87845845Y-52114404D01*
X87922035Y-52076309D01*
X87960130Y-52038214D01*
X87998226Y-51962023D01*
X87998226Y-51771547D01*
X87960130Y-51695357D01*
X87922035Y-51657261D01*
X87845845Y-51619166D01*
X87693464Y-51619166D01*
X87617273Y-51657261D01*
X87579178Y-51695357D01*
X87541083Y-51771547D01*
X86817273Y-39414404D02*
X86817273Y-38614404D01*
X87007750Y-38614404D01*
X87122035Y-38652500D01*
X87198226Y-38728690D01*
X87236321Y-38804880D01*
X87274416Y-38957261D01*
X87274416Y-39071547D01*
X87236321Y-39223928D01*
X87198226Y-39300119D01*
X87122035Y-39376309D01*
X87007750Y-39414404D01*
X86817273Y-39414404D01*
X88036321Y-39414404D02*
X87579178Y-39414404D01*
X87807750Y-39414404D02*
X87807750Y-38614404D01*
X87731559Y-38728690D01*
X87655369Y-38804880D01*
X87579178Y-38842976D01*
X87083940Y-56775357D02*
X87198226Y-56813452D01*
X87236321Y-56851547D01*
X87274416Y-56927738D01*
X87274416Y-57042023D01*
X87236321Y-57118214D01*
X87198226Y-57156309D01*
X87122035Y-57194404D01*
X86817273Y-57194404D01*
X86817273Y-56394404D01*
X87083940Y-56394404D01*
X87160130Y-56432500D01*
X87198226Y-56470595D01*
X87236321Y-56546785D01*
X87236321Y-56622976D01*
X87198226Y-56699166D01*
X87160130Y-56737261D01*
X87083940Y-56775357D01*
X86817273Y-56775357D01*
X87998226Y-56394404D02*
X87617273Y-56394404D01*
X87579178Y-56775357D01*
X87617273Y-56737261D01*
X87693464Y-56699166D01*
X87883940Y-56699166D01*
X87960130Y-56737261D01*
X87998226Y-56775357D01*
X88036321Y-56851547D01*
X88036321Y-57042023D01*
X87998226Y-57118214D01*
X87960130Y-57156309D01*
X87883940Y-57194404D01*
X87693464Y-57194404D01*
X87617273Y-57156309D01*
X87579178Y-57118214D01*
X98005940Y-49155357D02*
X98120226Y-49193452D01*
X98158321Y-49231547D01*
X98196416Y-49307738D01*
X98196416Y-49422023D01*
X98158321Y-49498214D01*
X98120226Y-49536309D01*
X98044035Y-49574404D01*
X97739273Y-49574404D01*
X97739273Y-48774404D01*
X98005940Y-48774404D01*
X98082130Y-48812500D01*
X98120226Y-48850595D01*
X98158321Y-48926785D01*
X98158321Y-49002976D01*
X98120226Y-49079166D01*
X98082130Y-49117261D01*
X98005940Y-49155357D01*
X97739273Y-49155357D01*
X98958321Y-49574404D02*
X98501178Y-49574404D01*
X98729750Y-49574404D02*
X98729750Y-48774404D01*
X98653559Y-48888690D01*
X98577369Y-48964880D01*
X98501178Y-49002976D01*
X86798226Y-33572500D02*
X86722035Y-33534404D01*
X86607750Y-33534404D01*
X86493464Y-33572500D01*
X86417273Y-33648690D01*
X86379178Y-33724880D01*
X86341083Y-33877261D01*
X86341083Y-33991547D01*
X86379178Y-34143928D01*
X86417273Y-34220119D01*
X86493464Y-34296309D01*
X86607750Y-34334404D01*
X86683940Y-34334404D01*
X86798226Y-34296309D01*
X86836321Y-34258214D01*
X86836321Y-33991547D01*
X86683940Y-33991547D01*
X87179178Y-34334404D02*
X87179178Y-33534404D01*
X87636321Y-34334404D01*
X87636321Y-33534404D01*
X88017273Y-34334404D02*
X88017273Y-33534404D01*
X88207750Y-33534404D01*
X88322035Y-33572500D01*
X88398226Y-33648690D01*
X88436321Y-33724880D01*
X88474416Y-33877261D01*
X88474416Y-33991547D01*
X88436321Y-34143928D01*
X88398226Y-34220119D01*
X88322035Y-34296309D01*
X88207750Y-34334404D01*
X88017273Y-34334404D01*
X98005940Y-56775357D02*
X98120226Y-56813452D01*
X98158321Y-56851547D01*
X98196416Y-56927738D01*
X98196416Y-57042023D01*
X98158321Y-57118214D01*
X98120226Y-57156309D01*
X98044035Y-57194404D01*
X97739273Y-57194404D01*
X97739273Y-56394404D01*
X98005940Y-56394404D01*
X98082130Y-56432500D01*
X98120226Y-56470595D01*
X98158321Y-56546785D01*
X98158321Y-56622976D01*
X98120226Y-56699166D01*
X98082130Y-56737261D01*
X98005940Y-56775357D01*
X97739273Y-56775357D01*
X98882130Y-56394404D02*
X98729750Y-56394404D01*
X98653559Y-56432500D01*
X98615464Y-56470595D01*
X98539273Y-56584880D01*
X98501178Y-56737261D01*
X98501178Y-57042023D01*
X98539273Y-57118214D01*
X98577369Y-57156309D01*
X98653559Y-57194404D01*
X98805940Y-57194404D01*
X98882130Y-57156309D01*
X98920226Y-57118214D01*
X98958321Y-57042023D01*
X98958321Y-56851547D01*
X98920226Y-56775357D01*
X98882130Y-56737261D01*
X98805940Y-56699166D01*
X98653559Y-56699166D01*
X98577369Y-56737261D01*
X98539273Y-56775357D01*
X98501178Y-56851547D01*
X86817273Y-41954404D02*
X86817273Y-41154404D01*
X87007750Y-41154404D01*
X87122035Y-41192500D01*
X87198226Y-41268690D01*
X87236321Y-41344880D01*
X87274416Y-41497261D01*
X87274416Y-41611547D01*
X87236321Y-41763928D01*
X87198226Y-41840119D01*
X87122035Y-41916309D01*
X87007750Y-41954404D01*
X86817273Y-41954404D01*
X87769654Y-41154404D02*
X87845845Y-41154404D01*
X87922035Y-41192500D01*
X87960130Y-41230595D01*
X87998226Y-41306785D01*
X88036321Y-41459166D01*
X88036321Y-41649642D01*
X87998226Y-41802023D01*
X87960130Y-41878214D01*
X87922035Y-41916309D01*
X87845845Y-41954404D01*
X87769654Y-41954404D01*
X87693464Y-41916309D01*
X87655369Y-41878214D01*
X87617273Y-41802023D01*
X87579178Y-41649642D01*
X87579178Y-41459166D01*
X87617273Y-41306785D01*
X87655369Y-41230595D01*
X87693464Y-41192500D01*
X87769654Y-41154404D01*
X112776041Y-72049255D02*
X112776041Y-72763541D01*
X112728422Y-72906398D01*
X112633184Y-73001636D01*
X112490327Y-73049255D01*
X112395089Y-73049255D01*
X113204613Y-72144494D02*
X113252232Y-72096875D01*
X113347470Y-72049255D01*
X113585565Y-72049255D01*
X113680803Y-72096875D01*
X113728422Y-72144494D01*
X113776041Y-72239732D01*
X113776041Y-72334970D01*
X113728422Y-72477827D01*
X113156994Y-73049255D01*
X113776041Y-73049255D01*
D11*
X80810553Y-105203625D02*
X80665410Y-105131053D01*
X80447696Y-105131053D01*
X80229982Y-105203625D01*
X80084839Y-105348767D01*
X80012267Y-105493910D01*
X79939696Y-105784196D01*
X79939696Y-106001910D01*
X80012267Y-106292196D01*
X80084839Y-106437339D01*
X80229982Y-106582482D01*
X80447696Y-106655053D01*
X80592839Y-106655053D01*
X80810553Y-106582482D01*
X80883125Y-106509910D01*
X80883125Y-106001910D01*
X80592839Y-106001910D01*
X81753982Y-105131053D02*
X81753982Y-105493910D01*
X81391125Y-105348767D02*
X81753982Y-105493910D01*
X82116839Y-105348767D01*
X81536267Y-105784196D02*
X81753982Y-105493910D01*
X81971696Y-105784196D01*
X82915125Y-105131053D02*
X82915125Y-105493910D01*
X82552267Y-105348767D02*
X82915125Y-105493910D01*
X83277982Y-105348767D01*
X82697410Y-105784196D02*
X82915125Y-105493910D01*
X83132839Y-105784196D01*
X84076267Y-105131053D02*
X84076267Y-105493910D01*
X83713410Y-105348767D02*
X84076267Y-105493910D01*
X84439125Y-105348767D01*
X83858553Y-105784196D02*
X84076267Y-105493910D01*
X84293982Y-105784196D01*
D12*
X83978750Y-27622500D02*
X83978750Y-58102500D01*
X83978750Y-25082500D02*
X83978750Y-27622500D01*
X101758750Y-58102500D02*
X101758750Y-27622500D01*
X86518750Y-27622500D02*
X86518750Y-30162500D01*
X83978750Y-58102500D02*
X101758750Y-58102500D01*
X101758750Y-25082500D02*
X83978750Y-25082500D01*
X86518750Y-27622500D02*
X83978750Y-27622500D01*
X101758750Y-27622500D02*
X101758750Y-25082500D01*
X86518750Y-30162500D02*
X83978750Y-30162500D01*
G36*
X97400318Y-34301860D02*
G01*
X97300318Y-34301860D01*
X97300318Y-33501860D01*
X97400318Y-33501860D01*
X97400318Y-34301860D01*
G37*
D10*
X97400318Y-34301860D02*
X97300318Y-34301860D01*
X97300318Y-33501860D01*
X97400318Y-33501860D01*
X97400318Y-34301860D01*
G36*
X97800318Y-34301860D02*
G01*
X97700318Y-34301860D01*
X97700318Y-34101860D01*
X97800318Y-34101860D01*
X97800318Y-34301860D01*
G37*
X97800318Y-34301860D02*
X97700318Y-34301860D01*
X97700318Y-34101860D01*
X97800318Y-34101860D01*
X97800318Y-34301860D01*
G36*
X97800318Y-33801860D02*
G01*
X97700318Y-33801860D01*
X97700318Y-33501860D01*
X97800318Y-33501860D01*
X97800318Y-33801860D01*
G37*
X97800318Y-33801860D02*
X97700318Y-33801860D01*
X97700318Y-33501860D01*
X97800318Y-33501860D01*
X97800318Y-33801860D01*
G36*
X97600318Y-34001860D02*
G01*
X97500318Y-34001860D01*
X97500318Y-33901860D01*
X97600318Y-33901860D01*
X97600318Y-34001860D01*
G37*
X97600318Y-34001860D02*
X97500318Y-34001860D01*
X97500318Y-33901860D01*
X97600318Y-33901860D01*
X97600318Y-34001860D01*
G36*
X97800318Y-33601860D02*
G01*
X97300318Y-33601860D01*
X97300318Y-33501860D01*
X97800318Y-33501860D01*
X97800318Y-33601860D01*
G37*
X97800318Y-33601860D02*
X97300318Y-33601860D01*
X97300318Y-33501860D01*
X97800318Y-33501860D01*
X97800318Y-33601860D01*
G36*
X81066678Y-121700972D02*
G01*
X80939855Y-121295607D01*
X80808082Y-120886776D01*
X80675805Y-120487308D01*
X80547474Y-120110036D01*
X80427533Y-119767789D01*
X80320432Y-119473398D01*
X80230616Y-119239693D01*
X80162533Y-119079505D01*
X80120630Y-119005665D01*
X80113850Y-119002265D01*
X80034477Y-119012203D01*
X79876984Y-119027215D01*
X79670823Y-119044562D01*
X79598210Y-119050249D01*
X79368366Y-119064876D01*
X79215646Y-119063402D01*
X79110016Y-119041998D01*
X79021445Y-118996834D01*
X78985215Y-118972076D01*
X78867623Y-118849869D01*
X78744577Y-118658741D01*
X78734137Y-118637733D01*
X79162644Y-118637733D01*
X79226825Y-118674904D01*
X79383074Y-118671111D01*
X79394859Y-118669333D01*
X79550890Y-118649823D01*
X79766388Y-118629010D01*
X79981050Y-118612380D01*
X80187956Y-118602074D01*
X80313604Y-118608319D01*
X80383893Y-118635382D01*
X80423552Y-118685333D01*
X80447642Y-118737108D01*
X80481019Y-118822064D01*
X80526755Y-118949399D01*
X80587921Y-119128311D01*
X80667590Y-119367997D01*
X80768834Y-119677654D01*
X80894724Y-120066481D01*
X81048332Y-120543674D01*
X81149889Y-120860049D01*
X81507820Y-121975917D01*
X81709135Y-121891936D01*
X81840858Y-121834255D01*
X82040250Y-121743690D01*
X82277647Y-121633823D01*
X82468806Y-121544086D01*
X82713925Y-121425160D01*
X82873774Y-121338333D01*
X82962501Y-121273881D01*
X82994253Y-121222083D01*
X82989435Y-121186297D01*
X82972225Y-121140824D01*
X82946440Y-121067602D01*
X82908949Y-120957131D01*
X82856622Y-120799911D01*
X82786331Y-120586440D01*
X82694944Y-120307217D01*
X82579332Y-119952743D01*
X82436364Y-119513517D01*
X82285575Y-119049763D01*
X82149109Y-118620453D01*
X82050539Y-118288355D01*
X81992988Y-118065614D01*
X82385832Y-118065614D01*
X82408405Y-118202767D01*
X82460852Y-118398795D01*
X82471899Y-118434632D01*
X82599810Y-118842491D01*
X82794408Y-118761341D01*
X82948516Y-118692875D01*
X83149457Y-118598186D01*
X83312573Y-118518215D01*
X83480169Y-118432795D01*
X83605950Y-118365846D01*
X83661869Y-118332407D01*
X83675554Y-118266267D01*
X83678077Y-118127897D01*
X83671277Y-117952137D01*
X83656991Y-117773827D01*
X83637056Y-117627806D01*
X83621406Y-117565255D01*
X83598595Y-117522985D01*
X83558386Y-117506587D01*
X83483214Y-117520699D01*
X83355514Y-117569955D01*
X83157723Y-117658992D01*
X83015970Y-117725068D01*
X82787469Y-117831533D01*
X82593443Y-117920942D01*
X82455524Y-117983390D01*
X82396858Y-118008495D01*
X82385832Y-118065614D01*
X81992988Y-118065614D01*
X81988966Y-118050046D01*
X81963489Y-117902099D01*
X81969013Y-117845631D01*
X82041119Y-117786099D01*
X82183196Y-117704629D01*
X82364800Y-117618638D01*
X82368883Y-117616881D01*
X82595850Y-117517535D01*
X82865157Y-117396890D01*
X83121606Y-117279693D01*
X83141246Y-117270589D01*
X83333225Y-117182358D01*
X83483923Y-117114768D01*
X83569840Y-117078289D01*
X83580795Y-117074754D01*
X83634148Y-117053558D01*
X83762493Y-116996725D01*
X83943160Y-116914390D01*
X84048725Y-116865574D01*
X84291646Y-116753943D01*
X84537014Y-116643202D01*
X84740809Y-116553170D01*
X84783350Y-116534831D01*
X85028280Y-116399373D01*
X85211895Y-116235698D01*
X85316854Y-116061831D01*
X85334866Y-115961462D01*
X85332085Y-115903319D01*
X85314874Y-115867716D01*
X85269929Y-115858179D01*
X85183945Y-115878234D01*
X85043619Y-115931409D01*
X84835646Y-116021228D01*
X84546722Y-116151220D01*
X84445057Y-116197314D01*
X84147624Y-116332099D01*
X83833532Y-116474224D01*
X83542773Y-116605604D01*
X83339537Y-116697260D01*
X83104468Y-116803313D01*
X82810028Y-116936446D01*
X82495027Y-117079095D01*
X82217604Y-117204926D01*
X81973002Y-117315300D01*
X81765804Y-117407515D01*
X81614635Y-117473380D01*
X81538116Y-117504702D01*
X81532759Y-117506177D01*
X81478525Y-117527823D01*
X81346875Y-117586703D01*
X81157796Y-117673729D01*
X80939749Y-117775816D01*
X80713708Y-117881448D01*
X80525272Y-117967664D01*
X80394620Y-118025357D01*
X80342274Y-118045455D01*
X80284782Y-118066879D01*
X80155088Y-118123755D01*
X79978285Y-118204990D01*
X79927068Y-118229028D01*
X79709173Y-118330154D01*
X79499884Y-118424635D01*
X79341649Y-118493335D01*
X79331515Y-118497537D01*
X79195788Y-118573858D01*
X79162644Y-118637733D01*
X78734137Y-118637733D01*
X78675446Y-118519633D01*
X78602366Y-118356225D01*
X78495740Y-118118954D01*
X78366545Y-117832197D01*
X78225762Y-117520328D01*
X78121823Y-117290465D01*
X77719157Y-116400657D01*
X77737960Y-116061264D01*
X78061054Y-116061264D01*
X78066339Y-116187858D01*
X78087216Y-116312437D01*
X78129626Y-116454659D01*
X78199513Y-116634183D01*
X78302817Y-116870669D01*
X78445482Y-117183775D01*
X78457328Y-117209574D01*
X78569797Y-117455770D01*
X78690342Y-117721630D01*
X78781438Y-117924117D01*
X78857945Y-118092091D01*
X78915577Y-118212846D01*
X78942254Y-118261101D01*
X78942487Y-118261166D01*
X78993580Y-118242482D01*
X79116895Y-118193686D01*
X79272171Y-118130858D01*
X79502030Y-118032140D01*
X79759727Y-117914269D01*
X79925578Y-117834255D01*
X80096088Y-117751291D01*
X80225948Y-117691695D01*
X80287843Y-117667986D01*
X80288408Y-117667960D01*
X80347104Y-117646564D01*
X80478887Y-117589480D01*
X80659454Y-117507363D01*
X80736337Y-117471563D01*
X81000717Y-117349526D01*
X81294471Y-117216732D01*
X81554955Y-117101492D01*
X81559919Y-117099333D01*
X81762618Y-117009986D01*
X82031023Y-116889946D01*
X82332907Y-116753707D01*
X82636043Y-116615765D01*
X82692403Y-116589972D01*
X82985360Y-116456510D01*
X83276905Y-116325001D01*
X83537193Y-116208822D01*
X83736385Y-116121351D01*
X83770959Y-116106469D01*
X84014865Y-116000170D01*
X84288303Y-115878140D01*
X84482885Y-115789417D01*
X84693939Y-115693053D01*
X84895215Y-115603164D01*
X85038399Y-115541230D01*
X85161801Y-115479209D01*
X85199918Y-115421637D01*
X85182275Y-115364147D01*
X85141381Y-115281846D01*
X85080647Y-115152179D01*
X84994449Y-114962772D01*
X84877163Y-114701249D01*
X84723167Y-114355236D01*
X84695161Y-114292144D01*
X84628245Y-114141537D01*
X85073334Y-114141537D01*
X85076369Y-114196114D01*
X85107375Y-114314401D01*
X85119424Y-114352216D01*
X85154401Y-114445522D01*
X85197065Y-114501831D01*
X85264128Y-114519369D01*
X85372302Y-114496360D01*
X85538297Y-114431032D01*
X85778826Y-114321610D01*
X85887828Y-114270639D01*
X86103396Y-114168407D01*
X86237038Y-114097576D01*
X86304550Y-114043898D01*
X86321724Y-113993128D01*
X86304357Y-113931018D01*
X86293397Y-113904804D01*
X86237028Y-113784635D01*
X86196172Y-113715666D01*
X86140335Y-113722546D01*
X86010093Y-113761985D01*
X85830378Y-113824527D01*
X85626120Y-113900716D01*
X85422251Y-113981097D01*
X85243701Y-114056213D01*
X85115403Y-114116609D01*
X85073334Y-114141537D01*
X84628245Y-114141537D01*
X84517101Y-113891385D01*
X84377268Y-113578135D01*
X84270439Y-113341186D01*
X84191387Y-113169333D01*
X84134890Y-113051368D01*
X84095722Y-112976084D01*
X84068658Y-112932275D01*
X84051638Y-112911781D01*
X83966280Y-112900229D01*
X83810329Y-112956675D01*
X83777375Y-112972967D01*
X83555248Y-113086288D01*
X83555248Y-113951452D01*
X83191235Y-114117320D01*
X82818580Y-114286298D01*
X82410437Y-114469984D01*
X82001084Y-114653042D01*
X81624800Y-114820139D01*
X81344207Y-114943569D01*
X81084562Y-115058425D01*
X80799622Y-115186616D01*
X80562254Y-115295239D01*
X80244631Y-115440959D01*
X80009974Y-115544504D01*
X79844409Y-115611185D01*
X79734063Y-115646313D01*
X79665060Y-115655197D01*
X79636362Y-115649630D01*
X79574137Y-115588432D01*
X79492202Y-115461429D01*
X79441542Y-115364370D01*
X79362524Y-115213201D01*
X79294452Y-115137502D01*
X79207331Y-115112961D01*
X79131115Y-115112756D01*
X78996969Y-115139407D01*
X78803020Y-115204791D01*
X78584435Y-115296526D01*
X78512997Y-115330417D01*
X78081575Y-115541711D01*
X78065419Y-115912995D01*
X78061054Y-116061264D01*
X77737960Y-116061264D01*
X77745464Y-115925808D01*
X77763052Y-115683404D01*
X77788034Y-115521321D01*
X77827225Y-115412028D01*
X77887439Y-115327992D01*
X77895627Y-115319120D01*
X77991284Y-115229194D01*
X78057546Y-115187617D01*
X78060819Y-115187281D01*
X78124807Y-115165887D01*
X78262566Y-115108444D01*
X78450385Y-115025058D01*
X78566925Y-114971569D01*
X78792406Y-114875739D01*
X79002610Y-114801776D01*
X79164558Y-114760689D01*
X79213114Y-114755858D01*
X79393302Y-114798101D01*
X79572868Y-114905408D01*
X79710321Y-115048643D01*
X79754089Y-115135721D01*
X79813120Y-115221878D01*
X79862167Y-115241209D01*
X79935892Y-115219666D01*
X80087576Y-115160478D01*
X80297529Y-115071801D01*
X80546064Y-114961792D01*
X80643146Y-114917642D01*
X80895788Y-114802585D01*
X81111625Y-114705559D01*
X81272663Y-114634554D01*
X81360909Y-114597560D01*
X81371774Y-114594075D01*
X81389979Y-114589085D01*
X81434891Y-114570866D01*
X81517165Y-114534538D01*
X81647456Y-114475224D01*
X81836419Y-114388046D01*
X82094708Y-114268127D01*
X82432978Y-114110589D01*
X82705885Y-113983330D01*
X83231681Y-113738071D01*
X83231681Y-113384970D01*
X83237264Y-113182888D01*
X83261318Y-113050759D01*
X83314801Y-112950944D01*
X83379982Y-112875524D01*
X83553526Y-112740056D01*
X83777823Y-112626425D01*
X84004097Y-112556598D01*
X84114223Y-112544818D01*
X84208523Y-112561184D01*
X84295856Y-112619491D01*
X84386529Y-112733555D01*
X84490853Y-112917190D01*
X84619136Y-113184213D01*
X84662359Y-113279369D01*
X84763520Y-113497176D01*
X84851726Y-113674587D01*
X84916227Y-113790723D01*
X84943561Y-113825494D01*
X85006825Y-113810731D01*
X85147021Y-113760167D01*
X85342613Y-113682009D01*
X85544370Y-113596527D01*
X85825136Y-113478040D01*
X86029045Y-113402595D01*
X86176136Y-113365860D01*
X86286448Y-113363504D01*
X86380017Y-113391196D01*
X86414761Y-113408379D01*
X86504394Y-113498645D01*
X86598242Y-113656775D01*
X86678876Y-113844974D01*
X86728868Y-114025443D01*
X86736989Y-114107222D01*
X86725602Y-114201848D01*
X86681772Y-114284609D01*
X86590996Y-114366659D01*
X86438770Y-114459154D01*
X86210590Y-114573247D01*
X86009791Y-114666507D01*
X85790449Y-114770419D01*
X85610979Y-114862311D01*
X85492223Y-114931069D01*
X85454739Y-114962480D01*
X85466907Y-115034473D01*
X85515273Y-115171406D01*
X85576417Y-115314590D01*
X85657222Y-115505810D01*
X85720802Y-115682388D01*
X85746267Y-115774756D01*
X85744470Y-115989834D01*
X85672363Y-116238204D01*
X85541557Y-116483004D01*
X85508568Y-116529371D01*
X85454908Y-116595281D01*
X85391414Y-116655277D01*
X85304052Y-116717170D01*
X85178789Y-116788770D01*
X85001591Y-116877887D01*
X84758423Y-116992333D01*
X84435253Y-117139919D01*
X84308335Y-117197371D01*
X84009830Y-117332338D01*
X84049331Y-117810234D01*
X84069832Y-118107347D01*
X84065731Y-118326411D01*
X84023770Y-118489233D01*
X83930694Y-118617617D01*
X83773246Y-118733369D01*
X83538170Y-118858294D01*
X83360073Y-118944002D01*
X83128570Y-119055007D01*
X82937500Y-119148461D01*
X82805163Y-119215278D01*
X82749862Y-119246370D01*
X82749275Y-119247283D01*
X82766328Y-119299592D01*
X82811962Y-119438054D01*
X82880818Y-119646449D01*
X82967536Y-119908554D01*
X83064908Y-120202567D01*
X83177740Y-120541799D01*
X83264796Y-120790634D01*
X83334920Y-120960820D01*
X83396962Y-121064107D01*
X83459767Y-121112244D01*
X83532184Y-121116980D01*
X83623059Y-121090065D01*
X83707907Y-121056473D01*
X83833375Y-121014537D01*
X83905711Y-121025703D01*
X83963150Y-121087966D01*
X84003788Y-121172568D01*
X83983889Y-121250295D01*
X83892209Y-121332562D01*
X83717503Y-121430781D01*
X83544441Y-121513011D01*
X83368241Y-121600756D01*
X83238908Y-121678711D01*
X83180744Y-121731945D01*
X83179664Y-121737139D01*
X83205934Y-121821965D01*
X83258645Y-121928257D01*
X83328148Y-122125865D01*
X83324555Y-122320841D01*
X83249709Y-122476186D01*
X83230401Y-122495657D01*
X83135870Y-122558928D01*
X82977122Y-122644344D01*
X82782954Y-122738730D01*
X82582160Y-122828914D01*
X82403534Y-122901720D01*
X82275873Y-122943976D01*
X82238499Y-122949468D01*
X82144985Y-122927841D01*
X82062687Y-122898734D01*
X81972698Y-122823162D01*
X81876601Y-122684279D01*
X81833905Y-122599622D01*
X81758495Y-122449293D01*
X81696525Y-122384070D01*
X81630379Y-122385773D01*
X81627739Y-122386835D01*
X81469562Y-122441939D01*
X81363165Y-122440741D01*
X81287724Y-122369311D01*
X81222415Y-122213715D01*
X81205462Y-122158989D01*
X81996812Y-122158989D01*
X82099601Y-122360472D01*
X82202390Y-122561956D01*
X82583570Y-122379866D01*
X82964749Y-122197776D01*
X82875646Y-122022571D01*
X82813392Y-121903125D01*
X82774709Y-121834361D01*
X82771732Y-121830192D01*
X82719452Y-121842700D01*
X82594189Y-121891298D01*
X82420603Y-121966254D01*
X82376867Y-121986003D01*
X81996812Y-122158989D01*
X81205462Y-122158989D01*
X81184103Y-122090041D01*
X81066678Y-121700972D01*
G37*
G36*
X84485503Y-126632910D02*
G01*
X86925736Y-126646941D01*
X86943784Y-126774498D01*
X86941024Y-126886468D01*
X86916820Y-126936282D01*
X86855163Y-126943062D01*
X86696717Y-126948779D01*
X86452544Y-126953344D01*
X86133706Y-126956665D01*
X85751266Y-126958652D01*
X85316285Y-126959212D01*
X84839826Y-126958257D01*
X84458539Y-126956471D01*
X82045269Y-126942434D01*
X82045269Y-126618878D01*
X84485503Y-126632910D01*
G37*
G36*
X75559566Y-83217048D02*
G01*
X75866282Y-83236471D01*
X76148071Y-83272814D01*
X76359927Y-83321113D01*
X76534461Y-83381945D01*
X76658942Y-83438543D01*
X76706416Y-83478650D01*
X76665771Y-83541449D01*
X76572519Y-83616900D01*
X76450369Y-83673173D01*
X76322011Y-83662311D01*
X76267869Y-83645107D01*
X76133094Y-83617053D01*
X75932878Y-83597885D01*
X75693436Y-83587511D01*
X75440986Y-83585835D01*
X75201745Y-83592762D01*
X75001929Y-83608198D01*
X74867755Y-83632049D01*
X74829728Y-83650296D01*
X74772893Y-83767303D01*
X74766851Y-83918836D01*
X74807540Y-84056412D01*
X74869325Y-84122963D01*
X74965605Y-84146579D01*
X75141272Y-84165384D01*
X75367881Y-84176946D01*
X75529940Y-84179428D01*
X76058566Y-84209838D01*
X76510290Y-84303344D01*
X76899331Y-84465336D01*
X77239907Y-84701206D01*
X77452742Y-84908379D01*
X77748260Y-85297398D01*
X77952489Y-85721348D01*
X78070466Y-86194119D01*
X78107259Y-86713395D01*
X78061941Y-87260158D01*
X77926713Y-87747536D01*
X77702663Y-88174042D01*
X77390881Y-88538188D01*
X76992455Y-88838487D01*
X76508474Y-89073451D01*
X76335052Y-89134812D01*
X76066263Y-89199037D01*
X75725973Y-89246091D01*
X75349500Y-89273744D01*
X74972160Y-89279761D01*
X74629270Y-89261912D01*
X74522339Y-89249392D01*
X74103769Y-89171203D01*
X73686264Y-89058024D01*
X73322315Y-88924155D01*
X73312339Y-88919777D01*
X73153460Y-88841123D01*
X72966376Y-88735998D01*
X72774143Y-88619097D01*
X72599816Y-88505117D01*
X72466449Y-88408753D01*
X72397099Y-88344701D01*
X72392190Y-88333254D01*
X72429667Y-88269152D01*
X72512719Y-88186066D01*
X72597280Y-88124992D01*
X72626240Y-88115519D01*
X72686373Y-88143457D01*
X72809119Y-88216799D01*
X72968220Y-88319834D01*
X72972524Y-88322713D01*
X73486515Y-88605365D01*
X74052120Y-88798326D01*
X74674345Y-88902979D01*
X75149948Y-88924436D01*
X75708183Y-88896371D01*
X76185197Y-88808871D01*
X76592854Y-88656976D01*
X76943019Y-88435724D01*
X77247559Y-88140157D01*
X77358321Y-88001267D01*
X77598447Y-87593394D01*
X77738696Y-87153162D01*
X77778691Y-86689826D01*
X77718060Y-86212644D01*
X77556427Y-85730871D01*
X77458302Y-85529324D01*
X77211058Y-85172446D01*
X76890019Y-84892053D01*
X76494167Y-84687651D01*
X76022482Y-84558743D01*
X75473945Y-84504836D01*
X75347276Y-84502995D01*
X75036864Y-84495240D01*
X74813757Y-84468175D01*
X74658107Y-84414777D01*
X74550065Y-84328022D01*
X74469783Y-84200886D01*
X74464917Y-84190771D01*
X74398773Y-83942868D01*
X74423175Y-83698902D01*
X74528545Y-83483924D01*
X74705305Y-83322987D01*
X74816566Y-83270924D01*
X75002037Y-83233212D01*
X75260594Y-83215608D01*
X75559566Y-83217048D01*
G37*
G36*
X107443468Y-83216089D02*
G01*
X107704654Y-83243800D01*
X107951193Y-83301357D01*
X107998029Y-83315450D01*
X108177387Y-83377573D01*
X108307384Y-83435188D01*
X108361746Y-83476517D01*
X108362042Y-83478650D01*
X108321397Y-83541449D01*
X108228146Y-83616900D01*
X108105995Y-83673173D01*
X107977637Y-83662311D01*
X107923495Y-83645107D01*
X107788015Y-83617652D01*
X107583172Y-83598887D01*
X107337919Y-83588888D01*
X107081209Y-83587733D01*
X106841995Y-83595496D01*
X106649229Y-83612256D01*
X106531866Y-83638088D01*
X106524951Y-83641407D01*
X106442073Y-83737512D01*
X106420641Y-83882185D01*
X106433456Y-84000254D01*
X106482352Y-84082759D01*
X106583001Y-84135790D01*
X106751077Y-84165437D01*
X107002255Y-84177792D01*
X107185567Y-84179428D01*
X107683391Y-84204256D01*
X108104517Y-84282164D01*
X108469767Y-84420168D01*
X108799966Y-84625280D01*
X108996307Y-84789307D01*
X109325511Y-85160485D01*
X109564210Y-85588639D01*
X109712955Y-86075128D01*
X109772296Y-86621311D01*
X109773521Y-86708824D01*
X109728529Y-87249112D01*
X109590659Y-87734671D01*
X109359779Y-88165825D01*
X109035756Y-88542901D01*
X109023226Y-88554657D01*
X108769173Y-88751707D01*
X108450834Y-88940452D01*
X108110790Y-89098017D01*
X107843172Y-89188570D01*
X107643398Y-89225089D01*
X107368357Y-89252679D01*
X107050359Y-89270182D01*
X106721714Y-89276440D01*
X106414730Y-89270295D01*
X106161716Y-89250588D01*
X106151002Y-89249219D01*
X105737326Y-89169334D01*
X105311612Y-89041726D01*
X104901704Y-88877960D01*
X104535443Y-88689602D01*
X104240671Y-88488221D01*
X104169154Y-88425887D01*
X104072230Y-88322320D01*
X104063304Y-88255511D01*
X104144053Y-88197554D01*
X104184018Y-88178629D01*
X104267522Y-88152122D01*
X104352990Y-88162801D01*
X104469358Y-88219986D01*
X104628922Y-88321907D01*
X105097875Y-88586525D01*
X105596890Y-88771768D01*
X106144132Y-88882581D01*
X106757764Y-88923909D01*
X106842165Y-88924436D01*
X107385027Y-88897379D01*
X107847807Y-88812093D01*
X108244889Y-88662403D01*
X108590653Y-88442136D01*
X108899481Y-88145115D01*
X109029931Y-87985169D01*
X109247776Y-87613727D01*
X109382206Y-87189686D01*
X109430115Y-86732441D01*
X109388398Y-86261386D01*
X109339702Y-86050595D01*
X109166078Y-85600548D01*
X108916440Y-85226690D01*
X108591737Y-84929651D01*
X108192921Y-84710062D01*
X107720943Y-84568553D01*
X107176754Y-84505754D01*
X107004069Y-84502355D01*
X106689569Y-84494466D01*
X106463374Y-84467160D01*
X106306840Y-84414981D01*
X106201324Y-84332472D01*
X106146556Y-84251373D01*
X106084832Y-84056108D01*
X106074921Y-83830071D01*
X106113880Y-83616180D01*
X106198767Y-83457358D01*
X106201167Y-83454767D01*
X106312367Y-83355999D01*
X106442686Y-83288365D01*
X106615113Y-83245826D01*
X106852639Y-83222341D01*
X107121886Y-83212869D01*
X107443468Y-83216089D01*
G37*
G36*
X75695992Y-81956258D02*
G01*
X75844930Y-81967846D01*
X76435456Y-82058798D01*
X76951445Y-82219922D01*
X77402832Y-82454327D01*
X77406329Y-82456584D01*
X77565186Y-82562082D01*
X77680899Y-82644309D01*
X77730587Y-82686934D01*
X77731044Y-82688395D01*
X77691290Y-82730315D01*
X77603401Y-82793968D01*
X77537599Y-82830015D01*
X77469614Y-82839246D01*
X77376009Y-82815853D01*
X77233346Y-82754026D01*
X77022035Y-82649890D01*
X76622199Y-82476541D01*
X76221768Y-82364237D01*
X75785348Y-82305271D01*
X75375272Y-82291315D01*
X74877225Y-82324869D01*
X74459200Y-82427209D01*
X74116122Y-82600851D01*
X73842918Y-82848313D01*
X73646012Y-83149045D01*
X73544753Y-83369272D01*
X73491244Y-83555250D01*
X73471935Y-83761471D01*
X73470747Y-83853982D01*
X73508205Y-84264743D01*
X73625056Y-84615088D01*
X73828012Y-84924291D01*
X73854040Y-84954530D01*
X74057463Y-85146403D01*
X74289671Y-85281869D01*
X74570721Y-85367732D01*
X74920673Y-85410799D01*
X75223401Y-85419128D01*
X75660100Y-85439586D01*
X76010683Y-85505532D01*
X76289734Y-85623826D01*
X76511837Y-85801324D01*
X76691575Y-86044887D01*
X76739550Y-86132121D01*
X76794837Y-86309917D01*
X76823738Y-86551571D01*
X76826015Y-86816303D01*
X76801428Y-87063336D01*
X76749740Y-87251888D01*
X76746145Y-87259669D01*
X76572436Y-87514797D01*
X76320207Y-87739010D01*
X76037473Y-87898118D01*
X75795053Y-87966386D01*
X75479556Y-88004374D01*
X75121315Y-88012452D01*
X74750659Y-87990991D01*
X74397923Y-87940361D01*
X74135501Y-87874879D01*
X73912148Y-87795709D01*
X73700621Y-87706764D01*
X73549816Y-87629042D01*
X73349991Y-87505543D01*
X73477779Y-87407029D01*
X73594352Y-87346901D01*
X73686458Y-87343297D01*
X74021387Y-87475765D01*
X74316476Y-87561340D01*
X74615719Y-87608947D01*
X74963110Y-87627508D01*
X75094016Y-87628776D01*
X75458472Y-87621908D01*
X75735439Y-87596758D01*
X75944338Y-87549275D01*
X76104591Y-87475411D01*
X76208976Y-87396278D01*
X76382945Y-87172765D01*
X76475853Y-86908250D01*
X76490156Y-86627059D01*
X76428308Y-86353518D01*
X76292764Y-86111953D01*
X76085979Y-85926690D01*
X76059064Y-85910835D01*
X75949885Y-85858371D01*
X75829071Y-85824574D01*
X75670032Y-85805620D01*
X75446177Y-85797685D01*
X75264946Y-85796623D01*
X74751048Y-85766973D01*
X74318806Y-85674189D01*
X73958550Y-85512521D01*
X73660614Y-85276219D01*
X73415329Y-84959533D01*
X73223781Y-84582585D01*
X73166246Y-84374359D01*
X73137818Y-84085547D01*
X73133874Y-83882185D01*
X73139706Y-83619374D01*
X73161485Y-83422928D01*
X73206560Y-83251701D01*
X73278391Y-83073268D01*
X73498996Y-82695522D01*
X73790776Y-82395164D01*
X74155049Y-82171625D01*
X74593130Y-82024340D01*
X75106339Y-81952740D01*
X75695992Y-81956258D01*
G37*
G36*
X87532981Y-98401430D02*
G01*
X87609775Y-98512039D01*
X87648940Y-98682315D01*
X87648117Y-98890735D01*
X87604942Y-99115777D01*
X87524991Y-99320567D01*
X87348774Y-99588878D01*
X87116515Y-99794099D01*
X86810383Y-99949206D01*
X86543914Y-100034559D01*
X86275170Y-100107480D01*
X85984354Y-100187936D01*
X85739324Y-100257115D01*
X85482292Y-100329567D01*
X85189650Y-100410201D01*
X84957371Y-100472838D01*
X84737873Y-100531483D01*
X84538374Y-100585355D01*
X84399220Y-100623553D01*
X84391129Y-100625823D01*
X84248702Y-100665483D01*
X84053330Y-100719376D01*
X83912695Y-100757943D01*
X83707371Y-100814522D01*
X83447269Y-100886794D01*
X83181404Y-100961130D01*
X83123825Y-100977302D01*
X82635859Y-101113442D01*
X82177044Y-101238936D01*
X81684594Y-101370932D01*
X81613847Y-101389724D01*
X81442917Y-101435132D01*
X81299862Y-101473354D01*
X81164563Y-101509915D01*
X81016901Y-101550340D01*
X80836761Y-101600155D01*
X80604023Y-101664886D01*
X80298571Y-101750056D01*
X80092564Y-101807538D01*
X79744346Y-101903108D01*
X79485277Y-101969174D01*
X79301288Y-102007519D01*
X79178311Y-102019926D01*
X79102275Y-102008178D01*
X79059113Y-101974057D01*
X79042000Y-101940673D01*
X79042409Y-101814927D01*
X79115558Y-101708821D01*
X79189998Y-101674428D01*
X79282930Y-101653259D01*
X79439473Y-101612933D01*
X79564590Y-101579008D01*
X79772263Y-101521662D01*
X80027437Y-101451350D01*
X80265651Y-101385828D01*
X80778444Y-101244865D01*
X81198046Y-101129345D01*
X81535305Y-101036270D01*
X81801069Y-100962641D01*
X82006184Y-100905460D01*
X82153125Y-100864102D01*
X82367424Y-100804545D01*
X82624239Y-100734782D01*
X82827222Y-100680699D01*
X83181626Y-100586741D01*
X83518209Y-100495917D01*
X83871268Y-100398834D01*
X84275105Y-100286099D01*
X84525948Y-100215525D01*
X84933642Y-100100880D01*
X85260271Y-100009807D01*
X85528452Y-99936155D01*
X85760800Y-99873772D01*
X85979929Y-99816504D01*
X86188940Y-99763138D01*
X86568973Y-99651813D01*
X86853653Y-99528639D01*
X87055484Y-99381839D01*
X87186969Y-99199631D01*
X87260611Y-98970239D01*
X87287104Y-98728590D01*
X87300048Y-98541121D01*
X87322771Y-98435931D01*
X87364872Y-98387445D01*
X87420920Y-98372012D01*
X87532981Y-98401430D01*
G37*
G36*
X92942947Y-126624457D02*
G01*
X92992567Y-126635274D01*
X92992615Y-126635654D01*
X92970564Y-126689577D01*
X92908770Y-126826952D01*
X92813775Y-127033813D01*
X92692120Y-127296191D01*
X92550347Y-127600121D01*
X92394997Y-127931633D01*
X92232610Y-128276762D01*
X92069729Y-128621539D01*
X91912894Y-128951998D01*
X91768646Y-129254171D01*
X91677338Y-129444134D01*
X91544252Y-129721113D01*
X91429174Y-129962775D01*
X91339649Y-130153095D01*
X91283224Y-130276048D01*
X91266925Y-130315635D01*
X91244621Y-130369216D01*
X91183729Y-130500442D01*
X91093281Y-130690183D01*
X90982308Y-130919309D01*
X90970322Y-130943871D01*
X90673719Y-131551273D01*
X90673719Y-134062015D01*
X90296224Y-134062015D01*
X90296224Y-131596419D01*
X90517599Y-131117009D01*
X90617591Y-130902895D01*
X90751171Y-130620328D01*
X90904759Y-130297851D01*
X91064779Y-129964008D01*
X91164732Y-129756661D01*
X91300522Y-129474548D01*
X91418409Y-129227430D01*
X91510969Y-129031054D01*
X91570774Y-128901166D01*
X91590492Y-128853782D01*
X91613008Y-128801091D01*
X91676131Y-128665392D01*
X91773225Y-128460636D01*
X91897655Y-128200773D01*
X92042785Y-127899756D01*
X92126986Y-127725910D01*
X92299669Y-127370911D01*
X92433015Y-127101343D01*
X92534474Y-126905456D01*
X92611494Y-126771500D01*
X92671523Y-126687724D01*
X92722009Y-126642379D01*
X92770401Y-126623716D01*
X92824148Y-126619983D01*
X92828048Y-126619977D01*
X92942947Y-126624457D01*
G37*
G36*
X90195385Y-127775302D02*
G01*
X90761645Y-128930627D01*
X90668785Y-129110015D01*
X90575926Y-129289404D01*
X89923761Y-127969234D01*
X89752689Y-127622424D01*
X89598392Y-127308640D01*
X89467006Y-127040443D01*
X89364670Y-126830393D01*
X89297521Y-126691053D01*
X89271698Y-126634985D01*
X89271596Y-126634520D01*
X89318907Y-126624690D01*
X89434412Y-126620035D01*
X89450361Y-126619977D01*
X89629126Y-126619977D01*
X90195385Y-127775302D01*
G37*
G36*
X88853668Y-126621782D02*
G01*
X88898315Y-126633994D01*
X88944013Y-126666812D01*
X88996969Y-126730432D01*
X89063389Y-126835052D01*
X89149480Y-126990868D01*
X89261448Y-127208079D01*
X89405501Y-127496882D01*
X89587846Y-127867474D01*
X89690165Y-128076119D01*
X89869629Y-128444685D01*
X90032560Y-128784139D01*
X90173076Y-129081841D01*
X90285297Y-129325153D01*
X90363343Y-129501436D01*
X90401333Y-129598051D01*
X90404080Y-129610524D01*
X90384171Y-129711504D01*
X90337461Y-129832987D01*
X90283482Y-129931143D01*
X90246805Y-129963502D01*
X90205958Y-129919464D01*
X90147597Y-129811389D01*
X90138201Y-129790684D01*
X90092577Y-129692024D01*
X90007946Y-129513172D01*
X89892361Y-129270981D01*
X89753873Y-128982305D01*
X89600537Y-128663999D01*
X89539125Y-128536862D01*
X89372678Y-128191634D01*
X89209144Y-127850786D01*
X89058937Y-127536147D01*
X88932471Y-127269548D01*
X88840162Y-127072819D01*
X88824013Y-127037918D01*
X88631480Y-126619977D01*
X88803865Y-126619977D01*
X88853668Y-126621782D01*
G37*
G36*
X92561193Y-88978364D02*
G01*
X92182949Y-88978364D01*
X92196806Y-85297790D01*
X92210662Y-81617217D01*
X92385927Y-81600318D01*
X92561193Y-81583420D01*
X92561193Y-88978364D01*
G37*
G36*
X75863533Y-82602525D02*
G01*
X76323275Y-82682109D01*
X76745169Y-82809104D01*
X76976830Y-82911885D01*
X77124863Y-83006927D01*
X77171170Y-83092208D01*
X77119880Y-83178653D01*
X77087660Y-83205259D01*
X77011382Y-83254063D01*
X76938578Y-83262488D01*
X76833723Y-83226888D01*
X76706774Y-83166185D01*
X76491592Y-83085215D01*
X76199734Y-83012348D01*
X75899229Y-82960532D01*
X75628326Y-82926085D01*
X75425794Y-82911618D01*
X75253991Y-82917260D01*
X75075277Y-82943136D01*
X74971779Y-82963657D01*
X74645845Y-83056116D01*
X74409900Y-83184287D01*
X74248860Y-83359524D01*
X74151007Y-83581653D01*
X74103110Y-83816127D01*
X74115566Y-84030697D01*
X74125413Y-84078998D01*
X74217150Y-84359389D01*
X74356555Y-84559566D01*
X74556863Y-84688795D01*
X74831312Y-84756342D01*
X75115545Y-84772200D01*
X75626738Y-84793017D01*
X76052398Y-84857012D01*
X76407742Y-84968868D01*
X76707989Y-85133267D01*
X76950510Y-85336817D01*
X77208359Y-85666230D01*
X77383373Y-86043410D01*
X77475622Y-86449634D01*
X77485177Y-86866182D01*
X77412108Y-87274332D01*
X77256484Y-87655362D01*
X77018377Y-87990551D01*
X76940268Y-88070465D01*
X76605617Y-88328249D01*
X76218241Y-88508372D01*
X75767870Y-88614242D01*
X75244233Y-88649266D01*
X75196437Y-88649089D01*
X74919170Y-88639040D01*
X74633640Y-88616226D01*
X74390358Y-88585000D01*
X74333484Y-88574707D01*
X73916636Y-88463697D01*
X73499708Y-88303508D01*
X73134307Y-88114232D01*
X73106734Y-88097103D01*
X72953677Y-87991649D01*
X72890516Y-87915255D01*
X72910718Y-87848666D01*
X72998680Y-87778601D01*
X73075744Y-87737769D01*
X73152527Y-87736511D01*
X73262022Y-87780995D01*
X73392957Y-87852317D01*
X73834758Y-88056800D01*
X74322932Y-88205766D01*
X74825389Y-88293129D01*
X75310038Y-88312808D01*
X75644442Y-88279153D01*
X75998727Y-88192205D01*
X76320288Y-88066784D01*
X76582815Y-87915021D01*
X76740327Y-87773861D01*
X76930746Y-87510814D01*
X77045713Y-87248820D01*
X77099182Y-86948600D01*
X77107520Y-86740359D01*
X77091881Y-86391862D01*
X77033871Y-86115418D01*
X76923101Y-85880073D01*
X76749184Y-85654877D01*
X76739727Y-85644508D01*
X76576926Y-85483777D01*
X76411206Y-85363716D01*
X76221940Y-85277367D01*
X75988497Y-85217772D01*
X75690249Y-85177971D01*
X75306569Y-85151007D01*
X75271307Y-85149183D01*
X74966232Y-85132560D01*
X74746846Y-85115836D01*
X74591066Y-85094670D01*
X74476809Y-85064719D01*
X74381992Y-85021641D01*
X74284530Y-84961092D01*
X74271928Y-84952660D01*
X74032589Y-84729882D01*
X73860675Y-84439743D01*
X73763355Y-84104338D01*
X73747797Y-83745760D01*
X73793342Y-83477727D01*
X73896203Y-83255387D01*
X74071623Y-83031179D01*
X74289380Y-82835928D01*
X74519252Y-82700460D01*
X74576267Y-82679159D01*
X74958124Y-82597956D01*
X75397847Y-82573443D01*
X75863533Y-82602525D01*
G37*
G36*
X83295279Y-83088604D02*
G01*
X83367563Y-83196699D01*
X83418155Y-83280235D01*
X83555248Y-83514166D01*
X83555248Y-88978364D01*
X83231681Y-88978364D01*
X83231681Y-86012334D01*
X83232116Y-85457989D01*
X83233369Y-84937348D01*
X83235357Y-84460145D01*
X83237999Y-84036116D01*
X83241216Y-83674996D01*
X83244925Y-83386520D01*
X83249045Y-83180424D01*
X83253496Y-83066443D01*
X83256372Y-83046304D01*
X83295279Y-83088604D01*
G37*
G36*
X76082455Y-81331026D02*
G01*
X76673778Y-81457025D01*
X77236703Y-81653463D01*
X77745093Y-81913965D01*
X77957787Y-82056738D01*
X78225233Y-82253061D01*
X77961061Y-82517233D01*
X77705367Y-82322058D01*
X77284952Y-82062413D01*
X76795842Y-81863392D01*
X76260455Y-81727905D01*
X75701213Y-81658865D01*
X75140534Y-81659180D01*
X74600838Y-81731761D01*
X74152678Y-81860863D01*
X73865990Y-82011137D01*
X73575224Y-82236330D01*
X73309178Y-82508640D01*
X73096648Y-82800263D01*
X73011094Y-82963103D01*
X72877355Y-83383760D01*
X72828749Y-83828509D01*
X72861367Y-84276335D01*
X72971299Y-84706226D01*
X73154636Y-85097167D01*
X73407466Y-85428146D01*
X73483329Y-85501091D01*
X73773895Y-85727402D01*
X74080724Y-85889951D01*
X74425924Y-85995835D01*
X74831600Y-86052150D01*
X75244243Y-86066345D01*
X75584345Y-86082502D01*
X75834660Y-86134636D01*
X76008922Y-86228456D01*
X76120866Y-86369669D01*
X76152349Y-86443756D01*
X76205012Y-86716964D01*
X76162469Y-86949598D01*
X76030929Y-87137799D01*
X75816601Y-87277704D01*
X75525694Y-87365452D01*
X75164417Y-87397183D01*
X74738979Y-87369034D01*
X74678039Y-87360593D01*
X74455962Y-87317414D01*
X74212540Y-87254852D01*
X74115272Y-87224843D01*
X73828227Y-87129502D01*
X73968941Y-87008464D01*
X74053881Y-86942502D01*
X74132223Y-86914853D01*
X74240523Y-86921731D01*
X74415337Y-86959350D01*
X74423853Y-86961352D01*
X74669436Y-87003820D01*
X74944975Y-87027504D01*
X75219266Y-87032250D01*
X75461103Y-87017906D01*
X75639279Y-86984318D01*
X75681787Y-86967508D01*
X75788704Y-86864064D01*
X75838759Y-86716989D01*
X75820163Y-86572706D01*
X75793165Y-86528892D01*
X75704607Y-86489684D01*
X75511736Y-86457433D01*
X75217903Y-86432649D01*
X75128653Y-86427658D01*
X74811167Y-86409515D01*
X74573952Y-86389691D01*
X74389463Y-86363635D01*
X74230152Y-86326796D01*
X74068474Y-86274620D01*
X73960303Y-86234604D01*
X73553626Y-86028598D01*
X73200015Y-85746527D01*
X72995612Y-85510613D01*
X72816046Y-85244048D01*
X72688299Y-84995476D01*
X72595433Y-84724222D01*
X72520511Y-84389611D01*
X72513787Y-84353460D01*
X72466239Y-83824769D01*
X72523552Y-83315844D01*
X72687084Y-82816346D01*
X72727486Y-82727523D01*
X72970177Y-82315751D01*
X73276099Y-81977689D01*
X73651937Y-81709028D01*
X74104380Y-81505461D01*
X74640116Y-81362681D01*
X74919159Y-81315832D01*
X75488869Y-81281837D01*
X76082455Y-81331026D01*
G37*
G36*
X88961511Y-81600318D02*
G01*
X89136776Y-81617217D01*
X89150719Y-84569765D01*
X89152606Y-85122802D01*
X89152975Y-85642112D01*
X89151914Y-86117938D01*
X89149513Y-86540524D01*
X89145862Y-86900112D01*
X89141048Y-87186947D01*
X89135162Y-87391271D01*
X89128292Y-87503328D01*
X89123755Y-87522216D01*
X89074132Y-87480374D01*
X88991742Y-87373384D01*
X88934547Y-87287368D01*
X88786246Y-87052617D01*
X88786246Y-81583420D01*
X88961511Y-81600318D01*
G37*
G36*
X89756946Y-88978364D02*
G01*
X89567350Y-88978364D01*
X89483816Y-88973539D01*
X89414125Y-88948891D01*
X89343054Y-88889164D01*
X89255383Y-88779098D01*
X89135890Y-88603436D01*
X89028072Y-88437773D01*
X88892219Y-88225427D01*
X88780991Y-88047147D01*
X88705883Y-87921670D01*
X88678390Y-87867765D01*
X88650577Y-87809965D01*
X88579535Y-87694734D01*
X88525266Y-87612921D01*
X88449158Y-87495997D01*
X88329007Y-87305537D01*
X88176504Y-87060343D01*
X88003343Y-86779216D01*
X87821214Y-86480958D01*
X87814991Y-86470720D01*
X87613757Y-86139919D01*
X87403475Y-85794798D01*
X87201192Y-85463299D01*
X87023958Y-85173367D01*
X86910175Y-84987705D01*
X86766881Y-84754190D01*
X86636455Y-84541408D01*
X86533621Y-84373392D01*
X86474484Y-84276459D01*
X86412604Y-84174875D01*
X86308788Y-84004819D01*
X86177405Y-83789814D01*
X86032821Y-83553379D01*
X86029796Y-83548433D01*
X85853031Y-83259214D01*
X85658176Y-82939962D01*
X85472682Y-82635676D01*
X85361538Y-82453098D01*
X85224309Y-82229369D01*
X85097783Y-82026472D01*
X84998307Y-81870438D01*
X84951323Y-81799877D01*
X84886741Y-81679531D01*
X84910621Y-81614110D01*
X85030171Y-81590940D01*
X85070542Y-81590253D01*
X85129856Y-81592976D01*
X85183070Y-81608658D01*
X85239040Y-81648570D01*
X85306622Y-81723982D01*
X85394671Y-81846166D01*
X85512042Y-82026393D01*
X85667590Y-82275933D01*
X85870171Y-82606057D01*
X85875573Y-82614882D01*
X86559287Y-83731052D01*
X87197904Y-84771961D01*
X87801950Y-85754755D01*
X88192915Y-86389829D01*
X88393784Y-86716253D01*
X88580430Y-87020241D01*
X88743921Y-87287192D01*
X88875324Y-87502502D01*
X88965705Y-87651568D01*
X89001167Y-87711060D01*
X89090117Y-87862856D01*
X89195625Y-88041195D01*
X89223821Y-88088555D01*
X89352488Y-88304266D01*
X89379452Y-84960741D01*
X89406416Y-81617217D01*
X89581681Y-81600318D01*
X89756946Y-81583420D01*
X89756946Y-88978364D01*
G37*
G36*
X91914059Y-88978364D02*
G01*
X91590492Y-88978364D01*
X91590492Y-81590253D01*
X91914059Y-81590253D01*
X91914059Y-88978364D01*
G37*
G36*
X83671446Y-81615642D02*
G01*
X83783324Y-81700601D01*
X83909944Y-81858321D01*
X84064124Y-82101992D01*
X84072315Y-82115868D01*
X84141150Y-82230654D01*
X84251220Y-82411837D01*
X84387069Y-82634062D01*
X84525948Y-82860132D01*
X84665766Y-83087409D01*
X84788552Y-83287454D01*
X84881191Y-83438869D01*
X84930566Y-83520254D01*
X84930968Y-83520929D01*
X84983549Y-83607800D01*
X85075587Y-83758460D01*
X85189947Y-83944885D01*
X85227571Y-84006074D01*
X85345359Y-84198145D01*
X85446063Y-84363478D01*
X85512568Y-84473938D01*
X85523613Y-84492724D01*
X85575014Y-84578006D01*
X85669851Y-84732413D01*
X85794290Y-84933676D01*
X85934500Y-85159523D01*
X86076647Y-85387684D01*
X86206899Y-85595889D01*
X86311424Y-85761866D01*
X86333485Y-85796623D01*
X86411841Y-85921951D01*
X86528211Y-86110750D01*
X86664859Y-86334161D01*
X86764292Y-86497684D01*
X86892880Y-86709304D01*
X87062524Y-86987880D01*
X87257961Y-87308385D01*
X87463931Y-87645791D01*
X87660975Y-87968207D01*
X87836055Y-88255686D01*
X87990266Y-88511179D01*
X88115301Y-88720732D01*
X88202852Y-88870391D01*
X88244610Y-88946203D01*
X88246968Y-88952390D01*
X88199514Y-88969614D01*
X88082948Y-88978159D01*
X88059463Y-88978364D01*
X87897712Y-88950841D01*
X87796785Y-88857535D01*
X87796468Y-88857026D01*
X87666097Y-88646947D01*
X87496094Y-88372231D01*
X87300325Y-88055362D01*
X87092655Y-87718819D01*
X86886950Y-87385087D01*
X86697074Y-87076645D01*
X86536895Y-86815977D01*
X86424514Y-86632504D01*
X86286418Y-86406982D01*
X86155878Y-86194873D01*
X86051522Y-86026396D01*
X86008963Y-85958406D01*
X85929441Y-85831065D01*
X85812335Y-85641861D01*
X85676289Y-85420969D01*
X85592429Y-85284308D01*
X85424002Y-85009552D01*
X85234456Y-84700555D01*
X85056863Y-84411226D01*
X85004875Y-84326580D01*
X84876987Y-84117614D01*
X84766202Y-83935173D01*
X84687476Y-83803962D01*
X84660768Y-83758182D01*
X84617087Y-83683659D01*
X84541323Y-83559044D01*
X84428840Y-83376878D01*
X84275005Y-83129703D01*
X84075181Y-82810061D01*
X83824735Y-82410492D01*
X83676454Y-82174222D01*
X83549476Y-81965322D01*
X83451100Y-81790584D01*
X83391658Y-81669284D01*
X83380232Y-81621461D01*
X83451947Y-81598490D01*
X83561491Y-81590253D01*
X83671446Y-81615642D01*
G37*
G36*
X93538885Y-109803780D02*
G01*
X93561443Y-109702234D01*
X93611466Y-109590662D01*
X93699485Y-109448685D01*
X93836030Y-109255921D01*
X93962775Y-109084352D01*
X93967649Y-109077968D01*
X94448666Y-109077968D01*
X94488080Y-109136538D01*
X94586977Y-109232841D01*
X94716338Y-109342962D01*
X94847143Y-109442989D01*
X94950374Y-109509007D01*
X94987944Y-109522372D01*
X95032048Y-109482457D01*
X95113680Y-109380819D01*
X95163210Y-109312863D01*
X95251662Y-109172321D01*
X95304713Y-109058162D01*
X95311511Y-109025286D01*
X95267077Y-108908538D01*
X95158262Y-108787199D01*
X95021795Y-108694219D01*
X94906588Y-108662015D01*
X94787253Y-108700934D01*
X94649809Y-108797184D01*
X94528114Y-108920012D01*
X94456026Y-109038660D01*
X94448666Y-109077968D01*
X93967649Y-109077968D01*
X94132610Y-108861887D01*
X94290355Y-108665643D01*
X94419792Y-108515108D01*
X94504705Y-108429769D01*
X94512307Y-108424000D01*
X94748283Y-108316084D01*
X94990753Y-108301848D01*
X95219973Y-108370352D01*
X95416199Y-108510661D01*
X95559689Y-108711837D01*
X95630697Y-108962943D01*
X95634915Y-109045875D01*
X95627741Y-109158577D01*
X95598924Y-109265554D01*
X95537263Y-109388828D01*
X95431560Y-109550418D01*
X95270614Y-109772345D01*
X95254174Y-109794499D01*
X95034941Y-110083843D01*
X94860720Y-110295445D01*
X94716470Y-110441160D01*
X94587153Y-110532840D01*
X94457730Y-110582336D01*
X94313163Y-110601502D01*
X94227785Y-110603417D01*
X94046676Y-110597618D01*
X93928053Y-110567221D01*
X93826669Y-110492724D01*
X93726916Y-110387550D01*
X93607299Y-110239697D01*
X93549630Y-110111305D01*
X93533372Y-109952336D01*
X93533314Y-109932694D01*
X93905486Y-109932694D01*
X93950077Y-110095350D01*
X94055195Y-110216605D01*
X94209480Y-110275925D01*
X94401575Y-110252780D01*
X94419965Y-110246090D01*
X94504301Y-110182141D01*
X94607312Y-110063787D01*
X94637719Y-110021345D01*
X94767497Y-109830360D01*
X94490486Y-109623682D01*
X94345025Y-109517278D01*
X94237598Y-109442672D01*
X94193665Y-109417005D01*
X94148811Y-109453260D01*
X94063426Y-109542730D01*
X94043325Y-109565306D01*
X93932783Y-109749168D01*
X93905486Y-109932694D01*
X93533314Y-109932694D01*
X93533264Y-109915682D01*
X93538885Y-109803780D01*
G37*
G36*
X87667244Y-81600318D02*
G01*
X87842509Y-81617217D01*
X87856681Y-83518172D01*
X87858843Y-83958827D01*
X87858665Y-84363353D01*
X87856320Y-84719593D01*
X87851979Y-85015388D01*
X87845817Y-85238579D01*
X87838004Y-85377008D01*
X87829717Y-85419073D01*
X87782988Y-85375859D01*
X87705451Y-85264386D01*
X87640280Y-85154968D01*
X87491978Y-84890918D01*
X87491978Y-81583420D01*
X87667244Y-81600318D01*
G37*
G36*
X95589732Y-106973226D02*
G01*
X95670446Y-106842079D01*
X95795613Y-106662380D01*
X95948472Y-106455682D01*
X95949774Y-106453996D01*
X96379362Y-106453996D01*
X96506052Y-106553952D01*
X96645006Y-106665606D01*
X96767562Y-106766359D01*
X96900623Y-106858045D01*
X96999057Y-106862432D01*
X97091899Y-106774003D01*
X97144351Y-106694793D01*
X97232676Y-106479411D01*
X97219790Y-106289024D01*
X97106547Y-106131508D01*
X97081082Y-106111294D01*
X96964301Y-106041346D01*
X96862793Y-106040447D01*
X96784479Y-106069494D01*
X96645569Y-106158423D01*
X96513808Y-106285146D01*
X96506052Y-106294681D01*
X96379362Y-106453996D01*
X95949774Y-106453996D01*
X96112264Y-106243539D01*
X96270229Y-106047505D01*
X96405607Y-105889134D01*
X96501637Y-105789979D01*
X96522790Y-105773292D01*
X96703279Y-105706120D01*
X96929500Y-105690169D01*
X97151660Y-105726577D01*
X97230492Y-105757134D01*
X97419491Y-105900010D01*
X97553569Y-106103341D01*
X97621383Y-106335973D01*
X97611589Y-106566752D01*
X97567897Y-106683713D01*
X97486567Y-106815900D01*
X97360779Y-106996435D01*
X97207332Y-107203744D01*
X97043021Y-107416253D01*
X96884644Y-107612387D01*
X96748997Y-107770572D01*
X96652877Y-107869234D01*
X96632495Y-107885183D01*
X96418262Y-107973904D01*
X96177231Y-107995981D01*
X95958447Y-107947926D01*
X95931681Y-107935035D01*
X95717942Y-107770937D01*
X95577121Y-107555107D01*
X95518011Y-107312284D01*
X95518620Y-107307527D01*
X95850789Y-107307527D01*
X95894429Y-107407863D01*
X96000273Y-107517380D01*
X96130707Y-107604401D01*
X96242489Y-107637387D01*
X96377207Y-107609637D01*
X96447718Y-107569977D01*
X96537725Y-107482502D01*
X96646227Y-107365040D01*
X96648651Y-107362273D01*
X96771318Y-107221979D01*
X96481338Y-106998260D01*
X96330901Y-106885699D01*
X96214854Y-106805349D01*
X96158236Y-106774542D01*
X96158166Y-106774542D01*
X96112101Y-106817647D01*
X96039151Y-106924541D01*
X95958714Y-107061591D01*
X95890185Y-107195164D01*
X95852961Y-107291627D01*
X95850789Y-107307527D01*
X95518620Y-107307527D01*
X95549408Y-107067205D01*
X95589732Y-106973226D01*
G37*
G36*
X87642423Y-126640635D02*
G01*
X87732084Y-126722260D01*
X87774729Y-126795243D01*
X87827174Y-126900482D01*
X87918878Y-127089722D01*
X88043364Y-127349285D01*
X88194154Y-127665493D01*
X88364772Y-128024668D01*
X88548740Y-128413133D01*
X88739581Y-128817209D01*
X88930818Y-129223219D01*
X89115974Y-129617485D01*
X89288572Y-129986329D01*
X89442135Y-130316074D01*
X89447973Y-130328651D01*
X89575644Y-130597111D01*
X89689481Y-130824011D01*
X89781450Y-130994322D01*
X89843517Y-131093017D01*
X89866011Y-131110604D01*
X89898429Y-131051849D01*
X89969794Y-130909754D01*
X90073157Y-130698581D01*
X90201567Y-130432595D01*
X90348075Y-130126057D01*
X90436086Y-129940622D01*
X90742109Y-129294195D01*
X91005448Y-128738320D01*
X91229708Y-128266133D01*
X91418496Y-127870769D01*
X91575419Y-127545365D01*
X91704082Y-127283055D01*
X91808093Y-127076976D01*
X91891057Y-126920263D01*
X91956581Y-126806052D01*
X92008272Y-126727478D01*
X92049735Y-126677678D01*
X92084576Y-126649786D01*
X92116404Y-126636939D01*
X92148822Y-126632272D01*
X92175381Y-126630042D01*
X92292132Y-126628833D01*
X92345185Y-126648795D01*
X92345481Y-126651004D01*
X92323469Y-126713069D01*
X92264335Y-126848707D01*
X92178437Y-127034650D01*
X92121938Y-127153253D01*
X91991469Y-127426167D01*
X91848466Y-127728214D01*
X91720020Y-128002124D01*
X91698195Y-128049064D01*
X91593199Y-128273235D01*
X91459047Y-128556650D01*
X91313684Y-128861528D01*
X91186496Y-129126375D01*
X91054799Y-129401345D01*
X90893690Y-129740644D01*
X90719029Y-130110704D01*
X90546677Y-130477959D01*
X90450791Y-130683392D01*
X90026585Y-131594520D01*
X90026585Y-134062015D01*
X89703019Y-134062015D01*
X89703019Y-132855225D01*
X89703180Y-132458093D01*
X89700855Y-132148219D01*
X89691833Y-131905021D01*
X89671901Y-131707917D01*
X89636847Y-131536324D01*
X89582458Y-131369658D01*
X89504523Y-131187338D01*
X89398830Y-130968779D01*
X89261165Y-130693400D01*
X89260230Y-130691527D01*
X89115632Y-130396927D01*
X88953025Y-130058064D01*
X88798315Y-129729183D01*
X88732277Y-129586007D01*
X88620041Y-129343463D01*
X88474827Y-129034088D01*
X88310890Y-128688011D01*
X88142484Y-128335364D01*
X88030665Y-128102992D01*
X87880946Y-127791804D01*
X87738416Y-127493348D01*
X87613382Y-127229372D01*
X87516153Y-127021630D01*
X87461997Y-126903098D01*
X87336130Y-126619977D01*
X87509646Y-126619977D01*
X87642423Y-126640635D01*
G37*
G36*
X75979596Y-126392041D02*
G01*
X76582050Y-126570750D01*
X77157290Y-126846609D01*
X77696661Y-127217719D01*
X78191507Y-127682180D01*
X78237972Y-127733421D01*
X78385673Y-127906280D01*
X78461953Y-128022248D01*
X78472688Y-128099657D01*
X78423752Y-128156839D01*
X78381723Y-128181986D01*
X78284456Y-128224897D01*
X78208568Y-128219959D01*
X78127916Y-128153991D01*
X78016356Y-128013809D01*
X77997224Y-127988104D01*
X77748350Y-127714796D01*
X77418373Y-127444062D01*
X77033153Y-127192299D01*
X76618555Y-126975900D01*
X76200439Y-126811262D01*
X76086246Y-126776668D01*
X75881864Y-126738897D01*
X75592382Y-126713577D01*
X75240023Y-126702462D01*
X75142509Y-126702112D01*
X74618380Y-126726366D01*
X74162674Y-126803834D01*
X73744905Y-126944723D01*
X73334585Y-127159238D01*
X72913481Y-127448352D01*
X72557017Y-127770352D01*
X72226193Y-128171041D01*
X71939822Y-128621467D01*
X71716717Y-129092680D01*
X71592486Y-129481221D01*
X71560075Y-129682844D01*
X71538610Y-129953519D01*
X71528311Y-130260880D01*
X71529393Y-130572561D01*
X71542072Y-130856195D01*
X71566567Y-131079414D01*
X71581308Y-131150787D01*
X71792736Y-131784926D01*
X72076610Y-132339523D01*
X72433548Y-132815495D01*
X72864171Y-133213758D01*
X73074492Y-133362881D01*
X73361747Y-133533692D01*
X73673276Y-133691330D01*
X73976031Y-133820831D01*
X74236965Y-133907227D01*
X74316331Y-133925278D01*
X74637024Y-133984066D01*
X74877282Y-134023035D01*
X75062351Y-134043925D01*
X75217476Y-134048475D01*
X75367902Y-134038422D01*
X75538873Y-134015508D01*
X75566003Y-134011354D01*
X76070627Y-133909909D01*
X76507995Y-133768202D01*
X76780439Y-133645840D01*
X77148927Y-133434272D01*
X77498533Y-133183623D01*
X77803305Y-132915053D01*
X78037293Y-132649726D01*
X78084074Y-132582754D01*
X78187275Y-132468601D01*
X78288965Y-132459107D01*
X78403409Y-132550122D01*
X78450967Y-132611355D01*
X78457938Y-132669020D01*
X78415287Y-132749011D01*
X78313982Y-132877221D01*
X78271572Y-132928039D01*
X77813043Y-133394819D01*
X77293903Y-133777629D01*
X76725274Y-134071287D01*
X76118276Y-134270612D01*
X75484032Y-134370420D01*
X75152645Y-134381325D01*
X74934633Y-134377511D01*
X74756874Y-134371006D01*
X74647766Y-134362981D01*
X74630195Y-134359772D01*
X74554507Y-134340001D01*
X74403902Y-134303602D01*
X74208634Y-134257864D01*
X74174944Y-134250092D01*
X73609612Y-134066111D01*
X73073767Y-133786793D01*
X72579323Y-133423212D01*
X72138194Y-132986443D01*
X71762294Y-132487564D01*
X71463536Y-131937649D01*
X71333254Y-131608300D01*
X71237699Y-131238933D01*
X71176287Y-130807315D01*
X71150789Y-130351634D01*
X71162979Y-129910080D01*
X71214627Y-129520844D01*
X71232702Y-129441013D01*
X71441833Y-128810283D01*
X71738765Y-128230867D01*
X72116138Y-127711824D01*
X72566591Y-127262213D01*
X73082763Y-126891092D01*
X73470747Y-126686723D01*
X74095503Y-126457824D01*
X74727667Y-126333678D01*
X75358583Y-126312384D01*
X75979596Y-126392041D01*
G37*
G36*
X68354682Y-111629675D02*
G01*
X68347605Y-111628045D01*
X68311960Y-111675452D01*
X68294142Y-111792022D01*
X68293677Y-111816792D01*
X68293677Y-112005540D01*
X67545198Y-112005540D01*
X67524044Y-111803310D01*
X67502890Y-111601081D01*
X67493825Y-111803310D01*
X67484760Y-112005540D01*
X66736281Y-112005540D01*
X66715127Y-111803310D01*
X66693973Y-111601081D01*
X66684908Y-111803310D01*
X66675842Y-112005540D01*
X65920853Y-112005540D01*
X65920853Y-111813610D01*
X65908079Y-111690904D01*
X65874286Y-111651876D01*
X65866925Y-111655009D01*
X65828072Y-111727911D01*
X65812997Y-111846939D01*
X65812997Y-112005540D01*
X65448985Y-112005558D01*
X65084972Y-112005576D01*
X65098578Y-109079956D01*
X65381649Y-109079956D01*
X65382671Y-109664896D01*
X65385682Y-110187111D01*
X65390546Y-110639662D01*
X65397126Y-111015613D01*
X65405285Y-111308025D01*
X65414888Y-111509960D01*
X65425798Y-111614482D01*
X65431752Y-111628045D01*
X65478381Y-111582382D01*
X65499162Y-111512118D01*
X65552980Y-111399849D01*
X65658796Y-111290290D01*
X65661261Y-111288441D01*
X65777030Y-111218424D01*
X65879457Y-111216528D01*
X65972032Y-111249412D01*
X66107456Y-111341796D01*
X66170060Y-111446124D01*
X66217035Y-111553593D01*
X66269862Y-111560114D01*
X66312537Y-111471754D01*
X66375160Y-111369765D01*
X66480928Y-111276596D01*
X66598472Y-111217232D01*
X66707930Y-111223074D01*
X66788553Y-111252561D01*
X66921267Y-111341443D01*
X67006462Y-111457849D01*
X67058370Y-111594376D01*
X67159988Y-111427278D01*
X67256574Y-111305304D01*
X67356753Y-111230475D01*
X67366060Y-111227028D01*
X67534899Y-111224423D01*
X67698532Y-111303110D01*
X67816698Y-111442383D01*
X67826636Y-111463897D01*
X67894011Y-111624136D01*
X67954143Y-111464828D01*
X68053864Y-111322719D01*
X68203572Y-111236068D01*
X68363362Y-111226191D01*
X68387582Y-111233296D01*
X68551206Y-111327612D01*
X68654100Y-111458955D01*
X68674590Y-111542030D01*
X68678008Y-111655009D01*
X68724024Y-111541120D01*
X68803576Y-111422344D01*
X68928685Y-111304478D01*
X69060634Y-111219512D01*
X69140979Y-111196623D01*
X69225879Y-111232356D01*
X69341798Y-111321387D01*
X69376381Y-111354258D01*
X69534016Y-111511893D01*
X69691652Y-111354258D01*
X69836756Y-111235608D01*
X69962240Y-111208156D01*
X70095136Y-111272867D01*
X70206191Y-111372661D01*
X70314647Y-111476369D01*
X70374218Y-111509793D01*
X70410491Y-111480668D01*
X70429991Y-111440310D01*
X70512685Y-111337956D01*
X70624491Y-111262078D01*
X70747640Y-111221245D01*
X70861670Y-111242290D01*
X70933795Y-111276302D01*
X71063382Y-111380554D01*
X71131603Y-111500785D01*
X71166846Y-111641203D01*
X71237809Y-111472430D01*
X71351464Y-111311545D01*
X71504919Y-111230738D01*
X71670271Y-111230210D01*
X71819615Y-111310164D01*
X71923793Y-111467443D01*
X71977495Y-111578536D01*
X72024634Y-111627894D01*
X72026519Y-111628045D01*
X72034647Y-111575798D01*
X72042227Y-111425782D01*
X72049109Y-111188081D01*
X72055141Y-110872780D01*
X72060174Y-110489965D01*
X72064056Y-110049720D01*
X72066636Y-109562132D01*
X72067765Y-109037283D01*
X72067796Y-108864245D01*
X72067262Y-108195729D01*
X72065361Y-107624676D01*
X72060993Y-107140691D01*
X72053059Y-106733382D01*
X72040460Y-106392356D01*
X72022097Y-106107219D01*
X71996870Y-105867579D01*
X71963681Y-105663041D01*
X71921431Y-105483214D01*
X71869020Y-105317703D01*
X71805349Y-105156116D01*
X71729320Y-104988059D01*
X71639832Y-104803140D01*
X71637906Y-104799216D01*
X71359070Y-104323744D01*
X71027008Y-103934906D01*
X70628748Y-103621075D01*
X70151318Y-103370627D01*
X69958552Y-103294107D01*
X69771663Y-103229872D01*
X69604105Y-103186942D01*
X69424462Y-103160828D01*
X69201319Y-103147037D01*
X68903258Y-103141079D01*
X68886883Y-103140917D01*
X68605330Y-103141404D01*
X68342525Y-103147580D01*
X68128563Y-103158389D01*
X67997074Y-103172140D01*
X67457976Y-103318664D01*
X66970407Y-103558460D01*
X66539855Y-103887263D01*
X66171808Y-104300810D01*
X65871754Y-104794837D01*
X65849438Y-104840660D01*
X65743678Y-105070806D01*
X65654399Y-105281704D01*
X65593697Y-105443899D01*
X65575688Y-105507238D01*
X65531051Y-105733242D01*
X65493844Y-105933617D01*
X65463392Y-106120815D01*
X65439017Y-106307291D01*
X65420043Y-106505496D01*
X65405794Y-106727885D01*
X65395593Y-106986910D01*
X65388765Y-107295025D01*
X65384633Y-107664682D01*
X65382520Y-108108336D01*
X65381751Y-108638438D01*
X65381649Y-109079956D01*
X65098578Y-109079956D01*
X65098829Y-109026046D01*
X65102137Y-108352157D01*
X65105839Y-107776148D01*
X65110735Y-107288044D01*
X65117625Y-106877869D01*
X65127306Y-106535650D01*
X65140579Y-106251411D01*
X65158242Y-106015176D01*
X65181096Y-105816972D01*
X65209939Y-105646823D01*
X65245570Y-105494754D01*
X65288789Y-105350790D01*
X65340395Y-105204956D01*
X65401188Y-105047277D01*
X65421829Y-104994924D01*
X65698450Y-104429629D01*
X66050575Y-103940454D01*
X66475432Y-103529966D01*
X66970252Y-103200728D01*
X67532265Y-102955306D01*
X67673507Y-102910156D01*
X67845113Y-102867910D01*
X68043057Y-102839244D01*
X68290563Y-102822189D01*
X68610855Y-102814773D01*
X68805991Y-102814065D01*
X69246332Y-102823352D01*
X69608583Y-102854786D01*
X69921377Y-102914937D01*
X70213347Y-103010374D01*
X70513129Y-103147666D01*
X70701726Y-103248984D01*
X70973847Y-103434871D01*
X71263906Y-103689407D01*
X71544038Y-103983591D01*
X71786376Y-104288428D01*
X71948086Y-104545941D01*
X72130521Y-104944282D01*
X72286636Y-105388252D01*
X72400617Y-105828777D01*
X72443948Y-106084631D01*
X72452420Y-106210598D01*
X72459203Y-106432488D01*
X72464239Y-106738382D01*
X72467465Y-107116360D01*
X72468824Y-107554502D01*
X72468253Y-108040887D01*
X72465693Y-108563597D01*
X72461083Y-109110710D01*
X72459830Y-109229338D01*
X72429441Y-112005540D01*
X70834795Y-112005540D01*
X70813641Y-111803310D01*
X70792487Y-111601081D01*
X70783422Y-111803310D01*
X70774356Y-112005540D01*
X68401532Y-112005540D01*
X68401532Y-111816792D01*
X68398605Y-111789829D01*
X69169033Y-111789829D01*
X69174656Y-111887940D01*
X69188654Y-111899503D01*
X69193696Y-111884202D01*
X69199482Y-111789829D01*
X69977950Y-111789829D01*
X69983573Y-111887940D01*
X69997571Y-111899503D01*
X70002613Y-111884202D01*
X70011000Y-111747429D01*
X70002613Y-111695455D01*
X69986982Y-111678671D01*
X69978472Y-111753239D01*
X69977950Y-111789829D01*
X69199482Y-111789829D01*
X69202082Y-111747429D01*
X69193696Y-111695455D01*
X69178065Y-111678671D01*
X69169555Y-111753239D01*
X69169033Y-111789829D01*
X68398605Y-111789829D01*
X68387988Y-111692036D01*
X68354682Y-111629675D01*
G37*
G36*
X75878718Y-127030136D02*
G01*
X76419203Y-127201413D01*
X76936320Y-127467618D01*
X77419396Y-127828763D01*
X77591405Y-127990480D01*
X78018333Y-128417245D01*
X77866786Y-128538085D01*
X77715239Y-128658924D01*
X77508152Y-128396940D01*
X77228301Y-128108704D01*
X76871277Y-127841281D01*
X76467748Y-127613725D01*
X76048382Y-127445092D01*
X75913444Y-127406062D01*
X75377600Y-127320097D01*
X74842121Y-127333456D01*
X74320549Y-127439833D01*
X73826427Y-127632923D01*
X73373299Y-127906423D01*
X72974707Y-128254027D01*
X72644194Y-128669430D01*
X72450808Y-129018063D01*
X72313931Y-129332684D01*
X72224789Y-129596723D01*
X72174060Y-129851120D01*
X72152418Y-130136818D01*
X72149515Y-130340996D01*
X72164600Y-130715529D01*
X72215963Y-131038921D01*
X72312767Y-131364424D01*
X72337051Y-131430898D01*
X72582269Y-131937648D01*
X72912196Y-132379104D01*
X73321423Y-132749236D01*
X73763251Y-133021554D01*
X74091767Y-133175625D01*
X74375286Y-133276171D01*
X74655886Y-133333313D01*
X74975644Y-133357173D01*
X75169473Y-133359786D01*
X75728927Y-133317664D01*
X76231730Y-133187638D01*
X76690806Y-132964221D01*
X77119079Y-132641924D01*
X77322242Y-132445576D01*
X77494341Y-132269651D01*
X77611413Y-132161106D01*
X77691741Y-132108211D01*
X77753607Y-132099234D01*
X77815294Y-132122446D01*
X77821074Y-132125505D01*
X77915609Y-132203302D01*
X77946755Y-132272114D01*
X77907263Y-132353284D01*
X77800960Y-132483524D01*
X77646103Y-132645603D01*
X77460950Y-132822289D01*
X77263759Y-132996350D01*
X77072788Y-133150555D01*
X76906296Y-133267672D01*
X76866903Y-133291272D01*
X76414135Y-133506712D01*
X75943215Y-133642055D01*
X75421266Y-133706277D01*
X75331256Y-133710536D01*
X75085811Y-133717002D01*
X74868231Y-133717482D01*
X74709549Y-133712160D01*
X74657159Y-133706565D01*
X74064268Y-133547111D01*
X73518235Y-133297195D01*
X73028987Y-132964142D01*
X72606451Y-132555276D01*
X72260555Y-132077924D01*
X72133257Y-131844158D01*
X71910356Y-131277764D01*
X71791971Y-130701840D01*
X71776531Y-130126309D01*
X71862464Y-129561093D01*
X72048200Y-129016112D01*
X72332168Y-128501290D01*
X72712795Y-128026549D01*
X72742721Y-127995380D01*
X73199297Y-127597310D01*
X73696538Y-127294104D01*
X74223774Y-127085773D01*
X74770330Y-126972327D01*
X75325536Y-126953778D01*
X75878718Y-127030136D01*
G37*
G36*
X79456734Y-134062015D02*
G01*
X79079239Y-134062015D01*
X79079239Y-126619977D01*
X79456734Y-126619977D01*
X79456734Y-134062015D01*
G37*
G36*
X101106658Y-81987639D02*
G01*
X101652940Y-82084529D01*
X102142594Y-82253668D01*
X102590782Y-82499279D01*
X102699947Y-82574429D01*
X102831458Y-82668797D01*
X102598720Y-82901535D01*
X102208664Y-82696566D01*
X101733505Y-82492511D01*
X101225198Y-82355419D01*
X100708615Y-82288030D01*
X100208626Y-82293085D01*
X99750101Y-82373324D01*
X99625736Y-82411983D01*
X99285563Y-82580382D01*
X98993168Y-82823132D01*
X98763124Y-83120873D01*
X98610004Y-83454249D01*
X98548383Y-83803901D01*
X98547820Y-83843762D01*
X98593642Y-84222756D01*
X98720241Y-84581270D01*
X98914982Y-84896520D01*
X99165225Y-85145721D01*
X99327338Y-85249209D01*
X99450032Y-85307628D01*
X99572572Y-85349138D01*
X99719373Y-85377935D01*
X99914852Y-85398214D01*
X100183428Y-85414171D01*
X100325003Y-85420642D01*
X100714446Y-85444792D01*
X101014359Y-85482347D01*
X101242748Y-85538413D01*
X101417620Y-85618095D01*
X101556980Y-85726497D01*
X101612660Y-85785728D01*
X101787088Y-86030955D01*
X101888472Y-86295671D01*
X101930779Y-86576139D01*
X101925403Y-86963043D01*
X101838758Y-87282690D01*
X101665940Y-87543989D01*
X101402041Y-87755852D01*
X101230633Y-87847817D01*
X101083535Y-87912913D01*
X100951450Y-87955883D01*
X100805256Y-87981382D01*
X100615826Y-87994059D01*
X100354036Y-87998568D01*
X100284577Y-87998922D01*
X99925781Y-87992970D01*
X99644104Y-87969859D01*
X99409743Y-87926587D01*
X99317751Y-87901530D01*
X99103262Y-87829860D01*
X98889818Y-87745735D01*
X98701410Y-87660224D01*
X98562030Y-87584396D01*
X98495670Y-87529321D01*
X98493252Y-87521112D01*
X98529011Y-87462143D01*
X98602287Y-87386426D01*
X98678172Y-87326882D01*
X98747788Y-87317075D01*
X98854237Y-87356696D01*
X98912372Y-87384196D01*
X99171248Y-87494092D01*
X99426405Y-87567326D01*
X99710103Y-87609925D01*
X100054600Y-87627916D01*
X100225838Y-87629584D01*
X100572409Y-87622975D01*
X100834003Y-87598360D01*
X101032835Y-87549667D01*
X101191123Y-87470823D01*
X101331081Y-87355756D01*
X101369229Y-87317039D01*
X101517656Y-87091397D01*
X101586971Y-86828684D01*
X101581715Y-86553583D01*
X101506428Y-86290776D01*
X101365651Y-86064947D01*
X101163924Y-85900779D01*
X101103374Y-85871792D01*
X100935488Y-85830319D01*
X100676245Y-85804748D01*
X100363865Y-85796623D01*
X99828417Y-85759319D01*
X99369895Y-85646766D01*
X98987027Y-85458002D01*
X98678544Y-85192064D01*
X98443177Y-84847990D01*
X98279656Y-84424817D01*
X98222646Y-84173458D01*
X98199791Y-83762612D01*
X98271774Y-83354397D01*
X98428884Y-82969098D01*
X98661407Y-82626997D01*
X98959631Y-82348378D01*
X99155300Y-82225743D01*
X99379951Y-82117062D01*
X99590708Y-82041936D01*
X99816882Y-81994496D01*
X100087788Y-81968871D01*
X100432737Y-81959192D01*
X100488581Y-81958776D01*
X101106658Y-81987639D01*
G37*
G36*
X82804937Y-81600634D02*
G01*
X83025327Y-81617217D01*
X83556948Y-82480062D01*
X83730035Y-82761613D01*
X83887938Y-83019629D01*
X84020148Y-83236846D01*
X84116154Y-83395999D01*
X84164277Y-83477727D01*
X84221031Y-83574458D01*
X84320787Y-83740276D01*
X84449833Y-83952530D01*
X84594453Y-84188567D01*
X84605026Y-84205752D01*
X84751544Y-84444030D01*
X84884985Y-84661369D01*
X84991143Y-84834608D01*
X85055809Y-84940585D01*
X85058092Y-84944352D01*
X85344948Y-85416999D01*
X85585899Y-85811342D01*
X85789910Y-86141935D01*
X85965946Y-86423330D01*
X86074202Y-86593936D01*
X86195472Y-86786605D01*
X86291126Y-86943814D01*
X86348578Y-87044583D01*
X86359494Y-87069570D01*
X86387263Y-87127055D01*
X86458193Y-87242098D01*
X86512350Y-87323849D01*
X86604444Y-87464482D01*
X86726227Y-87657216D01*
X86866769Y-87883961D01*
X87015140Y-88126630D01*
X87160409Y-88367133D01*
X87291647Y-88587382D01*
X87397924Y-88769288D01*
X87468309Y-88894764D01*
X87491978Y-88945082D01*
X87444592Y-88967294D01*
X87328429Y-88978150D01*
X87307525Y-88978364D01*
X87239206Y-88974929D01*
X87179451Y-88956211D01*
X87117522Y-88909587D01*
X87042680Y-88822435D01*
X86944188Y-88682132D01*
X86811307Y-88476057D01*
X86633300Y-88191587D01*
X86619946Y-88170137D01*
X86452779Y-87901087D01*
X86302796Y-87658735D01*
X86180451Y-87460048D01*
X86096199Y-87321995D01*
X86062891Y-87265977D01*
X86021988Y-87197613D01*
X85931699Y-87049463D01*
X85799363Y-86833476D01*
X85632318Y-86561602D01*
X85437899Y-86245790D01*
X85223446Y-85897990D01*
X85119154Y-85729037D01*
X84897890Y-85370428D01*
X84693256Y-85038239D01*
X84512591Y-84744423D01*
X84363233Y-84500934D01*
X84252519Y-84319726D01*
X84187787Y-84212751D01*
X84175418Y-84191664D01*
X84125134Y-84107025D01*
X84032271Y-83955157D01*
X83911632Y-83760156D01*
X83818807Y-83611246D01*
X83650702Y-83340972D01*
X83464526Y-83039400D01*
X83292232Y-82758351D01*
X83239083Y-82671064D01*
X82962042Y-82214932D01*
X82962042Y-88978364D01*
X82584547Y-88978364D01*
X82584547Y-81584052D01*
X82804937Y-81600634D01*
G37*
G36*
X81249834Y-81600318D02*
G01*
X81425099Y-81617217D01*
X81438955Y-85297790D01*
X81452812Y-88978364D01*
X81074568Y-88978364D01*
X81074568Y-81583420D01*
X81249834Y-81600318D01*
G37*
G36*
X84567076Y-85191604D02*
G01*
X84642347Y-85299786D01*
X84701607Y-85394362D01*
X84849515Y-85639235D01*
X84849515Y-88978364D01*
X84687732Y-88978364D01*
X84573883Y-88974447D01*
X84525552Y-88965015D01*
X84525540Y-88964882D01*
X84521650Y-88784536D01*
X84518412Y-88531839D01*
X84515823Y-88221401D01*
X84513879Y-87867833D01*
X84512579Y-87485743D01*
X84511919Y-87089741D01*
X84511895Y-86694437D01*
X84512505Y-86314441D01*
X84513746Y-85964363D01*
X84515615Y-85658812D01*
X84518108Y-85412398D01*
X84521222Y-85239731D01*
X84524955Y-85155421D01*
X84526341Y-85149477D01*
X84567076Y-85191604D01*
G37*
G36*
X82188296Y-115456574D02*
G01*
X82194561Y-115420688D01*
X82189605Y-115396025D01*
X82203130Y-115269945D01*
X82280004Y-115121410D01*
X82394672Y-114989026D01*
X82507191Y-114916297D01*
X82752306Y-114862033D01*
X82963733Y-114905751D01*
X83156182Y-115047068D01*
X83277925Y-115190736D01*
X83330973Y-115327561D01*
X83339537Y-115445941D01*
X83323690Y-115600066D01*
X83259991Y-115718613D01*
X83148913Y-115828828D01*
X83015411Y-115930833D01*
X82900129Y-115993656D01*
X82865792Y-116002408D01*
X82615755Y-115986525D01*
X82437453Y-115910453D01*
X82369749Y-115876845D01*
X82294375Y-115872201D01*
X82186165Y-115901950D01*
X82019956Y-115971520D01*
X81899563Y-116026476D01*
X81610985Y-116153555D01*
X81403337Y-116228857D01*
X81264451Y-116255061D01*
X81182160Y-116234851D01*
X81150521Y-116191520D01*
X81135883Y-116072516D01*
X81201163Y-115970783D01*
X81357752Y-115872105D01*
X81435376Y-115836038D01*
X81728368Y-115706524D01*
X81936298Y-115611905D01*
X82073023Y-115544098D01*
X82116824Y-115517015D01*
X82546584Y-115517015D01*
X82613866Y-115600130D01*
X82713680Y-115660683D01*
X82793549Y-115655719D01*
X82901307Y-115581113D01*
X82909319Y-115574644D01*
X82990551Y-115489889D01*
X82990238Y-115407624D01*
X82967323Y-115358933D01*
X82861987Y-115261199D01*
X82745461Y-115241209D01*
X82622100Y-115262873D01*
X82561386Y-115347398D01*
X82550659Y-115384419D01*
X82546584Y-115517015D01*
X82116824Y-115517015D01*
X82152402Y-115495016D01*
X82188296Y-115456574D01*
G37*
G36*
X93498462Y-105531528D02*
G01*
X93534037Y-105437809D01*
X93600042Y-105322233D01*
X93705961Y-105167415D01*
X93861277Y-104955967D01*
X93929677Y-104864711D01*
X94388111Y-104864711D01*
X94418427Y-104961254D01*
X94534836Y-105077543D01*
X94625348Y-105150825D01*
X94907052Y-105373038D01*
X95055354Y-105199500D01*
X95150357Y-105054647D01*
X95201041Y-104911664D01*
X95203655Y-104881598D01*
X95160503Y-104691160D01*
X95047955Y-104562630D01*
X94891377Y-104506408D01*
X94716133Y-104532891D01*
X94575703Y-104624170D01*
X94441374Y-104761241D01*
X94388111Y-104864711D01*
X93929677Y-104864711D01*
X93999755Y-104771217D01*
X94209816Y-104504237D01*
X94383067Y-104319029D01*
X94536896Y-104204117D01*
X94688689Y-104148020D01*
X94855832Y-104139263D01*
X94943640Y-104148102D01*
X95150766Y-104210907D01*
X95341314Y-104352782D01*
X95360563Y-104371676D01*
X95478135Y-104502397D01*
X95535423Y-104619457D01*
X95553344Y-104774260D01*
X95554186Y-104847521D01*
X95550814Y-104965121D01*
X95533902Y-105065896D01*
X95493256Y-105170043D01*
X95418685Y-105297757D01*
X95299994Y-105469237D01*
X95126989Y-105704678D01*
X95110116Y-105727395D01*
X94936663Y-105952130D01*
X94773391Y-106148019D01*
X94636442Y-106296751D01*
X94541955Y-106380014D01*
X94527855Y-106388011D01*
X94277187Y-106448116D01*
X94012514Y-106422927D01*
X93796811Y-106328019D01*
X93603146Y-106151487D01*
X93502461Y-105935533D01*
X93480671Y-105722950D01*
X93480950Y-105713934D01*
X93821555Y-105713934D01*
X93823790Y-105787157D01*
X93828136Y-105802705D01*
X93930276Y-105974921D01*
X94098637Y-106062352D01*
X94207098Y-106073480D01*
X94347817Y-106051763D01*
X94461891Y-105969923D01*
X94531887Y-105886472D01*
X94615162Y-105761799D01*
X94655823Y-105669532D01*
X94655969Y-105649960D01*
X94605928Y-105593198D01*
X94494753Y-105495911D01*
X94374109Y-105400446D01*
X94219846Y-105291105D01*
X94125516Y-105247409D01*
X94072072Y-105261551D01*
X94063040Y-105272945D01*
X93931640Y-105478344D01*
X93854325Y-105618168D01*
X93821555Y-105713934D01*
X93480950Y-105713934D01*
X93483834Y-105620780D01*
X93498462Y-105531528D01*
G37*
G36*
X58492297Y-82247064D02*
G01*
X60662891Y-82264351D01*
X61004373Y-82442630D01*
X61407103Y-82704310D01*
X61728320Y-83022406D01*
X61961187Y-83387535D01*
X62098870Y-83790314D01*
X62128345Y-83985492D01*
X62126315Y-84383281D01*
X62049151Y-84752194D01*
X61903042Y-85063476D01*
X61893177Y-85078281D01*
X61825144Y-85184988D01*
X61795946Y-85270432D01*
X61810232Y-85362345D01*
X61872654Y-85488456D01*
X61987863Y-85676495D01*
X61995561Y-85688767D01*
X62053626Y-85798295D01*
X62089677Y-85920857D01*
X62108770Y-86085766D01*
X62115959Y-86322338D01*
X62116459Y-86389829D01*
X62097776Y-86772596D01*
X62030346Y-87083947D01*
X61903321Y-87353442D01*
X61705858Y-87610640D01*
X61644494Y-87676195D01*
X61455653Y-87861985D01*
X61277205Y-88009354D01*
X61093428Y-88122652D01*
X60888603Y-88206230D01*
X60647009Y-88264441D01*
X60352928Y-88301635D01*
X59990640Y-88322164D01*
X59544423Y-88330379D01*
X59278125Y-88331230D01*
X58047392Y-88331230D01*
X58047392Y-88007663D01*
X59193358Y-88007079D01*
X59662287Y-88003975D01*
X60039433Y-87992796D01*
X60340778Y-87969945D01*
X60582301Y-87931825D01*
X60779983Y-87874841D01*
X60949804Y-87795395D01*
X61107745Y-87689891D01*
X61269787Y-87554733D01*
X61292021Y-87534766D01*
X61551459Y-87237258D01*
X61712441Y-86899190D01*
X61778523Y-86512443D01*
X61780679Y-86419743D01*
X61753344Y-86068585D01*
X61664649Y-85780227D01*
X61503864Y-85522238D01*
X61470086Y-85480843D01*
X61329551Y-85313827D01*
X61461723Y-85137284D01*
X61629909Y-84885747D01*
X61729159Y-84656148D01*
X61774947Y-84403287D01*
X61783425Y-84197488D01*
X61777376Y-83962935D01*
X61748013Y-83785106D01*
X61683916Y-83613528D01*
X61623901Y-83492328D01*
X61397293Y-83169357D01*
X61093558Y-82906250D01*
X60735350Y-82721925D01*
X60677433Y-82701954D01*
X60588747Y-82678021D01*
X60478528Y-82658773D01*
X60334988Y-82643733D01*
X60146337Y-82632423D01*
X59900787Y-82624367D01*
X59586549Y-82619087D01*
X59191834Y-82616106D01*
X58704854Y-82614946D01*
X58526550Y-82614882D01*
X56645269Y-82614882D01*
X56645269Y-88978364D01*
X56321702Y-88978364D01*
X56321702Y-82229777D01*
X58492297Y-82247064D01*
G37*
G36*
X80777965Y-88951400D02*
G01*
X80602325Y-88968326D01*
X80426684Y-88985253D01*
X80440541Y-85301235D01*
X80454399Y-81617217D01*
X80777965Y-81617217D01*
X80777965Y-88951400D01*
G37*
G36*
X81303589Y-126659648D02*
G01*
X81344207Y-126687387D01*
X81344207Y-134062015D01*
X81019897Y-134062015D01*
X81047605Y-126646941D01*
X81195906Y-126646941D01*
X81303589Y-126659648D01*
G37*
G36*
X100659198Y-82574230D02*
G01*
X101073007Y-82617092D01*
X101477998Y-82695715D01*
X101839729Y-82805290D01*
X102076878Y-82913153D01*
X102231762Y-83009212D01*
X102294541Y-83081871D01*
X102272186Y-83150356D01*
X102188704Y-83221654D01*
X102096747Y-83279507D01*
X102020579Y-83283251D01*
X101911464Y-83231691D01*
X101880448Y-83214094D01*
X101564668Y-83077820D01*
X101180143Y-82981254D01*
X100760222Y-82929316D01*
X100338251Y-82926929D01*
X100098796Y-82951202D01*
X99885484Y-82988691D01*
X99739154Y-83036423D01*
X99619271Y-83113202D01*
X99489054Y-83234076D01*
X99339241Y-83406242D01*
X99258315Y-83566876D01*
X99229382Y-83698047D01*
X99222578Y-84008950D01*
X99287202Y-84287780D01*
X99414623Y-84513887D01*
X99596210Y-84666618D01*
X99643413Y-84688664D01*
X99766270Y-84719559D01*
X99967090Y-84749677D01*
X100216025Y-84775195D01*
X100434653Y-84789983D01*
X100762654Y-84808609D01*
X101007615Y-84829123D01*
X101194301Y-84856723D01*
X101347477Y-84896607D01*
X101491908Y-84953974D01*
X101652359Y-85034022D01*
X101688500Y-85053184D01*
X102008633Y-85281417D01*
X102260876Y-85578065D01*
X102443205Y-85926137D01*
X102553599Y-86308640D01*
X102590036Y-86708583D01*
X102550493Y-87108976D01*
X102432949Y-87492828D01*
X102235381Y-87843145D01*
X102046479Y-88061172D01*
X101804742Y-88266471D01*
X101548411Y-88416017D01*
X101238393Y-88530766D01*
X101097732Y-88569773D01*
X100810772Y-88619561D01*
X100458176Y-88643941D01*
X100079143Y-88642847D01*
X99712872Y-88616211D01*
X99436989Y-88572614D01*
X98986138Y-88457204D01*
X98611198Y-88316480D01*
X98280973Y-88137831D01*
X98158330Y-88055693D01*
X97958228Y-87914611D01*
X98080296Y-87799934D01*
X98202365Y-87685257D01*
X98550038Y-87869666D01*
X98863808Y-88023483D01*
X99154948Y-88133895D01*
X99466615Y-88214520D01*
X99841970Y-88278976D01*
X99851632Y-88280367D01*
X100338998Y-88313190D01*
X100799329Y-88272267D01*
X101216033Y-88161787D01*
X101572520Y-87985939D01*
X101820532Y-87783285D01*
X102012215Y-87522957D01*
X102161374Y-87202165D01*
X102247119Y-86866108D01*
X102248281Y-86857815D01*
X102245604Y-86586477D01*
X102180450Y-86278212D01*
X102065581Y-85973367D01*
X101913762Y-85712291D01*
X101867379Y-85653706D01*
X101709260Y-85490875D01*
X101539028Y-85368473D01*
X101337040Y-85279737D01*
X101083654Y-85217904D01*
X100759227Y-85176211D01*
X100408088Y-85151289D01*
X100051183Y-85127415D01*
X99782516Y-85097003D01*
X99582474Y-85054574D01*
X99431443Y-84994648D01*
X99309810Y-84911746D01*
X99213458Y-84817564D01*
X99037957Y-84598575D01*
X98932193Y-84385957D01*
X98881564Y-84140322D01*
X98870948Y-83893519D01*
X98903062Y-83514961D01*
X99004767Y-83210365D01*
X99183503Y-82970857D01*
X99446711Y-82787562D01*
X99801831Y-82651605D01*
X99942898Y-82615042D01*
X100271014Y-82571943D01*
X100659198Y-82574230D01*
G37*
G36*
X83942934Y-84167750D02*
G01*
X84016240Y-84279226D01*
X84092929Y-84407981D01*
X84255297Y-84691102D01*
X84256309Y-88978364D01*
X83878815Y-88978364D01*
X83878815Y-86551612D01*
X83879371Y-86051659D01*
X83880962Y-85586437D01*
X83883473Y-85166708D01*
X83886790Y-84803235D01*
X83890798Y-84506781D01*
X83895382Y-84288108D01*
X83900428Y-84157980D01*
X83904688Y-84124860D01*
X83942934Y-84167750D01*
G37*
G36*
X84385253Y-81593326D02*
G01*
X84454250Y-81612550D01*
X84520365Y-81662936D01*
X84598061Y-81759494D01*
X84701804Y-81917235D01*
X84846057Y-82151169D01*
X84857552Y-82169977D01*
X84983680Y-82376048D01*
X85154307Y-82654340D01*
X85357384Y-82985229D01*
X85580863Y-83349090D01*
X85812697Y-83726300D01*
X86008065Y-84043969D01*
X86477568Y-84807195D01*
X86893383Y-85483313D01*
X87258402Y-86077038D01*
X87575517Y-86593088D01*
X87847619Y-87036176D01*
X88077600Y-87411020D01*
X88268350Y-87722336D01*
X88422763Y-87974838D01*
X88543729Y-88173243D01*
X88634139Y-88322267D01*
X88696886Y-88426626D01*
X88734861Y-88491035D01*
X88735781Y-88492630D01*
X88830171Y-88643738D01*
X88907583Y-88756060D01*
X88985914Y-88882730D01*
X88979101Y-88950388D01*
X88879167Y-88975375D01*
X88799728Y-88977038D01*
X88700576Y-88971442D01*
X88624972Y-88944133D01*
X88553416Y-88877018D01*
X88466409Y-88752006D01*
X88349272Y-88559098D01*
X88247228Y-88389030D01*
X88108565Y-88159584D01*
X87946232Y-87892012D01*
X87773177Y-87607565D01*
X87602347Y-87327495D01*
X87446690Y-87073051D01*
X87319155Y-86865486D01*
X87232687Y-86726051D01*
X87224735Y-86713395D01*
X87177550Y-86637325D01*
X87087165Y-86490643D01*
X86966723Y-86294708D01*
X86834036Y-86078494D01*
X86659508Y-85794130D01*
X86465926Y-85479114D01*
X86282195Y-85180470D01*
X86187599Y-85026902D01*
X85909310Y-84574336D01*
X85581246Y-84038867D01*
X85209233Y-83430014D01*
X84975196Y-83046304D01*
X84834526Y-82817389D01*
X84663626Y-82541994D01*
X84490171Y-82264635D01*
X84411588Y-82139844D01*
X84283785Y-81935465D01*
X84180630Y-81766636D01*
X84113874Y-81652847D01*
X84094526Y-81614048D01*
X84142258Y-81598807D01*
X84260741Y-81590672D01*
X84298908Y-81590253D01*
X84385253Y-81593326D01*
G37*
G36*
X79510662Y-88978364D02*
G01*
X79187095Y-88978364D01*
X79187095Y-85338236D01*
X79186900Y-84721167D01*
X79186338Y-84135843D01*
X79185440Y-83591181D01*
X79184240Y-83096101D01*
X79182770Y-82659520D01*
X79181063Y-82290357D01*
X79179151Y-81997531D01*
X79177068Y-81789960D01*
X79174846Y-81676562D01*
X79173613Y-81657663D01*
X79210965Y-81625822D01*
X79320079Y-81601955D01*
X79335396Y-81600318D01*
X79510662Y-81583420D01*
X79510662Y-88978364D01*
G37*
G36*
X65597286Y-83762542D02*
G01*
X65597817Y-84349369D01*
X65600291Y-84839491D01*
X65606026Y-85244057D01*
X65616343Y-85574214D01*
X65632563Y-85841113D01*
X65656003Y-86055902D01*
X65687986Y-86229728D01*
X65729830Y-86373742D01*
X65782855Y-86499092D01*
X65848381Y-86616926D01*
X65927729Y-86738393D01*
X65954137Y-86776791D01*
X66254052Y-87120947D01*
X66616139Y-87377315D01*
X67038919Y-87545180D01*
X67520911Y-87623825D01*
X67716737Y-87630168D01*
X68227604Y-87586954D01*
X68674627Y-87457004D01*
X69058689Y-87239854D01*
X69380673Y-86935044D01*
X69577700Y-86655790D01*
X69643842Y-86535587D01*
X69698744Y-86409438D01*
X69743435Y-86266391D01*
X69778941Y-86095491D01*
X69806290Y-85885784D01*
X69826509Y-85626316D01*
X69840625Y-85306134D01*
X69849665Y-84914282D01*
X69854658Y-84439808D01*
X69856630Y-83871756D01*
X69856786Y-83679956D01*
X69857583Y-81590253D01*
X70186410Y-81590253D01*
X70154186Y-86308937D01*
X69983864Y-86634655D01*
X69722758Y-87050644D01*
X69411090Y-87383565D01*
X69027791Y-87654098D01*
X68846095Y-87751261D01*
X68632525Y-87854580D01*
X68468613Y-87921795D01*
X68318072Y-87961472D01*
X68144612Y-87982173D01*
X67911945Y-87992461D01*
X67812762Y-87995112D01*
X67526859Y-87998103D01*
X67311999Y-87987353D01*
X67131779Y-87958550D01*
X66949799Y-87907383D01*
X66883799Y-87885078D01*
X66412273Y-87667806D01*
X66011469Y-87370961D01*
X65686527Y-87000595D01*
X65442586Y-86562763D01*
X65284787Y-86063516D01*
X65268754Y-85983106D01*
X65257713Y-85867880D01*
X65248262Y-85658691D01*
X65240619Y-85369423D01*
X65235000Y-85013960D01*
X65231620Y-84606186D01*
X65230696Y-84159984D01*
X65232445Y-83689238D01*
X65232614Y-83664210D01*
X65246755Y-81617217D01*
X65422021Y-81600318D01*
X65597286Y-81583420D01*
X65597286Y-83762542D01*
G37*
G36*
X107500557Y-81967517D02*
G01*
X108108030Y-82061364D01*
X108641060Y-82226858D01*
X109095872Y-82462722D01*
X109218330Y-82548383D01*
X109400520Y-82684862D01*
X109272258Y-82783492D01*
X109162927Y-82858421D01*
X109078498Y-82873018D01*
X108977812Y-82824591D01*
X108884240Y-82758106D01*
X108553643Y-82569824D01*
X108142207Y-82426098D01*
X107669428Y-82331919D01*
X107154802Y-82292274D01*
X107059938Y-82291315D01*
X106556214Y-82323966D01*
X106133715Y-82423630D01*
X105787181Y-82592873D01*
X105511354Y-82834259D01*
X105301638Y-83149045D01*
X105157864Y-83544327D01*
X105118496Y-83946664D01*
X105182110Y-84342321D01*
X105347281Y-84717559D01*
X105484860Y-84915219D01*
X105643700Y-85087757D01*
X105817459Y-85216036D01*
X106025880Y-85307089D01*
X106288703Y-85367953D01*
X106625670Y-85405661D01*
X106905991Y-85421612D01*
X107321409Y-85450349D01*
X107646717Y-85502313D01*
X107898632Y-85585857D01*
X108093868Y-85709338D01*
X108249142Y-85881111D01*
X108381169Y-86109532D01*
X108411438Y-86174117D01*
X108513403Y-86519456D01*
X108515231Y-86864259D01*
X108423483Y-87192239D01*
X108244720Y-87487106D01*
X107985504Y-87732571D01*
X107723041Y-87883126D01*
X107582528Y-87939794D01*
X107448327Y-87976430D01*
X107291726Y-87996822D01*
X107084012Y-88004756D01*
X106805779Y-88004125D01*
X106472296Y-87994514D01*
X106210350Y-87971009D01*
X105984025Y-87929035D01*
X105791128Y-87874879D01*
X105567774Y-87795709D01*
X105356247Y-87706764D01*
X105205443Y-87629042D01*
X105005617Y-87505543D01*
X105133405Y-87407029D01*
X105249980Y-87346895D01*
X105342084Y-87343280D01*
X105720080Y-87487276D01*
X106073775Y-87576785D01*
X106449571Y-87621066D01*
X106779963Y-87630168D01*
X107146057Y-87620592D01*
X107426182Y-87588705D01*
X107640780Y-87529770D01*
X107810295Y-87439050D01*
X107893721Y-87372082D01*
X108056150Y-87158074D01*
X108140386Y-86899731D01*
X108149704Y-86622471D01*
X108087376Y-86351715D01*
X107956678Y-86112886D01*
X107760883Y-85931403D01*
X107703998Y-85898912D01*
X107583694Y-85849748D01*
X107437729Y-85818529D01*
X107239906Y-85801808D01*
X106964027Y-85796142D01*
X106921621Y-85796039D01*
X106409521Y-85766350D01*
X105979433Y-85675816D01*
X105621787Y-85520555D01*
X105327012Y-85296690D01*
X105134374Y-85071675D01*
X104975124Y-84818889D01*
X104870951Y-84567347D01*
X104812441Y-84283860D01*
X104790176Y-83935235D01*
X104789246Y-83855221D01*
X104792271Y-83592653D01*
X104808054Y-83404827D01*
X104841837Y-83258891D01*
X104898863Y-83121995D01*
X104909735Y-83100232D01*
X105151966Y-82712814D01*
X105447014Y-82407084D01*
X105800589Y-82180543D01*
X106218399Y-82030698D01*
X106706154Y-81955050D01*
X107269563Y-81951105D01*
X107500557Y-81967517D01*
G37*
G36*
X96605779Y-81967748D02*
G01*
X93208326Y-81967748D01*
X93208326Y-82237387D01*
X96605779Y-82237387D01*
X96605779Y-82614882D01*
X93208326Y-82614882D01*
X93208326Y-82884521D01*
X96605779Y-82884521D01*
X96605779Y-83208088D01*
X93208326Y-83208088D01*
X93208326Y-84502355D01*
X94934016Y-84502355D01*
X94934016Y-84825922D01*
X93208326Y-84825922D01*
X93208326Y-85095561D01*
X94934016Y-85095561D01*
X94934016Y-85473056D01*
X93208326Y-85473056D01*
X93208326Y-85742695D01*
X94934016Y-85742695D01*
X94934016Y-86120189D01*
X93208326Y-86120189D01*
X93208326Y-87360529D01*
X96605779Y-87360529D01*
X96605779Y-87684096D01*
X93208326Y-87684096D01*
X93208326Y-88007663D01*
X96605779Y-88007663D01*
X96605779Y-88331230D01*
X93208326Y-88331230D01*
X93208326Y-88599332D01*
X94893571Y-88613583D01*
X96578815Y-88627833D01*
X96595713Y-88803098D01*
X96612612Y-88978364D01*
X94746993Y-88978364D01*
X94223254Y-88977500D01*
X93798787Y-88974707D01*
X93465022Y-88969678D01*
X93213389Y-88962109D01*
X93035316Y-88951693D01*
X92922232Y-88938125D01*
X92865568Y-88921099D01*
X92855619Y-88910954D01*
X92851441Y-88846814D01*
X92847883Y-88683862D01*
X92844972Y-88431138D01*
X92842739Y-88097682D01*
X92841211Y-87692537D01*
X92840419Y-87224743D01*
X92840391Y-86703342D01*
X92841155Y-86137374D01*
X92842741Y-85535880D01*
X92843829Y-85230381D01*
X92857796Y-81617217D01*
X94731787Y-81603036D01*
X96605779Y-81588856D01*
X96605779Y-81967748D01*
G37*
G36*
X84866240Y-92981542D02*
G01*
X85048295Y-92702279D01*
X85300543Y-92464981D01*
X85577775Y-92324455D01*
X85903805Y-92269624D01*
X85981999Y-92267960D01*
X86339924Y-92316446D01*
X86647997Y-92454265D01*
X86894760Y-92669962D01*
X87068759Y-92952081D01*
X87158539Y-93289167D01*
X87168411Y-93454372D01*
X87120707Y-93794981D01*
X86986158Y-94103097D01*
X86777612Y-94356492D01*
X86559189Y-94508474D01*
X86338789Y-94581943D01*
X86064006Y-94618445D01*
X85782674Y-94615428D01*
X85542629Y-94570339D01*
X85523613Y-94563739D01*
X85364584Y-94477681D01*
X85187851Y-94341230D01*
X85084324Y-94240215D01*
X84879824Y-93945220D01*
X84775069Y-93626825D01*
X84770801Y-93327125D01*
X85083523Y-93327125D01*
X85101960Y-93575231D01*
X85211882Y-93818523D01*
X85267303Y-93891801D01*
X85509134Y-94116980D01*
X85765230Y-94238308D01*
X86029974Y-94254567D01*
X86297751Y-94164538D01*
X86359202Y-94128654D01*
X86572422Y-93961504D01*
X86701766Y-93769799D01*
X86765306Y-93552261D01*
X86763856Y-93272768D01*
X86657962Y-93008079D01*
X86495028Y-92807931D01*
X86353258Y-92691375D01*
X86206111Y-92630357D01*
X86019515Y-92603643D01*
X85727997Y-92623280D01*
X85478808Y-92722282D01*
X85281778Y-92883815D01*
X85146739Y-93091041D01*
X85083523Y-93327125D01*
X84770801Y-93327125D01*
X84770421Y-93300456D01*
X84866240Y-92981542D01*
G37*
G36*
X94300985Y-96398925D02*
G01*
X94439096Y-96296311D01*
X94673082Y-96193767D01*
X94862320Y-96128194D01*
X95072392Y-96035464D01*
X95287581Y-95904056D01*
X95374635Y-95836853D01*
X95676231Y-95581327D01*
X95988179Y-95322379D01*
X96270068Y-95093469D01*
X96330620Y-95045243D01*
X96453417Y-94946886D01*
X96634734Y-94800350D01*
X96849668Y-94625813D01*
X97062810Y-94452037D01*
X97286285Y-94269664D01*
X97499482Y-94096062D01*
X97677621Y-93951385D01*
X97792136Y-93858831D01*
X98098839Y-93611979D01*
X98332033Y-93422123D01*
X98502283Y-93278697D01*
X98620158Y-93171141D01*
X98696223Y-93088891D01*
X98741045Y-93021384D01*
X98765191Y-92958059D01*
X98779229Y-92888352D01*
X98782346Y-92869010D01*
X98871475Y-92618021D01*
X99038629Y-92409796D01*
X99259417Y-92273727D01*
X99283365Y-92265267D01*
X99520296Y-92224961D01*
X99776494Y-92240211D01*
X100005479Y-92305566D01*
X100103765Y-92361474D01*
X100261793Y-92522737D01*
X100393081Y-92734955D01*
X100473653Y-92954182D01*
X100487694Y-93065127D01*
X100445468Y-93333361D01*
X100327798Y-93569443D01*
X100152371Y-93752858D01*
X99936873Y-93863092D01*
X99780168Y-93885795D01*
X99674793Y-93893896D01*
X99573568Y-93926406D01*
X99455106Y-93995628D01*
X99298023Y-94113870D01*
X99100720Y-94276771D01*
X98862830Y-94476337D01*
X98580979Y-94711868D01*
X98294367Y-94950648D01*
X98092787Y-95118048D01*
X97705819Y-95439000D01*
X97389926Y-95701550D01*
X97132962Y-95915901D01*
X96922780Y-96092261D01*
X96747234Y-96240835D01*
X96594178Y-96371828D01*
X96451467Y-96495446D01*
X96398419Y-96541739D01*
X96234786Y-96681043D01*
X96101092Y-96787924D01*
X96018237Y-96845961D01*
X96003813Y-96851824D01*
X95960216Y-96895493D01*
X95881544Y-97010898D01*
X95783535Y-97174639D01*
X95766894Y-97204146D01*
X95659744Y-97387640D01*
X95562345Y-97540460D01*
X95494474Y-97631706D01*
X95490764Y-97635568D01*
X95351208Y-97711490D01*
X95194870Y-97685477D01*
X95032133Y-97559976D01*
X94996478Y-97519225D01*
X94835376Y-97323780D01*
X94520683Y-97574845D01*
X94317592Y-97739283D01*
X94082274Y-97933356D01*
X93864180Y-98116265D01*
X93855460Y-98123667D01*
X93634328Y-98310900D01*
X93382422Y-98523284D01*
X93151821Y-98716917D01*
X93137789Y-98728662D01*
X92924287Y-98907500D01*
X92698595Y-99096818D01*
X92504986Y-99259474D01*
X92482283Y-99278576D01*
X92307335Y-99425005D01*
X92086709Y-99608544D01*
X91858093Y-99797868D01*
X91770867Y-99869836D01*
X91590776Y-100018926D01*
X91443142Y-100142457D01*
X91347014Y-100224415D01*
X91320853Y-100248155D01*
X91272810Y-100290562D01*
X91155282Y-100390752D01*
X90981623Y-100537442D01*
X90765192Y-100719351D01*
X90519344Y-100925198D01*
X90511936Y-100931390D01*
X90170982Y-101216464D01*
X89867890Y-101470216D01*
X89582015Y-101709994D01*
X89292716Y-101953144D01*
X88979348Y-102217013D01*
X88621270Y-102518949D01*
X88278775Y-102807975D01*
X87996785Y-103045336D01*
X87686658Y-103305295D01*
X87383591Y-103558409D01*
X87122782Y-103775237D01*
X87092363Y-103800426D01*
X86700386Y-104124990D01*
X86380624Y-104390203D01*
X86122042Y-104605287D01*
X85913606Y-104779466D01*
X85744281Y-104921961D01*
X85603034Y-105041996D01*
X85478829Y-105148794D01*
X85469685Y-105156707D01*
X85298886Y-105302976D01*
X85081823Y-105486608D01*
X84855474Y-105676381D01*
X84767128Y-105749913D01*
X84552742Y-105928470D01*
X84336790Y-106109318D01*
X84153869Y-106263448D01*
X84091791Y-106316155D01*
X83863551Y-106510025D01*
X83622930Y-106713270D01*
X83388999Y-106909897D01*
X83180832Y-107083915D01*
X83017501Y-107219332D01*
X82920824Y-107297985D01*
X82798715Y-107394712D01*
X83315655Y-107826134D01*
X83544172Y-108016908D01*
X83770365Y-108205847D01*
X83966201Y-108369529D01*
X84090197Y-108473268D01*
X84214632Y-108577392D01*
X84403287Y-108735157D01*
X84637612Y-108931056D01*
X84899055Y-109149578D01*
X85151417Y-109360469D01*
X85401449Y-109569834D01*
X85622564Y-109755828D01*
X85801596Y-109907307D01*
X85925380Y-110013128D01*
X85980750Y-110062148D01*
X85981999Y-110063476D01*
X86033548Y-110109857D01*
X86153829Y-110212149D01*
X86328046Y-110358031D01*
X86541401Y-110535182D01*
X86779099Y-110731280D01*
X87026340Y-110934005D01*
X87083782Y-110980911D01*
X87222199Y-111095414D01*
X87414054Y-111256182D01*
X87630887Y-111439296D01*
X87789514Y-111574117D01*
X88010724Y-111762299D01*
X88231764Y-111949631D01*
X88422402Y-112110524D01*
X88522253Y-112194287D01*
X88857909Y-112475204D01*
X89224230Y-112782868D01*
X89580899Y-113083373D01*
X89837838Y-113300624D01*
X90042061Y-113472170D01*
X90282445Y-113671880D01*
X90511262Y-113860128D01*
X90538900Y-113882695D01*
X90731164Y-114040858D01*
X90911484Y-114191527D01*
X91048782Y-114308665D01*
X91078178Y-114334480D01*
X91220751Y-114457642D01*
X91392111Y-114600846D01*
X91461601Y-114657566D01*
X91595596Y-114767891D01*
X91783461Y-114925165D01*
X91997328Y-115105968D01*
X92156026Y-115241209D01*
X92368202Y-115421815D01*
X92572089Y-115593789D01*
X92741078Y-115734767D01*
X92829832Y-115807451D01*
X92900377Y-115864537D01*
X92976518Y-115927025D01*
X93068969Y-116003955D01*
X93188445Y-116104365D01*
X93345659Y-116237295D01*
X93551324Y-116411784D01*
X93816157Y-116636871D01*
X94150869Y-116921594D01*
X94204114Y-116966899D01*
X94421351Y-117151054D01*
X94634375Y-117330455D01*
X94814774Y-117481234D01*
X94910261Y-117560105D01*
X95041958Y-117668605D01*
X95231279Y-117825611D01*
X95453201Y-118010329D01*
X95682703Y-118201966D01*
X95689006Y-118207238D01*
X95918359Y-118398769D01*
X96140835Y-118583965D01*
X96331412Y-118742032D01*
X96465067Y-118852176D01*
X96467751Y-118854372D01*
X96606035Y-118969242D01*
X96797401Y-119130555D01*
X97013350Y-119314205D01*
X97169040Y-119447578D01*
X97422067Y-119665223D01*
X97608213Y-119819323D01*
X97744045Y-119914666D01*
X97846132Y-119956038D01*
X97931040Y-119948228D01*
X98015337Y-119896023D01*
X98115590Y-119804209D01*
X98181797Y-119740226D01*
X98535533Y-119435031D01*
X98868089Y-119222846D01*
X99195956Y-119095617D01*
X99535624Y-119045292D01*
X99607910Y-119043743D01*
X99809891Y-119050909D01*
X99942662Y-119080270D01*
X100044219Y-119142220D01*
X100078213Y-119172387D01*
X100229002Y-119385408D01*
X100305907Y-119661303D01*
X100310788Y-119986167D01*
X100245505Y-120346091D01*
X100111919Y-120727169D01*
X99911890Y-121115493D01*
X99793686Y-121299124D01*
X99628246Y-121539583D01*
X99923594Y-121767442D01*
X100070966Y-121886907D01*
X100176816Y-121983718D01*
X100218897Y-122037475D01*
X100218942Y-122038261D01*
X100179469Y-122174762D01*
X100080028Y-122242581D01*
X99949088Y-122234772D01*
X99815118Y-122144394D01*
X99809360Y-122138148D01*
X99688851Y-122023069D01*
X99556639Y-121917563D01*
X99406650Y-121810654D01*
X99050278Y-122114875D01*
X98735673Y-122362927D01*
X98448688Y-122540041D01*
X98156597Y-122664673D01*
X97980938Y-122717795D01*
X97797192Y-122764672D01*
X97678336Y-122782705D01*
X97585278Y-122771690D01*
X97478924Y-122731422D01*
X97441660Y-122714976D01*
X97205869Y-122552955D01*
X97052648Y-122335118D01*
X97630407Y-122335118D01*
X97675637Y-122353935D01*
X97791052Y-122340919D01*
X97946243Y-122303136D01*
X98110797Y-122247653D01*
X98225846Y-122196757D01*
X98363080Y-122112903D01*
X98544969Y-121983557D01*
X98735338Y-121834638D01*
X98761391Y-121813048D01*
X99100938Y-121529329D01*
X98891469Y-121352101D01*
X98760305Y-121249988D01*
X98657407Y-121185543D01*
X98623913Y-121174070D01*
X98573039Y-121212795D01*
X98470480Y-121317215D01*
X98332022Y-121468881D01*
X98173451Y-121649345D01*
X98010554Y-121840158D01*
X97859118Y-122022872D01*
X97734929Y-122179036D01*
X97653774Y-122290202D01*
X97630407Y-122335118D01*
X97052648Y-122335118D01*
X97036214Y-122311754D01*
X96985921Y-122184983D01*
X96957231Y-121953965D01*
X96958117Y-121946200D01*
X97265940Y-121946200D01*
X97279601Y-122023258D01*
X97311447Y-122064066D01*
X97363832Y-122043598D01*
X97454082Y-121951306D01*
X97514324Y-121880337D01*
X97646836Y-121723351D01*
X97817415Y-121524291D01*
X97992774Y-121321963D01*
X98021384Y-121289214D01*
X98160570Y-121126523D01*
X98267410Y-120994813D01*
X98325527Y-120914571D01*
X98331469Y-120901255D01*
X98298812Y-120859032D01*
X98849728Y-120859032D01*
X99062467Y-121041089D01*
X99189247Y-121144657D01*
X99282164Y-121211556D01*
X99310029Y-121225171D01*
X99355284Y-121184543D01*
X99437376Y-121077028D01*
X99518967Y-120955863D01*
X99697677Y-120641457D01*
X99835998Y-120325874D01*
X99922880Y-120037888D01*
X99948023Y-119838555D01*
X99940345Y-119699234D01*
X99919520Y-119619448D01*
X99908857Y-119611920D01*
X99869230Y-119641821D01*
X99783494Y-119732615D01*
X99647327Y-119889359D01*
X99456408Y-120117108D01*
X99206415Y-120420920D01*
X98981575Y-120696788D01*
X98849728Y-120859032D01*
X98298812Y-120859032D01*
X98292933Y-120851431D01*
X98194108Y-120759861D01*
X98110759Y-120690385D01*
X97994201Y-120601771D01*
X97907040Y-120562458D01*
X97832435Y-120582265D01*
X97753545Y-120671010D01*
X97653528Y-120838513D01*
X97560001Y-121011485D01*
X97437821Y-121270189D01*
X97343292Y-121529498D01*
X97283603Y-121763480D01*
X97265940Y-121946200D01*
X96958117Y-121946200D01*
X96990390Y-121663409D01*
X97078484Y-121336872D01*
X97214598Y-120997909D01*
X97391819Y-120670075D01*
X97462166Y-120562485D01*
X97624782Y-120326129D01*
X97519835Y-120228661D01*
X98104710Y-120228661D01*
X98307966Y-120404361D01*
X98436775Y-120505664D01*
X98537902Y-120567498D01*
X98569647Y-120576763D01*
X98622989Y-120535918D01*
X98730029Y-120425860D01*
X98877077Y-120261589D01*
X99050444Y-120058107D01*
X99123290Y-119970075D01*
X99317087Y-119731033D01*
X99447405Y-119561663D01*
X99521562Y-119450275D01*
X99546879Y-119385176D01*
X99530675Y-119354674D01*
X99512042Y-119349162D01*
X99375984Y-119365320D01*
X99182479Y-119437370D01*
X98956649Y-119551812D01*
X98723616Y-119695145D01*
X98508501Y-119853870D01*
X98406377Y-119943357D01*
X98104710Y-120228661D01*
X97519835Y-120228661D01*
X97452329Y-120165966D01*
X97342504Y-120068290D01*
X97159617Y-119910819D01*
X96913942Y-119702227D01*
X96615756Y-119451186D01*
X96275335Y-119166368D01*
X95902953Y-118856445D01*
X95770433Y-118746516D01*
X95656327Y-118651379D01*
X95477516Y-118501612D01*
X95251747Y-118312112D01*
X94996771Y-118097777D01*
X94742409Y-117883671D01*
X94442051Y-117631008D01*
X94121564Y-117361971D01*
X93808673Y-117099799D01*
X93531106Y-116867732D01*
X93372988Y-116735903D01*
X92876516Y-116322275D01*
X92460142Y-115974459D01*
X92120656Y-115689766D01*
X91854847Y-115465507D01*
X91749541Y-115376028D01*
X91592520Y-115242947D01*
X91387292Y-115070047D01*
X91168539Y-114886520D01*
X91076775Y-114809786D01*
X90868455Y-114635048D01*
X90663681Y-114462017D01*
X90494564Y-114317872D01*
X90436206Y-114267554D01*
X90263651Y-114119678D01*
X90085547Y-113969864D01*
X90021636Y-113917023D01*
X89900261Y-113816163D01*
X89723083Y-113667273D01*
X89516279Y-113492409D01*
X89353081Y-113353735D01*
X89119975Y-113156743D01*
X88875250Y-112952489D01*
X88654323Y-112770422D01*
X88542392Y-112679637D01*
X88354851Y-112526634D01*
X88121332Y-112332606D01*
X87877345Y-112127186D01*
X87734568Y-112005540D01*
X87522484Y-111824810D01*
X87318502Y-111652741D01*
X87149294Y-111511740D01*
X87060556Y-111439298D01*
X86935512Y-111336999D01*
X86755226Y-111186782D01*
X86546335Y-111010934D01*
X86383888Y-110873056D01*
X86032899Y-110574078D01*
X85753089Y-110336030D01*
X85533639Y-110149777D01*
X85363728Y-110006187D01*
X85232535Y-109896126D01*
X85129240Y-109810461D01*
X85043022Y-109740058D01*
X85010251Y-109713608D01*
X84915780Y-109636215D01*
X84751821Y-109500403D01*
X84531491Y-109317098D01*
X84267906Y-109097230D01*
X83974185Y-108851726D01*
X83665518Y-108593254D01*
X82521852Y-107634684D01*
X82243115Y-107864487D01*
X82097712Y-107985400D01*
X81987510Y-108078967D01*
X81937413Y-108123941D01*
X81886797Y-108168812D01*
X81771874Y-108266098D01*
X81611690Y-108399770D01*
X81487958Y-108502177D01*
X81312727Y-108646902D01*
X81153442Y-108778888D01*
X80996011Y-108909952D01*
X80826342Y-109051911D01*
X80630343Y-109216581D01*
X80393919Y-109415779D01*
X80102980Y-109661321D01*
X79753777Y-109956283D01*
X79488036Y-110180628D01*
X79234540Y-110394328D01*
X79011035Y-110582443D01*
X78835269Y-110730038D01*
X78728657Y-110819128D01*
X78630399Y-110901172D01*
X78462006Y-111042258D01*
X78235866Y-111231986D01*
X77964371Y-111459954D01*
X77659910Y-111715761D01*
X77334873Y-111989007D01*
X77219025Y-112086431D01*
X76891376Y-112361756D01*
X76581377Y-112621787D01*
X76301116Y-112856422D01*
X76062677Y-113055559D01*
X75878145Y-113209096D01*
X75759606Y-113306931D01*
X75735164Y-113326771D01*
X75610343Y-113429145D01*
X75430336Y-113579480D01*
X75221764Y-113755450D01*
X75060033Y-113893013D01*
X74836541Y-114083320D01*
X74610742Y-114274695D01*
X74413959Y-114440632D01*
X74311679Y-114526266D01*
X74119076Y-114687078D01*
X73897940Y-114872277D01*
X73732013Y-115011617D01*
X73548503Y-115165201D01*
X73320794Y-115354646D01*
X73088062Y-115547390D01*
X73003988Y-115616758D01*
X72823774Y-115766472D01*
X72676080Y-115891463D01*
X72579994Y-115975443D01*
X72553974Y-116000685D01*
X72502811Y-116048000D01*
X72387380Y-116146230D01*
X72227466Y-116278701D01*
X72122551Y-116364310D01*
X71879229Y-116562689D01*
X71649072Y-116752522D01*
X71410277Y-116952068D01*
X71141040Y-117179585D01*
X70819558Y-117453333D01*
X70694569Y-117560105D01*
X70482166Y-117740690D01*
X70277928Y-117912647D01*
X70108510Y-118053622D01*
X70019367Y-118126347D01*
X69894292Y-118228809D01*
X69714154Y-118379283D01*
X69505616Y-118555395D01*
X69344576Y-118692589D01*
X69128103Y-118877050D01*
X68915797Y-119056702D01*
X68736079Y-119207558D01*
X68641698Y-119285795D01*
X68332248Y-119540091D01*
X68097040Y-119734698D01*
X67926533Y-119877851D01*
X67811188Y-119977785D01*
X67741465Y-120042732D01*
X67707824Y-120080929D01*
X67700471Y-120098243D01*
X67728199Y-120159092D01*
X67801086Y-120282979D01*
X67903687Y-120443728D01*
X67909529Y-120452579D01*
X68121211Y-120831718D01*
X68272021Y-121226463D01*
X68351049Y-121605023D01*
X68360293Y-121766143D01*
X68345990Y-122010117D01*
X68292096Y-122187361D01*
X68182135Y-122336494D01*
X68075043Y-122434755D01*
X67863504Y-122545377D01*
X67596137Y-122579562D01*
X67293476Y-122537041D01*
X67041393Y-122448354D01*
X66891487Y-122368919D01*
X66706243Y-122252748D01*
X66506388Y-122115246D01*
X66312644Y-121971817D01*
X66145738Y-121837866D01*
X66026395Y-121728798D01*
X65975338Y-121660019D01*
X65974781Y-121655538D01*
X65953493Y-121610073D01*
X65883226Y-121626726D01*
X65754374Y-121710150D01*
X65579150Y-121847164D01*
X65373841Y-121994485D01*
X65228244Y-122052823D01*
X65141298Y-122022300D01*
X65111943Y-121903036D01*
X65111936Y-121900379D01*
X65161484Y-121775368D01*
X65310211Y-121608598D01*
X65394012Y-121533161D01*
X65540705Y-121403013D01*
X65607123Y-121329530D01*
X66142365Y-121329530D01*
X66438174Y-121599883D01*
X66643032Y-121765194D01*
X66879765Y-121922474D01*
X67120948Y-122056671D01*
X67339160Y-122152734D01*
X67506978Y-122195613D01*
X67525205Y-122196519D01*
X67619981Y-122184607D01*
X67646543Y-122163481D01*
X67613302Y-122107652D01*
X67527553Y-121999747D01*
X67444314Y-121904065D01*
X67309948Y-121751127D01*
X67140669Y-121553691D01*
X66969852Y-121350741D01*
X66945481Y-121321414D01*
X66806151Y-121159291D01*
X66689829Y-121034723D01*
X66615157Y-120967263D01*
X66601487Y-120960661D01*
X66537472Y-120992312D01*
X66425717Y-121076648D01*
X66348230Y-121143544D01*
X66142365Y-121329530D01*
X65607123Y-121329530D01*
X65616261Y-121319420D01*
X65633167Y-121260822D01*
X65603910Y-121205657D01*
X65592023Y-121191257D01*
X65512216Y-121081914D01*
X65415995Y-120930143D01*
X65388214Y-120882616D01*
X65186830Y-120474525D01*
X65059740Y-120093820D01*
X65005057Y-119749018D01*
X65020893Y-119448633D01*
X65030457Y-119420614D01*
X65325535Y-119420614D01*
X65336846Y-119690253D01*
X65365935Y-119908580D01*
X65426050Y-120143792D01*
X65456713Y-120229531D01*
X65538318Y-120412220D01*
X65637216Y-120605151D01*
X65739172Y-120783945D01*
X65829956Y-120924220D01*
X65895333Y-121001594D01*
X65911997Y-121009460D01*
X65970201Y-120975998D01*
X66079615Y-120892699D01*
X66156810Y-120828523D01*
X66289775Y-120714695D01*
X66945481Y-120714695D01*
X66978880Y-120782049D01*
X67066831Y-120903664D01*
X67190968Y-121054335D01*
X67202999Y-121068129D01*
X67378344Y-121270985D01*
X67567137Y-121493555D01*
X67693371Y-121645136D01*
X67814272Y-121787239D01*
X67908421Y-121888862D01*
X67955648Y-121928251D01*
X67955850Y-121928257D01*
X67966352Y-121879605D01*
X67963860Y-121753090D01*
X67951714Y-121605255D01*
X67910708Y-121404935D01*
X67831791Y-121162006D01*
X67728105Y-120906321D01*
X67612792Y-120667730D01*
X67498993Y-120476086D01*
X67406323Y-120366388D01*
X67342473Y-120332007D01*
X67272255Y-120353103D01*
X67166809Y-120441035D01*
X67132019Y-120474348D01*
X67022237Y-120592235D01*
X66955193Y-120686360D01*
X66945481Y-120714695D01*
X66289775Y-120714695D01*
X66365803Y-120649610D01*
X66037958Y-120250823D01*
X65867695Y-120045720D01*
X65697628Y-119844190D01*
X65556445Y-119680127D01*
X65517824Y-119636325D01*
X65325535Y-119420614D01*
X65030457Y-119420614D01*
X65105360Y-119201179D01*
X65115192Y-119189085D01*
X65686532Y-119189085D01*
X65698898Y-119225513D01*
X65744956Y-119295647D01*
X65831454Y-119409897D01*
X65965142Y-119578672D01*
X66152766Y-119812383D01*
X66373294Y-120086811D01*
X66636988Y-120415403D01*
X66844414Y-120251119D01*
X66971299Y-120146194D01*
X67059581Y-120065015D01*
X67079941Y-120041367D01*
X67059153Y-119980414D01*
X66967436Y-119876906D01*
X66824284Y-119747072D01*
X66649196Y-119607142D01*
X66461666Y-119473349D01*
X66281192Y-119361921D01*
X66232476Y-119335861D01*
X66047305Y-119252065D01*
X65879734Y-119194802D01*
X65784109Y-119177939D01*
X65735886Y-119175707D01*
X65701111Y-119175953D01*
X65686532Y-119189085D01*
X65115192Y-119189085D01*
X65256572Y-119015173D01*
X65472639Y-118899129D01*
X65751675Y-118861562D01*
X65835300Y-118865784D01*
X66049581Y-118901244D01*
X66261314Y-118962563D01*
X66325312Y-118988698D01*
X66520210Y-119092970D01*
X66744358Y-119234386D01*
X66968286Y-119391978D01*
X67162527Y-119544779D01*
X67297614Y-119671820D01*
X67315999Y-119693632D01*
X67424951Y-119832141D01*
X67919963Y-119410666D01*
X68131522Y-119231527D01*
X68329777Y-119065410D01*
X68490949Y-118932139D01*
X68583520Y-118857540D01*
X68727299Y-118740998D01*
X68897226Y-118597554D01*
X68970438Y-118533973D01*
X69164046Y-118366701D01*
X69439780Y-118133023D01*
X69798105Y-117832546D01*
X70239488Y-117464880D01*
X70589602Y-117174388D01*
X70854545Y-116953869D01*
X71146850Y-116709002D01*
X71426534Y-116473353D01*
X71607595Y-116319765D01*
X71820409Y-116139365D01*
X72024978Y-115967552D01*
X72194667Y-115826613D01*
X72284335Y-115753523D01*
X72409395Y-115651142D01*
X72589606Y-115500795D01*
X72798320Y-115324815D01*
X72960058Y-115187281D01*
X73302796Y-114895480D01*
X73594336Y-114649433D01*
X73864762Y-114424002D01*
X74144161Y-114194049D01*
X74344249Y-114030723D01*
X74518242Y-113888109D01*
X74659120Y-113770899D01*
X74746858Y-113695839D01*
X74765014Y-113678818D01*
X74813720Y-113635134D01*
X74930480Y-113535022D01*
X75100463Y-113391067D01*
X75308837Y-113215854D01*
X75439112Y-113106814D01*
X75645304Y-112934482D01*
X75830927Y-112779252D01*
X76005537Y-112633088D01*
X76178692Y-112487951D01*
X76359949Y-112335807D01*
X76558866Y-112168617D01*
X76785000Y-111978345D01*
X77047909Y-111756955D01*
X77357151Y-111496410D01*
X77722282Y-111188673D01*
X78152860Y-110825708D01*
X78539961Y-110499364D01*
X78763924Y-110311010D01*
X79003291Y-110110435D01*
X79215596Y-109933204D01*
X79267987Y-109889634D01*
X79465909Y-109725235D01*
X79703048Y-109528249D01*
X79935658Y-109335013D01*
X79990139Y-109289752D01*
X80201471Y-109113761D01*
X80416210Y-108934237D01*
X80597305Y-108782175D01*
X80643837Y-108742907D01*
X80801903Y-108609587D01*
X81007813Y-108436373D01*
X81226692Y-108252588D01*
X81317244Y-108176665D01*
X81530748Y-107997011D01*
X81746169Y-107814517D01*
X81928697Y-107658715D01*
X81988982Y-107606779D01*
X82242426Y-107387424D01*
X81600409Y-106851790D01*
X81173354Y-106495255D01*
X80742405Y-106135018D01*
X80320244Y-105781711D01*
X79919552Y-105445966D01*
X79553011Y-105138414D01*
X79233303Y-104869689D01*
X78973110Y-104650423D01*
X78809600Y-104512052D01*
X78625697Y-104357306D01*
X78416708Y-104183438D01*
X78297286Y-104085039D01*
X78119847Y-103938273D01*
X77904416Y-103758164D01*
X77694954Y-103581481D01*
X77677116Y-103566340D01*
X77456837Y-103379818D01*
X77205248Y-103167635D01*
X76973854Y-102973224D01*
X76956685Y-102958841D01*
X76739592Y-102776808D01*
X76507427Y-102581782D01*
X76305883Y-102412150D01*
X76282587Y-102392508D01*
X76078806Y-102221060D01*
X75858937Y-102036711D01*
X75703884Y-101907158D01*
X75593136Y-101814627D01*
X75412709Y-101663607D01*
X75175543Y-101464941D01*
X74894577Y-101229474D01*
X74582753Y-100968047D01*
X74253010Y-100691505D01*
X74143696Y-100599807D01*
X73793194Y-100305795D01*
X73440535Y-100010017D01*
X73102126Y-99726229D01*
X72794373Y-99468189D01*
X72533682Y-99249654D01*
X72336460Y-99084381D01*
X72310775Y-99062865D01*
X72046220Y-98840702D01*
X71754661Y-98594963D01*
X71475395Y-98358808D01*
X71288353Y-98200020D01*
X71081211Y-98024268D01*
X70888115Y-97861426D01*
X70733295Y-97731873D01*
X70652969Y-97665640D01*
X70492770Y-97535719D01*
X70306600Y-97733050D01*
X70128821Y-97879165D01*
X69967657Y-97927795D01*
X69831559Y-97877132D01*
X69796777Y-97842176D01*
X69732406Y-97748688D01*
X69640742Y-97595924D01*
X69560980Y-97452535D01*
X69376971Y-97184576D01*
X69102555Y-96902891D01*
X68994738Y-96808598D01*
X68607783Y-96480571D01*
X68229549Y-96159283D01*
X67874165Y-95856778D01*
X67555758Y-95585097D01*
X67288457Y-95356284D01*
X67086389Y-95182381D01*
X67052565Y-95153098D01*
X66704720Y-94852108D01*
X66427655Y-94614684D01*
X66211027Y-94433313D01*
X66044495Y-94300482D01*
X65917717Y-94208680D01*
X65820350Y-94150395D01*
X65742052Y-94118113D01*
X65672481Y-94104322D01*
X65604870Y-94101506D01*
X65330295Y-94053234D01*
X65107325Y-93911095D01*
X64942719Y-93680031D01*
X64858898Y-93398723D01*
X64860290Y-93304331D01*
X65160635Y-93304331D01*
X65217065Y-93502599D01*
X65310735Y-93624498D01*
X65413193Y-93664427D01*
X65571887Y-93682930D01*
X65635498Y-93682489D01*
X65715954Y-93680822D01*
X65789169Y-93688627D01*
X65866367Y-93713647D01*
X65958768Y-93763625D01*
X66077594Y-93846305D01*
X66234068Y-93969429D01*
X66439410Y-94140741D01*
X66704842Y-94367983D01*
X67006227Y-94628317D01*
X67204949Y-94799850D01*
X67448151Y-95009275D01*
X67698372Y-95224354D01*
X67835290Y-95341845D01*
X68071932Y-95545099D01*
X68323857Y-95762049D01*
X68553590Y-95960399D01*
X68664353Y-96056323D01*
X68879126Y-96241027D01*
X69111611Y-96438446D01*
X69314755Y-96608645D01*
X69331564Y-96622565D01*
X69565773Y-96849331D01*
X69749909Y-97092074D01*
X69789950Y-97161781D01*
X69873674Y-97312522D01*
X69939534Y-97415225D01*
X69968342Y-97444902D01*
X70019858Y-97409074D01*
X70114838Y-97318589D01*
X70161525Y-97269765D01*
X70308465Y-97103828D01*
X70435643Y-96945530D01*
X70525041Y-96818594D01*
X70558645Y-96746891D01*
X70511377Y-96713603D01*
X70390838Y-96669193D01*
X70302488Y-96644049D01*
X70176006Y-96604336D01*
X70049202Y-96546270D01*
X69906208Y-96459150D01*
X69731161Y-96332273D01*
X69508195Y-96154937D01*
X69221446Y-95916438D01*
X69211528Y-95908088D01*
X69002347Y-95732144D01*
X68788072Y-95552266D01*
X68607243Y-95400798D01*
X68568962Y-95368809D01*
X68417966Y-95241914D01*
X68215299Y-95070486D01*
X67991207Y-94880151D01*
X67836916Y-94748640D01*
X67624464Y-94568137D01*
X67420314Y-94396245D01*
X67251075Y-94255286D01*
X67161946Y-94182398D01*
X66825327Y-93909835D01*
X66565080Y-93693513D01*
X66371896Y-93524160D01*
X66236467Y-93392504D01*
X66149483Y-93289273D01*
X66101638Y-93205196D01*
X66083622Y-93131002D01*
X66082636Y-93107360D01*
X66040520Y-92930042D01*
X65930005Y-92809206D01*
X65774849Y-92745290D01*
X65598803Y-92738732D01*
X65425625Y-92789970D01*
X65279067Y-92899442D01*
X65182884Y-93067587D01*
X65176144Y-93090640D01*
X65160635Y-93304331D01*
X64860290Y-93304331D01*
X64863221Y-93105574D01*
X64953413Y-92835135D01*
X65003649Y-92753916D01*
X65168623Y-92592461D01*
X65392061Y-92461565D01*
X65626513Y-92386166D01*
X65720772Y-92377000D01*
X65939235Y-92417898D01*
X66153428Y-92529184D01*
X66337697Y-92688744D01*
X66466387Y-92874460D01*
X66513857Y-93060711D01*
X66541195Y-93132575D01*
X66626866Y-93240839D01*
X66776638Y-93390929D01*
X66996280Y-93588270D01*
X67291560Y-93838289D01*
X67667578Y-94145871D01*
X67833540Y-94283133D01*
X67994404Y-94420984D01*
X68048988Y-94469438D01*
X68175109Y-94578769D01*
X68347125Y-94722097D01*
X68512988Y-94856495D01*
X68685288Y-94996466D01*
X68905971Y-95179322D01*
X69141825Y-95377414D01*
X69290318Y-95503629D01*
X69588330Y-95756454D01*
X69821625Y-95948392D01*
X70005938Y-96090393D01*
X70157004Y-96193408D01*
X70290554Y-96268386D01*
X70422324Y-96326279D01*
X70526699Y-96364136D01*
X70802217Y-96477492D01*
X70972983Y-96594278D01*
X71042097Y-96716754D01*
X71043995Y-96741703D01*
X71013565Y-96835055D01*
X70936208Y-96972247D01*
X70883928Y-97048234D01*
X70723860Y-97265892D01*
X71922038Y-98264707D01*
X72263193Y-98549304D01*
X72607808Y-98837158D01*
X72938353Y-99113601D01*
X73237302Y-99363967D01*
X73487126Y-99573586D01*
X73659494Y-99718670D01*
X74061592Y-100057930D01*
X74402726Y-100345467D01*
X74704263Y-100599235D01*
X74987568Y-100837185D01*
X75274006Y-101077271D01*
X75584944Y-101337447D01*
X75789643Y-101508564D01*
X76036140Y-101714928D01*
X76253607Y-101897670D01*
X76428689Y-102045511D01*
X76548029Y-102147171D01*
X76598269Y-102191373D01*
X76598560Y-102191683D01*
X76652180Y-102238238D01*
X76765131Y-102330142D01*
X76895163Y-102433440D01*
X77093406Y-102593523D01*
X77304728Y-102770301D01*
X77412112Y-102863034D01*
X77566399Y-102996700D01*
X77769499Y-103169946D01*
X77987124Y-103353598D01*
X78079646Y-103431017D01*
X78293886Y-103609972D01*
X78510315Y-103791165D01*
X78694076Y-103945399D01*
X78755672Y-103997260D01*
X78914071Y-104130599D01*
X79120248Y-104303839D01*
X79339284Y-104487646D01*
X79429770Y-104563502D01*
X79643098Y-104742655D01*
X79858297Y-104924020D01*
X80040638Y-105078305D01*
X80101133Y-105129744D01*
X80261274Y-105265391D01*
X80467803Y-105439155D01*
X80684117Y-105620269D01*
X80754831Y-105679256D01*
X80941556Y-105834821D01*
X81184612Y-106037300D01*
X81457457Y-106264581D01*
X81733547Y-106494553D01*
X81842913Y-106585648D01*
X82530366Y-107158238D01*
X82807448Y-106925944D01*
X83007572Y-106756999D01*
X83229451Y-106567970D01*
X83365660Y-106450975D01*
X83474176Y-106357713D01*
X83592192Y-106257275D01*
X83730679Y-106140489D01*
X83900610Y-105998183D01*
X84112960Y-105821186D01*
X84378700Y-105600327D01*
X84708804Y-105326433D01*
X84988328Y-105094693D01*
X85253565Y-104874050D01*
X85546529Y-104629066D01*
X85827111Y-104393341D01*
X86008715Y-104239935D01*
X86251068Y-104034964D01*
X86536787Y-103794044D01*
X86826466Y-103550370D01*
X87032987Y-103377090D01*
X87217955Y-103222067D01*
X87469127Y-103011465D01*
X87770095Y-102759045D01*
X88104452Y-102478570D01*
X88455792Y-102183802D01*
X88807707Y-101888503D01*
X88865327Y-101840147D01*
X89197058Y-101561798D01*
X89514228Y-101295755D01*
X89804083Y-101052709D01*
X90053866Y-100843356D01*
X90250821Y-100678386D01*
X90382194Y-100568493D01*
X90409290Y-100545879D01*
X90670896Y-100327235D01*
X90984597Y-100064141D01*
X91320243Y-99781926D01*
X91647685Y-99505915D01*
X91725312Y-99440359D01*
X91930488Y-99267264D01*
X92169890Y-99065666D01*
X92395084Y-98876347D01*
X92416019Y-98858769D01*
X92629249Y-98679631D01*
X92854579Y-98490123D01*
X93047891Y-98327353D01*
X93070999Y-98307875D01*
X93229970Y-98174799D01*
X93443146Y-97997651D01*
X93681281Y-97800685D01*
X93890323Y-97628521D01*
X94146964Y-97417484D01*
X94329611Y-97262346D01*
X94446654Y-97149398D01*
X94506482Y-97064929D01*
X94517484Y-96995227D01*
X94488050Y-96926582D01*
X94426571Y-96845282D01*
X94394117Y-96805193D01*
X94285273Y-96643565D01*
X94265367Y-96564571D01*
X94691341Y-96564571D01*
X94721499Y-96617218D01*
X94799307Y-96728143D01*
X94905766Y-96872336D01*
X95021877Y-97024790D01*
X95128642Y-97160498D01*
X95207061Y-97254452D01*
X95236993Y-97282805D01*
X95265249Y-97240349D01*
X95333901Y-97127922D01*
X95428863Y-96968640D01*
X95442111Y-96946198D01*
X95612203Y-96702599D01*
X95807228Y-96492038D01*
X95892719Y-96420402D01*
X96075668Y-96277445D01*
X96283881Y-96106300D01*
X96420716Y-95988979D01*
X96595067Y-95838412D01*
X96813148Y-95653818D01*
X97034872Y-95469054D01*
X97091129Y-95422737D01*
X97307577Y-95243683D01*
X97532262Y-95055507D01*
X97724710Y-94892160D01*
X97766151Y-94856495D01*
X97937371Y-94709729D01*
X98154355Y-94525473D01*
X98379957Y-94335223D01*
X98465737Y-94263289D01*
X98681687Y-94081718D01*
X98901705Y-93895332D01*
X99089881Y-93734598D01*
X99151061Y-93681827D01*
X99304178Y-93555952D01*
X99413077Y-93491549D01*
X99510502Y-93474522D01*
X99605546Y-93486165D01*
X99759557Y-93495116D01*
X99878055Y-93438693D01*
X99925355Y-93397611D01*
X100036321Y-93226109D01*
X100063694Y-93022488D01*
X100008289Y-92821768D01*
X99908857Y-92690414D01*
X99740542Y-92559625D01*
X99593148Y-92512941D01*
X99432434Y-92541785D01*
X99386630Y-92559596D01*
X99224603Y-92647888D01*
X99142912Y-92761677D01*
X99116704Y-92938163D01*
X99116119Y-92964490D01*
X99109273Y-93028000D01*
X99085053Y-93094088D01*
X99035122Y-93170785D01*
X98951143Y-93266122D01*
X98824780Y-93388131D01*
X98647694Y-93544841D01*
X98411549Y-93744284D01*
X98108009Y-93994490D01*
X97728736Y-94303492D01*
X97711836Y-94317217D01*
X97474863Y-94510693D01*
X97164965Y-94765365D01*
X96791906Y-95073178D01*
X96365450Y-95426078D01*
X95958645Y-95763468D01*
X95685550Y-95986323D01*
X95472472Y-96149523D01*
X95299800Y-96266164D01*
X95147925Y-96349340D01*
X94997235Y-96412145D01*
X94975628Y-96419878D01*
X94820261Y-96481888D01*
X94717002Y-96537079D01*
X94691341Y-96564571D01*
X94265367Y-96564571D01*
X94251970Y-96511410D01*
X94300985Y-96398925D01*
G37*
G36*
X97593372Y-108655664D02*
G01*
X97628756Y-108508490D01*
X97645800Y-108471412D01*
X97755801Y-108302834D01*
X97901756Y-108100562D01*
X98067012Y-107885251D01*
X98234915Y-107677557D01*
X98388812Y-107498136D01*
X98512050Y-107367644D01*
X98582769Y-107309226D01*
X98764583Y-107254529D01*
X98991767Y-107241326D01*
X99210188Y-107269489D01*
X99323823Y-107310978D01*
X99459943Y-107431019D01*
X99579091Y-107616137D01*
X99658323Y-107823722D01*
X99677753Y-107968296D01*
X99673271Y-108060551D01*
X99655571Y-108145355D01*
X99615063Y-108239508D01*
X99542158Y-108359810D01*
X99427263Y-108523058D01*
X99260790Y-108746053D01*
X99151571Y-108889997D01*
X98957371Y-109136504D01*
X98804464Y-109307553D01*
X98676816Y-109419048D01*
X98558397Y-109486895D01*
X98543791Y-109492960D01*
X98372938Y-109554590D01*
X98251038Y-109570873D01*
X98129627Y-109542753D01*
X98032192Y-109502934D01*
X97799536Y-109349358D01*
X97644159Y-109134246D01*
X97579436Y-108877337D01*
X97578477Y-108836830D01*
X97935998Y-108836830D01*
X97980617Y-109013855D01*
X98095859Y-109137430D01*
X98253800Y-109190020D01*
X98426518Y-109154092D01*
X98434568Y-109149911D01*
X98508196Y-109084941D01*
X98625775Y-108954103D01*
X98769620Y-108780039D01*
X98922047Y-108585391D01*
X99065371Y-108392800D01*
X99181907Y-108224909D01*
X99253971Y-108104359D01*
X99258252Y-108095338D01*
X99293444Y-107911299D01*
X99241149Y-107750067D01*
X99120891Y-107635389D01*
X98952192Y-107591008D01*
X98853564Y-107603149D01*
X98752189Y-107665773D01*
X98614065Y-107799918D01*
X98455742Y-107983336D01*
X98293764Y-108193779D01*
X98144680Y-108408999D01*
X98025037Y-108606749D01*
X97951382Y-108764782D01*
X97935998Y-108836830D01*
X97578477Y-108836830D01*
X97578390Y-108833143D01*
X97593372Y-108655664D01*
G37*
G36*
X80751002Y-134062015D02*
G01*
X80373507Y-134062015D01*
X80373507Y-126619977D01*
X80751002Y-126619977D01*
X80751002Y-134062015D01*
G37*
G36*
X90320372Y-108041387D02*
G01*
X90363403Y-107923241D01*
X90438662Y-107784770D01*
X90554789Y-107610196D01*
X90720428Y-107383741D01*
X90944218Y-107089627D01*
X90958408Y-107071145D01*
X91069132Y-106925841D01*
X91225126Y-106719630D01*
X91407136Y-106478032D01*
X91595909Y-106226564D01*
X91629783Y-106181336D01*
X92065935Y-105599090D01*
X92442657Y-105097155D01*
X92764908Y-104669317D01*
X93037648Y-104309360D01*
X93265834Y-104011069D01*
X93454426Y-103768230D01*
X93608384Y-103574628D01*
X93732667Y-103424046D01*
X93832232Y-103310270D01*
X93912041Y-103227086D01*
X93977051Y-103168277D01*
X94032221Y-103127629D01*
X94082512Y-103098927D01*
X94093598Y-103093511D01*
X94381685Y-103010307D01*
X94675049Y-103022879D01*
X94882168Y-103096394D01*
X94973505Y-103153853D01*
X95137417Y-103267337D01*
X95360805Y-103427354D01*
X95630568Y-103624412D01*
X95933608Y-103849019D01*
X96256824Y-104091682D01*
X96282212Y-104110873D01*
X96641572Y-104382481D01*
X97013094Y-104662963D01*
X97376242Y-104936838D01*
X97710478Y-105188625D01*
X97995266Y-105402843D01*
X98169685Y-105533759D01*
X98704493Y-105934608D01*
X99159773Y-106276193D01*
X99542274Y-106563974D01*
X99858745Y-106803409D01*
X100115936Y-106999957D01*
X100320594Y-107159079D01*
X100479471Y-107286232D01*
X100599314Y-107386877D01*
X100686873Y-107466472D01*
X100748897Y-107530478D01*
X100792134Y-107584352D01*
X100823335Y-107633554D01*
X100849248Y-107683544D01*
X100863324Y-107712594D01*
X100937296Y-107890518D01*
X100971066Y-108053751D01*
X100959279Y-108218418D01*
X100896582Y-108400645D01*
X100777624Y-108616557D01*
X100597050Y-108882279D01*
X100376810Y-109178158D01*
X100234705Y-109365343D01*
X100039404Y-109623500D01*
X99802443Y-109937330D01*
X99535360Y-110291537D01*
X99249693Y-110670823D01*
X98956978Y-111059891D01*
X98773137Y-111304478D01*
X98497088Y-111670418D01*
X98233479Y-112017096D01*
X97991244Y-112332968D01*
X97779318Y-112606490D01*
X97606637Y-112826118D01*
X97482136Y-112980308D01*
X97422160Y-113049927D01*
X97160731Y-113271344D01*
X96894445Y-113385783D01*
X96624496Y-113392940D01*
X96387988Y-113311868D01*
X96347637Y-113290397D01*
X96302052Y-113263793D01*
X96245157Y-113227561D01*
X96170875Y-113177206D01*
X96073131Y-113108231D01*
X95945848Y-113016142D01*
X95782951Y-112896443D01*
X95578364Y-112744638D01*
X95326009Y-112556231D01*
X95019812Y-112326728D01*
X94653696Y-112051633D01*
X94221585Y-111726450D01*
X93717402Y-111346683D01*
X93135073Y-110907837D01*
X92938687Y-110759815D01*
X92420446Y-110369186D01*
X91981400Y-110038062D01*
X91614653Y-109760983D01*
X91313308Y-109532485D01*
X91070467Y-109347108D01*
X90879234Y-109199388D01*
X90732710Y-109083864D01*
X90624001Y-108995073D01*
X90546207Y-108927554D01*
X90492432Y-108875844D01*
X90455779Y-108834482D01*
X90429351Y-108798005D01*
X90406251Y-108760951D01*
X90398443Y-108748091D01*
X90316252Y-108518229D01*
X90296426Y-108279818D01*
X90299492Y-108194789D01*
X90619225Y-108194789D01*
X90619299Y-108230269D01*
X90619791Y-108259929D01*
X90635789Y-108422207D01*
X90675418Y-108547809D01*
X90687201Y-108566353D01*
X90748131Y-108622337D01*
X90882637Y-108732502D01*
X91077744Y-108886671D01*
X91320480Y-109074664D01*
X91597872Y-109286302D01*
X91779239Y-109423177D01*
X92155496Y-109706163D01*
X92579479Y-110025386D01*
X93036031Y-110369407D01*
X93509995Y-110726787D01*
X93986214Y-111086088D01*
X94449532Y-111435872D01*
X94884792Y-111764701D01*
X95276836Y-112061134D01*
X95610509Y-112313735D01*
X95833607Y-112482926D01*
X96040316Y-112638412D01*
X96223284Y-112773355D01*
X96360932Y-112872004D01*
X96426813Y-112915922D01*
X96571216Y-112960723D01*
X96758566Y-112973666D01*
X96927829Y-112951548D01*
X96951965Y-112943482D01*
X96973034Y-112932861D01*
X96999910Y-112912095D01*
X97037295Y-112875109D01*
X97089893Y-112815829D01*
X97162408Y-112728180D01*
X97259545Y-112606087D01*
X97386007Y-112443476D01*
X97546497Y-112234273D01*
X97745720Y-111972402D01*
X97988380Y-111651789D01*
X98279180Y-111266360D01*
X98622825Y-110810040D01*
X99024018Y-110276754D01*
X99261638Y-109960768D01*
X99587440Y-109526593D01*
X99853601Y-109169343D01*
X100066002Y-108880272D01*
X100230525Y-108650633D01*
X100353051Y-108471681D01*
X100439462Y-108334668D01*
X100495639Y-108230850D01*
X100527464Y-108151479D01*
X100540820Y-108087809D01*
X100542423Y-108056178D01*
X100531928Y-107944543D01*
X100493077Y-107838117D01*
X100414970Y-107725091D01*
X100286711Y-107593653D01*
X100097399Y-107431991D01*
X99836137Y-107228296D01*
X99647587Y-107086421D01*
X99442458Y-106932926D01*
X99163534Y-106723689D01*
X98823095Y-106467958D01*
X98433423Y-106174977D01*
X98006802Y-105853993D01*
X97555511Y-105514251D01*
X97091834Y-105164999D01*
X96628053Y-104815481D01*
X96176449Y-104474944D01*
X95749304Y-104152634D01*
X95372391Y-103867990D01*
X95096244Y-103661738D01*
X94888750Y-103513856D01*
X94734445Y-103415210D01*
X94617861Y-103356664D01*
X94523535Y-103329083D01*
X94450011Y-103323162D01*
X94357008Y-103328337D01*
X94272105Y-103350702D01*
X94184765Y-103400521D01*
X94084445Y-103488055D01*
X93960606Y-103623565D01*
X93802709Y-103817315D01*
X93600213Y-104079566D01*
X93396609Y-104348789D01*
X92908396Y-104997056D01*
X92480931Y-105564758D01*
X92110185Y-106057568D01*
X91792131Y-106481160D01*
X91522741Y-106841207D01*
X91297987Y-107143381D01*
X91113841Y-107393357D01*
X90966275Y-107596807D01*
X90851262Y-107759404D01*
X90764773Y-107886823D01*
X90702781Y-107984735D01*
X90661258Y-108058815D01*
X90636176Y-108114735D01*
X90623508Y-108158168D01*
X90619225Y-108194789D01*
X90299492Y-108194789D01*
X90300927Y-108154986D01*
X90320372Y-108041387D01*
G37*
G36*
X88462679Y-84013423D02*
G01*
X88462199Y-84513756D01*
X88460827Y-84979367D01*
X88458660Y-85399500D01*
X88455798Y-85763401D01*
X88452339Y-86060315D01*
X88448384Y-86279487D01*
X88444029Y-86410161D01*
X88440325Y-86443756D01*
X88403906Y-86400897D01*
X88334236Y-86290762D01*
X88277937Y-86193206D01*
X88137902Y-85942656D01*
X88151989Y-83779937D01*
X88166076Y-81617217D01*
X88314377Y-81600153D01*
X88462679Y-81583089D01*
X88462679Y-84013423D01*
G37*
G36*
X100792514Y-81291704D02*
G01*
X101004768Y-81316044D01*
X101287162Y-81357048D01*
X101569400Y-81408988D01*
X101809994Y-81463759D01*
X101914827Y-81493864D01*
X102168929Y-81588966D01*
X102444122Y-81711813D01*
X102713517Y-81848315D01*
X102950224Y-81984380D01*
X103127355Y-82105919D01*
X103190414Y-82162288D01*
X103318401Y-82298524D01*
X103187216Y-82397478D01*
X103096345Y-82458117D01*
X103026466Y-82461364D01*
X102931210Y-82403569D01*
X102891308Y-82374194D01*
X102555649Y-82159933D01*
X102168351Y-81968480D01*
X101770602Y-81817618D01*
X101403589Y-81725128D01*
X101378390Y-81721031D01*
X100722651Y-81656083D01*
X100125088Y-81672673D01*
X99589092Y-81769534D01*
X99118054Y-81945403D01*
X98715364Y-82199012D01*
X98384413Y-82529098D01*
X98128929Y-82933708D01*
X98055357Y-83100412D01*
X98008168Y-83261260D01*
X97980236Y-83451867D01*
X97964436Y-83707851D01*
X97962206Y-83767130D01*
X97962798Y-84152561D01*
X97999436Y-84467505D01*
X98078810Y-84745257D01*
X98207614Y-85019112D01*
X98217335Y-85036638D01*
X98473716Y-85391526D01*
X98810427Y-85678844D01*
X99110177Y-85849002D01*
X99263802Y-85918723D01*
X99400687Y-85968257D01*
X99546912Y-86002539D01*
X99728555Y-86026506D01*
X99971694Y-86045095D01*
X100219235Y-86058956D01*
X100567239Y-86081735D01*
X100823855Y-86113426D01*
X101005540Y-86161512D01*
X101128754Y-86233477D01*
X101209952Y-86336805D01*
X101265595Y-86478981D01*
X101282934Y-86542668D01*
X101306357Y-86810523D01*
X101232250Y-87034399D01*
X101063557Y-87209537D01*
X100803219Y-87331179D01*
X100793516Y-87334103D01*
X100537898Y-87389459D01*
X100259918Y-87404722D01*
X99930774Y-87380009D01*
X99652700Y-87338677D01*
X99351131Y-87272692D01*
X99117510Y-87191185D01*
X98984445Y-87111898D01*
X99005813Y-87069675D01*
X99086779Y-86993619D01*
X99087742Y-86992838D01*
X99162634Y-86940595D01*
X99240612Y-86919048D01*
X99354114Y-86926527D01*
X99535581Y-86961357D01*
X99567250Y-86968105D01*
X99854142Y-87012794D01*
X100149415Y-87030380D01*
X100426914Y-87022094D01*
X100660482Y-86989172D01*
X100823965Y-86932846D01*
X100860580Y-86907116D01*
X100960255Y-86764708D01*
X100952740Y-86613274D01*
X100921157Y-86551612D01*
X100864578Y-86511296D01*
X100742763Y-86479657D01*
X100541289Y-86454101D01*
X100261367Y-86432997D01*
X99921032Y-86409801D01*
X99662766Y-86385168D01*
X99460844Y-86354029D01*
X99289539Y-86311316D01*
X99123127Y-86251960D01*
X98939546Y-86172553D01*
X98527654Y-85928952D01*
X98183879Y-85607358D01*
X97913239Y-85217251D01*
X97720752Y-84768110D01*
X97611435Y-84269413D01*
X97590305Y-83730639D01*
X97595952Y-83634259D01*
X97681706Y-83115857D01*
X97857486Y-82655055D01*
X98120287Y-82254882D01*
X98467103Y-81918364D01*
X98894930Y-81648529D01*
X99400762Y-81448406D01*
X99875125Y-81337852D01*
X100142537Y-81295865D01*
X100355783Y-81274733D01*
X100558047Y-81273625D01*
X100792514Y-81291704D01*
G37*
G36*
X79441726Y-99879734D02*
G01*
X79498430Y-99724271D01*
X79579126Y-99533296D01*
X79718305Y-99215813D01*
X79874555Y-98868478D01*
X80040042Y-98507815D01*
X80206933Y-98150345D01*
X80367394Y-97812594D01*
X80513590Y-97511084D01*
X80637689Y-97262338D01*
X80731857Y-97082880D01*
X80779107Y-97002210D01*
X80855365Y-96905643D01*
X80977187Y-96780994D01*
X81152665Y-96621189D01*
X81389891Y-96419154D01*
X81696956Y-96167815D01*
X82081954Y-95860098D01*
X82120583Y-95829491D01*
X82216999Y-95752908D01*
X82380346Y-95622906D01*
X82593241Y-95453331D01*
X82838300Y-95258027D01*
X83054020Y-95086029D01*
X83369223Y-94836299D01*
X83614953Y-94647018D01*
X83804881Y-94509929D01*
X83952676Y-94416778D01*
X84072008Y-94359308D01*
X84176545Y-94329263D01*
X84279958Y-94318387D01*
X84326397Y-94317549D01*
X84604432Y-94361879D01*
X84826943Y-94483752D01*
X84988157Y-94665013D01*
X85082299Y-94887508D01*
X85103595Y-95133082D01*
X85046270Y-95383582D01*
X84904550Y-95620852D01*
X84780702Y-95745852D01*
X84663941Y-95842641D01*
X84486064Y-95987128D01*
X84259971Y-96169088D01*
X83998560Y-96378295D01*
X83714730Y-96604524D01*
X83421380Y-96837550D01*
X83131408Y-97067146D01*
X82857713Y-97283088D01*
X82613195Y-97475151D01*
X82410751Y-97633108D01*
X82263281Y-97746734D01*
X82183682Y-97805805D01*
X82175653Y-97810989D01*
X82135545Y-97866714D01*
X82060772Y-97997692D01*
X81962574Y-98181582D01*
X81852192Y-98396037D01*
X81740868Y-98618715D01*
X81639841Y-98827270D01*
X81560352Y-98999359D01*
X81513641Y-99112638D01*
X81505991Y-99142145D01*
X81484201Y-99195125D01*
X81424437Y-99327201D01*
X81335111Y-99520094D01*
X81224634Y-99755528D01*
X81189929Y-99828963D01*
X80989184Y-100221411D01*
X80806762Y-100512341D01*
X80643622Y-100700481D01*
X80500726Y-100784559D01*
X80463743Y-100789291D01*
X80360478Y-100801578D01*
X80292615Y-100815219D01*
X80173636Y-100813578D01*
X80014873Y-100777778D01*
X79977417Y-100765151D01*
X79720287Y-100630754D01*
X79547220Y-100437893D01*
X79455262Y-100217054D01*
X79425638Y-100095792D01*
X79420320Y-100010005D01*
X79726373Y-100010005D01*
X79758850Y-100092856D01*
X79839507Y-100212413D01*
X79865986Y-100245139D01*
X80031531Y-100376355D01*
X80213440Y-100414121D01*
X80387282Y-100356621D01*
X80465242Y-100289722D01*
X80550178Y-100167218D01*
X80672401Y-99945139D01*
X80832086Y-99623132D01*
X81029412Y-99200842D01*
X81237309Y-98739298D01*
X81397778Y-98381444D01*
X81527681Y-98104956D01*
X81639069Y-97892125D01*
X81743996Y-97725237D01*
X81854512Y-97586582D01*
X81982670Y-97458449D01*
X82140523Y-97323126D01*
X82274397Y-97215232D01*
X82473349Y-97056649D01*
X82734435Y-96848674D01*
X83035373Y-96609050D01*
X83353880Y-96355518D01*
X83667676Y-96105819D01*
X83707016Y-96074521D01*
X83983047Y-95851395D01*
X84231984Y-95643474D01*
X84440630Y-95462324D01*
X84595783Y-95319516D01*
X84684246Y-95226617D01*
X84698043Y-95205932D01*
X84733794Y-95015854D01*
X84671181Y-94842471D01*
X84519686Y-94701030D01*
X84332807Y-94618685D01*
X84191572Y-94630447D01*
X84053316Y-94707444D01*
X83890282Y-94828586D01*
X83692685Y-94978446D01*
X83488915Y-95135153D01*
X83307361Y-95276836D01*
X83176413Y-95381625D01*
X83153988Y-95400272D01*
X83080310Y-95460523D01*
X82936126Y-95576783D01*
X82735331Y-95737913D01*
X82491818Y-95932768D01*
X82219484Y-96150209D01*
X82099197Y-96246109D01*
X81817957Y-96473253D01*
X81559992Y-96687279D01*
X81339328Y-96876095D01*
X81169991Y-97027613D01*
X81066007Y-97129741D01*
X81045752Y-97154199D01*
X80970733Y-97278803D01*
X80872595Y-97465751D01*
X80770532Y-97678177D01*
X80753948Y-97714669D01*
X80637803Y-97970326D01*
X80503231Y-98263134D01*
X80377967Y-98532767D01*
X80369638Y-98550550D01*
X80165978Y-98986781D01*
X80005774Y-99334074D01*
X79885444Y-99600548D01*
X79801411Y-99794327D01*
X79750095Y-99923530D01*
X79727915Y-99996279D01*
X79726373Y-100010005D01*
X79420320Y-100010005D01*
X79419294Y-99993463D01*
X79441726Y-99879734D01*
G37*
G36*
X66069154Y-81600153D02*
G01*
X66217456Y-81617217D01*
X66244420Y-83828257D01*
X66251510Y-84404511D01*
X66258637Y-84883529D01*
X66267574Y-85275919D01*
X66280092Y-85592286D01*
X66297966Y-85843236D01*
X66322968Y-86039377D01*
X66356871Y-86191315D01*
X66401448Y-86309655D01*
X66458473Y-86405004D01*
X66529718Y-86487969D01*
X66616956Y-86569157D01*
X66716926Y-86654866D01*
X67037774Y-86865655D01*
X67388826Y-86987555D01*
X67752553Y-87023911D01*
X68111425Y-86978068D01*
X68447911Y-86853372D01*
X68744481Y-86653167D01*
X68983605Y-86380799D01*
X69083428Y-86203285D01*
X69115179Y-86133770D01*
X69141138Y-86066730D01*
X69161871Y-85991079D01*
X69177948Y-85895728D01*
X69189935Y-85769591D01*
X69198400Y-85601581D01*
X69203912Y-85380611D01*
X69207037Y-85095592D01*
X69208344Y-84735439D01*
X69208400Y-84289064D01*
X69207811Y-83774330D01*
X69204989Y-81617217D01*
X69369503Y-81600318D01*
X69534016Y-81583420D01*
X69533490Y-83838323D01*
X69532963Y-86093226D01*
X69404844Y-86368375D01*
X69181451Y-86724590D01*
X68875799Y-87011630D01*
X68489268Y-87228418D01*
X68158857Y-87341150D01*
X67811506Y-87402382D01*
X67482428Y-87385438D01*
X67269048Y-87337288D01*
X66824065Y-87168426D01*
X66463685Y-86933125D01*
X66188247Y-86631644D01*
X66066224Y-86423865D01*
X65920853Y-86126979D01*
X65920853Y-81583089D01*
X66069154Y-81600153D01*
G37*
G36*
X84485503Y-127927177D02*
G01*
X86925736Y-127941209D01*
X86942800Y-128089510D01*
X86959864Y-128237812D01*
X85659370Y-128237812D01*
X85645419Y-131136431D01*
X85631469Y-134035051D01*
X85456203Y-134051950D01*
X85280938Y-134068849D01*
X85280938Y-128230647D01*
X85132636Y-128247711D01*
X84984335Y-128264775D01*
X84970384Y-131163395D01*
X84956434Y-134062015D01*
X84634741Y-134062015D01*
X84620791Y-131163395D01*
X84606840Y-128264775D01*
X84365106Y-128230433D01*
X84351153Y-131132742D01*
X84337201Y-134035051D01*
X84161936Y-134051950D01*
X83986670Y-134068849D01*
X83986670Y-128230647D01*
X83838369Y-128247711D01*
X83690067Y-128264775D01*
X83676117Y-131163395D01*
X83662166Y-134062015D01*
X83340474Y-134062015D01*
X83326523Y-131163395D01*
X83312573Y-128264775D01*
X82045269Y-128234389D01*
X82045269Y-127913146D01*
X84485503Y-127927177D01*
G37*
G36*
X59250830Y-82886603D02*
G01*
X59734892Y-82892862D01*
X60112223Y-82903313D01*
X60383346Y-82917974D01*
X60548782Y-82936862D01*
X60587434Y-82946246D01*
X60827034Y-83067603D01*
X61070611Y-83259355D01*
X61283254Y-83491295D01*
X61376937Y-83629390D01*
X61499581Y-83939422D01*
X61526562Y-84271004D01*
X61461690Y-84603997D01*
X61308775Y-84918261D01*
X61082926Y-85183419D01*
X60898716Y-85352169D01*
X61079460Y-85463876D01*
X61298714Y-85659797D01*
X61448605Y-85922338D01*
X61522544Y-86230411D01*
X61513941Y-86562928D01*
X61476176Y-86733315D01*
X61330355Y-87068234D01*
X61104109Y-87335223D01*
X60790019Y-87542999D01*
X60784720Y-87545650D01*
X60692526Y-87590109D01*
X60607131Y-87623859D01*
X60512476Y-87648377D01*
X60392499Y-87665137D01*
X60231139Y-87675614D01*
X60012336Y-87681282D01*
X59720029Y-87683617D01*
X59338158Y-87684094D01*
X59277143Y-87684096D01*
X58047392Y-87684096D01*
X58047392Y-87360529D01*
X59139430Y-87360228D01*
X59578942Y-87357499D01*
X59926224Y-87348071D01*
X60196813Y-87329683D01*
X60406242Y-87300072D01*
X60570048Y-87256974D01*
X60703764Y-87198127D01*
X60822928Y-87121268D01*
X60833342Y-87113486D01*
X61001363Y-86926763D01*
X61117167Y-86678076D01*
X61165471Y-86406794D01*
X61159350Y-86273597D01*
X61080458Y-86008296D01*
X60916090Y-85794929D01*
X60711749Y-85649208D01*
X60638814Y-85610345D01*
X60563555Y-85580858D01*
X60470530Y-85559442D01*
X60344299Y-85544795D01*
X60169419Y-85535612D01*
X59930448Y-85530592D01*
X59611946Y-85528430D01*
X59274250Y-85527871D01*
X58047392Y-85526983D01*
X58047392Y-85203417D01*
X59069366Y-85203417D01*
X59528523Y-85199859D01*
X59894581Y-85187627D01*
X60182109Y-85164381D01*
X60405680Y-85127783D01*
X60579862Y-85075495D01*
X60719226Y-85005177D01*
X60831470Y-84920577D01*
X61038725Y-84676828D01*
X61148427Y-84406887D01*
X61162238Y-84126860D01*
X61081823Y-83852853D01*
X60908842Y-83600971D01*
X60675132Y-83406337D01*
X60577705Y-83347912D01*
X60477041Y-83301851D01*
X60359715Y-83266902D01*
X60212301Y-83241813D01*
X60021372Y-83225331D01*
X59773504Y-83216204D01*
X59455270Y-83213179D01*
X59053244Y-83215003D01*
X58667562Y-83219050D01*
X57319367Y-83235051D01*
X57305412Y-86106707D01*
X57291458Y-88978364D01*
X56914908Y-88978364D01*
X56914908Y-82884521D01*
X58659515Y-82884521D01*
X59250830Y-82886603D01*
G37*
G36*
X95625645Y-111228149D02*
G01*
X95663830Y-111124281D01*
X95736093Y-111001355D01*
X95853280Y-110836750D01*
X96000718Y-110641502D01*
X96442389Y-110641502D01*
X96726313Y-110864806D01*
X97010237Y-111088109D01*
X97135085Y-110940136D01*
X97235862Y-110802767D01*
X97307468Y-110674559D01*
X97309097Y-110670613D01*
X97324741Y-110507982D01*
X97260254Y-110355838D01*
X97135616Y-110255208D01*
X97101274Y-110243846D01*
X96892308Y-110244040D01*
X96694721Y-110345908D01*
X96570961Y-110474158D01*
X96442389Y-110641502D01*
X96000718Y-110641502D01*
X96012573Y-110625803D01*
X96246934Y-110329158D01*
X96439927Y-110114715D01*
X96605468Y-109972068D01*
X96757477Y-109890809D01*
X96909870Y-109860532D01*
X97030435Y-109864762D01*
X97271152Y-109939143D01*
X97468022Y-110090164D01*
X97607989Y-110294572D01*
X97677998Y-110529116D01*
X97664993Y-110770543D01*
X97614267Y-110904565D01*
X97516036Y-111065176D01*
X97373038Y-111265116D01*
X97203645Y-111482245D01*
X97026232Y-111694424D01*
X96859169Y-111879513D01*
X96720832Y-112015374D01*
X96644650Y-112072950D01*
X96423450Y-112146834D01*
X96176293Y-112158770D01*
X95985609Y-112115875D01*
X95875613Y-112046242D01*
X95752893Y-111936734D01*
X95742934Y-111926201D01*
X95661696Y-111818010D01*
X95620906Y-111692899D01*
X95608327Y-111509395D01*
X95608114Y-111469191D01*
X95608472Y-111450596D01*
X95959471Y-111450596D01*
X95984974Y-111623818D01*
X96073577Y-111730507D01*
X96175879Y-111780056D01*
X96356813Y-111805145D01*
X96525693Y-111730284D01*
X96540886Y-111718837D01*
X96620300Y-111638120D01*
X96714495Y-111518974D01*
X96716198Y-111516589D01*
X96821583Y-111368590D01*
X96551772Y-111174751D01*
X96402999Y-111072608D01*
X96288090Y-111002377D01*
X96238301Y-110980911D01*
X96164847Y-111026148D01*
X96079988Y-111137500D01*
X96005413Y-111278430D01*
X95962814Y-111412401D01*
X95959471Y-111450596D01*
X95608472Y-111450596D01*
X95610689Y-111335579D01*
X95625645Y-111228149D01*
G37*
G36*
X80090758Y-130354478D02*
G01*
X80104611Y-134062015D01*
X79725630Y-134062015D01*
X79739483Y-130354478D01*
X79753337Y-126646941D01*
X80076904Y-126646941D01*
X80090758Y-130354478D01*
G37*
G36*
X59014261Y-83542660D02*
G01*
X59449478Y-83547839D01*
X59790154Y-83553386D01*
X60049604Y-83560372D01*
X60241140Y-83569867D01*
X60378074Y-83582941D01*
X60473721Y-83600664D01*
X60541393Y-83624108D01*
X60594404Y-83654340D01*
X60618613Y-83671625D01*
X60779509Y-83852551D01*
X60861235Y-84078735D01*
X60863348Y-84321712D01*
X60785404Y-84553016D01*
X60635224Y-84737347D01*
X60581332Y-84780839D01*
X60526760Y-84813881D01*
X60456671Y-84837985D01*
X60356230Y-84854665D01*
X60210600Y-84865432D01*
X60004945Y-84871801D01*
X59724429Y-84875283D01*
X59354217Y-84877392D01*
X59257538Y-84877829D01*
X58040301Y-84883303D01*
X58057329Y-84706311D01*
X58074356Y-84529319D01*
X59249344Y-84502355D01*
X59646952Y-84492063D01*
X59949474Y-84481064D01*
X60169676Y-84468236D01*
X60320328Y-84452454D01*
X60414195Y-84432596D01*
X60464047Y-84407538D01*
X60475376Y-84394499D01*
X60524707Y-84223931D01*
X60485571Y-84043437D01*
X60451590Y-83986866D01*
X60420191Y-83952876D01*
X60372785Y-83926757D01*
X60295472Y-83907191D01*
X60174354Y-83892861D01*
X59995530Y-83882450D01*
X59745100Y-83874640D01*
X59409165Y-83868115D01*
X59157323Y-83864218D01*
X57939537Y-83846251D01*
X57939537Y-88978364D01*
X57562042Y-88978364D01*
X57562042Y-83526703D01*
X59014261Y-83542660D01*
G37*
G36*
X94230978Y-126626105D02*
G01*
X94286396Y-126637603D01*
X94286883Y-126639014D01*
X94264392Y-126694634D01*
X94200686Y-126835409D01*
X94101413Y-127049351D01*
X93972220Y-127324474D01*
X93818757Y-127648790D01*
X93646671Y-128010310D01*
X93461611Y-128397050D01*
X93306583Y-128719519D01*
X93149284Y-129048171D01*
X92981844Y-129401634D01*
X92821820Y-129742626D01*
X92686772Y-130033863D01*
X92657237Y-130098321D01*
X92525292Y-130383509D01*
X92383859Y-130683040D01*
X92252749Y-130955238D01*
X92177183Y-131108271D01*
X91967987Y-131525014D01*
X91967987Y-134062015D01*
X91590492Y-134062015D01*
X91590492Y-131590230D01*
X91962191Y-130790348D01*
X92117874Y-130456880D01*
X92301986Y-130064965D01*
X92496248Y-129653370D01*
X92682383Y-129260866D01*
X92771558Y-129073693D01*
X92944593Y-128711006D01*
X93134491Y-128312587D01*
X93323410Y-127915897D01*
X93493505Y-127558394D01*
X93572788Y-127391583D01*
X93710557Y-127103185D01*
X93812438Y-126898109D01*
X93888444Y-126762073D01*
X93948586Y-126680799D01*
X94002879Y-126640005D01*
X94061334Y-126625412D01*
X94111617Y-126623111D01*
X94230978Y-126626105D01*
G37*
G36*
X91266925Y-88978364D02*
G01*
X90943358Y-88978364D01*
X90943358Y-81590253D01*
X91266925Y-81590253D01*
X91266925Y-88978364D01*
G37*
G36*
X59309150Y-85807334D02*
G01*
X59713544Y-85813172D01*
X60024098Y-85819749D01*
X60254828Y-85828280D01*
X60419748Y-85839979D01*
X60532873Y-85856061D01*
X60608218Y-85877739D01*
X60659798Y-85906230D01*
X60684536Y-85926524D01*
X60810285Y-86107186D01*
X60867505Y-86335505D01*
X60856216Y-86575863D01*
X60776436Y-86792644D01*
X60684040Y-86907540D01*
X60638830Y-86940834D01*
X60576403Y-86966749D01*
X60482640Y-86986636D01*
X60343421Y-87001847D01*
X60144625Y-87013733D01*
X59872133Y-87023645D01*
X59511826Y-87032934D01*
X59331496Y-87036962D01*
X58977294Y-87043712D01*
X58660616Y-87047921D01*
X58396876Y-87049534D01*
X58201490Y-87048497D01*
X58089874Y-87044755D01*
X58069705Y-87041456D01*
X58053475Y-86976901D01*
X58047392Y-86866191D01*
X58047392Y-86713395D01*
X59167877Y-86713395D01*
X59588174Y-86711415D01*
X59912756Y-86703717D01*
X60153719Y-86687662D01*
X60323161Y-86660613D01*
X60433178Y-86619932D01*
X60495866Y-86562981D01*
X60523323Y-86487123D01*
X60528072Y-86416792D01*
X60518991Y-86325143D01*
X60483686Y-86254365D01*
X60410060Y-86201820D01*
X60286015Y-86164872D01*
X60099456Y-86140882D01*
X59838285Y-86127212D01*
X59490407Y-86121225D01*
X59167877Y-86120189D01*
X58047392Y-86120189D01*
X58047392Y-85791082D01*
X59309150Y-85807334D01*
G37*
G36*
X107698359Y-81326008D02*
G01*
X108272556Y-81441397D01*
X108819156Y-81622199D01*
X109312719Y-81862181D01*
X109613119Y-82062109D01*
X109873354Y-82260566D01*
X109613154Y-82520766D01*
X109405539Y-82356612D01*
X109118190Y-82154398D01*
X108815317Y-81998279D01*
X108451708Y-81865119D01*
X108434379Y-81859667D01*
X108163630Y-81781225D01*
X107918842Y-81727510D01*
X107667759Y-81694470D01*
X107378126Y-81678052D01*
X107017688Y-81674205D01*
X106959919Y-81674438D01*
X106530901Y-81690816D01*
X106177759Y-81740493D01*
X105871423Y-81831877D01*
X105582825Y-81973375D01*
X105314440Y-82150366D01*
X104995650Y-82444362D01*
X104753075Y-82799114D01*
X104587668Y-83198123D01*
X104500382Y-83624885D01*
X104492174Y-84062901D01*
X104563995Y-84495669D01*
X104716802Y-84906687D01*
X104951548Y-85279454D01*
X105122551Y-85468655D01*
X105406981Y-85705720D01*
X105713456Y-85877183D01*
X106062221Y-85989852D01*
X106473523Y-86050537D01*
X106899870Y-86066345D01*
X107239971Y-86082502D01*
X107490286Y-86134636D01*
X107664548Y-86228456D01*
X107776492Y-86369669D01*
X107807975Y-86443756D01*
X107855980Y-86718787D01*
X107803054Y-86964673D01*
X107653859Y-87169411D01*
X107479560Y-87289792D01*
X107299407Y-87347118D01*
X107044926Y-87381206D01*
X106747364Y-87390887D01*
X106437965Y-87374996D01*
X106177965Y-87338401D01*
X105963298Y-87290925D01*
X105770296Y-87238138D01*
X105646418Y-87193767D01*
X105492366Y-87122265D01*
X105637186Y-87006790D01*
X105726699Y-86943290D01*
X105810072Y-86918219D01*
X105925359Y-86927903D01*
X106087841Y-86963296D01*
X106329719Y-87004854D01*
X106602725Y-87027861D01*
X106875425Y-87032210D01*
X107116385Y-87017795D01*
X107294169Y-86984511D01*
X107337413Y-86967508D01*
X107444331Y-86864064D01*
X107494386Y-86716989D01*
X107475789Y-86572706D01*
X107448792Y-86528892D01*
X107360135Y-86489662D01*
X107166981Y-86457489D01*
X106872485Y-86432855D01*
X106784279Y-86427975D01*
X106447662Y-86408536D01*
X106191183Y-86385450D01*
X105987153Y-86352763D01*
X105807877Y-86304524D01*
X105625665Y-86234781D01*
X105412825Y-86137581D01*
X105396012Y-86129570D01*
X105032966Y-85898690D01*
X104715660Y-85581189D01*
X104455352Y-85192641D01*
X104263303Y-84748623D01*
X104183473Y-84452405D01*
X104125431Y-84125976D01*
X104106569Y-83852923D01*
X104127020Y-83586085D01*
X104186792Y-83278844D01*
X104329202Y-82835146D01*
X104544868Y-82448525D01*
X104794911Y-82143822D01*
X105108452Y-81856629D01*
X105453600Y-81636075D01*
X105850819Y-81472613D01*
X106320574Y-81356700D01*
X106568942Y-81316396D01*
X107122007Y-81282263D01*
X107698359Y-81326008D01*
G37*
G36*
X86942635Y-127442376D02*
G01*
X86925736Y-127617642D01*
X84485503Y-127631673D01*
X82045269Y-127645705D01*
X82045269Y-127267111D01*
X86959534Y-127267111D01*
X86942635Y-127442376D01*
G37*
G36*
X64303019Y-83665986D02*
G01*
X64303963Y-84274596D01*
X64307565Y-84787104D01*
X64314982Y-85215251D01*
X64327368Y-85570781D01*
X64345877Y-85865435D01*
X64371667Y-86110956D01*
X64405891Y-86319087D01*
X64449704Y-86501569D01*
X64504263Y-86670146D01*
X64570723Y-86836560D01*
X64627423Y-86963438D01*
X64867009Y-87418119D01*
X65137239Y-87792915D01*
X65458522Y-88108647D01*
X65851270Y-88386142D01*
X66221768Y-88590151D01*
X66656826Y-88772162D01*
X67104397Y-88880465D01*
X67600405Y-88923079D01*
X67719106Y-88924436D01*
X68341261Y-88876561D01*
X68915435Y-88732386D01*
X69443820Y-88491085D01*
X69928610Y-88151834D01*
X70047023Y-88048179D01*
X70447030Y-87620048D01*
X70756121Y-87145041D01*
X70922981Y-86780842D01*
X71065889Y-86416792D01*
X71084964Y-84000334D01*
X71104038Y-81583876D01*
X71276246Y-81600546D01*
X71448454Y-81617217D01*
X71465977Y-83720402D01*
X71469777Y-84365383D01*
X71469464Y-84909040D01*
X71464914Y-85357834D01*
X71456003Y-85718223D01*
X71442605Y-85996665D01*
X71424597Y-86199620D01*
X71417028Y-86255009D01*
X71273060Y-86846767D01*
X71032763Y-87394397D01*
X70700766Y-87891709D01*
X70281703Y-88332518D01*
X69780205Y-88710635D01*
X69428400Y-88911641D01*
X69019600Y-89076626D01*
X68542735Y-89196655D01*
X68029750Y-89267160D01*
X67512589Y-89283572D01*
X67072168Y-89248629D01*
X66522603Y-89118419D01*
X65991846Y-88892025D01*
X65494568Y-88581035D01*
X65045440Y-88197040D01*
X64659133Y-87751632D01*
X64350317Y-87256400D01*
X64235080Y-87007216D01*
X64173382Y-86851279D01*
X64122263Y-86702170D01*
X64080831Y-86548291D01*
X64048192Y-86378042D01*
X64023455Y-86179825D01*
X64005725Y-85942041D01*
X63994112Y-85653090D01*
X63987721Y-85301375D01*
X63985661Y-84875296D01*
X63987038Y-84363255D01*
X63990414Y-83828257D01*
X64006416Y-81617217D01*
X64154717Y-81600153D01*
X64303019Y-81583089D01*
X64303019Y-83665986D01*
G37*
G36*
X107718539Y-82624432D02*
G01*
X108188052Y-82736549D01*
X108587576Y-82893415D01*
X108755520Y-82990065D01*
X108824597Y-83072621D01*
X108800660Y-83152805D01*
X108743287Y-83205259D01*
X108667014Y-83254060D01*
X108594213Y-83262487D01*
X108489365Y-83226894D01*
X108362352Y-83166161D01*
X108101477Y-83068792D01*
X107772604Y-82991939D01*
X107414504Y-82940832D01*
X107065946Y-82920701D01*
X106765699Y-82936775D01*
X106717631Y-82944297D01*
X106417933Y-83009944D01*
X106200875Y-83091073D01*
X106041271Y-83200711D01*
X105913931Y-83351882D01*
X105905679Y-83364199D01*
X105786561Y-83638232D01*
X105762277Y-83943405D01*
X105833486Y-84258278D01*
X105875108Y-84354616D01*
X105994916Y-84541121D01*
X106154207Y-84666766D01*
X106372066Y-84740299D01*
X106667578Y-84770469D01*
X106786483Y-84772401D01*
X107215725Y-84791125D01*
X107616493Y-84843308D01*
X107959329Y-84924244D01*
X108130883Y-84987244D01*
X108382870Y-85143415D01*
X108631662Y-85376608D01*
X108850609Y-85658573D01*
X108980593Y-85887980D01*
X109058521Y-86069923D01*
X109103720Y-86235545D01*
X109124372Y-86427461D01*
X109128733Y-86659468D01*
X109125821Y-86925705D01*
X109113328Y-87117669D01*
X109084500Y-87268904D01*
X109032581Y-87412956D01*
X108950817Y-87583370D01*
X108937381Y-87609722D01*
X108697184Y-87963000D01*
X108373747Y-88250710D01*
X107972378Y-88468863D01*
X107649688Y-88577568D01*
X107402784Y-88620488D01*
X107085179Y-88642901D01*
X106732052Y-88644869D01*
X106378579Y-88626450D01*
X106059936Y-88587707D01*
X105989110Y-88574707D01*
X105422435Y-88414640D01*
X104911187Y-88174275D01*
X104533973Y-87913824D01*
X104552904Y-87870921D01*
X104634728Y-87796719D01*
X104638744Y-87793670D01*
X104716447Y-87741072D01*
X104784206Y-87727762D01*
X104875161Y-87758385D01*
X105022454Y-87837582D01*
X105045697Y-87850688D01*
X105487970Y-88055733D01*
X105975486Y-88205105D01*
X106476567Y-88292790D01*
X106959534Y-88312774D01*
X107298514Y-88278355D01*
X107730820Y-88174102D01*
X108073729Y-88027979D01*
X108340279Y-87831879D01*
X108543509Y-87577692D01*
X108606481Y-87464905D01*
X108740312Y-87098221D01*
X108786161Y-86718937D01*
X108749062Y-86345520D01*
X108634046Y-85996441D01*
X108446148Y-85690167D01*
X108190400Y-85445167D01*
X108029187Y-85346539D01*
X107894499Y-85282379D01*
X107767549Y-85236510D01*
X107623420Y-85204290D01*
X107437196Y-85181077D01*
X107183958Y-85162229D01*
X106976216Y-85150367D01*
X106557891Y-85117720D01*
X106231255Y-85064769D01*
X105980800Y-84983110D01*
X105791017Y-84864340D01*
X105646398Y-84700058D01*
X105531436Y-84481858D01*
X105475769Y-84337354D01*
X105399893Y-83974808D01*
X105423036Y-83623880D01*
X105537050Y-83300397D01*
X105733785Y-83020184D01*
X106005090Y-82799066D01*
X106342817Y-82652867D01*
X106343321Y-82652725D01*
X106763049Y-82578968D01*
X107232497Y-82570721D01*
X107718539Y-82624432D01*
G37*
G36*
X59803369Y-81599004D02*
G01*
X60054353Y-81603111D01*
X60251899Y-81610027D01*
X60406889Y-81620140D01*
X60530206Y-81633838D01*
X60632733Y-81651511D01*
X60725353Y-81673546D01*
X60818948Y-81700332D01*
X60824675Y-81702051D01*
X61263818Y-81866108D01*
X61637403Y-82082440D01*
X61983806Y-82374499D01*
X62074024Y-82465598D01*
X62397446Y-82855316D01*
X62619890Y-83252028D01*
X62747833Y-83671989D01*
X62787756Y-84131456D01*
X62784960Y-84249413D01*
X62763895Y-84522208D01*
X62720710Y-84735330D01*
X62644572Y-84936369D01*
X62613808Y-85001187D01*
X62461540Y-85311272D01*
X62613676Y-85621357D01*
X62748091Y-86013425D01*
X62793207Y-86448159D01*
X62748123Y-86906430D01*
X62685944Y-87156989D01*
X62512618Y-87604410D01*
X62278258Y-87984016D01*
X61972189Y-88306686D01*
X61583739Y-88583300D01*
X61102237Y-88824735D01*
X61013422Y-88861816D01*
X60917161Y-88888350D01*
X60764131Y-88910243D01*
X60543878Y-88928171D01*
X60245947Y-88942812D01*
X59859882Y-88954842D01*
X59436033Y-88963857D01*
X58047392Y-88988985D01*
X58047392Y-88600869D01*
X59314696Y-88600869D01*
X59673286Y-88600727D01*
X59994693Y-88600330D01*
X60263617Y-88599717D01*
X60464762Y-88598931D01*
X60582831Y-88598013D01*
X60607602Y-88597395D01*
X60667301Y-88577380D01*
X60797950Y-88528547D01*
X60956121Y-88467371D01*
X61408080Y-88241081D01*
X61779355Y-87945751D01*
X62076936Y-87575156D01*
X62200402Y-87359442D01*
X62293529Y-87140214D01*
X62377330Y-86879458D01*
X62439356Y-86621962D01*
X62467162Y-86412518D01*
X62467552Y-86398128D01*
X62445309Y-86215233D01*
X62383917Y-85983301D01*
X62297922Y-85746838D01*
X62201867Y-85550350D01*
X62178364Y-85513247D01*
X62054774Y-85331126D01*
X62201637Y-85074703D01*
X62375829Y-84667628D01*
X62445150Y-84242350D01*
X62409656Y-83805634D01*
X62269403Y-83364243D01*
X62186089Y-83191856D01*
X61914904Y-82786036D01*
X61571365Y-82457413D01*
X61151187Y-82202484D01*
X60808028Y-82065629D01*
X60726149Y-82041357D01*
X60634361Y-82021421D01*
X60521736Y-82005402D01*
X60377347Y-81992881D01*
X60190266Y-81983438D01*
X59949565Y-81976656D01*
X59644317Y-81972114D01*
X59263594Y-81969395D01*
X58796469Y-81968080D01*
X58254732Y-81967748D01*
X55998135Y-81967748D01*
X55998135Y-88978364D01*
X55619892Y-88978364D01*
X55633748Y-85297790D01*
X55647605Y-81617217D01*
X58047392Y-81602884D01*
X58620958Y-81599644D01*
X59097554Y-81597659D01*
X59488063Y-81597316D01*
X59803369Y-81599004D01*
G37*
G36*
X66001542Y-106021972D02*
G01*
X66160332Y-105764468D01*
X66414917Y-105553560D01*
X66518265Y-105494592D01*
X66746747Y-105412070D01*
X67000979Y-105397771D01*
X67300953Y-105452631D01*
X67579907Y-105544168D01*
X67752783Y-105630048D01*
X67946958Y-105759143D01*
X68140902Y-105912665D01*
X68313079Y-106071828D01*
X68441957Y-106217844D01*
X68506004Y-106331927D01*
X68509388Y-106355110D01*
X68464684Y-106473458D01*
X68344038Y-106623965D01*
X68167646Y-106789904D01*
X67955706Y-106954547D01*
X67728416Y-107101167D01*
X67505972Y-107213035D01*
X67444930Y-107236704D01*
X67134154Y-107304444D01*
X66807014Y-107303212D01*
X66506304Y-107234989D01*
X66401203Y-107188437D01*
X66153348Y-107007161D01*
X65998462Y-106772374D01*
X65934820Y-106480897D01*
X65935074Y-106423548D01*
X66292144Y-106423548D01*
X66339217Y-106629725D01*
X66399350Y-106725542D01*
X66593489Y-106884575D01*
X66839337Y-106957305D01*
X67122019Y-106942281D01*
X67426662Y-106838048D01*
X67447407Y-106827882D01*
X67635149Y-106718528D01*
X67830998Y-106581613D01*
X67891051Y-106533635D01*
X68014117Y-106426733D01*
X68065186Y-106360117D01*
X68055193Y-106305114D01*
X68002538Y-106241302D01*
X67805720Y-106075202D01*
X67551698Y-105932322D01*
X67274837Y-105826126D01*
X67009497Y-105770079D01*
X66809009Y-105773629D01*
X66595598Y-105859749D01*
X66431124Y-106013489D01*
X66326376Y-106209779D01*
X66292144Y-106423548D01*
X65935074Y-106423548D01*
X65935485Y-106330465D01*
X66001542Y-106021972D01*
G37*
G36*
X75639020Y-128292696D02*
G01*
X76056570Y-128439594D01*
X76444887Y-128678883D01*
X76737257Y-128950266D01*
X76928005Y-129161402D01*
X76794231Y-129266628D01*
X76660457Y-129371855D01*
X76379656Y-129102626D01*
X76039918Y-128845034D01*
X75668504Y-128681856D01*
X75280541Y-128610332D01*
X74891160Y-128627705D01*
X74515489Y-128731218D01*
X74168658Y-128918112D01*
X73865795Y-129185630D01*
X73622029Y-129531014D01*
X73579864Y-129612971D01*
X73487912Y-129892179D01*
X73444074Y-130224170D01*
X73448910Y-130567872D01*
X73502978Y-130882213D01*
X73560403Y-131042058D01*
X73789863Y-131410428D01*
X74102583Y-131717267D01*
X74377487Y-131895204D01*
X74548850Y-131980733D01*
X74693418Y-132032038D01*
X74850671Y-132057666D01*
X75060090Y-132066167D01*
X75169473Y-132066686D01*
X75411318Y-132062733D01*
X75584972Y-132045145D01*
X75729978Y-132005332D01*
X75885882Y-131934704D01*
X75963265Y-131894242D01*
X76162646Y-131770659D01*
X76348239Y-131626862D01*
X76455271Y-131521134D01*
X76559125Y-131402893D01*
X76628606Y-131355654D01*
X76698027Y-131367265D01*
X76772932Y-131408603D01*
X76875985Y-131479883D01*
X76921967Y-131532260D01*
X76922127Y-131534086D01*
X76879897Y-131616698D01*
X76767654Y-131738029D01*
X76607067Y-131879992D01*
X76419806Y-132024501D01*
X76227541Y-132153466D01*
X76084116Y-132233573D01*
X75885679Y-132325430D01*
X75720724Y-132381590D01*
X75547061Y-132411562D01*
X75322496Y-132424860D01*
X75224599Y-132427323D01*
X74956342Y-132426961D01*
X74755714Y-132408985D01*
X74583150Y-132367706D01*
X74439584Y-132314440D01*
X73999615Y-132089662D01*
X73650097Y-131811218D01*
X73383660Y-131470100D01*
X73192931Y-131057296D01*
X73088746Y-130663529D01*
X73062265Y-130267983D01*
X73126176Y-129854957D01*
X73272453Y-129451094D01*
X73493069Y-129083033D01*
X73606518Y-128944921D01*
X73958630Y-128629501D01*
X74352044Y-128406592D01*
X74772651Y-128276171D01*
X75206345Y-128238214D01*
X75639020Y-128292696D01*
G37*
G36*
X67683795Y-108533170D02*
G01*
X67822490Y-108301150D01*
X68029651Y-108142336D01*
X68312769Y-108050195D01*
X68679337Y-108018192D01*
X68975859Y-108027173D01*
X69265742Y-108062690D01*
X69477538Y-108135514D01*
X69638573Y-108260142D01*
X69776177Y-108451068D01*
X69776692Y-108451941D01*
X69825117Y-108550217D01*
X69856695Y-108664710D01*
X69874690Y-108819998D01*
X69882363Y-109040660D01*
X69883325Y-109255221D01*
X69873268Y-109619688D01*
X69840511Y-109894463D01*
X69778720Y-110096462D01*
X69681564Y-110242599D01*
X69542708Y-110349789D01*
X69457216Y-110393362D01*
X69242132Y-110455699D01*
X68964330Y-110487769D01*
X68664819Y-110488876D01*
X68384603Y-110458319D01*
X68212785Y-110414561D01*
X67949347Y-110268288D01*
X67756693Y-110040744D01*
X67634790Y-109731867D01*
X67583604Y-109341593D01*
X67581830Y-109242972D01*
X67588941Y-109126219D01*
X67932048Y-109126219D01*
X67932719Y-109320941D01*
X67969651Y-109549617D01*
X67975819Y-109578788D01*
X68022685Y-109772885D01*
X68071746Y-109891735D01*
X68141609Y-109966695D01*
X68239770Y-110023609D01*
X68416487Y-110082976D01*
X68660541Y-110112798D01*
X68865043Y-110117982D01*
X69091388Y-110114194D01*
X69237504Y-110098875D01*
X69330861Y-110066256D01*
X69398931Y-110010565D01*
X69404321Y-110004705D01*
X69452491Y-109933635D01*
X69485287Y-109831672D01*
X69506609Y-109676475D01*
X69520357Y-109445703D01*
X69525053Y-109313152D01*
X69531782Y-109055492D01*
X69530029Y-108880656D01*
X69515596Y-108763695D01*
X69484285Y-108679661D01*
X69431897Y-108603607D01*
X69398922Y-108563668D01*
X69329387Y-108485137D01*
X69263737Y-108435246D01*
X69176550Y-108407500D01*
X69042403Y-108395400D01*
X68835873Y-108392450D01*
X68728664Y-108392376D01*
X68451181Y-108397198D01*
X68260594Y-108421008D01*
X68136058Y-108477824D01*
X68056726Y-108581665D01*
X68001754Y-108746548D01*
X67966830Y-108904690D01*
X67932048Y-109126219D01*
X67588941Y-109126219D01*
X67606072Y-108844933D01*
X67683795Y-108533170D01*
G37*
G36*
X91525442Y-108179648D02*
G01*
X91591877Y-108031700D01*
X91706594Y-107845660D01*
X91880716Y-107601332D01*
X91902697Y-107571745D01*
X91923519Y-107544503D01*
X92375189Y-107544503D01*
X92616492Y-107752582D01*
X92756660Y-107864750D01*
X92870451Y-107940355D01*
X92921533Y-107960808D01*
X92992759Y-107920637D01*
X93083822Y-107821981D01*
X93096799Y-107804327D01*
X93180567Y-107625663D01*
X93197426Y-107442941D01*
X93155498Y-107280791D01*
X93062906Y-107163843D01*
X92927772Y-107116727D01*
X92871571Y-107121359D01*
X92759835Y-107140983D01*
X92712239Y-107148029D01*
X92659734Y-107189689D01*
X92570557Y-107290378D01*
X92524863Y-107348270D01*
X92375189Y-107544503D01*
X91923519Y-107544503D01*
X92125584Y-107280142D01*
X92304448Y-107067631D01*
X92453488Y-106922516D01*
X92586904Y-106833098D01*
X92718893Y-106787679D01*
X92863656Y-106774560D01*
X92870325Y-106774542D01*
X93131949Y-106822992D01*
X93346438Y-106956125D01*
X93498629Y-107155616D01*
X93573356Y-107403139D01*
X93568109Y-107617783D01*
X93522123Y-107736394D01*
X93421173Y-107914555D01*
X93281069Y-108130429D01*
X93117620Y-108362178D01*
X92946635Y-108587964D01*
X92783925Y-108785950D01*
X92645299Y-108934299D01*
X92568382Y-108998709D01*
X92366147Y-109075729D01*
X92126375Y-109084271D01*
X91894303Y-109024998D01*
X91822303Y-108987765D01*
X91623283Y-108807806D01*
X91512219Y-108572421D01*
X91504190Y-108441031D01*
X91858300Y-108441031D01*
X91946263Y-108602024D01*
X91993492Y-108647476D01*
X92135290Y-108733542D01*
X92273088Y-108731677D01*
X92424220Y-108637761D01*
X92546329Y-108516036D01*
X92642842Y-108396062D01*
X92693179Y-108306780D01*
X92694529Y-108282121D01*
X92639836Y-108230528D01*
X92524097Y-108138997D01*
X92403399Y-108049860D01*
X92137951Y-107859155D01*
X91992300Y-108050114D01*
X91873649Y-108258674D01*
X91858300Y-108441031D01*
X91504190Y-108441031D01*
X91496164Y-108309695D01*
X91525442Y-108179648D01*
G37*
G36*
X93583859Y-126625596D02*
G01*
X93639266Y-126637331D01*
X93639749Y-126638720D01*
X93617651Y-126690558D01*
X93555511Y-126826454D01*
X93459559Y-127033039D01*
X93336026Y-127296946D01*
X93191143Y-127604807D01*
X93067924Y-127865578D01*
X92880303Y-128262413D01*
X92680935Y-128684861D01*
X92483232Y-129104450D01*
X92300605Y-129492708D01*
X92146467Y-129821164D01*
X92105077Y-129909574D01*
X91958207Y-130221649D01*
X91810137Y-130532973D01*
X91673993Y-130816169D01*
X91562902Y-131043862D01*
X91517454Y-131135085D01*
X91320853Y-131524716D01*
X91320853Y-134062015D01*
X90943358Y-134062015D01*
X90943358Y-131596419D01*
X91164290Y-131117009D01*
X91283418Y-130861308D01*
X91428599Y-130553823D01*
X91578469Y-130239643D01*
X91672539Y-130044393D01*
X91783137Y-129814550D01*
X91929820Y-129507515D01*
X92102900Y-129143759D01*
X92292686Y-128743749D01*
X92489489Y-128327956D01*
X92683621Y-127916849D01*
X92865392Y-127530897D01*
X93025113Y-127190568D01*
X93145885Y-126931845D01*
X93230014Y-126761937D01*
X93297287Y-126668959D01*
X93371364Y-126629884D01*
X93464483Y-126621760D01*
X93583859Y-126625596D01*
G37*
G36*
X80157796Y-88978364D02*
G01*
X79779552Y-88978364D01*
X79793409Y-85297790D01*
X79807265Y-81617217D01*
X79982530Y-81600318D01*
X80157796Y-81583420D01*
X80157796Y-88978364D01*
G37*
G36*
X75572115Y-127629671D02*
G01*
X76064970Y-127756631D01*
X76534520Y-127974569D01*
X76951787Y-128268864D01*
X77087064Y-128394120D01*
X77234277Y-128549460D01*
X77345826Y-128682644D01*
X77403425Y-128771261D01*
X77407477Y-128786767D01*
X77365987Y-128868128D01*
X77292524Y-128930790D01*
X77230719Y-128959628D01*
X77168417Y-128953073D01*
X77085328Y-128899520D01*
X76961162Y-128787367D01*
X76847619Y-128676366D01*
X76447896Y-128347928D01*
X76140174Y-128174041D01*
X75964222Y-128095423D01*
X75819231Y-128044375D01*
X75672465Y-128014911D01*
X75491185Y-128001045D01*
X75242655Y-127996789D01*
X75169473Y-127996533D01*
X74904017Y-127997655D01*
X74713675Y-128006748D01*
X74565716Y-128030180D01*
X74427411Y-128074324D01*
X74266029Y-128145550D01*
X74171808Y-128190720D01*
X73783525Y-128407628D01*
X73480577Y-128647610D01*
X73240488Y-128930607D01*
X73120594Y-129123364D01*
X72924342Y-129529061D01*
X72810671Y-129905732D01*
X72771124Y-130282183D01*
X72770909Y-130314032D01*
X72822093Y-130811705D01*
X72969732Y-131274920D01*
X73205222Y-131693630D01*
X73519961Y-132057783D01*
X73905344Y-132357331D01*
X74352770Y-132582223D01*
X74828660Y-132717796D01*
X75040001Y-132751202D01*
X75215771Y-132757393D01*
X75405682Y-132734956D01*
X75599123Y-132695901D01*
X76018336Y-132576881D01*
X76368544Y-132411578D01*
X76685153Y-132180753D01*
X76872588Y-132003953D01*
X77030003Y-131846359D01*
X77132306Y-131755581D01*
X77199342Y-131720881D01*
X77250952Y-131731518D01*
X77301523Y-131771804D01*
X77380949Y-131861276D01*
X77393631Y-131946483D01*
X77334815Y-132054551D01*
X77230187Y-132178935D01*
X76860701Y-132518132D01*
X76432331Y-132787588D01*
X75965892Y-132979202D01*
X75482199Y-133084875D01*
X75002064Y-133096507D01*
X74899834Y-133085753D01*
X74341613Y-132963772D01*
X73840920Y-132753248D01*
X73403531Y-132459000D01*
X73035220Y-132085847D01*
X72741763Y-131638608D01*
X72528935Y-131122103D01*
X72522880Y-131102377D01*
X72468809Y-130827034D01*
X72445891Y-130488291D01*
X72453239Y-130125736D01*
X72489966Y-129778957D01*
X72555186Y-129487540D01*
X72559347Y-129474620D01*
X72769159Y-129001487D01*
X73062808Y-128583419D01*
X73427023Y-128228540D01*
X73848535Y-127944978D01*
X74314073Y-127740859D01*
X74810368Y-127624309D01*
X75324149Y-127603454D01*
X75572115Y-127629671D01*
G37*
G36*
X64798309Y-81600054D02*
G01*
X64977116Y-81617217D01*
X65004080Y-83990041D01*
X65010728Y-84489055D01*
X65018845Y-84957257D01*
X65028093Y-85383093D01*
X65038136Y-85755009D01*
X65048637Y-86061453D01*
X65059261Y-86290870D01*
X65069670Y-86431708D01*
X65076339Y-86470720D01*
X65340239Y-86975929D01*
X65672472Y-87409025D01*
X66063372Y-87764321D01*
X66503271Y-88036131D01*
X66982504Y-88218769D01*
X67491403Y-88306547D01*
X68020302Y-88293778D01*
X68144761Y-88275854D01*
X68687030Y-88135133D01*
X69176181Y-87906406D01*
X69603744Y-87596560D01*
X69961249Y-87212480D01*
X70240223Y-86761052D01*
X70361706Y-86473871D01*
X70378219Y-86373505D01*
X70393771Y-86169658D01*
X70408211Y-85866699D01*
X70421384Y-85469001D01*
X70433139Y-84980934D01*
X70443323Y-84406868D01*
X70449352Y-83963077D01*
X70477753Y-81617217D01*
X70653019Y-81600318D01*
X70828284Y-81583420D01*
X70827644Y-83838323D01*
X70826773Y-84423722D01*
X70824315Y-84911312D01*
X70819957Y-85311134D01*
X70813386Y-85633227D01*
X70804290Y-85887630D01*
X70792355Y-86084382D01*
X70777269Y-86233525D01*
X70758720Y-86345096D01*
X70748184Y-86389421D01*
X70557747Y-86901117D01*
X70276315Y-87369178D01*
X69915860Y-87782064D01*
X69488358Y-88128234D01*
X69005783Y-88396147D01*
X68481689Y-88573885D01*
X68279423Y-88607817D01*
X68018860Y-88631830D01*
X67735309Y-88644803D01*
X67464078Y-88645615D01*
X67240478Y-88633146D01*
X67134229Y-88616647D01*
X66557381Y-88434202D01*
X66042615Y-88178345D01*
X65600789Y-87855362D01*
X65315882Y-87563401D01*
X65139043Y-87344583D01*
X65012781Y-87165228D01*
X64913534Y-86986461D01*
X64817740Y-86769410D01*
X64784329Y-86686431D01*
X64753669Y-86607304D01*
X64728234Y-86531293D01*
X64707450Y-86447765D01*
X64690742Y-86346081D01*
X64677535Y-86215607D01*
X64667255Y-86045706D01*
X64659325Y-85825742D01*
X64653172Y-85545079D01*
X64648220Y-85193081D01*
X64643894Y-84759112D01*
X64639620Y-84232536D01*
X64637638Y-83972878D01*
X64619501Y-81582891D01*
X64798309Y-81600054D01*
G37*
G36*
X69159882Y-106171842D02*
G01*
X69262308Y-106050129D01*
X69329387Y-105983316D01*
X69616992Y-105750679D01*
X69938340Y-105568987D01*
X70269462Y-105446833D01*
X70586393Y-105392807D01*
X70865166Y-105415500D01*
X70892397Y-105423027D01*
X71117831Y-105529943D01*
X71339315Y-105699517D01*
X71514028Y-105896554D01*
X71559064Y-105970952D01*
X71630153Y-106210278D01*
X71631544Y-106485730D01*
X71566092Y-106753630D01*
X71499118Y-106887567D01*
X71308512Y-107093320D01*
X71049371Y-107234543D01*
X70743258Y-107305998D01*
X70411735Y-107302444D01*
X70100258Y-107227497D01*
X69954929Y-107157882D01*
X69761734Y-107042569D01*
X69556803Y-106903516D01*
X69507052Y-106866931D01*
X69319736Y-106721407D01*
X69204290Y-106613905D01*
X69142688Y-106522857D01*
X69116904Y-106426691D01*
X69113675Y-106396237D01*
X69114438Y-106361426D01*
X69499177Y-106361426D01*
X69564519Y-106450835D01*
X69710535Y-106570351D01*
X69876078Y-106684018D01*
X70144807Y-106847193D01*
X70362020Y-106942480D01*
X70553829Y-106976865D01*
X70746346Y-106957336D01*
X70823793Y-106937613D01*
X71057373Y-106833461D01*
X71199557Y-106676616D01*
X71257527Y-106458150D01*
X71259706Y-106395645D01*
X71244159Y-106211002D01*
X71183153Y-106074920D01*
X71100197Y-105976493D01*
X70898837Y-105826918D01*
X70661823Y-105769518D01*
X70376481Y-105801872D01*
X70297888Y-105823172D01*
X70113018Y-105894241D01*
X69908656Y-105997180D01*
X69716641Y-106113149D01*
X69568808Y-106223310D01*
X69505161Y-106292252D01*
X69499177Y-106361426D01*
X69114438Y-106361426D01*
X69116315Y-106275769D01*
X69159882Y-106171842D01*
G37*
G36*
X100956956Y-83231565D02*
G01*
X101322939Y-83281352D01*
X101621149Y-83374909D01*
X101691801Y-83407816D01*
X101843428Y-83483936D01*
X101704083Y-83593544D01*
X101586015Y-83665983D01*
X101472358Y-83667335D01*
X101396107Y-83644367D01*
X101273367Y-83620238D01*
X101073177Y-83600909D01*
X100825913Y-83588690D01*
X100623712Y-83585582D01*
X100352199Y-83587930D01*
X100167370Y-83596977D01*
X100048115Y-83615727D01*
X99973324Y-83647183D01*
X99930697Y-83684202D01*
X99850186Y-83838376D01*
X99868951Y-83994489D01*
X99940067Y-84089538D01*
X100006826Y-84130673D01*
X100112056Y-84157437D01*
X100276277Y-84172462D01*
X100520009Y-84178380D01*
X100635963Y-84178788D01*
X101159057Y-84209045D01*
X101608983Y-84302944D01*
X102002892Y-84465179D01*
X102253904Y-84621501D01*
X102585544Y-84923267D01*
X102853097Y-85296931D01*
X103052383Y-85724702D01*
X103179222Y-86188789D01*
X103229433Y-86671402D01*
X103198836Y-87154751D01*
X103083252Y-87621043D01*
X103004504Y-87815982D01*
X102864933Y-88054742D01*
X102663650Y-88316888D01*
X102429587Y-88570427D01*
X102191672Y-88783361D01*
X102025524Y-88898673D01*
X101664370Y-89061473D01*
X101225810Y-89183270D01*
X100733690Y-89260213D01*
X100211861Y-89288450D01*
X99733592Y-89268779D01*
X99298283Y-89198505D01*
X98838695Y-89069481D01*
X98388451Y-88894620D01*
X97981176Y-88686833D01*
X97673123Y-88477519D01*
X97553407Y-88376060D01*
X97507616Y-88311407D01*
X97523474Y-88255539D01*
X97557763Y-88214260D01*
X97678489Y-88127137D01*
X97802693Y-88141851D01*
X97908202Y-88219398D01*
X98056826Y-88326205D01*
X98280898Y-88449112D01*
X98551962Y-88575291D01*
X98841563Y-88691914D01*
X99121243Y-88786153D01*
X99235117Y-88817548D01*
X99618459Y-88887977D01*
X100046859Y-88923497D01*
X100484515Y-88924210D01*
X100895628Y-88890218D01*
X101244398Y-88821624D01*
X101278336Y-88811692D01*
X101743456Y-88625451D01*
X102127409Y-88372220D01*
X102438673Y-88044974D01*
X102678073Y-87652424D01*
X102746484Y-87505083D01*
X102791333Y-87377117D01*
X102817450Y-87239178D01*
X102829669Y-87061918D01*
X102832822Y-86815991D01*
X102832693Y-86713395D01*
X102817876Y-86308581D01*
X102770022Y-85983105D01*
X102680192Y-85711177D01*
X102539446Y-85467005D01*
X102338846Y-85224800D01*
X102304033Y-85188077D01*
X102010691Y-84924684D01*
X101695753Y-84731325D01*
X101340052Y-84601096D01*
X100924417Y-84527095D01*
X100429678Y-84502418D01*
X100399878Y-84502355D01*
X100080719Y-84490505D01*
X99850057Y-84449234D01*
X99690562Y-84369959D01*
X99584907Y-84244101D01*
X99516205Y-84064710D01*
X99489863Y-83801745D01*
X99563848Y-83578191D01*
X99738838Y-83392197D01*
X99770228Y-83369871D01*
X99875695Y-83306232D01*
X99985428Y-83265160D01*
X100127891Y-83240978D01*
X100331550Y-83228008D01*
X100506737Y-83222980D01*
X100956956Y-83231565D01*
G37*
G36*
X88276520Y-126626485D02*
G01*
X88306769Y-126651608D01*
X88344869Y-126700743D01*
X88394849Y-126781416D01*
X88460735Y-126901147D01*
X88546554Y-127067459D01*
X88656334Y-127287875D01*
X88794101Y-127569917D01*
X88963884Y-127921109D01*
X89169709Y-128348971D01*
X89415604Y-128861028D01*
X89618000Y-129282485D01*
X90132785Y-130354122D01*
X90041094Y-130509342D01*
X89957623Y-130624105D01*
X89893611Y-130664696D01*
X89865086Y-130621769D01*
X89864802Y-130612142D01*
X89842418Y-130555780D01*
X89779357Y-130415183D01*
X89681760Y-130203279D01*
X89555765Y-129932999D01*
X89407511Y-129617271D01*
X89243138Y-129269027D01*
X89068784Y-128901195D01*
X88890588Y-128526706D01*
X88714690Y-128158488D01*
X88547228Y-127809472D01*
X88394342Y-127492588D01*
X88262171Y-127220765D01*
X88156853Y-127006933D01*
X88092320Y-126879047D01*
X88026616Y-126731817D01*
X88029289Y-126653417D01*
X88108276Y-126623349D01*
X88192612Y-126619977D01*
X88223469Y-126618193D01*
X88250096Y-126617855D01*
X88276520Y-126626485D01*
G37*
D13*
X100875000Y-66675000D03*
D14*
X108675000Y-66675000D03*
D13*
X103584375Y-39618750D03*
D14*
X103584375Y-31818750D03*
D13*
X110190625Y-45243750D03*
D14*
X117990625Y-45243750D03*
D13*
X103584375Y-58668750D03*
D14*
X103584375Y-50868750D03*
D13*
X110400000Y-64293750D03*
D14*
X118200000Y-64293750D03*
D13*
X59531250Y-82481250D03*
D14*
X59531250Y-74681250D03*
D13*
X78581250Y-82481250D03*
D14*
X78581250Y-74681250D03*
D13*
X97631250Y-82481250D03*
D14*
X97631250Y-74681250D03*
D13*
X102393750Y-92006250D03*
D14*
X102393750Y-84206250D03*
D13*
X59531250Y-101531250D03*
D14*
X59531250Y-93731250D03*
D13*
X78581250Y-101531250D03*
D14*
X78581250Y-93731250D03*
D13*
X97631250Y-101531250D03*
D14*
X97631250Y-93731250D03*
D13*
X59531250Y-120581250D03*
D14*
X59531250Y-112781250D03*
D13*
X78581250Y-120581250D03*
D14*
X78581250Y-112781250D03*
D13*
X97631250Y-120581250D03*
D14*
X97631250Y-112781250D03*
D13*
X102393750Y-120581250D03*
D14*
X102393750Y-112781250D03*
D13*
X59531250Y-139631250D03*
D14*
X59531250Y-131831250D03*
D13*
X78581250Y-139631250D03*
D14*
X78581250Y-131831250D03*
D13*
X97631250Y-139631250D03*
D14*
X97631250Y-131831250D03*
D13*
X102393750Y-139631250D03*
D14*
X102393750Y-131831250D03*
D15*
X85248750Y-28892500D03*
D16*
X85248750Y-31432500D03*
X85248750Y-33972500D03*
X85248750Y-36512500D03*
X85248750Y-39052500D03*
X85248750Y-41592500D03*
X85248750Y-44132500D03*
X85248750Y-46672500D03*
X85248750Y-49212500D03*
X85248750Y-51752500D03*
X85248750Y-54292500D03*
X85248750Y-56832500D03*
X100488750Y-56832500D03*
X100488750Y-54292500D03*
X100488750Y-51752500D03*
X100488750Y-49212500D03*
X100488750Y-46672500D03*
X100488750Y-44132500D03*
X100488750Y-41592500D03*
X100488750Y-39052500D03*
X100488750Y-36512500D03*
X100488750Y-33972500D03*
X100488750Y-31432500D03*
X100488750Y-28892500D03*
%LPC*%
D13*
X100875000Y-66675000D03*
D14*
X108675000Y-66675000D03*
D13*
X103584375Y-39618750D03*
D14*
X103584375Y-31818750D03*
D13*
X110190625Y-45243750D03*
D14*
X117990625Y-45243750D03*
D13*
X103584375Y-58668750D03*
D14*
X103584375Y-50868750D03*
D13*
X110400000Y-64293750D03*
D14*
X118200000Y-64293750D03*
D13*
X59531250Y-82481250D03*
D14*
X59531250Y-74681250D03*
D13*
X78581250Y-82481250D03*
D14*
X78581250Y-74681250D03*
D13*
X97631250Y-82481250D03*
D14*
X97631250Y-74681250D03*
D13*
X102393750Y-92006250D03*
D14*
X102393750Y-84206250D03*
D13*
X59531250Y-101531250D03*
D14*
X59531250Y-93731250D03*
D13*
X78581250Y-101531250D03*
D14*
X78581250Y-93731250D03*
D13*
X97631250Y-101531250D03*
D14*
X97631250Y-93731250D03*
D13*
X59531250Y-120581250D03*
D14*
X59531250Y-112781250D03*
D13*
X78581250Y-120581250D03*
D14*
X78581250Y-112781250D03*
D13*
X97631250Y-120581250D03*
D14*
X97631250Y-112781250D03*
D13*
X102393750Y-120581250D03*
D14*
X102393750Y-112781250D03*
D13*
X59531250Y-139631250D03*
D14*
X59531250Y-131831250D03*
D13*
X78581250Y-139631250D03*
D14*
X78581250Y-131831250D03*
D13*
X97631250Y-139631250D03*
D14*
X97631250Y-131831250D03*
D13*
X102393750Y-139631250D03*
D14*
X102393750Y-131831250D03*
D17*
X92868750Y-35718750D03*
D18*
X97948750Y-35718750D03*
X87788750Y-35718750D03*
D17*
X111918750Y-35718750D03*
D18*
X106838750Y-35718750D03*
X116998750Y-35718750D03*
X97948750Y-54768750D03*
D17*
X92868750Y-54768750D03*
D18*
X87788750Y-54768750D03*
D17*
X50006250Y-78581250D03*
D18*
X55086250Y-78581250D03*
X44926250Y-78581250D03*
D17*
X69056250Y-78581250D03*
D18*
X74136250Y-78581250D03*
X63976250Y-78581250D03*
X83026250Y-78581250D03*
X93186250Y-78581250D03*
D17*
X88106250Y-78581250D03*
D19*
X118903750Y-76200000D03*
D17*
X111918750Y-88106250D03*
D18*
X111918750Y-83026250D03*
X111918750Y-93186250D03*
D19*
X118903750Y-100012500D03*
D17*
X103663750Y-76200000D03*
X103663750Y-100012500D03*
X50006250Y-97631250D03*
D18*
X44926250Y-97631250D03*
X55086250Y-97631250D03*
D17*
X69056250Y-97631250D03*
D18*
X74136250Y-97631250D03*
X63976250Y-97631250D03*
D17*
X88106250Y-97631250D03*
D18*
X93186250Y-97631250D03*
X83026250Y-97631250D03*
X44926250Y-116681250D03*
X55086250Y-116681250D03*
D17*
X50006250Y-116681250D03*
D18*
X63976250Y-116681250D03*
X74136250Y-116681250D03*
D17*
X69056250Y-116681250D03*
D18*
X83026250Y-116681250D03*
D17*
X88106250Y-116681250D03*
D18*
X93186250Y-116681250D03*
X116998750Y-116681250D03*
X106838750Y-116681250D03*
D17*
X111918750Y-116681250D03*
X50006250Y-135731250D03*
D18*
X55086250Y-135731250D03*
X44926250Y-135731250D03*
X63976250Y-135731250D03*
X74136250Y-135731250D03*
D17*
X69056250Y-135731250D03*
D18*
X93080000Y-135731250D03*
D17*
X88000000Y-135731250D03*
D18*
X82920000Y-135731250D03*
X116998750Y-135731250D03*
D17*
X111918750Y-135731250D03*
D18*
X106838750Y-135731250D03*
D17*
X111918750Y-54768750D03*
D18*
X106838750Y-54768750D03*
X116998750Y-54768750D03*
D20*
X117871875Y-70246875D03*
D15*
X85248750Y-28892500D03*
D16*
X85248750Y-31432500D03*
X85248750Y-33972500D03*
X85248750Y-36512500D03*
X85248750Y-39052500D03*
X85248750Y-41592500D03*
X85248750Y-44132500D03*
X85248750Y-46672500D03*
X85248750Y-49212500D03*
X85248750Y-51752500D03*
X85248750Y-54292500D03*
X85248750Y-56832500D03*
X100488750Y-56832500D03*
X100488750Y-54292500D03*
X100488750Y-51752500D03*
X100488750Y-49212500D03*
X100488750Y-46672500D03*
X100488750Y-44132500D03*
X100488750Y-41592500D03*
X100488750Y-39052500D03*
X100488750Y-36512500D03*
X100488750Y-33972500D03*
X100488750Y-31432500D03*
X100488750Y-28892500D03*
D21*
X113109375Y-70246875D03*
M02*
