M48
; DRILL file {KiCad (6.0.5)} date Sun May  8 01:16:04 2022
; FORMAT={-:-/ absolute / metric / decimal}
; #@! TF.CreationDate,2022-05-08T01:16:04+03:00
; #@! TF.GenerationSoftware,Kicad,Pcbnew,(6.0.5)
; #@! TF.FileFunction,NonPlated,1,2,NPTH
FMAT,2
METRIC
; #@! TA.AperFunction,NonPlated,NPTH,ComponentDrill
T1C1.750
; #@! TA.AperFunction,NonPlated,NPTH,ComponentDrill
T2C3.048
; #@! TA.AperFunction,NonPlated,NPTH,ComponentDrill
T3C3.988
%
G90
G05
T1
X44.926Y-78.581
X44.926Y-97.631
X44.926Y-116.681
X44.926Y-135.731
X55.086Y-78.581
X55.086Y-97.631
X55.086Y-116.681
X55.086Y-135.731
X63.976Y-78.581
X63.976Y-97.631
X63.976Y-116.681
X63.976Y-135.731
X74.136Y-78.581
X74.136Y-97.631
X74.136Y-116.681
X74.136Y-135.731
X82.92Y-135.731
X83.026Y-78.581
X83.026Y-97.631
X83.026Y-116.681
X87.789Y-35.719
X87.789Y-54.769
X93.08Y-135.731
X93.186Y-78.581
X93.186Y-97.631
X93.186Y-116.681
X97.949Y-35.719
X97.949Y-54.769
X106.839Y-35.719
X106.839Y-54.769
X106.839Y-116.681
X106.839Y-135.731
X111.919Y-83.026
X111.919Y-93.186
X116.999Y-35.719
X116.999Y-54.769
X116.999Y-116.681
X116.999Y-135.731
T2
X118.904Y-76.2
X118.904Y-100.012
T3
X50.006Y-78.581
X50.006Y-97.631
X50.006Y-116.681
X50.006Y-135.731
X69.056Y-78.581
X69.056Y-97.631
X69.056Y-116.681
X69.056Y-135.731
X88.0Y-135.731
X88.106Y-78.581
X88.106Y-97.631
X88.106Y-116.681
X92.869Y-35.719
X92.869Y-54.769
X103.664Y-76.2
X103.664Y-100.012
X111.919Y-35.719
X111.919Y-54.769
X111.919Y-88.106
X111.919Y-116.681
X111.919Y-135.731
T0
M30
