G04 #@! TF.GenerationSoftware,KiCad,Pcbnew,(6.0.5)*
G04 #@! TF.CreationDate,2022-05-08T01:15:56+03:00*
G04 #@! TF.ProjectId,SIN-PAD,53494e2d-5041-4442-9e6b-696361645f70,rev?*
G04 #@! TF.SameCoordinates,Original*
G04 #@! TF.FileFunction,Copper,L1,Top*
G04 #@! TF.FilePolarity,Positive*
%FSLAX46Y46*%
G04 Gerber Fmt 4.6, Leading zero omitted, Abs format (unit mm)*
G04 Created by KiCad (PCBNEW (6.0.5)) date 2022-05-08 01:15:56*
%MOMM*%
%LPD*%
G01*
G04 APERTURE LIST*
G04 Aperture macros list*
%AMRoundRect*
0 Rectangle with rounded corners*
0 $1 Rounding radius*
0 $2 $3 $4 $5 $6 $7 $8 $9 X,Y pos of 4 corners*
0 Add a 4 corners polygon primitive as box body*
4,1,4,$2,$3,$4,$5,$6,$7,$8,$9,$2,$3,0*
0 Add four circle primitives for the rounded corners*
1,1,$1+$1,$2,$3*
1,1,$1+$1,$4,$5*
1,1,$1+$1,$6,$7*
1,1,$1+$1,$8,$9*
0 Add four rect primitives between the rounded corners*
20,1,$1+$1,$2,$3,$4,$5,0*
20,1,$1+$1,$4,$5,$6,$7,0*
20,1,$1+$1,$6,$7,$8,$9,0*
20,1,$1+$1,$8,$9,$2,$3,0*%
G04 Aperture macros list end*
G04 #@! TA.AperFunction,ComponentPad*
%ADD10R,1.600000X1.600000*%
G04 #@! TD*
G04 #@! TA.AperFunction,ComponentPad*
%ADD11C,1.600000*%
G04 #@! TD*
G04 #@! TA.AperFunction,ComponentPad*
%ADD12C,2.250000*%
G04 #@! TD*
G04 #@! TA.AperFunction,ComponentPad*
%ADD13RoundRect,0.250001X-0.899999X-0.899999X0.899999X-0.899999X0.899999X0.899999X-0.899999X0.899999X0*%
G04 #@! TD*
G04 #@! TA.AperFunction,ComponentPad*
%ADD14R,1.752600X1.752600*%
G04 #@! TD*
G04 #@! TA.AperFunction,ComponentPad*
%ADD15C,1.752600*%
G04 #@! TD*
G04 #@! TA.AperFunction,ComponentPad*
%ADD16RoundRect,0.250001X0.899999X0.899999X-0.899999X0.899999X-0.899999X-0.899999X0.899999X-0.899999X0*%
G04 #@! TD*
G04 #@! TA.AperFunction,Conductor*
%ADD17C,0.250000*%
G04 #@! TD*
G04 APERTURE END LIST*
D10*
X100875000Y-66675000D03*
D11*
X108675000Y-66675000D03*
D10*
X103584375Y-39618750D03*
D11*
X103584375Y-31818750D03*
D10*
X110190625Y-45243750D03*
D11*
X117990625Y-45243750D03*
D10*
X103584375Y-58668750D03*
D11*
X103584375Y-50868750D03*
D10*
X110400000Y-64293750D03*
D11*
X118200000Y-64293750D03*
D10*
X59531250Y-82481250D03*
D11*
X59531250Y-74681250D03*
D10*
X78581250Y-82481250D03*
D11*
X78581250Y-74681250D03*
D10*
X97631250Y-82481250D03*
D11*
X97631250Y-74681250D03*
D10*
X102393750Y-92006250D03*
D11*
X102393750Y-84206250D03*
D10*
X59531250Y-101531250D03*
D11*
X59531250Y-93731250D03*
D10*
X78581250Y-101531250D03*
D11*
X78581250Y-93731250D03*
D10*
X97631250Y-101531250D03*
D11*
X97631250Y-93731250D03*
D10*
X59531250Y-120581250D03*
D11*
X59531250Y-112781250D03*
D10*
X78581250Y-120581250D03*
D11*
X78581250Y-112781250D03*
D10*
X97631250Y-120581250D03*
D11*
X97631250Y-112781250D03*
D10*
X102393750Y-120581250D03*
D11*
X102393750Y-112781250D03*
D10*
X59531250Y-139631250D03*
D11*
X59531250Y-131831250D03*
D10*
X78581250Y-139631250D03*
D11*
X78581250Y-131831250D03*
D10*
X97631250Y-139631250D03*
D11*
X97631250Y-131831250D03*
D10*
X102393750Y-139631250D03*
D11*
X102393750Y-131831250D03*
D12*
X89058750Y-33178750D03*
X95408750Y-30638750D03*
X108108750Y-33178750D03*
X114458750Y-30638750D03*
X89058750Y-52228750D03*
X95408750Y-49688750D03*
X46196250Y-76041250D03*
X52546250Y-73501250D03*
X65246250Y-76041250D03*
X71596250Y-73501250D03*
X84296250Y-76041250D03*
X90646250Y-73501250D03*
X114458750Y-84296250D03*
X116998750Y-90646250D03*
X46196250Y-95091250D03*
X52546250Y-92551250D03*
X65246250Y-95091250D03*
X71596250Y-92551250D03*
X84296250Y-95091250D03*
X90646250Y-92551250D03*
X46196250Y-114141250D03*
X52546250Y-111601250D03*
X65246250Y-114141250D03*
X71596250Y-111601250D03*
X84296250Y-114141250D03*
X90646250Y-111601250D03*
X108108750Y-114141250D03*
X114458750Y-111601250D03*
X46196250Y-133191250D03*
X52546250Y-130651250D03*
X65246250Y-133191250D03*
X71596250Y-130651250D03*
X84190000Y-133191250D03*
X90540000Y-130651250D03*
X108108750Y-133191250D03*
X114458750Y-130651250D03*
X108108750Y-52228750D03*
X114458750Y-49688750D03*
D13*
X117871875Y-70246875D03*
D14*
X85248750Y-28892500D03*
D15*
X85248750Y-31432500D03*
X85248750Y-33972500D03*
X85248750Y-36512500D03*
X85248750Y-39052500D03*
X85248750Y-41592500D03*
X85248750Y-44132500D03*
X85248750Y-46672500D03*
X85248750Y-49212500D03*
X85248750Y-51752500D03*
X85248750Y-54292500D03*
X85248750Y-56832500D03*
X100488750Y-56832500D03*
X100488750Y-54292500D03*
X100488750Y-51752500D03*
X100488750Y-49212500D03*
X100488750Y-46672500D03*
X100488750Y-44132500D03*
X100488750Y-41592500D03*
X100488750Y-39052500D03*
X100488750Y-36512500D03*
X100488750Y-33972500D03*
X100488750Y-31432500D03*
X100488750Y-28892500D03*
D16*
X113109375Y-70246875D03*
D17*
X95250000Y-99150000D02*
X97631250Y-101531250D01*
X100488750Y-46672500D02*
X95250000Y-51911250D01*
X95250000Y-51911250D02*
X95250000Y-99150000D01*
X99787500Y-49212500D02*
X95699520Y-53300480D01*
X95699520Y-70679851D02*
X99550480Y-74530811D01*
X99550480Y-74530811D02*
X99550480Y-118662020D01*
X100488750Y-49212500D02*
X99787500Y-49212500D01*
X99550480Y-118662020D02*
X97631250Y-120581250D01*
X95699520Y-53300480D02*
X95699520Y-70679851D01*
X100000000Y-120000000D02*
X100000000Y-74344614D01*
X102393750Y-139631250D02*
X101631250Y-139631250D01*
X100000000Y-74344614D02*
X96149040Y-70493654D01*
X99287939Y-137287939D02*
X99287939Y-120712061D01*
X96149040Y-70493654D02*
X96149040Y-54350960D01*
X98747500Y-51752500D02*
X100488750Y-51752500D01*
X96149040Y-54350960D02*
X98747500Y-51752500D01*
X101631250Y-139631250D02*
X99287939Y-137287939D01*
X99287939Y-120712061D02*
X100000000Y-120000000D01*
X84296250Y-114141250D02*
X84296250Y-95091250D01*
X84296250Y-133191250D02*
X84296250Y-114141250D01*
X89058750Y-52228750D02*
X89058750Y-33178750D01*
X85725000Y-52228750D02*
X85248750Y-51752500D01*
X84296250Y-76041250D02*
X89058750Y-71278750D01*
X89058750Y-52228750D02*
X85725000Y-52228750D01*
X89058750Y-71278750D02*
X89058750Y-52228750D01*
X84296250Y-95091250D02*
X84296250Y-76041250D01*
X108108750Y-52228750D02*
X102552500Y-52228750D01*
X114458750Y-84296250D02*
X116681250Y-82073750D01*
X117871875Y-67912573D02*
X108108750Y-58149448D01*
X108108750Y-133191250D02*
X108108750Y-114141250D01*
X116681250Y-72628125D02*
X117871875Y-71437500D01*
X117871875Y-70246875D02*
X117871875Y-67912573D01*
X108108750Y-114141250D02*
X114458750Y-107791250D01*
X108108750Y-58149448D02*
X108108750Y-52228750D01*
X114458750Y-107791250D02*
X114458750Y-84296250D01*
X116681250Y-82073750D02*
X116681250Y-72628125D01*
X102552500Y-52228750D02*
X100488750Y-54292500D01*
X108108750Y-52228750D02*
X108108750Y-33178750D01*
X117871875Y-71437500D02*
X117871875Y-70246875D01*
X83343750Y-69056250D02*
X80962500Y-71437500D01*
X85248750Y-46672500D02*
X83343750Y-48577500D01*
X46196250Y-72866250D02*
X47625000Y-71437500D01*
X46196250Y-114141250D02*
X46196250Y-95091250D01*
X47625000Y-71437500D02*
X80962500Y-71437500D01*
X46196250Y-114141250D02*
X46196250Y-133191250D01*
X83343750Y-48577500D02*
X83343750Y-69056250D01*
X46196250Y-76041250D02*
X46196250Y-95091250D01*
X46196250Y-76041250D02*
X46196250Y-72866250D01*
X65246250Y-76041250D02*
X79242980Y-76041250D01*
X65246250Y-76041250D02*
X65246250Y-95091250D01*
X65246250Y-95091250D02*
X65246250Y-114141250D01*
X83793270Y-71490960D02*
X83793270Y-50667980D01*
X65246250Y-114141250D02*
X65246250Y-133191250D01*
X79242980Y-76041250D02*
X83793270Y-71490960D01*
X83793270Y-50667980D02*
X85248750Y-49212500D01*
M02*
